<?xml version="1.0" encoding="utf-8" standalone="no"?>
<!DOCTYPE svg PUBLIC "-//W3C//DTD SVG 1.1//EN"
  "http://www.w3.org/Graphics/SVG/1.1/DTD/svg11.dtd">
<svg xmlns:xlink="http://www.w3.org/1999/xlink" width="576pt" height="432pt" viewBox="0 0 576 432" xmlns="http://www.w3.org/2000/svg" version="1.1">
 <metadata>
  <rdf:RDF xmlns:dc="http://purl.org/dc/elements/1.1/" xmlns:cc="http://creativecommons.org/ns#" xmlns:rdf="http://www.w3.org/1999/02/22-rdf-syntax-ns#">
   <cc:Work>
    <dc:type rdf:resource="http://purl.org/dc/dcmitype/StillImage"/>
    <dc:date>2023-01-22T21:08:11.100005</dc:date>
    <dc:format>image/svg+xml</dc:format>
    <dc:creator>
     <cc:Agent>
      <dc:title>Matplotlib v3.5.1, https://matplotlib.org/</dc:title>
     </cc:Agent>
    </dc:creator>
   </cc:Work>
  </rdf:RDF>
 </metadata>
 <defs>
  <style type="text/css">*{stroke-linejoin: round; stroke-linecap: butt}</style>
 </defs>
 <g id="figure_1">
  <g id="patch_1">
   <path d="M 0 432 
L 576 432 
L 576 0 
L 0 0 
z
" style="fill: #ffffff"/>
  </g>
  <g id="axes_1">
   <g id="patch_2">
    <path d="M 72 187.74 
L 258 187.74 
L 258 51.84 
L 72 51.84 
z
" style="fill: #ffffff"/>
   </g>
   <g id="matplotlib.axis_1">
    <g id="xtick_1">
     <g id="line2d_1">
      <defs>
       <path id="mca55b4d909" d="M 0 0 
L 0 3.5 
" style="stroke: #000000; stroke-width: 0.8"/>
      </defs>
      <g>
       <use xlink:href="#mca55b4d909" x="122.727273" y="187.74" style="stroke: #000000; stroke-width: 0.8"/>
      </g>
     </g>
     <g id="text_1">
      <!-- 240 -->
      <g transform="translate(109.366023 205.377813)scale(0.14 -0.14)">
       <defs>
        <path id="DejaVuSans-32" d="M 1228 531 
L 3431 531 
L 3431 0 
L 469 0 
L 469 531 
Q 828 903 1448 1529 
Q 2069 2156 2228 2338 
Q 2531 2678 2651 2914 
Q 2772 3150 2772 3378 
Q 2772 3750 2511 3984 
Q 2250 4219 1831 4219 
Q 1534 4219 1204 4116 
Q 875 4013 500 3803 
L 500 4441 
Q 881 4594 1212 4672 
Q 1544 4750 1819 4750 
Q 2544 4750 2975 4387 
Q 3406 4025 3406 3419 
Q 3406 3131 3298 2873 
Q 3191 2616 2906 2266 
Q 2828 2175 2409 1742 
Q 1991 1309 1228 531 
z
" transform="scale(0.015625)"/>
        <path id="DejaVuSans-34" d="M 2419 4116 
L 825 1625 
L 2419 1625 
L 2419 4116 
z
M 2253 4666 
L 3047 4666 
L 3047 1625 
L 3713 1625 
L 3713 1100 
L 3047 1100 
L 3047 0 
L 2419 0 
L 2419 1100 
L 313 1100 
L 313 1709 
L 2253 4666 
z
" transform="scale(0.015625)"/>
        <path id="DejaVuSans-30" d="M 2034 4250 
Q 1547 4250 1301 3770 
Q 1056 3291 1056 2328 
Q 1056 1369 1301 889 
Q 1547 409 2034 409 
Q 2525 409 2770 889 
Q 3016 1369 3016 2328 
Q 3016 3291 2770 3770 
Q 2525 4250 2034 4250 
z
M 2034 4750 
Q 2819 4750 3233 4129 
Q 3647 3509 3647 2328 
Q 3647 1150 3233 529 
Q 2819 -91 2034 -91 
Q 1250 -91 836 529 
Q 422 1150 422 2328 
Q 422 3509 836 4129 
Q 1250 4750 2034 4750 
z
" transform="scale(0.015625)"/>
       </defs>
       <use xlink:href="#DejaVuSans-32"/>
       <use xlink:href="#DejaVuSans-34" x="63.623047"/>
       <use xlink:href="#DejaVuSans-30" x="127.246094"/>
      </g>
     </g>
    </g>
    <g id="xtick_2">
     <g id="line2d_2">
      <g>
       <use xlink:href="#mca55b4d909" x="207.272727" y="187.74" style="stroke: #000000; stroke-width: 0.8"/>
      </g>
     </g>
     <g id="text_2">
      <!-- 260 -->
      <g transform="translate(193.911477 205.377813)scale(0.14 -0.14)">
       <defs>
        <path id="DejaVuSans-36" d="M 2113 2584 
Q 1688 2584 1439 2293 
Q 1191 2003 1191 1497 
Q 1191 994 1439 701 
Q 1688 409 2113 409 
Q 2538 409 2786 701 
Q 3034 994 3034 1497 
Q 3034 2003 2786 2293 
Q 2538 2584 2113 2584 
z
M 3366 4563 
L 3366 3988 
Q 3128 4100 2886 4159 
Q 2644 4219 2406 4219 
Q 1781 4219 1451 3797 
Q 1122 3375 1075 2522 
Q 1259 2794 1537 2939 
Q 1816 3084 2150 3084 
Q 2853 3084 3261 2657 
Q 3669 2231 3669 1497 
Q 3669 778 3244 343 
Q 2819 -91 2113 -91 
Q 1303 -91 875 529 
Q 447 1150 447 2328 
Q 447 3434 972 4092 
Q 1497 4750 2381 4750 
Q 2619 4750 2861 4703 
Q 3103 4656 3366 4563 
z
" transform="scale(0.015625)"/>
       </defs>
       <use xlink:href="#DejaVuSans-32"/>
       <use xlink:href="#DejaVuSans-36" x="63.623047"/>
       <use xlink:href="#DejaVuSans-30" x="127.246094"/>
      </g>
     </g>
    </g>
    <g id="text_3">
     <!-- $E_{kin} \, \mathrm{[MeV]}$ -->
     <g transform="translate(126.52 224.446875)scale(0.16 -0.16)">
      <defs>
       <path id="DejaVuSans-Oblique-45" d="M 1081 4666 
L 4031 4666 
L 3928 4134 
L 1606 4134 
L 1338 2753 
L 3566 2753 
L 3463 2222 
L 1234 2222 
L 909 531 
L 3284 531 
L 3181 0 
L 172 0 
L 1081 4666 
z
" transform="scale(0.015625)"/>
       <path id="DejaVuSans-Oblique-6b" d="M 1172 4863 
L 1747 4863 
L 1197 2028 
L 3169 3500 
L 3916 3500 
L 1716 1825 
L 3322 0 
L 2625 0 
L 1131 1709 
L 800 0 
L 225 0 
L 1172 4863 
z
" transform="scale(0.015625)"/>
       <path id="DejaVuSans-Oblique-69" d="M 1172 4863 
L 1747 4863 
L 1606 4134 
L 1031 4134 
L 1172 4863 
z
M 909 3500 
L 1484 3500 
L 800 0 
L 225 0 
L 909 3500 
z
" transform="scale(0.015625)"/>
       <path id="DejaVuSans-Oblique-6e" d="M 3566 2113 
L 3156 0 
L 2578 0 
L 2988 2091 
Q 3016 2238 3031 2350 
Q 3047 2463 3047 2528 
Q 3047 2791 2881 2937 
Q 2716 3084 2419 3084 
Q 1956 3084 1622 2776 
Q 1288 2469 1184 1941 
L 800 0 
L 225 0 
L 903 3500 
L 1478 3500 
L 1363 2950 
Q 1603 3253 1940 3418 
Q 2278 3584 2650 3584 
Q 3113 3584 3367 3334 
Q 3622 3084 3622 2631 
Q 3622 2519 3608 2391 
Q 3594 2263 3566 2113 
z
" transform="scale(0.015625)"/>
       <path id="DejaVuSans-5b" d="M 550 4863 
L 1875 4863 
L 1875 4416 
L 1125 4416 
L 1125 -397 
L 1875 -397 
L 1875 -844 
L 550 -844 
L 550 4863 
z
" transform="scale(0.015625)"/>
       <path id="DejaVuSans-4d" d="M 628 4666 
L 1569 4666 
L 2759 1491 
L 3956 4666 
L 4897 4666 
L 4897 0 
L 4281 0 
L 4281 4097 
L 3078 897 
L 2444 897 
L 1241 4097 
L 1241 0 
L 628 0 
L 628 4666 
z
" transform="scale(0.015625)"/>
       <path id="DejaVuSans-65" d="M 3597 1894 
L 3597 1613 
L 953 1613 
Q 991 1019 1311 708 
Q 1631 397 2203 397 
Q 2534 397 2845 478 
Q 3156 559 3463 722 
L 3463 178 
Q 3153 47 2828 -22 
Q 2503 -91 2169 -91 
Q 1331 -91 842 396 
Q 353 884 353 1716 
Q 353 2575 817 3079 
Q 1281 3584 2069 3584 
Q 2775 3584 3186 3129 
Q 3597 2675 3597 1894 
z
M 3022 2063 
Q 3016 2534 2758 2815 
Q 2500 3097 2075 3097 
Q 1594 3097 1305 2825 
Q 1016 2553 972 2059 
L 3022 2063 
z
" transform="scale(0.015625)"/>
       <path id="DejaVuSans-56" d="M 1831 0 
L 50 4666 
L 709 4666 
L 2188 738 
L 3669 4666 
L 4325 4666 
L 2547 0 
L 1831 0 
z
" transform="scale(0.015625)"/>
       <path id="DejaVuSans-5d" d="M 1947 4863 
L 1947 -844 
L 622 -844 
L 622 -397 
L 1369 -397 
L 1369 4416 
L 622 4416 
L 622 4863 
L 1947 4863 
z
" transform="scale(0.015625)"/>
      </defs>
      <use xlink:href="#DejaVuSans-Oblique-45" transform="translate(0 0.015625)"/>
      <use xlink:href="#DejaVuSans-Oblique-6b" transform="translate(63.183594 -16.390625)scale(0.7)"/>
      <use xlink:href="#DejaVuSans-Oblique-69" transform="translate(103.720703 -16.390625)scale(0.7)"/>
      <use xlink:href="#DejaVuSans-Oblique-6e" transform="translate(123.168945 -16.390625)scale(0.7)"/>
      <use xlink:href="#DejaVuSans-5b" transform="translate(186.504231 0.015625)"/>
      <use xlink:href="#DejaVuSans-4d" transform="translate(225.517903 0.015625)"/>
      <use xlink:href="#DejaVuSans-65" transform="translate(311.7972 0.015625)"/>
      <use xlink:href="#DejaVuSans-56" transform="translate(373.320637 0.015625)"/>
      <use xlink:href="#DejaVuSans-5d" transform="translate(441.72884 0.015625)"/>
     </g>
    </g>
   </g>
   <g id="matplotlib.axis_2">
    <g id="ytick_1">
     <g id="line2d_3">
      <defs>
       <path id="m81fdedae2c" d="M 0 0 
L -3.5 0 
" style="stroke: #000000; stroke-width: 0.8"/>
      </defs>
      <g>
       <use xlink:href="#m81fdedae2c" x="72" y="181.564615" style="stroke: #000000; stroke-width: 0.8"/>
      </g>
     </g>
     <g id="text_4">
      <!-- 0 -->
      <g transform="translate(56.0925 186.883521)scale(0.14 -0.14)">
       <use xlink:href="#DejaVuSans-30"/>
      </g>
     </g>
    </g>
    <g id="ytick_2">
     <g id="line2d_4">
      <g>
       <use xlink:href="#m81fdedae2c" x="72" y="128.828583" style="stroke: #000000; stroke-width: 0.8"/>
      </g>
     </g>
     <g id="text_5">
      <!-- 1 -->
      <g transform="translate(56.0925 134.147489)scale(0.14 -0.14)">
       <defs>
        <path id="DejaVuSans-31" d="M 794 531 
L 1825 531 
L 1825 4091 
L 703 3866 
L 703 4441 
L 1819 4666 
L 2450 4666 
L 2450 531 
L 3481 531 
L 3481 0 
L 794 0 
L 794 531 
z
" transform="scale(0.015625)"/>
       </defs>
       <use xlink:href="#DejaVuSans-31"/>
      </g>
     </g>
    </g>
    <g id="ytick_3">
     <g id="line2d_5">
      <g>
       <use xlink:href="#m81fdedae2c" x="72" y="76.092551" style="stroke: #000000; stroke-width: 0.8"/>
      </g>
     </g>
     <g id="text_6">
      <!-- 2 -->
      <g transform="translate(56.0925 81.411458)scale(0.14 -0.14)">
       <use xlink:href="#DejaVuSans-32"/>
      </g>
     </g>
    </g>
    <g id="text_7">
     <!-- electron count -->
     <g transform="translate(48.765 177.57875)rotate(-90)scale(0.16 -0.16)">
      <defs>
       <path id="DejaVuSans-6c" d="M 603 4863 
L 1178 4863 
L 1178 0 
L 603 0 
L 603 4863 
z
" transform="scale(0.015625)"/>
       <path id="DejaVuSans-63" d="M 3122 3366 
L 3122 2828 
Q 2878 2963 2633 3030 
Q 2388 3097 2138 3097 
Q 1578 3097 1268 2742 
Q 959 2388 959 1747 
Q 959 1106 1268 751 
Q 1578 397 2138 397 
Q 2388 397 2633 464 
Q 2878 531 3122 666 
L 3122 134 
Q 2881 22 2623 -34 
Q 2366 -91 2075 -91 
Q 1284 -91 818 406 
Q 353 903 353 1747 
Q 353 2603 823 3093 
Q 1294 3584 2113 3584 
Q 2378 3584 2631 3529 
Q 2884 3475 3122 3366 
z
" transform="scale(0.015625)"/>
       <path id="DejaVuSans-74" d="M 1172 4494 
L 1172 3500 
L 2356 3500 
L 2356 3053 
L 1172 3053 
L 1172 1153 
Q 1172 725 1289 603 
Q 1406 481 1766 481 
L 2356 481 
L 2356 0 
L 1766 0 
Q 1100 0 847 248 
Q 594 497 594 1153 
L 594 3053 
L 172 3053 
L 172 3500 
L 594 3500 
L 594 4494 
L 1172 4494 
z
" transform="scale(0.015625)"/>
       <path id="DejaVuSans-72" d="M 2631 2963 
Q 2534 3019 2420 3045 
Q 2306 3072 2169 3072 
Q 1681 3072 1420 2755 
Q 1159 2438 1159 1844 
L 1159 0 
L 581 0 
L 581 3500 
L 1159 3500 
L 1159 2956 
Q 1341 3275 1631 3429 
Q 1922 3584 2338 3584 
Q 2397 3584 2469 3576 
Q 2541 3569 2628 3553 
L 2631 2963 
z
" transform="scale(0.015625)"/>
       <path id="DejaVuSans-6f" d="M 1959 3097 
Q 1497 3097 1228 2736 
Q 959 2375 959 1747 
Q 959 1119 1226 758 
Q 1494 397 1959 397 
Q 2419 397 2687 759 
Q 2956 1122 2956 1747 
Q 2956 2369 2687 2733 
Q 2419 3097 1959 3097 
z
M 1959 3584 
Q 2709 3584 3137 3096 
Q 3566 2609 3566 1747 
Q 3566 888 3137 398 
Q 2709 -91 1959 -91 
Q 1206 -91 779 398 
Q 353 888 353 1747 
Q 353 2609 779 3096 
Q 1206 3584 1959 3584 
z
" transform="scale(0.015625)"/>
       <path id="DejaVuSans-6e" d="M 3513 2113 
L 3513 0 
L 2938 0 
L 2938 2094 
Q 2938 2591 2744 2837 
Q 2550 3084 2163 3084 
Q 1697 3084 1428 2787 
Q 1159 2491 1159 1978 
L 1159 0 
L 581 0 
L 581 3500 
L 1159 3500 
L 1159 2956 
Q 1366 3272 1645 3428 
Q 1925 3584 2291 3584 
Q 2894 3584 3203 3211 
Q 3513 2838 3513 2113 
z
" transform="scale(0.015625)"/>
       <path id="DejaVuSans-20" transform="scale(0.015625)"/>
       <path id="DejaVuSans-75" d="M 544 1381 
L 544 3500 
L 1119 3500 
L 1119 1403 
Q 1119 906 1312 657 
Q 1506 409 1894 409 
Q 2359 409 2629 706 
Q 2900 1003 2900 1516 
L 2900 3500 
L 3475 3500 
L 3475 0 
L 2900 0 
L 2900 538 
Q 2691 219 2414 64 
Q 2138 -91 1772 -91 
Q 1169 -91 856 284 
Q 544 659 544 1381 
z
M 1991 3584 
L 1991 3584 
z
" transform="scale(0.015625)"/>
      </defs>
      <use xlink:href="#DejaVuSans-65"/>
      <use xlink:href="#DejaVuSans-6c" x="61.523438"/>
      <use xlink:href="#DejaVuSans-65" x="89.306641"/>
      <use xlink:href="#DejaVuSans-63" x="150.830078"/>
      <use xlink:href="#DejaVuSans-74" x="205.810547"/>
      <use xlink:href="#DejaVuSans-72" x="245.019531"/>
      <use xlink:href="#DejaVuSans-6f" x="283.882812"/>
      <use xlink:href="#DejaVuSans-6e" x="345.064453"/>
      <use xlink:href="#DejaVuSans-20" x="408.443359"/>
      <use xlink:href="#DejaVuSans-63" x="440.230469"/>
      <use xlink:href="#DejaVuSans-6f" x="495.210938"/>
      <use xlink:href="#DejaVuSans-75" x="556.392578"/>
      <use xlink:href="#DejaVuSans-6e" x="619.771484"/>
      <use xlink:href="#DejaVuSans-74" x="683.150391"/>
     </g>
    </g>
    <g id="text_8">
     <!-- 1e8 -->
     <g transform="translate(72 48.84)scale(0.14 -0.14)">
      <defs>
       <path id="DejaVuSans-38" d="M 2034 2216 
Q 1584 2216 1326 1975 
Q 1069 1734 1069 1313 
Q 1069 891 1326 650 
Q 1584 409 2034 409 
Q 2484 409 2743 651 
Q 3003 894 3003 1313 
Q 3003 1734 2745 1975 
Q 2488 2216 2034 2216 
z
M 1403 2484 
Q 997 2584 770 2862 
Q 544 3141 544 3541 
Q 544 4100 942 4425 
Q 1341 4750 2034 4750 
Q 2731 4750 3128 4425 
Q 3525 4100 3525 3541 
Q 3525 3141 3298 2862 
Q 3072 2584 2669 2484 
Q 3125 2378 3379 2068 
Q 3634 1759 3634 1313 
Q 3634 634 3220 271 
Q 2806 -91 2034 -91 
Q 1263 -91 848 271 
Q 434 634 434 1313 
Q 434 1759 690 2068 
Q 947 2378 1403 2484 
z
M 1172 3481 
Q 1172 3119 1398 2916 
Q 1625 2713 2034 2713 
Q 2441 2713 2670 2916 
Q 2900 3119 2900 3481 
Q 2900 3844 2670 4047 
Q 2441 4250 2034 4250 
Q 1625 4250 1398 4047 
Q 1172 3844 1172 3481 
z
" transform="scale(0.015625)"/>
      </defs>
      <use xlink:href="#DejaVuSans-31"/>
      <use xlink:href="#DejaVuSans-65" x="63.623047"/>
      <use xlink:href="#DejaVuSans-38" x="125.146484"/>
     </g>
    </g>
   </g>
   <g id="line2d_6">
    <path d="M 80.454545 181.562727 
L 82.162534 181.561674 
L 83.870523 181.560073 
L 85.578512 181.557665 
L 87.286501 181.554075 
L 88.99449 181.548776 
L 90.702479 181.541026 
L 92.410468 181.5298 
L 94.118457 181.513695 
L 95.826446 181.490812 
L 97.534435 181.45861 
L 99.242424 181.413728 
L 100.950413 181.351778 
L 102.658402 181.2671 
L 104.366391 181.15248 
L 106.07438 180.998846 
L 107.782369 180.79494 
L 109.490358 180.526981 
L 111.198347 180.178339 
L 112.906336 179.729245 
L 114.614325 179.156561 
L 116.322314 178.433657 
L 118.030303 177.530419 
L 119.738292 176.413452 
L 121.446281 175.046497 
L 123.15427 173.391122 
L 124.862259 171.407702 
L 126.570248 169.056716 
L 128.278237 166.300361 
L 129.986226 163.104458 
L 131.694215 159.440609 
L 133.402204 155.288526 
L 135.110193 150.638435 
L 136.818182 145.493431 
L 138.526171 139.871619 
L 140.23416 133.807906 
L 141.942149 127.355257 
L 143.650138 120.585276 
L 145.358127 113.587967 
L 147.066116 106.470595 
L 148.774105 99.355581 
L 150.482094 92.377459 
L 152.190083 85.678953 
L 153.898072 79.406327 
L 155.606061 73.704192 
L 157.31405 68.710028 
L 159.022039 64.548711 
L 160.730028 61.327333 
L 162.438017 59.130629 
L 164.146006 58.017273 
L 165.853994 58.017273 
L 167.561983 59.130629 
L 169.269972 61.327333 
L 170.977961 64.548711 
L 172.68595 68.710028 
L 174.393939 73.704192 
L 176.101928 79.406327 
L 177.809917 85.678953 
L 179.517906 92.377459 
L 181.225895 99.355581 
L 182.933884 106.470595 
L 184.641873 113.587967 
L 186.349862 120.585276 
L 188.057851 127.355257 
L 189.76584 133.807906 
L 191.473829 139.871619 
L 193.181818 145.493431 
L 194.889807 150.638435 
L 196.597796 155.288526 
L 198.305785 159.440609 
L 200.013774 163.104458 
L 201.721763 166.300361 
L 203.429752 169.056716 
L 205.137741 171.407702 
L 206.84573 173.391122 
L 208.553719 175.046497 
L 210.261708 176.413452 
L 211.969697 177.530419 
L 213.677686 178.433657 
L 215.385675 179.156561 
L 217.093664 179.729245 
L 218.801653 180.178339 
L 220.509642 180.526981 
L 222.217631 180.79494 
L 223.92562 180.998846 
L 225.633609 181.15248 
L 227.341598 181.2671 
L 229.049587 181.351778 
L 230.757576 181.413728 
L 232.465565 181.45861 
L 234.173554 181.490812 
L 235.881543 181.513695 
L 237.589532 181.5298 
L 239.297521 181.541026 
L 241.00551 181.548776 
L 242.713499 181.554075 
L 244.421488 181.557665 
L 246.129477 181.560073 
L 247.837466 181.561674 
L 249.545455 181.562727 
" clip-path="url(#p69d7acc916)" style="fill: none; stroke: #1f77b4; stroke-width: 1.5; stroke-linecap: square"/>
   </g>
   <g id="patch_3">
    <path d="M 72 187.74 
L 72 51.84 
" style="fill: none; stroke: #000000; stroke-width: 0.8; stroke-linejoin: miter; stroke-linecap: square"/>
   </g>
   <g id="patch_4">
    <path d="M 258 187.74 
L 258 51.84 
" style="fill: none; stroke: #000000; stroke-width: 0.8; stroke-linejoin: miter; stroke-linecap: square"/>
   </g>
   <g id="patch_5">
    <path d="M 72 187.74 
L 258 187.74 
" style="fill: none; stroke: #000000; stroke-width: 0.8; stroke-linejoin: miter; stroke-linecap: square"/>
   </g>
   <g id="patch_6">
    <path d="M 72 51.84 
L 258 51.84 
" style="fill: none; stroke: #000000; stroke-width: 0.8; stroke-linejoin: miter; stroke-linecap: square"/>
   </g>
  </g>
  <g id="axes_2">
   <g id="patch_7">
    <path d="M 332.4 187.74 
L 518.4 187.74 
L 518.4 51.84 
L 332.4 51.84 
z
" style="fill: #ffffff"/>
   </g>
   <g id="matplotlib.axis_3">
    <g id="xtick_3">
     <g id="line2d_7">
      <g>
       <use xlink:href="#mca55b4d909" x="369.036364" y="187.74" style="stroke: #000000; stroke-width: 0.8"/>
      </g>
     </g>
     <g id="text_9">
      <!-- −20 -->
      <g transform="translate(354.263082 205.377813)scale(0.14 -0.14)">
       <defs>
        <path id="DejaVuSans-2212" d="M 678 2272 
L 4684 2272 
L 4684 1741 
L 678 1741 
L 678 2272 
z
" transform="scale(0.015625)"/>
       </defs>
       <use xlink:href="#DejaVuSans-2212"/>
       <use xlink:href="#DejaVuSans-32" x="83.789062"/>
       <use xlink:href="#DejaVuSans-30" x="147.412109"/>
      </g>
     </g>
    </g>
    <g id="xtick_4">
     <g id="line2d_8">
      <g>
       <use xlink:href="#mca55b4d909" x="425.4" y="187.74" style="stroke: #000000; stroke-width: 0.8"/>
      </g>
     </g>
     <g id="text_10">
      <!-- 0 -->
      <g transform="translate(420.94625 205.377813)scale(0.14 -0.14)">
       <use xlink:href="#DejaVuSans-30"/>
      </g>
     </g>
    </g>
    <g id="xtick_5">
     <g id="line2d_9">
      <g>
       <use xlink:href="#mca55b4d909" x="481.763636" y="187.74" style="stroke: #000000; stroke-width: 0.8"/>
      </g>
     </g>
     <g id="text_11">
      <!-- 20 -->
      <g transform="translate(472.856136 205.377813)scale(0.14 -0.14)">
       <use xlink:href="#DejaVuSans-32"/>
       <use xlink:href="#DejaVuSans-30" x="63.623047"/>
      </g>
     </g>
    </g>
    <g id="text_12">
     <!-- $x, z \, \mathrm{[\mu m]}$ -->
     <g transform="translate(391.88 224.449375)scale(0.16 -0.16)">
      <defs>
       <path id="DejaVuSans-Oblique-78" d="M 3841 3500 
L 2234 1784 
L 3219 0 
L 2559 0 
L 1819 1388 
L 531 0 
L -166 0 
L 1556 1844 
L 641 3500 
L 1300 3500 
L 1972 2234 
L 3144 3500 
L 3841 3500 
z
" transform="scale(0.015625)"/>
       <path id="DejaVuSans-2c" d="M 750 794 
L 1409 794 
L 1409 256 
L 897 -744 
L 494 -744 
L 750 256 
L 750 794 
z
" transform="scale(0.015625)"/>
       <path id="DejaVuSans-Oblique-7a" d="M 744 3500 
L 3475 3500 
L 3372 2975 
L 738 459 
L 2913 459 
L 2822 0 
L -19 0 
L 84 525 
L 2719 3041 
L 653 3041 
L 744 3500 
z
" transform="scale(0.015625)"/>
       <path id="DejaVuSans-3bc" d="M 544 -1331 
L 544 3500 
L 1119 3500 
L 1119 1325 
Q 1119 872 1334 640 
Q 1550 409 1972 409 
Q 2434 409 2667 671 
Q 2900 934 2900 1459 
L 2900 3500 
L 3475 3500 
L 3475 806 
Q 3475 619 3529 530 
Q 3584 441 3700 441 
Q 3728 441 3778 458 
Q 3828 475 3916 513 
L 3916 50 
Q 3788 -22 3673 -56 
Q 3559 -91 3450 -91 
Q 3234 -91 3106 31 
Q 2978 153 2931 403 
Q 2775 156 2548 32 
Q 2322 -91 2016 -91 
Q 1697 -91 1473 31 
Q 1250 153 1119 397 
L 1119 -1331 
L 544 -1331 
z
" transform="scale(0.015625)"/>
       <path id="DejaVuSans-6d" d="M 3328 2828 
Q 3544 3216 3844 3400 
Q 4144 3584 4550 3584 
Q 5097 3584 5394 3201 
Q 5691 2819 5691 2113 
L 5691 0 
L 5113 0 
L 5113 2094 
Q 5113 2597 4934 2840 
Q 4756 3084 4391 3084 
Q 3944 3084 3684 2787 
Q 3425 2491 3425 1978 
L 3425 0 
L 2847 0 
L 2847 2094 
Q 2847 2600 2669 2842 
Q 2491 3084 2119 3084 
Q 1678 3084 1418 2786 
Q 1159 2488 1159 1978 
L 1159 0 
L 581 0 
L 581 3500 
L 1159 3500 
L 1159 2956 
Q 1356 3278 1631 3431 
Q 1906 3584 2284 3584 
Q 2666 3584 2933 3390 
Q 3200 3197 3328 2828 
z
" transform="scale(0.015625)"/>
      </defs>
      <use xlink:href="#DejaVuSans-Oblique-78" transform="translate(0 0.015625)"/>
      <use xlink:href="#DejaVuSans-2c" transform="translate(59.179688 0.015625)"/>
      <use xlink:href="#DejaVuSans-Oblique-7a" transform="translate(110.449219 0.015625)"/>
      <use xlink:href="#DejaVuSans-5b" transform="translate(179.175129 0.015625)"/>
      <use xlink:href="#DejaVuSans-3bc" transform="translate(218.188801 0.015625)"/>
      <use xlink:href="#DejaVuSans-6d" transform="translate(281.811848 0.015625)"/>
      <use xlink:href="#DejaVuSans-5d" transform="translate(379.223958 0.015625)"/>
     </g>
    </g>
   </g>
   <g id="matplotlib.axis_4">
    <g id="ytick_4">
     <g id="line2d_10">
      <g>
       <use xlink:href="#m81fdedae2c" x="332.4" y="181.57799" style="stroke: #000000; stroke-width: 0.8"/>
      </g>
     </g>
     <g id="text_13">
      <!-- 0.0 -->
      <g transform="translate(303.135625 186.896896)scale(0.14 -0.14)">
       <defs>
        <path id="DejaVuSans-2e" d="M 684 794 
L 1344 794 
L 1344 0 
L 684 0 
L 684 794 
z
" transform="scale(0.015625)"/>
       </defs>
       <use xlink:href="#DejaVuSans-30"/>
       <use xlink:href="#DejaVuSans-2e" x="63.623047"/>
       <use xlink:href="#DejaVuSans-30" x="95.410156"/>
      </g>
     </g>
    </g>
    <g id="ytick_5">
     <g id="line2d_11">
      <g>
       <use xlink:href="#m81fdedae2c" x="332.4" y="137.676975" style="stroke: #000000; stroke-width: 0.8"/>
      </g>
     </g>
     <g id="text_14">
      <!-- 0.5 -->
      <g transform="translate(303.135625 142.995881)scale(0.14 -0.14)">
       <defs>
        <path id="DejaVuSans-35" d="M 691 4666 
L 3169 4666 
L 3169 4134 
L 1269 4134 
L 1269 2991 
Q 1406 3038 1543 3061 
Q 1681 3084 1819 3084 
Q 2600 3084 3056 2656 
Q 3513 2228 3513 1497 
Q 3513 744 3044 326 
Q 2575 -91 1722 -91 
Q 1428 -91 1123 -41 
Q 819 9 494 109 
L 494 744 
Q 775 591 1075 516 
Q 1375 441 1709 441 
Q 2250 441 2565 725 
Q 2881 1009 2881 1497 
Q 2881 1984 2565 2268 
Q 2250 2553 1709 2553 
Q 1456 2553 1204 2497 
Q 953 2441 691 2322 
L 691 4666 
z
" transform="scale(0.015625)"/>
       </defs>
       <use xlink:href="#DejaVuSans-30"/>
       <use xlink:href="#DejaVuSans-2e" x="63.623047"/>
       <use xlink:href="#DejaVuSans-35" x="95.410156"/>
      </g>
     </g>
    </g>
    <g id="ytick_6">
     <g id="line2d_12">
      <g>
       <use xlink:href="#m81fdedae2c" x="332.4" y="93.775959" style="stroke: #000000; stroke-width: 0.8"/>
      </g>
     </g>
     <g id="text_15">
      <!-- 1.0 -->
      <g transform="translate(303.135625 99.094865)scale(0.14 -0.14)">
       <use xlink:href="#DejaVuSans-31"/>
       <use xlink:href="#DejaVuSans-2e" x="63.623047"/>
       <use xlink:href="#DejaVuSans-30" x="95.410156"/>
      </g>
     </g>
    </g>
    <g id="text_16">
     <!-- electron count -->
     <g transform="translate(295.808125 177.57875)rotate(-90)scale(0.16 -0.16)">
      <use xlink:href="#DejaVuSans-65"/>
      <use xlink:href="#DejaVuSans-6c" x="61.523438"/>
      <use xlink:href="#DejaVuSans-65" x="89.306641"/>
      <use xlink:href="#DejaVuSans-63" x="150.830078"/>
      <use xlink:href="#DejaVuSans-74" x="205.810547"/>
      <use xlink:href="#DejaVuSans-72" x="245.019531"/>
      <use xlink:href="#DejaVuSans-6f" x="283.882812"/>
      <use xlink:href="#DejaVuSans-6e" x="345.064453"/>
      <use xlink:href="#DejaVuSans-20" x="408.443359"/>
      <use xlink:href="#DejaVuSans-63" x="440.230469"/>
      <use xlink:href="#DejaVuSans-6f" x="495.210938"/>
      <use xlink:href="#DejaVuSans-75" x="556.392578"/>
      <use xlink:href="#DejaVuSans-6e" x="619.771484"/>
      <use xlink:href="#DejaVuSans-74" x="683.150391"/>
     </g>
    </g>
    <g id="text_17">
     <!-- 1e8 -->
     <g transform="translate(332.4 48.84)scale(0.14 -0.14)">
      <use xlink:href="#DejaVuSans-31"/>
      <use xlink:href="#DejaVuSans-65" x="63.623047"/>
      <use xlink:href="#DejaVuSans-38" x="125.146484"/>
     </g>
    </g>
   </g>
   <g id="line2d_13">
    <path d="M 340.854545 181.562727 
L 342.562534 181.556114 
L 344.270523 181.546866 
L 345.978512 181.534031 
L 347.686501 181.516358 
L 349.39449 181.492212 
L 351.102479 181.45948 
L 352.810468 181.415457 
L 354.518457 181.356712 
L 356.226446 181.278939 
L 357.934435 181.17679 
L 359.642424 181.043688 
L 361.350413 180.871636 
L 363.058402 180.651015 
L 364.766391 180.370392 
L 366.47438 180.016329 
L 368.182369 179.573238 
L 369.890358 179.023264 
L 371.598347 178.346243 
L 373.306336 177.519728 
L 375.014325 176.519134 
L 376.722314 175.317992 
L 378.430303 173.888356 
L 380.138292 172.201361 
L 381.846281 170.227951 
L 383.55427 167.939773 
L 385.262259 165.310242 
L 386.970248 162.315748 
L 388.678237 158.936977 
L 390.386226 155.160324 
L 392.094215 150.979314 
L 393.802204 146.395999 
L 395.510193 141.422236 
L 397.218182 136.080783 
L 398.926171 130.40612 
L 400.63416 124.444937 
L 402.342149 118.256203 
L 404.050138 111.910769 
L 405.758127 105.490475 
L 407.466116 99.086737 
L 409.174105 92.798633 
L 410.882094 86.730535 
L 412.590083 80.989345 
L 414.298072 75.681437 
L 416.006061 70.909425 
L 417.71405 66.768886 
L 419.422039 63.345193 
L 421.130028 60.710587 
L 422.838017 58.921647 
L 424.546006 58.017273 
L 426.253994 58.017273 
L 427.961983 58.921647 
L 429.669972 60.710587 
L 431.377961 63.345193 
L 433.08595 66.768886 
L 434.793939 70.909425 
L 436.501928 75.681437 
L 438.209917 80.989345 
L 439.917906 86.730535 
L 441.625895 92.798633 
L 443.333884 99.086737 
L 445.041873 105.490475 
L 446.749862 111.910769 
L 448.457851 118.256203 
L 450.16584 124.444937 
L 451.873829 130.40612 
L 453.581818 136.080783 
L 455.289807 141.422236 
L 456.997796 146.395999 
L 458.705785 150.979314 
L 460.413774 155.160324 
L 462.121763 158.936977 
L 463.829752 162.315748 
L 465.537741 165.310242 
L 467.24573 167.939773 
L 468.953719 170.227951 
L 470.661708 172.201361 
L 472.369697 173.888356 
L 474.077686 175.317992 
L 475.785675 176.519134 
L 477.493664 177.519728 
L 479.201653 178.346243 
L 480.909642 179.023264 
L 482.617631 179.573238 
L 484.32562 180.016329 
L 486.033609 180.370392 
L 487.741598 180.651015 
L 489.449587 180.871636 
L 491.157576 181.043688 
L 492.865565 181.17679 
L 494.573554 181.278939 
L 496.281543 181.356712 
L 497.989532 181.415457 
L 499.697521 181.45948 
L 501.40551 181.492212 
L 503.113499 181.516358 
L 504.821488 181.534031 
L 506.529477 181.546866 
L 508.237466 181.556114 
L 509.945455 181.562727 
" clip-path="url(#pfd28d1e70a)" style="fill: none; stroke: #ff7f0e; stroke-width: 1.5; stroke-linecap: square"/>
   </g>
   <g id="patch_8">
    <path d="M 332.4 187.74 
L 332.4 51.84 
" style="fill: none; stroke: #000000; stroke-width: 0.8; stroke-linejoin: miter; stroke-linecap: square"/>
   </g>
   <g id="patch_9">
    <path d="M 518.4 187.74 
L 518.4 51.84 
" style="fill: none; stroke: #000000; stroke-width: 0.8; stroke-linejoin: miter; stroke-linecap: square"/>
   </g>
   <g id="patch_10">
    <path d="M 332.4 187.74 
L 518.4 187.74 
" style="fill: none; stroke: #000000; stroke-width: 0.8; stroke-linejoin: miter; stroke-linecap: square"/>
   </g>
   <g id="patch_11">
    <path d="M 332.4 51.84 
L 518.4 51.84 
" style="fill: none; stroke: #000000; stroke-width: 0.8; stroke-linejoin: miter; stroke-linecap: square"/>
   </g>
  </g>
  <g id="axes_3">
   <g id="patch_12">
    <path d="M 332.4 378 
L 518.4 378 
L 518.4 242.1 
L 332.4 242.1 
z
" style="fill: #ffffff"/>
   </g>
   <g id="matplotlib.axis_5">
    <g id="xtick_6">
     <g id="line2d_14">
      <g>
       <use xlink:href="#mca55b4d909" x="369.036364" y="378" style="stroke: #000000; stroke-width: 0.8"/>
      </g>
     </g>
     <g id="text_18">
      <!-- −20 -->
      <g transform="translate(354.263082 395.637812)scale(0.14 -0.14)">
       <use xlink:href="#DejaVuSans-2212"/>
       <use xlink:href="#DejaVuSans-32" x="83.789062"/>
       <use xlink:href="#DejaVuSans-30" x="147.412109"/>
      </g>
     </g>
    </g>
    <g id="xtick_7">
     <g id="line2d_15">
      <g>
       <use xlink:href="#mca55b4d909" x="425.4" y="378" style="stroke: #000000; stroke-width: 0.8"/>
      </g>
     </g>
     <g id="text_19">
      <!-- 0 -->
      <g transform="translate(420.94625 395.637812)scale(0.14 -0.14)">
       <use xlink:href="#DejaVuSans-30"/>
      </g>
     </g>
    </g>
    <g id="xtick_8">
     <g id="line2d_16">
      <g>
       <use xlink:href="#mca55b4d909" x="481.763636" y="378" style="stroke: #000000; stroke-width: 0.8"/>
      </g>
     </g>
     <g id="text_20">
      <!-- 20 -->
      <g transform="translate(472.856136 395.637812)scale(0.14 -0.14)">
       <use xlink:href="#DejaVuSans-32"/>
       <use xlink:href="#DejaVuSans-30" x="63.623047"/>
      </g>
     </g>
    </g>
    <g id="text_21">
     <!-- $y \, \mathrm{[\mu m]}$ -->
     <g transform="translate(400.2 414.709375)scale(0.16 -0.16)">
      <defs>
       <path id="DejaVuSans-Oblique-79" d="M 1588 -325 
Q 1188 -997 936 -1164 
Q 684 -1331 294 -1331 
L -159 -1331 
L -63 -850 
L 269 -850 
Q 509 -850 678 -719 
Q 847 -588 1056 -206 
L 1234 128 
L 459 3500 
L 1069 3500 
L 1650 819 
L 3256 3500 
L 3859 3500 
L 1588 -325 
z
" transform="scale(0.015625)"/>
      </defs>
      <use xlink:href="#DejaVuSans-Oblique-79" transform="translate(0 0.015625)"/>
      <use xlink:href="#DejaVuSans-5b" transform="translate(75.415364 0.015625)"/>
      <use xlink:href="#DejaVuSans-3bc" transform="translate(114.429036 0.015625)"/>
      <use xlink:href="#DejaVuSans-6d" transform="translate(178.052083 0.015625)"/>
      <use xlink:href="#DejaVuSans-5d" transform="translate(275.464192 0.015625)"/>
     </g>
    </g>
   </g>
   <g id="matplotlib.axis_6">
    <g id="ytick_7">
     <g id="line2d_17">
      <g>
       <use xlink:href="#m81fdedae2c" x="332.4" y="371.822727" style="stroke: #000000; stroke-width: 0.8"/>
      </g>
     </g>
     <g id="text_22">
      <!-- 0 -->
      <g transform="translate(316.4925 377.141634)scale(0.14 -0.14)">
       <use xlink:href="#DejaVuSans-30"/>
      </g>
     </g>
    </g>
    <g id="ytick_8">
     <g id="line2d_18">
      <g>
       <use xlink:href="#m81fdedae2c" x="332.4" y="308.206816" style="stroke: #000000; stroke-width: 0.8"/>
      </g>
     </g>
     <g id="text_23">
      <!-- 2 -->
      <g transform="translate(316.4925 313.525722)scale(0.14 -0.14)">
       <use xlink:href="#DejaVuSans-32"/>
      </g>
     </g>
    </g>
    <g id="ytick_9">
     <g id="line2d_19">
      <g>
       <use xlink:href="#m81fdedae2c" x="332.4" y="244.590904" style="stroke: #000000; stroke-width: 0.8"/>
      </g>
     </g>
     <g id="text_24">
      <!-- 4 -->
      <g transform="translate(316.4925 249.909811)scale(0.14 -0.14)">
       <use xlink:href="#DejaVuSans-34"/>
      </g>
     </g>
    </g>
    <g id="text_25">
     <!-- electron count -->
     <g transform="translate(309.165 367.83875)rotate(-90)scale(0.16 -0.16)">
      <use xlink:href="#DejaVuSans-65"/>
      <use xlink:href="#DejaVuSans-6c" x="61.523438"/>
      <use xlink:href="#DejaVuSans-65" x="89.306641"/>
      <use xlink:href="#DejaVuSans-63" x="150.830078"/>
      <use xlink:href="#DejaVuSans-74" x="205.810547"/>
      <use xlink:href="#DejaVuSans-72" x="245.019531"/>
      <use xlink:href="#DejaVuSans-6f" x="283.882812"/>
      <use xlink:href="#DejaVuSans-6e" x="345.064453"/>
      <use xlink:href="#DejaVuSans-20" x="408.443359"/>
      <use xlink:href="#DejaVuSans-63" x="440.230469"/>
      <use xlink:href="#DejaVuSans-6f" x="495.210938"/>
      <use xlink:href="#DejaVuSans-75" x="556.392578"/>
      <use xlink:href="#DejaVuSans-6e" x="619.771484"/>
      <use xlink:href="#DejaVuSans-74" x="683.150391"/>
     </g>
    </g>
    <g id="text_26">
     <!-- 1e8 -->
     <g transform="translate(332.4 239.1)scale(0.14 -0.14)">
      <use xlink:href="#DejaVuSans-31"/>
      <use xlink:href="#DejaVuSans-65" x="63.623047"/>
      <use xlink:href="#DejaVuSans-38" x="125.146484"/>
     </g>
    </g>
   </g>
   <g id="line2d_20">
    <path d="M 340.854545 371.822727 
L 342.562534 371.822727 
L 344.270523 371.822727 
L 345.978512 371.822727 
L 347.686501 371.822727 
L 349.39449 371.822727 
L 351.102479 371.822727 
L 352.810468 371.822727 
L 354.518457 371.822727 
L 356.226446 371.822727 
L 357.934435 371.822727 
L 359.642424 371.822727 
L 361.350413 371.822727 
L 363.058402 371.822727 
L 364.766391 371.822727 
L 366.47438 371.822727 
L 368.182369 371.822727 
L 369.890358 371.822727 
L 371.598347 371.822727 
L 373.306336 371.822727 
L 375.014325 371.822727 
L 376.722314 371.822727 
L 378.430303 371.822727 
L 380.138292 371.822727 
L 381.846281 371.822726 
L 383.55427 371.822722 
L 385.262259 371.822707 
L 386.970248 371.822654 
L 388.678237 371.822471 
L 390.386226 371.821886 
L 392.094215 371.820116 
L 393.802204 371.815066 
L 395.510193 371.801485 
L 397.218182 371.767074 
L 398.926171 371.68495 
L 400.63416 371.500428 
L 402.342149 371.110309 
L 404.050138 370.334719 
L 405.758127 368.885955 
L 407.466116 366.345893 
L 409.174105 362.171475 
L 410.882094 355.75212 
L 412.590083 346.536997 
L 414.298072 334.229179 
L 416.006061 319.009132 
L 417.71405 301.713893 
L 419.422039 283.881129 
L 421.130028 267.588449 
L 422.838017 255.082276 
L 424.546006 248.277273 
L 426.253994 248.277273 
L 427.961983 255.082276 
L 429.669972 267.588449 
L 431.377961 283.881129 
L 433.08595 301.713893 
L 434.793939 319.009132 
L 436.501928 334.229179 
L 438.209917 346.536997 
L 439.917906 355.75212 
L 441.625895 362.171475 
L 443.333884 366.345893 
L 445.041873 368.885955 
L 446.749862 370.334719 
L 448.457851 371.110309 
L 450.16584 371.500428 
L 451.873829 371.68495 
L 453.581818 371.767074 
L 455.289807 371.801485 
L 456.997796 371.815066 
L 458.705785 371.820116 
L 460.413774 371.821886 
L 462.121763 371.822471 
L 463.829752 371.822654 
L 465.537741 371.822707 
L 467.24573 371.822722 
L 468.953719 371.822726 
L 470.661708 371.822727 
L 472.369697 371.822727 
L 474.077686 371.822727 
L 475.785675 371.822727 
L 477.493664 371.822727 
L 479.201653 371.822727 
L 480.909642 371.822727 
L 482.617631 371.822727 
L 484.32562 371.822727 
L 486.033609 371.822727 
L 487.741598 371.822727 
L 489.449587 371.822727 
L 491.157576 371.822727 
L 492.865565 371.822727 
L 494.573554 371.822727 
L 496.281543 371.822727 
L 497.989532 371.822727 
L 499.697521 371.822727 
L 501.40551 371.822727 
L 503.113499 371.822727 
L 504.821488 371.822727 
L 506.529477 371.822727 
L 508.237466 371.822727 
L 509.945455 371.822727 
" clip-path="url(#p4745b432d1)" style="fill: none; stroke: #2ca02c; stroke-width: 1.5; stroke-linecap: square"/>
   </g>
   <g id="patch_13">
    <path d="M 332.4 378 
L 332.4 242.1 
" style="fill: none; stroke: #000000; stroke-width: 0.8; stroke-linejoin: miter; stroke-linecap: square"/>
   </g>
   <g id="patch_14">
    <path d="M 518.4 378 
L 518.4 242.1 
" style="fill: none; stroke: #000000; stroke-width: 0.8; stroke-linejoin: miter; stroke-linecap: square"/>
   </g>
   <g id="patch_15">
    <path d="M 332.4 378 
L 518.4 378 
" style="fill: none; stroke: #000000; stroke-width: 0.8; stroke-linejoin: miter; stroke-linecap: square"/>
   </g>
   <g id="patch_16">
    <path d="M 332.4 242.1 
L 518.4 242.1 
" style="fill: none; stroke: #000000; stroke-width: 0.8; stroke-linejoin: miter; stroke-linecap: square"/>
   </g>
  </g>
  <g id="axes_4">
   <g id="patch_17">
    <path d="M 72 378 
L 258 378 
L 258 242.1 
L 72 242.1 
z
" style="fill: #ffffff"/>
   </g>
   <g id="matplotlib.axis_7">
    <g id="xtick_9">
     <g id="line2d_21">
      <g>
       <use xlink:href="#mca55b4d909" x="112.159091" y="378" style="stroke: #000000; stroke-width: 0.8"/>
      </g>
     </g>
     <g id="text_27">
      <!-- −5 -->
      <g transform="translate(101.83956 395.637812)scale(0.14 -0.14)">
       <use xlink:href="#DejaVuSans-2212"/>
       <use xlink:href="#DejaVuSans-35" x="83.789062"/>
      </g>
     </g>
    </g>
    <g id="xtick_10">
     <g id="line2d_22">
      <g>
       <use xlink:href="#mca55b4d909" x="165" y="378" style="stroke: #000000; stroke-width: 0.8"/>
      </g>
     </g>
     <g id="text_28">
      <!-- 0 -->
      <g transform="translate(160.54625 395.637812)scale(0.14 -0.14)">
       <use xlink:href="#DejaVuSans-30"/>
      </g>
     </g>
    </g>
    <g id="xtick_11">
     <g id="line2d_23">
      <g>
       <use xlink:href="#mca55b4d909" x="217.840909" y="378" style="stroke: #000000; stroke-width: 0.8"/>
      </g>
     </g>
     <g id="text_29">
      <!-- 5 -->
      <g transform="translate(213.387159 395.637812)scale(0.14 -0.14)">
       <use xlink:href="#DejaVuSans-35"/>
      </g>
     </g>
    </g>
    <g id="text_30">
     <!-- $\theta \, \mathrm{[mrad]}$ -->
     <g transform="translate(131.48 414.706875)scale(0.16 -0.16)">
      <defs>
       <path id="DejaVuSans-Oblique-3b8" d="M 2913 2219 
L 925 2219 
Q 791 1284 928 888 
Q 1100 400 1566 400 
Q 2034 400 2391 891 
Q 2703 1322 2913 2219 
z
M 3009 2750 
Q 3094 3638 2984 3950 
Q 2813 4444 2353 4444 
Q 1875 4444 1525 3956 
Q 1250 3563 1034 2750 
L 3009 2750 
z
M 2444 4913 
Q 3194 4913 3494 4250 
Q 3794 3591 3566 2422 
Q 3341 1256 2781 594 
Q 2225 -72 1475 -72 
Q 722 -72 425 594 
Q 128 1256 353 2422 
Q 581 3591 1134 4250 
Q 1691 4913 2444 4913 
z
" transform="scale(0.015625)"/>
       <path id="DejaVuSans-61" d="M 2194 1759 
Q 1497 1759 1228 1600 
Q 959 1441 959 1056 
Q 959 750 1161 570 
Q 1363 391 1709 391 
Q 2188 391 2477 730 
Q 2766 1069 2766 1631 
L 2766 1759 
L 2194 1759 
z
M 3341 1997 
L 3341 0 
L 2766 0 
L 2766 531 
Q 2569 213 2275 61 
Q 1981 -91 1556 -91 
Q 1019 -91 701 211 
Q 384 513 384 1019 
Q 384 1609 779 1909 
Q 1175 2209 1959 2209 
L 2766 2209 
L 2766 2266 
Q 2766 2663 2505 2880 
Q 2244 3097 1772 3097 
Q 1472 3097 1187 3025 
Q 903 2953 641 2809 
L 641 3341 
Q 956 3463 1253 3523 
Q 1550 3584 1831 3584 
Q 2591 3584 2966 3190 
Q 3341 2797 3341 1997 
z
" transform="scale(0.015625)"/>
       <path id="DejaVuSans-64" d="M 2906 2969 
L 2906 4863 
L 3481 4863 
L 3481 0 
L 2906 0 
L 2906 525 
Q 2725 213 2448 61 
Q 2172 -91 1784 -91 
Q 1150 -91 751 415 
Q 353 922 353 1747 
Q 353 2572 751 3078 
Q 1150 3584 1784 3584 
Q 2172 3584 2448 3432 
Q 2725 3281 2906 2969 
z
M 947 1747 
Q 947 1113 1208 752 
Q 1469 391 1925 391 
Q 2381 391 2643 752 
Q 2906 1113 2906 1747 
Q 2906 2381 2643 2742 
Q 2381 3103 1925 3103 
Q 1469 3103 1208 2742 
Q 947 2381 947 1747 
z
" transform="scale(0.015625)"/>
      </defs>
      <use xlink:href="#DejaVuSans-Oblique-3b8" transform="translate(0 0.234375)"/>
      <use xlink:href="#DejaVuSans-5b" transform="translate(77.417317 0.234375)"/>
      <use xlink:href="#DejaVuSans-6d" transform="translate(116.430989 0.234375)"/>
      <use xlink:href="#DejaVuSans-72" transform="translate(213.843098 0.234375)"/>
      <use xlink:href="#DejaVuSans-61" transform="translate(254.956379 0.234375)"/>
      <use xlink:href="#DejaVuSans-64" transform="translate(316.235676 0.234375)"/>
      <use xlink:href="#DejaVuSans-5d" transform="translate(379.712239 0.234375)"/>
     </g>
    </g>
   </g>
   <g id="matplotlib.axis_8">
    <g id="ytick_10">
     <g id="line2d_24">
      <g>
       <use xlink:href="#m81fdedae2c" x="72" y="372.06184" style="stroke: #000000; stroke-width: 0.8"/>
      </g>
     </g>
     <g id="text_31">
      <!-- 0 -->
      <g transform="translate(56.0925 377.380746)scale(0.14 -0.14)">
       <use xlink:href="#DejaVuSans-30"/>
      </g>
     </g>
    </g>
    <g id="ytick_11">
     <g id="line2d_25">
      <g>
       <use xlink:href="#m81fdedae2c" x="72" y="315.782531" style="stroke: #000000; stroke-width: 0.8"/>
      </g>
     </g>
     <g id="text_32">
      <!-- 2 -->
      <g transform="translate(56.0925 321.101437)scale(0.14 -0.14)">
       <use xlink:href="#DejaVuSans-32"/>
      </g>
     </g>
    </g>
    <g id="ytick_12">
     <g id="line2d_26">
      <g>
       <use xlink:href="#m81fdedae2c" x="72" y="259.503221" style="stroke: #000000; stroke-width: 0.8"/>
      </g>
     </g>
     <g id="text_33">
      <!-- 4 -->
      <g transform="translate(56.0925 264.822127)scale(0.14 -0.14)">
       <use xlink:href="#DejaVuSans-34"/>
      </g>
     </g>
    </g>
    <g id="text_34">
     <!-- electron count -->
     <g transform="translate(48.765 367.83875)rotate(-90)scale(0.16 -0.16)">
      <use xlink:href="#DejaVuSans-65"/>
      <use xlink:href="#DejaVuSans-6c" x="61.523438"/>
      <use xlink:href="#DejaVuSans-65" x="89.306641"/>
      <use xlink:href="#DejaVuSans-63" x="150.830078"/>
      <use xlink:href="#DejaVuSans-74" x="205.810547"/>
      <use xlink:href="#DejaVuSans-72" x="245.019531"/>
      <use xlink:href="#DejaVuSans-6f" x="283.882812"/>
      <use xlink:href="#DejaVuSans-6e" x="345.064453"/>
      <use xlink:href="#DejaVuSans-20" x="408.443359"/>
      <use xlink:href="#DejaVuSans-63" x="440.230469"/>
      <use xlink:href="#DejaVuSans-6f" x="495.210938"/>
      <use xlink:href="#DejaVuSans-75" x="556.392578"/>
      <use xlink:href="#DejaVuSans-6e" x="619.771484"/>
      <use xlink:href="#DejaVuSans-74" x="683.150391"/>
     </g>
    </g>
    <g id="text_35">
     <!-- 1e8 -->
     <g transform="translate(72 239.1)scale(0.14 -0.14)">
      <use xlink:href="#DejaVuSans-31"/>
      <use xlink:href="#DejaVuSans-65" x="63.623047"/>
      <use xlink:href="#DejaVuSans-38" x="125.146484"/>
     </g>
    </g>
   </g>
   <g id="line2d_27">
    <path d="M 80.454545 371.822727 
L 82.162534 371.754821 
L 83.870523 371.669636 
L 85.578512 371.563365 
L 87.286501 371.431522 
L 88.99449 371.268864 
L 90.702479 371.069308 
L 92.410468 370.825853 
L 94.118457 370.530515 
L 95.826446 370.174259 
L 97.534435 369.746962 
L 99.242424 369.237383 
L 100.950413 368.633165 
L 102.658402 367.92087 
L 104.366391 367.086046 
L 106.07438 366.113346 
L 107.782369 364.986682 
L 109.490358 363.689445 
L 111.198347 362.204773 
L 112.906336 360.515878 
L 114.614325 358.606428 
L 116.322314 356.460989 
L 118.030303 354.065507 
L 119.738292 351.407838 
L 121.446281 348.47831 
L 123.15427 345.270288 
L 124.862259 341.78076 
L 126.570248 338.010885 
L 128.278237 333.966517 
L 129.986226 329.658657 
L 131.694215 325.103828 
L 133.402204 320.324347 
L 135.110193 315.348464 
L 136.818182 310.210366 
L 138.526171 304.950015 
L 140.23416 299.612825 
L 141.942149 294.249164 
L 143.650138 288.913677 
L 145.358127 283.664458 
L 147.066116 278.56206 
L 148.774105 273.668386 
L 150.482094 269.045464 
L 152.190083 264.75417 
L 153.898072 260.852901 
L 155.606061 257.39626 
L 157.31405 254.433794 
L 159.022039 252.008809 
L 160.730028 250.157318 
L 162.438017 248.907154 
L 164.146006 248.277273 
L 165.853994 248.277273 
L 167.561983 248.907154 
L 169.269972 250.157318 
L 170.977961 252.008809 
L 172.68595 254.433794 
L 174.393939 257.39626 
L 176.101928 260.852901 
L 177.809917 264.75417 
L 179.517906 269.045464 
L 181.225895 273.668386 
L 182.933884 278.56206 
L 184.641873 283.664458 
L 186.349862 288.913677 
L 188.057851 294.249164 
L 189.76584 299.612825 
L 191.473829 304.950015 
L 193.181818 310.210366 
L 194.889807 315.348464 
L 196.597796 320.324347 
L 198.305785 325.103828 
L 200.013774 329.658657 
L 201.721763 333.966517 
L 203.429752 338.010885 
L 205.137741 341.78076 
L 206.84573 345.270288 
L 208.553719 348.47831 
L 210.261708 351.407838 
L 211.969697 354.065507 
L 213.677686 356.460989 
L 215.385675 358.606428 
L 217.093664 360.515878 
L 218.801653 362.204773 
L 220.509642 363.689445 
L 222.217631 364.986682 
L 223.92562 366.113346 
L 225.633609 367.086046 
L 227.341598 367.92087 
L 229.049587 368.633165 
L 230.757576 369.237383 
L 232.465565 369.746962 
L 234.173554 370.174259 
L 235.881543 370.530515 
L 237.589532 370.825853 
L 239.297521 371.069308 
L 241.00551 371.268864 
L 242.713499 371.431522 
L 244.421488 371.563365 
L 246.129477 371.669636 
L 247.837466 371.754821 
L 249.545455 371.822727 
" clip-path="url(#pfb874aa8b2)" style="fill: none; stroke: #7f7f7f; stroke-width: 1.5; stroke-linecap: square"/>
   </g>
   <g id="patch_18">
    <path d="M 72 378 
L 72 242.1 
" style="fill: none; stroke: #000000; stroke-width: 0.8; stroke-linejoin: miter; stroke-linecap: square"/>
   </g>
   <g id="patch_19">
    <path d="M 258 378 
L 258 242.1 
" style="fill: none; stroke: #000000; stroke-width: 0.8; stroke-linejoin: miter; stroke-linecap: square"/>
   </g>
   <g id="patch_20">
    <path d="M 72 378 
L 258 378 
" style="fill: none; stroke: #000000; stroke-width: 0.8; stroke-linejoin: miter; stroke-linecap: square"/>
   </g>
   <g id="patch_21">
    <path d="M 72 242.1 
L 258 242.1 
" style="fill: none; stroke: #000000; stroke-width: 0.8; stroke-linejoin: miter; stroke-linecap: square"/>
   </g>
  </g>
 </g>
 <defs>
  <clipPath id="p69d7acc916">
   <rect x="72" y="51.84" width="186" height="135.9"/>
  </clipPath>
  <clipPath id="pfd28d1e70a">
   <rect x="332.4" y="51.84" width="186" height="135.9"/>
  </clipPath>
  <clipPath id="p4745b432d1">
   <rect x="332.4" y="242.1" width="186" height="135.9"/>
  </clipPath>
  <clipPath id="pfb874aa8b2">
   <rect x="72" y="242.1" width="186" height="135.9"/>
  </clipPath>
 </defs>
</svg>
