<?xml version="1.0" encoding="utf-8" standalone="no"?>
<!DOCTYPE svg PUBLIC "-//W3C//DTD SVG 1.1//EN"
  "http://www.w3.org/Graphics/SVG/1.1/DTD/svg11.dtd">
<svg xmlns:xlink="http://www.w3.org/1999/xlink" width="504pt" height="432pt" viewBox="0 0 504 432" xmlns="http://www.w3.org/2000/svg" version="1.1">
 <metadata>
  <rdf:RDF xmlns:dc="http://purl.org/dc/elements/1.1/" xmlns:cc="http://creativecommons.org/ns#" xmlns:rdf="http://www.w3.org/1999/02/22-rdf-syntax-ns#">
   <cc:Work>
    <dc:type rdf:resource="http://purl.org/dc/dcmitype/StillImage"/>
    <dc:date>2023-01-20T09:19:33.488266</dc:date>
    <dc:format>image/svg+xml</dc:format>
    <dc:creator>
     <cc:Agent>
      <dc:title>Matplotlib v3.5.1, https://matplotlib.org/</dc:title>
     </cc:Agent>
    </dc:creator>
   </cc:Work>
  </rdf:RDF>
 </metadata>
 <defs>
  <style type="text/css">*{stroke-linejoin: round; stroke-linecap: butt}</style>
 </defs>
 <g id="figure_1">
  <g id="patch_1">
   <path d="M 0 432 
L 504 432 
L 504 0 
L 0 0 
L 0 432 
z
" style="fill: none"/>
  </g>
  <g id="axes_1">
   <g id="patch_2">
    <path d="M 63 378 
L 453.6 378 
L 453.6 51.84 
L 63 51.84 
z
" style="fill: #ffffff"/>
   </g>
   <g id="matplotlib.axis_1">
    <g id="xtick_1">
     <g id="line2d_1">
      <defs>
       <path id="m31861a8a0a" d="M 0 0 
L 0 3.5 
" style="stroke: #000000; stroke-width: 0.8"/>
      </defs>
      <g>
       <use xlink:href="#m31861a8a0a" x="87.403378" y="378" style="stroke: #000000; stroke-width: 0.8"/>
      </g>
     </g>
     <g id="text_1">
      <!-- 0 -->
      <g transform="translate(82.949628 395.637812)scale(0.14 -0.14)">
       <defs>
        <path id="DejaVuSans-30" d="M 2034 4250 
Q 1547 4250 1301 3770 
Q 1056 3291 1056 2328 
Q 1056 1369 1301 889 
Q 1547 409 2034 409 
Q 2525 409 2770 889 
Q 3016 1369 3016 2328 
Q 3016 3291 2770 3770 
Q 2525 4250 2034 4250 
z
M 2034 4750 
Q 2819 4750 3233 4129 
Q 3647 3509 3647 2328 
Q 3647 1150 3233 529 
Q 2819 -91 2034 -91 
Q 1250 -91 836 529 
Q 422 1150 422 2328 
Q 422 3509 836 4129 
Q 1250 4750 2034 4750 
z
" transform="scale(0.015625)"/>
       </defs>
       <use xlink:href="#DejaVuSans-30"/>
      </g>
     </g>
    </g>
    <g id="xtick_2">
     <g id="line2d_2">
      <g>
       <use xlink:href="#m31861a8a0a" x="143.926792" y="378" style="stroke: #000000; stroke-width: 0.8"/>
      </g>
     </g>
     <g id="text_2">
      <!-- 1 -->
      <g transform="translate(139.473042 395.637812)scale(0.14 -0.14)">
       <defs>
        <path id="DejaVuSans-31" d="M 794 531 
L 1825 531 
L 1825 4091 
L 703 3866 
L 703 4441 
L 1819 4666 
L 2450 4666 
L 2450 531 
L 3481 531 
L 3481 0 
L 794 0 
L 794 531 
z
" transform="scale(0.015625)"/>
       </defs>
       <use xlink:href="#DejaVuSans-31"/>
      </g>
     </g>
    </g>
    <g id="xtick_3">
     <g id="line2d_3">
      <g>
       <use xlink:href="#m31861a8a0a" x="200.450206" y="378" style="stroke: #000000; stroke-width: 0.8"/>
      </g>
     </g>
     <g id="text_3">
      <!-- 2 -->
      <g transform="translate(195.996456 395.637812)scale(0.14 -0.14)">
       <defs>
        <path id="DejaVuSans-32" d="M 1228 531 
L 3431 531 
L 3431 0 
L 469 0 
L 469 531 
Q 828 903 1448 1529 
Q 2069 2156 2228 2338 
Q 2531 2678 2651 2914 
Q 2772 3150 2772 3378 
Q 2772 3750 2511 3984 
Q 2250 4219 1831 4219 
Q 1534 4219 1204 4116 
Q 875 4013 500 3803 
L 500 4441 
Q 881 4594 1212 4672 
Q 1544 4750 1819 4750 
Q 2544 4750 2975 4387 
Q 3406 4025 3406 3419 
Q 3406 3131 3298 2873 
Q 3191 2616 2906 2266 
Q 2828 2175 2409 1742 
Q 1991 1309 1228 531 
z
" transform="scale(0.015625)"/>
       </defs>
       <use xlink:href="#DejaVuSans-32"/>
      </g>
     </g>
    </g>
    <g id="xtick_4">
     <g id="line2d_4">
      <g>
       <use xlink:href="#m31861a8a0a" x="256.973619" y="378" style="stroke: #000000; stroke-width: 0.8"/>
      </g>
     </g>
     <g id="text_4">
      <!-- 3 -->
      <g transform="translate(252.519869 395.637812)scale(0.14 -0.14)">
       <defs>
        <path id="DejaVuSans-33" d="M 2597 2516 
Q 3050 2419 3304 2112 
Q 3559 1806 3559 1356 
Q 3559 666 3084 287 
Q 2609 -91 1734 -91 
Q 1441 -91 1130 -33 
Q 819 25 488 141 
L 488 750 
Q 750 597 1062 519 
Q 1375 441 1716 441 
Q 2309 441 2620 675 
Q 2931 909 2931 1356 
Q 2931 1769 2642 2001 
Q 2353 2234 1838 2234 
L 1294 2234 
L 1294 2753 
L 1863 2753 
Q 2328 2753 2575 2939 
Q 2822 3125 2822 3475 
Q 2822 3834 2567 4026 
Q 2313 4219 1838 4219 
Q 1578 4219 1281 4162 
Q 984 4106 628 3988 
L 628 4550 
Q 988 4650 1302 4700 
Q 1616 4750 1894 4750 
Q 2613 4750 3031 4423 
Q 3450 4097 3450 3541 
Q 3450 3153 3228 2886 
Q 3006 2619 2597 2516 
z
" transform="scale(0.015625)"/>
       </defs>
       <use xlink:href="#DejaVuSans-33"/>
      </g>
     </g>
    </g>
    <g id="xtick_5">
     <g id="line2d_5">
      <g>
       <use xlink:href="#m31861a8a0a" x="313.497033" y="378" style="stroke: #000000; stroke-width: 0.8"/>
      </g>
     </g>
     <g id="text_5">
      <!-- 4 -->
      <g transform="translate(309.043283 395.637812)scale(0.14 -0.14)">
       <defs>
        <path id="DejaVuSans-34" d="M 2419 4116 
L 825 1625 
L 2419 1625 
L 2419 4116 
z
M 2253 4666 
L 3047 4666 
L 3047 1625 
L 3713 1625 
L 3713 1100 
L 3047 1100 
L 3047 0 
L 2419 0 
L 2419 1100 
L 313 1100 
L 313 1709 
L 2253 4666 
z
" transform="scale(0.015625)"/>
       </defs>
       <use xlink:href="#DejaVuSans-34"/>
      </g>
     </g>
    </g>
    <g id="xtick_6">
     <g id="line2d_6">
      <g>
       <use xlink:href="#m31861a8a0a" x="370.020447" y="378" style="stroke: #000000; stroke-width: 0.8"/>
      </g>
     </g>
     <g id="text_6">
      <!-- 5 -->
      <g transform="translate(365.566697 395.637812)scale(0.14 -0.14)">
       <defs>
        <path id="DejaVuSans-35" d="M 691 4666 
L 3169 4666 
L 3169 4134 
L 1269 4134 
L 1269 2991 
Q 1406 3038 1543 3061 
Q 1681 3084 1819 3084 
Q 2600 3084 3056 2656 
Q 3513 2228 3513 1497 
Q 3513 744 3044 326 
Q 2575 -91 1722 -91 
Q 1428 -91 1123 -41 
Q 819 9 494 109 
L 494 744 
Q 775 591 1075 516 
Q 1375 441 1709 441 
Q 2250 441 2565 725 
Q 2881 1009 2881 1497 
Q 2881 1984 2565 2268 
Q 2250 2553 1709 2553 
Q 1456 2553 1204 2497 
Q 953 2441 691 2322 
L 691 4666 
z
" transform="scale(0.015625)"/>
       </defs>
       <use xlink:href="#DejaVuSans-35"/>
      </g>
     </g>
    </g>
    <g id="xtick_7">
     <g id="line2d_7">
      <g>
       <use xlink:href="#m31861a8a0a" x="426.54386" y="378" style="stroke: #000000; stroke-width: 0.8"/>
      </g>
     </g>
     <g id="text_7">
      <!-- 6 -->
      <g transform="translate(422.09011 395.637812)scale(0.14 -0.14)">
       <defs>
        <path id="DejaVuSans-36" d="M 2113 2584 
Q 1688 2584 1439 2293 
Q 1191 2003 1191 1497 
Q 1191 994 1439 701 
Q 1688 409 2113 409 
Q 2538 409 2786 701 
Q 3034 994 3034 1497 
Q 3034 2003 2786 2293 
Q 2538 2584 2113 2584 
z
M 3366 4563 
L 3366 3988 
Q 3128 4100 2886 4159 
Q 2644 4219 2406 4219 
Q 1781 4219 1451 3797 
Q 1122 3375 1075 2522 
Q 1259 2794 1537 2939 
Q 1816 3084 2150 3084 
Q 2853 3084 3261 2657 
Q 3669 2231 3669 1497 
Q 3669 778 3244 343 
Q 2819 -91 2113 -91 
Q 1303 -91 875 529 
Q 447 1150 447 2328 
Q 447 3434 972 4092 
Q 1497 4750 2381 4750 
Q 2619 4750 2861 4703 
Q 3103 4656 3366 4563 
z
" transform="scale(0.015625)"/>
       </defs>
       <use xlink:href="#DejaVuSans-36"/>
      </g>
     </g>
    </g>
    <g id="text_8">
     <!-- $y \, \mathrm{[mm]}$ -->
     <g transform="translate(230.38 414.709375)scale(0.16 -0.16)">
      <defs>
       <path id="DejaVuSans-Oblique-79" d="M 1588 -325 
Q 1188 -997 936 -1164 
Q 684 -1331 294 -1331 
L -159 -1331 
L -63 -850 
L 269 -850 
Q 509 -850 678 -719 
Q 847 -588 1056 -206 
L 1234 128 
L 459 3500 
L 1069 3500 
L 1650 819 
L 3256 3500 
L 3859 3500 
L 1588 -325 
z
" transform="scale(0.015625)"/>
       <path id="DejaVuSans-5b" d="M 550 4863 
L 1875 4863 
L 1875 4416 
L 1125 4416 
L 1125 -397 
L 1875 -397 
L 1875 -844 
L 550 -844 
L 550 4863 
z
" transform="scale(0.015625)"/>
       <path id="DejaVuSans-6d" d="M 3328 2828 
Q 3544 3216 3844 3400 
Q 4144 3584 4550 3584 
Q 5097 3584 5394 3201 
Q 5691 2819 5691 2113 
L 5691 0 
L 5113 0 
L 5113 2094 
Q 5113 2597 4934 2840 
Q 4756 3084 4391 3084 
Q 3944 3084 3684 2787 
Q 3425 2491 3425 1978 
L 3425 0 
L 2847 0 
L 2847 2094 
Q 2847 2600 2669 2842 
Q 2491 3084 2119 3084 
Q 1678 3084 1418 2786 
Q 1159 2488 1159 1978 
L 1159 0 
L 581 0 
L 581 3500 
L 1159 3500 
L 1159 2956 
Q 1356 3278 1631 3431 
Q 1906 3584 2284 3584 
Q 2666 3584 2933 3390 
Q 3200 3197 3328 2828 
z
" transform="scale(0.015625)"/>
       <path id="DejaVuSans-5d" d="M 1947 4863 
L 1947 -844 
L 622 -844 
L 622 -397 
L 1369 -397 
L 1369 4416 
L 622 4416 
L 622 4863 
L 1947 4863 
z
" transform="scale(0.015625)"/>
      </defs>
      <use xlink:href="#DejaVuSans-Oblique-79" transform="translate(0 0.015625)"/>
      <use xlink:href="#DejaVuSans-5b" transform="translate(75.415364 0.015625)"/>
      <use xlink:href="#DejaVuSans-6d" transform="translate(114.429036 0.015625)"/>
      <use xlink:href="#DejaVuSans-6d" transform="translate(211.841145 0.015625)"/>
      <use xlink:href="#DejaVuSans-5d" transform="translate(309.253254 0.015625)"/>
     </g>
    </g>
   </g>
   <g id="matplotlib.axis_2">
    <g id="ytick_1">
     <g id="line2d_8">
      <defs>
       <path id="mfb26cac5a9" d="M 0 0 
L -3.5 0 
" style="stroke: #000000; stroke-width: 0.8"/>
      </defs>
      <g>
       <use xlink:href="#mfb26cac5a9" x="63" y="345.773287" style="stroke: #000000; stroke-width: 0.8"/>
      </g>
     </g>
     <g id="text_9">
      <!-- 242 -->
      <g transform="translate(29.2775 351.092194)scale(0.14 -0.14)">
       <use xlink:href="#DejaVuSans-32"/>
       <use xlink:href="#DejaVuSans-34" x="63.623047"/>
       <use xlink:href="#DejaVuSans-32" x="127.246094"/>
      </g>
     </g>
    </g>
    <g id="ytick_2">
     <g id="line2d_9">
      <g>
       <use xlink:href="#mfb26cac5a9" x="63" y="298.876081" style="stroke: #000000; stroke-width: 0.8"/>
      </g>
     </g>
     <g id="text_10">
      <!-- 244 -->
      <g transform="translate(29.2775 304.194987)scale(0.14 -0.14)">
       <use xlink:href="#DejaVuSans-32"/>
       <use xlink:href="#DejaVuSans-34" x="63.623047"/>
       <use xlink:href="#DejaVuSans-34" x="127.246094"/>
      </g>
     </g>
    </g>
    <g id="ytick_3">
     <g id="line2d_10">
      <g>
       <use xlink:href="#mfb26cac5a9" x="63" y="251.978874" style="stroke: #000000; stroke-width: 0.8"/>
      </g>
     </g>
     <g id="text_11">
      <!-- 246 -->
      <g transform="translate(29.2775 257.29778)scale(0.14 -0.14)">
       <use xlink:href="#DejaVuSans-32"/>
       <use xlink:href="#DejaVuSans-34" x="63.623047"/>
       <use xlink:href="#DejaVuSans-36" x="127.246094"/>
      </g>
     </g>
    </g>
    <g id="ytick_4">
     <g id="line2d_11">
      <g>
       <use xlink:href="#mfb26cac5a9" x="63" y="205.081668" style="stroke: #000000; stroke-width: 0.8"/>
      </g>
     </g>
     <g id="text_12">
      <!-- 248 -->
      <g transform="translate(29.2775 210.400574)scale(0.14 -0.14)">
       <defs>
        <path id="DejaVuSans-38" d="M 2034 2216 
Q 1584 2216 1326 1975 
Q 1069 1734 1069 1313 
Q 1069 891 1326 650 
Q 1584 409 2034 409 
Q 2484 409 2743 651 
Q 3003 894 3003 1313 
Q 3003 1734 2745 1975 
Q 2488 2216 2034 2216 
z
M 1403 2484 
Q 997 2584 770 2862 
Q 544 3141 544 3541 
Q 544 4100 942 4425 
Q 1341 4750 2034 4750 
Q 2731 4750 3128 4425 
Q 3525 4100 3525 3541 
Q 3525 3141 3298 2862 
Q 3072 2584 2669 2484 
Q 3125 2378 3379 2068 
Q 3634 1759 3634 1313 
Q 3634 634 3220 271 
Q 2806 -91 2034 -91 
Q 1263 -91 848 271 
Q 434 634 434 1313 
Q 434 1759 690 2068 
Q 947 2378 1403 2484 
z
M 1172 3481 
Q 1172 3119 1398 2916 
Q 1625 2713 2034 2713 
Q 2441 2713 2670 2916 
Q 2900 3119 2900 3481 
Q 2900 3844 2670 4047 
Q 2441 4250 2034 4250 
Q 1625 4250 1398 4047 
Q 1172 3844 1172 3481 
z
" transform="scale(0.015625)"/>
       </defs>
       <use xlink:href="#DejaVuSans-32"/>
       <use xlink:href="#DejaVuSans-34" x="63.623047"/>
       <use xlink:href="#DejaVuSans-38" x="127.246094"/>
      </g>
     </g>
    </g>
    <g id="ytick_5">
     <g id="line2d_12">
      <g>
       <use xlink:href="#mfb26cac5a9" x="63" y="158.184461" style="stroke: #000000; stroke-width: 0.8"/>
      </g>
     </g>
     <g id="text_13">
      <!-- 250 -->
      <g transform="translate(29.2775 163.503367)scale(0.14 -0.14)">
       <use xlink:href="#DejaVuSans-32"/>
       <use xlink:href="#DejaVuSans-35" x="63.623047"/>
       <use xlink:href="#DejaVuSans-30" x="127.246094"/>
      </g>
     </g>
    </g>
    <g id="ytick_6">
     <g id="line2d_13">
      <g>
       <use xlink:href="#mfb26cac5a9" x="63" y="111.287255" style="stroke: #000000; stroke-width: 0.8"/>
      </g>
     </g>
     <g id="text_14">
      <!-- 252 -->
      <g transform="translate(29.2775 116.606161)scale(0.14 -0.14)">
       <use xlink:href="#DejaVuSans-32"/>
       <use xlink:href="#DejaVuSans-35" x="63.623047"/>
       <use xlink:href="#DejaVuSans-32" x="127.246094"/>
      </g>
     </g>
    </g>
    <g id="ytick_7">
     <g id="line2d_14">
      <g>
       <use xlink:href="#mfb26cac5a9" x="63" y="64.390048" style="stroke: #000000; stroke-width: 0.8"/>
      </g>
     </g>
     <g id="text_15">
      <!-- 254 -->
      <g transform="translate(29.2775 69.708954)scale(0.14 -0.14)">
       <use xlink:href="#DejaVuSans-32"/>
       <use xlink:href="#DejaVuSans-35" x="63.623047"/>
       <use xlink:href="#DejaVuSans-34" x="127.246094"/>
      </g>
     </g>
    </g>
    <g id="text_16">
     <!-- $\mathrm{energy \, [MeV]}$ -->
     <g transform="translate(21.9175 267.8)rotate(-90)scale(0.16 -0.16)">
      <defs>
       <path id="DejaVuSans-65" d="M 3597 1894 
L 3597 1613 
L 953 1613 
Q 991 1019 1311 708 
Q 1631 397 2203 397 
Q 2534 397 2845 478 
Q 3156 559 3463 722 
L 3463 178 
Q 3153 47 2828 -22 
Q 2503 -91 2169 -91 
Q 1331 -91 842 396 
Q 353 884 353 1716 
Q 353 2575 817 3079 
Q 1281 3584 2069 3584 
Q 2775 3584 3186 3129 
Q 3597 2675 3597 1894 
z
M 3022 2063 
Q 3016 2534 2758 2815 
Q 2500 3097 2075 3097 
Q 1594 3097 1305 2825 
Q 1016 2553 972 2059 
L 3022 2063 
z
" transform="scale(0.015625)"/>
       <path id="DejaVuSans-6e" d="M 3513 2113 
L 3513 0 
L 2938 0 
L 2938 2094 
Q 2938 2591 2744 2837 
Q 2550 3084 2163 3084 
Q 1697 3084 1428 2787 
Q 1159 2491 1159 1978 
L 1159 0 
L 581 0 
L 581 3500 
L 1159 3500 
L 1159 2956 
Q 1366 3272 1645 3428 
Q 1925 3584 2291 3584 
Q 2894 3584 3203 3211 
Q 3513 2838 3513 2113 
z
" transform="scale(0.015625)"/>
       <path id="DejaVuSans-72" d="M 2631 2963 
Q 2534 3019 2420 3045 
Q 2306 3072 2169 3072 
Q 1681 3072 1420 2755 
Q 1159 2438 1159 1844 
L 1159 0 
L 581 0 
L 581 3500 
L 1159 3500 
L 1159 2956 
Q 1341 3275 1631 3429 
Q 1922 3584 2338 3584 
Q 2397 3584 2469 3576 
Q 2541 3569 2628 3553 
L 2631 2963 
z
" transform="scale(0.015625)"/>
       <path id="DejaVuSans-67" d="M 2906 1791 
Q 2906 2416 2648 2759 
Q 2391 3103 1925 3103 
Q 1463 3103 1205 2759 
Q 947 2416 947 1791 
Q 947 1169 1205 825 
Q 1463 481 1925 481 
Q 2391 481 2648 825 
Q 2906 1169 2906 1791 
z
M 3481 434 
Q 3481 -459 3084 -895 
Q 2688 -1331 1869 -1331 
Q 1566 -1331 1297 -1286 
Q 1028 -1241 775 -1147 
L 775 -588 
Q 1028 -725 1275 -790 
Q 1522 -856 1778 -856 
Q 2344 -856 2625 -561 
Q 2906 -266 2906 331 
L 2906 616 
Q 2728 306 2450 153 
Q 2172 0 1784 0 
Q 1141 0 747 490 
Q 353 981 353 1791 
Q 353 2603 747 3093 
Q 1141 3584 1784 3584 
Q 2172 3584 2450 3431 
Q 2728 3278 2906 2969 
L 2906 3500 
L 3481 3500 
L 3481 434 
z
" transform="scale(0.015625)"/>
       <path id="DejaVuSans-79" d="M 2059 -325 
Q 1816 -950 1584 -1140 
Q 1353 -1331 966 -1331 
L 506 -1331 
L 506 -850 
L 844 -850 
Q 1081 -850 1212 -737 
Q 1344 -625 1503 -206 
L 1606 56 
L 191 3500 
L 800 3500 
L 1894 763 
L 2988 3500 
L 3597 3500 
L 2059 -325 
z
" transform="scale(0.015625)"/>
       <path id="DejaVuSans-4d" d="M 628 4666 
L 1569 4666 
L 2759 1491 
L 3956 4666 
L 4897 4666 
L 4897 0 
L 4281 0 
L 4281 4097 
L 3078 897 
L 2444 897 
L 1241 4097 
L 1241 0 
L 628 0 
L 628 4666 
z
" transform="scale(0.015625)"/>
       <path id="DejaVuSans-56" d="M 1831 0 
L 50 4666 
L 709 4666 
L 2188 738 
L 3669 4666 
L 4325 4666 
L 2547 0 
L 1831 0 
z
" transform="scale(0.015625)"/>
      </defs>
      <use xlink:href="#DejaVuSans-65" transform="translate(0 0.015625)"/>
      <use xlink:href="#DejaVuSans-6e" transform="translate(61.523438 0.015625)"/>
      <use xlink:href="#DejaVuSans-65" transform="translate(124.902344 0.015625)"/>
      <use xlink:href="#DejaVuSans-72" transform="translate(186.425781 0.015625)"/>
      <use xlink:href="#DejaVuSans-67" transform="translate(227.539062 0.015625)"/>
      <use xlink:href="#DejaVuSans-79" transform="translate(291.015625 0.015625)"/>
      <use xlink:href="#DejaVuSans-5b" transform="translate(366.430989 0.015625)"/>
      <use xlink:href="#DejaVuSans-4d" transform="translate(405.444661 0.015625)"/>
      <use xlink:href="#DejaVuSans-65" transform="translate(491.723958 0.015625)"/>
      <use xlink:href="#DejaVuSans-56" transform="translate(553.247395 0.015625)"/>
      <use xlink:href="#DejaVuSans-5d" transform="translate(621.655598 0.015625)"/>
     </g>
    </g>
   </g>
   <g id="LineCollection_1">
    <path d="M 80.754545 172.793348 
L 80.754545 169.886329 
" clip-path="url(#p7098ae81ff)" style="fill: none; stroke: #008000; stroke-width: 1.5"/>
    <path d="M 85.249367 176.310194 
L 85.249367 173.22691 
" clip-path="url(#p7098ae81ff)" style="fill: none; stroke: #008000; stroke-width: 1.5"/>
    <path d="M 89.744189 199.035723 
L 89.744189 115.438842 
" clip-path="url(#p7098ae81ff)" style="fill: none; stroke: #008000; stroke-width: 1.5"/>
    <path d="M 94.23901 203.228973 
L 94.23901 112.167656 
" clip-path="url(#p7098ae81ff)" style="fill: none; stroke: #008000; stroke-width: 1.5"/>
    <path d="M 98.733832 222.337225 
L 98.733832 157.274777 
" clip-path="url(#p7098ae81ff)" style="fill: none; stroke: #008000; stroke-width: 1.5"/>
    <path d="M 103.228654 201.986582 
L 103.228654 193.713046 
" clip-path="url(#p7098ae81ff)" style="fill: none; stroke: #008000; stroke-width: 1.5"/>
    <path d="M 107.723475 240.444976 
L 107.723475 227.535013 
" clip-path="url(#p7098ae81ff)" style="fill: none; stroke: #008000; stroke-width: 1.5"/>
    <path d="M 112.218297 260.318986 
L 112.218297 254.29312 
" clip-path="url(#p7098ae81ff)" style="fill: none; stroke: #008000; stroke-width: 1.5"/>
    <path d="M 116.713119 280.787664 
L 116.713119 277.151757 
" clip-path="url(#p7098ae81ff)" style="fill: none; stroke: #008000; stroke-width: 1.5"/>
    <path d="M 121.20794 293.960816 
L 121.20794 290.999455 
" clip-path="url(#p7098ae81ff)" style="fill: none; stroke: #008000; stroke-width: 1.5"/>
    <path d="M 125.702762 300.839583 
L 125.702762 298.115099 
" clip-path="url(#p7098ae81ff)" style="fill: none; stroke: #008000; stroke-width: 1.5"/>
    <path d="M 130.197583 303.796835 
L 130.197583 301.219345 
" clip-path="url(#p7098ae81ff)" style="fill: none; stroke: #008000; stroke-width: 1.5"/>
    <path d="M 134.692405 306.678267 
L 134.692405 304.196939 
" clip-path="url(#p7098ae81ff)" style="fill: none; stroke: #008000; stroke-width: 1.5"/>
    <path d="M 139.187227 308.085295 
L 139.187227 305.471092 
" clip-path="url(#p7098ae81ff)" style="fill: none; stroke: #008000; stroke-width: 1.5"/>
    <path d="M 143.682048 308.902291 
L 143.682048 306.016484 
" clip-path="url(#p7098ae81ff)" style="fill: none; stroke: #008000; stroke-width: 1.5"/>
    <path d="M 148.17687 308.023777 
L 148.17687 305.099087 
" clip-path="url(#p7098ae81ff)" style="fill: none; stroke: #008000; stroke-width: 1.5"/>
    <path d="M 152.671692 306.725027 
L 152.671692 303.73477 
" clip-path="url(#p7098ae81ff)" style="fill: none; stroke: #008000; stroke-width: 1.5"/>
    <path d="M 157.166513 306.509207 
L 157.166513 303.535755 
" clip-path="url(#p7098ae81ff)" style="fill: none; stroke: #008000; stroke-width: 1.5"/>
    <path d="M 161.661335 305.602737 
L 161.661335 302.606609 
" clip-path="url(#p7098ae81ff)" style="fill: none; stroke: #008000; stroke-width: 1.5"/>
    <path d="M 166.156157 305.198541 
L 166.156157 302.067573 
" clip-path="url(#p7098ae81ff)" style="fill: none; stroke: #008000; stroke-width: 1.5"/>
    <path d="M 170.650978 305.809676 
L 170.650978 302.597465 
" clip-path="url(#p7098ae81ff)" style="fill: none; stroke: #008000; stroke-width: 1.5"/>
    <path d="M 175.1458 305.611022 
L 175.1458 302.336196 
" clip-path="url(#p7098ae81ff)" style="fill: none; stroke: #008000; stroke-width: 1.5"/>
    <path d="M 179.640621 305.998104 
L 179.640621 302.703705 
" clip-path="url(#p7098ae81ff)" style="fill: none; stroke: #008000; stroke-width: 1.5"/>
    <path d="M 184.135443 306.778159 
L 184.135443 303.326651 
" clip-path="url(#p7098ae81ff)" style="fill: none; stroke: #008000; stroke-width: 1.5"/>
    <path d="M 188.630265 306.91986 
L 188.630265 303.269907 
" clip-path="url(#p7098ae81ff)" style="fill: none; stroke: #008000; stroke-width: 1.5"/>
    <path d="M 193.125086 306.545857 
L 193.125086 302.980834 
" clip-path="url(#p7098ae81ff)" style="fill: none; stroke: #008000; stroke-width: 1.5"/>
    <path d="M 197.619908 306.321162 
L 197.619908 302.802616 
" clip-path="url(#p7098ae81ff)" style="fill: none; stroke: #008000; stroke-width: 1.5"/>
    <path d="M 202.11473 305.75864 
L 202.11473 302.15567 
" clip-path="url(#p7098ae81ff)" style="fill: none; stroke: #008000; stroke-width: 1.5"/>
    <path d="M 206.609551 305.012349 
L 206.609551 301.445531 
" clip-path="url(#p7098ae81ff)" style="fill: none; stroke: #008000; stroke-width: 1.5"/>
    <path d="M 211.104373 304.927239 
L 211.104373 301.206154 
" clip-path="url(#p7098ae81ff)" style="fill: none; stroke: #008000; stroke-width: 1.5"/>
    <path d="M 215.599194 305.317283 
L 215.599194 301.623564 
" clip-path="url(#p7098ae81ff)" style="fill: none; stroke: #008000; stroke-width: 1.5"/>
    <path d="M 220.094016 305.964834 
L 220.094016 302.215946 
" clip-path="url(#p7098ae81ff)" style="fill: none; stroke: #008000; stroke-width: 1.5"/>
    <path d="M 224.588838 306.699169 
L 224.588838 302.888425 
" clip-path="url(#p7098ae81ff)" style="fill: none; stroke: #008000; stroke-width: 1.5"/>
    <path d="M 229.083659 307.477192 
L 229.083659 303.633555 
" clip-path="url(#p7098ae81ff)" style="fill: none; stroke: #008000; stroke-width: 1.5"/>
    <path d="M 233.578481 308.223404 
L 233.578481 304.32953 
" clip-path="url(#p7098ae81ff)" style="fill: none; stroke: #008000; stroke-width: 1.5"/>
    <path d="M 238.073303 309.12325 
L 238.073303 305.32678 
" clip-path="url(#p7098ae81ff)" style="fill: none; stroke: #008000; stroke-width: 1.5"/>
    <path d="M 242.568124 309.894823 
L 242.568124 305.916287 
" clip-path="url(#p7098ae81ff)" style="fill: none; stroke: #008000; stroke-width: 1.5"/>
    <path d="M 247.062946 310.922695 
L 247.062946 307.012149 
" clip-path="url(#p7098ae81ff)" style="fill: none; stroke: #008000; stroke-width: 1.5"/>
    <path d="M 251.557768 312.360853 
L 251.557768 308.418974 
" clip-path="url(#p7098ae81ff)" style="fill: none; stroke: #008000; stroke-width: 1.5"/>
    <path d="M 256.052589 313.830013 
L 256.052589 309.938901 
" clip-path="url(#p7098ae81ff)" style="fill: none; stroke: #008000; stroke-width: 1.5"/>
    <path d="M 260.547411 315.321137 
L 260.547411 311.358058 
" clip-path="url(#p7098ae81ff)" style="fill: none; stroke: #008000; stroke-width: 1.5"/>
    <path d="M 265.042232 316.758486 
L 265.042232 312.696241 
" clip-path="url(#p7098ae81ff)" style="fill: none; stroke: #008000; stroke-width: 1.5"/>
    <path d="M 269.537054 317.602552 
L 269.537054 313.630356 
" clip-path="url(#p7098ae81ff)" style="fill: none; stroke: #008000; stroke-width: 1.5"/>
    <path d="M 274.031876 318.427204 
L 274.031876 314.45555 
" clip-path="url(#p7098ae81ff)" style="fill: none; stroke: #008000; stroke-width: 1.5"/>
    <path d="M 278.526697 319.005466 
L 278.526697 314.852385 
" clip-path="url(#p7098ae81ff)" style="fill: none; stroke: #008000; stroke-width: 1.5"/>
    <path d="M 283.021519 319.891132 
L 283.021519 315.653391 
" clip-path="url(#p7098ae81ff)" style="fill: none; stroke: #008000; stroke-width: 1.5"/>
    <path d="M 287.516341 320.791783 
L 287.516341 316.469079 
" clip-path="url(#p7098ae81ff)" style="fill: none; stroke: #008000; stroke-width: 1.5"/>
    <path d="M 292.011162 321.516106 
L 292.011162 317.180003 
" clip-path="url(#p7098ae81ff)" style="fill: none; stroke: #008000; stroke-width: 1.5"/>
    <path d="M 296.505984 322.090375 
L 296.505984 317.908868 
" clip-path="url(#p7098ae81ff)" style="fill: none; stroke: #008000; stroke-width: 1.5"/>
    <path d="M 301.000806 323.17261 
L 301.000806 318.795416 
" clip-path="url(#p7098ae81ff)" style="fill: none; stroke: #008000; stroke-width: 1.5"/>
    <path d="M 305.495627 324.56775 
L 305.495627 320.260175 
" clip-path="url(#p7098ae81ff)" style="fill: none; stroke: #008000; stroke-width: 1.5"/>
    <path d="M 309.990449 325.756662 
L 309.990449 321.23832 
" clip-path="url(#p7098ae81ff)" style="fill: none; stroke: #008000; stroke-width: 1.5"/>
    <path d="M 314.48527 326.631311 
L 314.48527 322.301642 
" clip-path="url(#p7098ae81ff)" style="fill: none; stroke: #008000; stroke-width: 1.5"/>
    <path d="M 318.980092 327.918048 
L 318.980092 323.450735 
" clip-path="url(#p7098ae81ff)" style="fill: none; stroke: #008000; stroke-width: 1.5"/>
    <path d="M 323.474914 328.916154 
L 323.474914 324.375739 
" clip-path="url(#p7098ae81ff)" style="fill: none; stroke: #008000; stroke-width: 1.5"/>
    <path d="M 327.969735 329.977403 
L 327.969735 325.289938 
" clip-path="url(#p7098ae81ff)" style="fill: none; stroke: #008000; stroke-width: 1.5"/>
    <path d="M 332.464557 331.305541 
L 332.464557 326.641954 
" clip-path="url(#p7098ae81ff)" style="fill: none; stroke: #008000; stroke-width: 1.5"/>
    <path d="M 336.959379 333.002879 
L 336.959379 328.165623 
" clip-path="url(#p7098ae81ff)" style="fill: none; stroke: #008000; stroke-width: 1.5"/>
    <path d="M 341.4542 334.814187 
L 341.4542 329.866965 
" clip-path="url(#p7098ae81ff)" style="fill: none; stroke: #008000; stroke-width: 1.5"/>
    <path d="M 345.949022 336.448383 
L 345.949022 331.473278 
" clip-path="url(#p7098ae81ff)" style="fill: none; stroke: #008000; stroke-width: 1.5"/>
    <path d="M 350.443843 337.67227 
L 350.443843 332.65696 
" clip-path="url(#p7098ae81ff)" style="fill: none; stroke: #008000; stroke-width: 1.5"/>
    <path d="M 354.938665 338.869453 
L 354.938665 333.86303 
" clip-path="url(#p7098ae81ff)" style="fill: none; stroke: #008000; stroke-width: 1.5"/>
    <path d="M 359.433487 340.364298 
L 359.433487 335.369466 
" clip-path="url(#p7098ae81ff)" style="fill: none; stroke: #008000; stroke-width: 1.5"/>
    <path d="M 363.928308 341.685392 
L 363.928308 336.458741 
" clip-path="url(#p7098ae81ff)" style="fill: none; stroke: #008000; stroke-width: 1.5"/>
    <path d="M 368.42313 342.758468 
L 368.42313 337.68441 
" clip-path="url(#p7098ae81ff)" style="fill: none; stroke: #008000; stroke-width: 1.5"/>
    <path d="M 372.917952 344.041892 
L 372.917952 339.01507 
" clip-path="url(#p7098ae81ff)" style="fill: none; stroke: #008000; stroke-width: 1.5"/>
    <path d="M 377.412773 345.395528 
L 377.412773 340.267335 
" clip-path="url(#p7098ae81ff)" style="fill: none; stroke: #008000; stroke-width: 1.5"/>
    <path d="M 381.907595 346.641687 
L 381.907595 341.480269 
" clip-path="url(#p7098ae81ff)" style="fill: none; stroke: #008000; stroke-width: 1.5"/>
    <path d="M 386.402417 347.487686 
L 386.402417 342.005105 
" clip-path="url(#p7098ae81ff)" style="fill: none; stroke: #008000; stroke-width: 1.5"/>
    <path d="M 390.897238 348.91626 
L 390.897238 343.601076 
" clip-path="url(#p7098ae81ff)" style="fill: none; stroke: #008000; stroke-width: 1.5"/>
    <path d="M 395.39206 350.195473 
L 395.39206 344.827718 
" clip-path="url(#p7098ae81ff)" style="fill: none; stroke: #008000; stroke-width: 1.5"/>
    <path d="M 399.886881 351.735562 
L 399.886881 346.219071 
" clip-path="url(#p7098ae81ff)" style="fill: none; stroke: #008000; stroke-width: 1.5"/>
    <path d="M 404.381703 353.019761 
L 404.381703 347.330536 
" clip-path="url(#p7098ae81ff)" style="fill: none; stroke: #008000; stroke-width: 1.5"/>
    <path d="M 408.876525 354.178421 
L 408.876525 348.578668 
" clip-path="url(#p7098ae81ff)" style="fill: none; stroke: #008000; stroke-width: 1.5"/>
    <path d="M 413.371346 356.364483 
L 413.371346 350.986847 
" clip-path="url(#p7098ae81ff)" style="fill: none; stroke: #008000; stroke-width: 1.5"/>
    <path d="M 417.866168 357.760379 
L 417.866168 352.180048 
" clip-path="url(#p7098ae81ff)" style="fill: none; stroke: #008000; stroke-width: 1.5"/>
    <path d="M 422.36099 358.797795 
L 422.36099 353.365336 
" clip-path="url(#p7098ae81ff)" style="fill: none; stroke: #008000; stroke-width: 1.5"/>
    <path d="M 426.855811 360.054508 
L 426.855811 354.540633 
" clip-path="url(#p7098ae81ff)" style="fill: none; stroke: #008000; stroke-width: 1.5"/>
    <path d="M 431.350633 361.486214 
L 431.350633 355.767119 
" clip-path="url(#p7098ae81ff)" style="fill: none; stroke: #008000; stroke-width: 1.5"/>
    <path d="M 435.845455 363.174545 
L 435.845455 357.491174 
" clip-path="url(#p7098ae81ff)" style="fill: none; stroke: #008000; stroke-width: 1.5"/>
   </g>
   <g id="line2d_15">
    <defs>
     <path id="m013d806e62" d="M 3 0 
L -3 -0 
" style="stroke: #008000"/>
    </defs>
    <g clip-path="url(#p7098ae81ff)">
     <use xlink:href="#m013d806e62" x="80.754545" y="172.793348" style="fill: #008000; stroke: #008000"/>
     <use xlink:href="#m013d806e62" x="85.249367" y="176.310194" style="fill: #008000; stroke: #008000"/>
     <use xlink:href="#m013d806e62" x="89.744189" y="199.035723" style="fill: #008000; stroke: #008000"/>
     <use xlink:href="#m013d806e62" x="94.23901" y="203.228973" style="fill: #008000; stroke: #008000"/>
     <use xlink:href="#m013d806e62" x="98.733832" y="222.337225" style="fill: #008000; stroke: #008000"/>
     <use xlink:href="#m013d806e62" x="103.228654" y="201.986582" style="fill: #008000; stroke: #008000"/>
     <use xlink:href="#m013d806e62" x="107.723475" y="240.444976" style="fill: #008000; stroke: #008000"/>
     <use xlink:href="#m013d806e62" x="112.218297" y="260.318986" style="fill: #008000; stroke: #008000"/>
     <use xlink:href="#m013d806e62" x="116.713119" y="280.787664" style="fill: #008000; stroke: #008000"/>
     <use xlink:href="#m013d806e62" x="121.20794" y="293.960816" style="fill: #008000; stroke: #008000"/>
     <use xlink:href="#m013d806e62" x="125.702762" y="300.839583" style="fill: #008000; stroke: #008000"/>
     <use xlink:href="#m013d806e62" x="130.197583" y="303.796835" style="fill: #008000; stroke: #008000"/>
     <use xlink:href="#m013d806e62" x="134.692405" y="306.678267" style="fill: #008000; stroke: #008000"/>
     <use xlink:href="#m013d806e62" x="139.187227" y="308.085295" style="fill: #008000; stroke: #008000"/>
     <use xlink:href="#m013d806e62" x="143.682048" y="308.902291" style="fill: #008000; stroke: #008000"/>
     <use xlink:href="#m013d806e62" x="148.17687" y="308.023777" style="fill: #008000; stroke: #008000"/>
     <use xlink:href="#m013d806e62" x="152.671692" y="306.725027" style="fill: #008000; stroke: #008000"/>
     <use xlink:href="#m013d806e62" x="157.166513" y="306.509207" style="fill: #008000; stroke: #008000"/>
     <use xlink:href="#m013d806e62" x="161.661335" y="305.602737" style="fill: #008000; stroke: #008000"/>
     <use xlink:href="#m013d806e62" x="166.156157" y="305.198541" style="fill: #008000; stroke: #008000"/>
     <use xlink:href="#m013d806e62" x="170.650978" y="305.809676" style="fill: #008000; stroke: #008000"/>
     <use xlink:href="#m013d806e62" x="175.1458" y="305.611022" style="fill: #008000; stroke: #008000"/>
     <use xlink:href="#m013d806e62" x="179.640621" y="305.998104" style="fill: #008000; stroke: #008000"/>
     <use xlink:href="#m013d806e62" x="184.135443" y="306.778159" style="fill: #008000; stroke: #008000"/>
     <use xlink:href="#m013d806e62" x="188.630265" y="306.91986" style="fill: #008000; stroke: #008000"/>
     <use xlink:href="#m013d806e62" x="193.125086" y="306.545857" style="fill: #008000; stroke: #008000"/>
     <use xlink:href="#m013d806e62" x="197.619908" y="306.321162" style="fill: #008000; stroke: #008000"/>
     <use xlink:href="#m013d806e62" x="202.11473" y="305.75864" style="fill: #008000; stroke: #008000"/>
     <use xlink:href="#m013d806e62" x="206.609551" y="305.012349" style="fill: #008000; stroke: #008000"/>
     <use xlink:href="#m013d806e62" x="211.104373" y="304.927239" style="fill: #008000; stroke: #008000"/>
     <use xlink:href="#m013d806e62" x="215.599194" y="305.317283" style="fill: #008000; stroke: #008000"/>
     <use xlink:href="#m013d806e62" x="220.094016" y="305.964834" style="fill: #008000; stroke: #008000"/>
     <use xlink:href="#m013d806e62" x="224.588838" y="306.699169" style="fill: #008000; stroke: #008000"/>
     <use xlink:href="#m013d806e62" x="229.083659" y="307.477192" style="fill: #008000; stroke: #008000"/>
     <use xlink:href="#m013d806e62" x="233.578481" y="308.223404" style="fill: #008000; stroke: #008000"/>
     <use xlink:href="#m013d806e62" x="238.073303" y="309.12325" style="fill: #008000; stroke: #008000"/>
     <use xlink:href="#m013d806e62" x="242.568124" y="309.894823" style="fill: #008000; stroke: #008000"/>
     <use xlink:href="#m013d806e62" x="247.062946" y="310.922695" style="fill: #008000; stroke: #008000"/>
     <use xlink:href="#m013d806e62" x="251.557768" y="312.360853" style="fill: #008000; stroke: #008000"/>
     <use xlink:href="#m013d806e62" x="256.052589" y="313.830013" style="fill: #008000; stroke: #008000"/>
     <use xlink:href="#m013d806e62" x="260.547411" y="315.321137" style="fill: #008000; stroke: #008000"/>
     <use xlink:href="#m013d806e62" x="265.042232" y="316.758486" style="fill: #008000; stroke: #008000"/>
     <use xlink:href="#m013d806e62" x="269.537054" y="317.602552" style="fill: #008000; stroke: #008000"/>
     <use xlink:href="#m013d806e62" x="274.031876" y="318.427204" style="fill: #008000; stroke: #008000"/>
     <use xlink:href="#m013d806e62" x="278.526697" y="319.005466" style="fill: #008000; stroke: #008000"/>
     <use xlink:href="#m013d806e62" x="283.021519" y="319.891132" style="fill: #008000; stroke: #008000"/>
     <use xlink:href="#m013d806e62" x="287.516341" y="320.791783" style="fill: #008000; stroke: #008000"/>
     <use xlink:href="#m013d806e62" x="292.011162" y="321.516106" style="fill: #008000; stroke: #008000"/>
     <use xlink:href="#m013d806e62" x="296.505984" y="322.090375" style="fill: #008000; stroke: #008000"/>
     <use xlink:href="#m013d806e62" x="301.000806" y="323.17261" style="fill: #008000; stroke: #008000"/>
     <use xlink:href="#m013d806e62" x="305.495627" y="324.56775" style="fill: #008000; stroke: #008000"/>
     <use xlink:href="#m013d806e62" x="309.990449" y="325.756662" style="fill: #008000; stroke: #008000"/>
     <use xlink:href="#m013d806e62" x="314.48527" y="326.631311" style="fill: #008000; stroke: #008000"/>
     <use xlink:href="#m013d806e62" x="318.980092" y="327.918048" style="fill: #008000; stroke: #008000"/>
     <use xlink:href="#m013d806e62" x="323.474914" y="328.916154" style="fill: #008000; stroke: #008000"/>
     <use xlink:href="#m013d806e62" x="327.969735" y="329.977403" style="fill: #008000; stroke: #008000"/>
     <use xlink:href="#m013d806e62" x="332.464557" y="331.305541" style="fill: #008000; stroke: #008000"/>
     <use xlink:href="#m013d806e62" x="336.959379" y="333.002879" style="fill: #008000; stroke: #008000"/>
     <use xlink:href="#m013d806e62" x="341.4542" y="334.814187" style="fill: #008000; stroke: #008000"/>
     <use xlink:href="#m013d806e62" x="345.949022" y="336.448383" style="fill: #008000; stroke: #008000"/>
     <use xlink:href="#m013d806e62" x="350.443843" y="337.67227" style="fill: #008000; stroke: #008000"/>
     <use xlink:href="#m013d806e62" x="354.938665" y="338.869453" style="fill: #008000; stroke: #008000"/>
     <use xlink:href="#m013d806e62" x="359.433487" y="340.364298" style="fill: #008000; stroke: #008000"/>
     <use xlink:href="#m013d806e62" x="363.928308" y="341.685392" style="fill: #008000; stroke: #008000"/>
     <use xlink:href="#m013d806e62" x="368.42313" y="342.758468" style="fill: #008000; stroke: #008000"/>
     <use xlink:href="#m013d806e62" x="372.917952" y="344.041892" style="fill: #008000; stroke: #008000"/>
     <use xlink:href="#m013d806e62" x="377.412773" y="345.395528" style="fill: #008000; stroke: #008000"/>
     <use xlink:href="#m013d806e62" x="381.907595" y="346.641687" style="fill: #008000; stroke: #008000"/>
     <use xlink:href="#m013d806e62" x="386.402417" y="347.487686" style="fill: #008000; stroke: #008000"/>
     <use xlink:href="#m013d806e62" x="390.897238" y="348.91626" style="fill: #008000; stroke: #008000"/>
     <use xlink:href="#m013d806e62" x="395.39206" y="350.195473" style="fill: #008000; stroke: #008000"/>
     <use xlink:href="#m013d806e62" x="399.886881" y="351.735562" style="fill: #008000; stroke: #008000"/>
     <use xlink:href="#m013d806e62" x="404.381703" y="353.019761" style="fill: #008000; stroke: #008000"/>
     <use xlink:href="#m013d806e62" x="408.876525" y="354.178421" style="fill: #008000; stroke: #008000"/>
     <use xlink:href="#m013d806e62" x="413.371346" y="356.364483" style="fill: #008000; stroke: #008000"/>
     <use xlink:href="#m013d806e62" x="417.866168" y="357.760379" style="fill: #008000; stroke: #008000"/>
     <use xlink:href="#m013d806e62" x="422.36099" y="358.797795" style="fill: #008000; stroke: #008000"/>
     <use xlink:href="#m013d806e62" x="426.855811" y="360.054508" style="fill: #008000; stroke: #008000"/>
     <use xlink:href="#m013d806e62" x="431.350633" y="361.486214" style="fill: #008000; stroke: #008000"/>
     <use xlink:href="#m013d806e62" x="435.845455" y="363.174545" style="fill: #008000; stroke: #008000"/>
    </g>
   </g>
   <g id="line2d_16">
    <g clip-path="url(#p7098ae81ff)">
     <use xlink:href="#m013d806e62" x="80.754545" y="169.886329" style="fill: #008000; stroke: #008000"/>
     <use xlink:href="#m013d806e62" x="85.249367" y="173.22691" style="fill: #008000; stroke: #008000"/>
     <use xlink:href="#m013d806e62" x="89.744189" y="115.438842" style="fill: #008000; stroke: #008000"/>
     <use xlink:href="#m013d806e62" x="94.23901" y="112.167656" style="fill: #008000; stroke: #008000"/>
     <use xlink:href="#m013d806e62" x="98.733832" y="157.274777" style="fill: #008000; stroke: #008000"/>
     <use xlink:href="#m013d806e62" x="103.228654" y="193.713046" style="fill: #008000; stroke: #008000"/>
     <use xlink:href="#m013d806e62" x="107.723475" y="227.535013" style="fill: #008000; stroke: #008000"/>
     <use xlink:href="#m013d806e62" x="112.218297" y="254.29312" style="fill: #008000; stroke: #008000"/>
     <use xlink:href="#m013d806e62" x="116.713119" y="277.151757" style="fill: #008000; stroke: #008000"/>
     <use xlink:href="#m013d806e62" x="121.20794" y="290.999455" style="fill: #008000; stroke: #008000"/>
     <use xlink:href="#m013d806e62" x="125.702762" y="298.115099" style="fill: #008000; stroke: #008000"/>
     <use xlink:href="#m013d806e62" x="130.197583" y="301.219345" style="fill: #008000; stroke: #008000"/>
     <use xlink:href="#m013d806e62" x="134.692405" y="304.196939" style="fill: #008000; stroke: #008000"/>
     <use xlink:href="#m013d806e62" x="139.187227" y="305.471092" style="fill: #008000; stroke: #008000"/>
     <use xlink:href="#m013d806e62" x="143.682048" y="306.016484" style="fill: #008000; stroke: #008000"/>
     <use xlink:href="#m013d806e62" x="148.17687" y="305.099087" style="fill: #008000; stroke: #008000"/>
     <use xlink:href="#m013d806e62" x="152.671692" y="303.73477" style="fill: #008000; stroke: #008000"/>
     <use xlink:href="#m013d806e62" x="157.166513" y="303.535755" style="fill: #008000; stroke: #008000"/>
     <use xlink:href="#m013d806e62" x="161.661335" y="302.606609" style="fill: #008000; stroke: #008000"/>
     <use xlink:href="#m013d806e62" x="166.156157" y="302.067573" style="fill: #008000; stroke: #008000"/>
     <use xlink:href="#m013d806e62" x="170.650978" y="302.597465" style="fill: #008000; stroke: #008000"/>
     <use xlink:href="#m013d806e62" x="175.1458" y="302.336196" style="fill: #008000; stroke: #008000"/>
     <use xlink:href="#m013d806e62" x="179.640621" y="302.703705" style="fill: #008000; stroke: #008000"/>
     <use xlink:href="#m013d806e62" x="184.135443" y="303.326651" style="fill: #008000; stroke: #008000"/>
     <use xlink:href="#m013d806e62" x="188.630265" y="303.269907" style="fill: #008000; stroke: #008000"/>
     <use xlink:href="#m013d806e62" x="193.125086" y="302.980834" style="fill: #008000; stroke: #008000"/>
     <use xlink:href="#m013d806e62" x="197.619908" y="302.802616" style="fill: #008000; stroke: #008000"/>
     <use xlink:href="#m013d806e62" x="202.11473" y="302.15567" style="fill: #008000; stroke: #008000"/>
     <use xlink:href="#m013d806e62" x="206.609551" y="301.445531" style="fill: #008000; stroke: #008000"/>
     <use xlink:href="#m013d806e62" x="211.104373" y="301.206154" style="fill: #008000; stroke: #008000"/>
     <use xlink:href="#m013d806e62" x="215.599194" y="301.623564" style="fill: #008000; stroke: #008000"/>
     <use xlink:href="#m013d806e62" x="220.094016" y="302.215946" style="fill: #008000; stroke: #008000"/>
     <use xlink:href="#m013d806e62" x="224.588838" y="302.888425" style="fill: #008000; stroke: #008000"/>
     <use xlink:href="#m013d806e62" x="229.083659" y="303.633555" style="fill: #008000; stroke: #008000"/>
     <use xlink:href="#m013d806e62" x="233.578481" y="304.32953" style="fill: #008000; stroke: #008000"/>
     <use xlink:href="#m013d806e62" x="238.073303" y="305.32678" style="fill: #008000; stroke: #008000"/>
     <use xlink:href="#m013d806e62" x="242.568124" y="305.916287" style="fill: #008000; stroke: #008000"/>
     <use xlink:href="#m013d806e62" x="247.062946" y="307.012149" style="fill: #008000; stroke: #008000"/>
     <use xlink:href="#m013d806e62" x="251.557768" y="308.418974" style="fill: #008000; stroke: #008000"/>
     <use xlink:href="#m013d806e62" x="256.052589" y="309.938901" style="fill: #008000; stroke: #008000"/>
     <use xlink:href="#m013d806e62" x="260.547411" y="311.358058" style="fill: #008000; stroke: #008000"/>
     <use xlink:href="#m013d806e62" x="265.042232" y="312.696241" style="fill: #008000; stroke: #008000"/>
     <use xlink:href="#m013d806e62" x="269.537054" y="313.630356" style="fill: #008000; stroke: #008000"/>
     <use xlink:href="#m013d806e62" x="274.031876" y="314.45555" style="fill: #008000; stroke: #008000"/>
     <use xlink:href="#m013d806e62" x="278.526697" y="314.852385" style="fill: #008000; stroke: #008000"/>
     <use xlink:href="#m013d806e62" x="283.021519" y="315.653391" style="fill: #008000; stroke: #008000"/>
     <use xlink:href="#m013d806e62" x="287.516341" y="316.469079" style="fill: #008000; stroke: #008000"/>
     <use xlink:href="#m013d806e62" x="292.011162" y="317.180003" style="fill: #008000; stroke: #008000"/>
     <use xlink:href="#m013d806e62" x="296.505984" y="317.908868" style="fill: #008000; stroke: #008000"/>
     <use xlink:href="#m013d806e62" x="301.000806" y="318.795416" style="fill: #008000; stroke: #008000"/>
     <use xlink:href="#m013d806e62" x="305.495627" y="320.260175" style="fill: #008000; stroke: #008000"/>
     <use xlink:href="#m013d806e62" x="309.990449" y="321.23832" style="fill: #008000; stroke: #008000"/>
     <use xlink:href="#m013d806e62" x="314.48527" y="322.301642" style="fill: #008000; stroke: #008000"/>
     <use xlink:href="#m013d806e62" x="318.980092" y="323.450735" style="fill: #008000; stroke: #008000"/>
     <use xlink:href="#m013d806e62" x="323.474914" y="324.375739" style="fill: #008000; stroke: #008000"/>
     <use xlink:href="#m013d806e62" x="327.969735" y="325.289938" style="fill: #008000; stroke: #008000"/>
     <use xlink:href="#m013d806e62" x="332.464557" y="326.641954" style="fill: #008000; stroke: #008000"/>
     <use xlink:href="#m013d806e62" x="336.959379" y="328.165623" style="fill: #008000; stroke: #008000"/>
     <use xlink:href="#m013d806e62" x="341.4542" y="329.866965" style="fill: #008000; stroke: #008000"/>
     <use xlink:href="#m013d806e62" x="345.949022" y="331.473278" style="fill: #008000; stroke: #008000"/>
     <use xlink:href="#m013d806e62" x="350.443843" y="332.65696" style="fill: #008000; stroke: #008000"/>
     <use xlink:href="#m013d806e62" x="354.938665" y="333.86303" style="fill: #008000; stroke: #008000"/>
     <use xlink:href="#m013d806e62" x="359.433487" y="335.369466" style="fill: #008000; stroke: #008000"/>
     <use xlink:href="#m013d806e62" x="363.928308" y="336.458741" style="fill: #008000; stroke: #008000"/>
     <use xlink:href="#m013d806e62" x="368.42313" y="337.68441" style="fill: #008000; stroke: #008000"/>
     <use xlink:href="#m013d806e62" x="372.917952" y="339.01507" style="fill: #008000; stroke: #008000"/>
     <use xlink:href="#m013d806e62" x="377.412773" y="340.267335" style="fill: #008000; stroke: #008000"/>
     <use xlink:href="#m013d806e62" x="381.907595" y="341.480269" style="fill: #008000; stroke: #008000"/>
     <use xlink:href="#m013d806e62" x="386.402417" y="342.005105" style="fill: #008000; stroke: #008000"/>
     <use xlink:href="#m013d806e62" x="390.897238" y="343.601076" style="fill: #008000; stroke: #008000"/>
     <use xlink:href="#m013d806e62" x="395.39206" y="344.827718" style="fill: #008000; stroke: #008000"/>
     <use xlink:href="#m013d806e62" x="399.886881" y="346.219071" style="fill: #008000; stroke: #008000"/>
     <use xlink:href="#m013d806e62" x="404.381703" y="347.330536" style="fill: #008000; stroke: #008000"/>
     <use xlink:href="#m013d806e62" x="408.876525" y="348.578668" style="fill: #008000; stroke: #008000"/>
     <use xlink:href="#m013d806e62" x="413.371346" y="350.986847" style="fill: #008000; stroke: #008000"/>
     <use xlink:href="#m013d806e62" x="417.866168" y="352.180048" style="fill: #008000; stroke: #008000"/>
     <use xlink:href="#m013d806e62" x="422.36099" y="353.365336" style="fill: #008000; stroke: #008000"/>
     <use xlink:href="#m013d806e62" x="426.855811" y="354.540633" style="fill: #008000; stroke: #008000"/>
     <use xlink:href="#m013d806e62" x="431.350633" y="355.767119" style="fill: #008000; stroke: #008000"/>
     <use xlink:href="#m013d806e62" x="435.845455" y="357.491174" style="fill: #008000; stroke: #008000"/>
    </g>
   </g>
   <g id="line2d_17">
    <path d="M 80.754545 75.260209 
L 85.249367 66.665455 
L 89.744189 68.870688 
L 94.23901 82.091036 
L 98.733832 244.251122 
L 103.228654 257.05077 
L 107.723475 260.426069 
L 112.218297 259.172433 
L 116.713119 266.797109 
L 121.20794 280.388618 
L 125.702762 290.018365 
L 130.197583 297.187714 
L 134.692405 302.299492 
L 139.187227 304.359414 
L 143.682048 306.060024 
L 148.17687 306.624697 
L 152.671692 306.346017 
L 157.166513 306.68554 
L 161.661335 307.32621 
L 166.156157 307.832954 
L 170.650978 307.146493 
L 175.1458 307.273777 
L 179.640621 308.258568 
L 184.135443 308.664675 
L 188.630265 309.160789 
L 193.125086 309.610522 
L 197.619908 310.493285 
L 202.11473 311.531471 
L 206.609551 312.1538 
L 211.104373 312.716843 
L 215.599194 313.8356 
L 220.094016 314.52213 
L 224.588838 315.133413 
L 229.083659 315.438869 
L 233.578481 315.682631 
L 238.073303 316.027016 
L 242.568124 317.684897 
L 247.062946 321.137619 
L 251.557768 324.248065 
L 256.052589 326.920276 
L 260.547411 329.242896 
L 265.042232 331.416544 
L 269.537054 333.297593 
L 274.031876 335.133647 
L 278.526697 336.866786 
L 283.021519 338.420092 
L 287.516341 339.919345 
L 292.011162 341.328942 
L 296.505984 342.954932 
L 301.000806 344.662857 
" clip-path="url(#p7098ae81ff)" style="fill: none; stroke: #ff7f0e; stroke-width: 1.5; stroke-linecap: square"/>
    <defs>
     <path id="m1b9cc1f846" d="M 0 1.5 
C 0.397805 1.5 0.77937 1.341951 1.06066 1.06066 
C 1.341951 0.77937 1.5 0.397805 1.5 0 
C 1.5 -0.397805 1.341951 -0.77937 1.06066 -1.06066 
C 0.77937 -1.341951 0.397805 -1.5 0 -1.5 
C -0.397805 -1.5 -0.77937 -1.341951 -1.06066 -1.06066 
C -1.341951 -0.77937 -1.5 -0.397805 -1.5 0 
C -1.5 0.397805 -1.341951 0.77937 -1.06066 1.06066 
C -0.77937 1.341951 -0.397805 1.5 0 1.5 
z
" style="stroke: #ff7f0e"/>
    </defs>
    <g clip-path="url(#p7098ae81ff)">
     <use xlink:href="#m1b9cc1f846" x="80.754545" y="75.260209" style="fill: #ff7f0e; stroke: #ff7f0e"/>
     <use xlink:href="#m1b9cc1f846" x="85.249367" y="66.665455" style="fill: #ff7f0e; stroke: #ff7f0e"/>
     <use xlink:href="#m1b9cc1f846" x="89.744189" y="68.870688" style="fill: #ff7f0e; stroke: #ff7f0e"/>
     <use xlink:href="#m1b9cc1f846" x="94.23901" y="82.091036" style="fill: #ff7f0e; stroke: #ff7f0e"/>
     <use xlink:href="#m1b9cc1f846" x="98.733832" y="244.251122" style="fill: #ff7f0e; stroke: #ff7f0e"/>
     <use xlink:href="#m1b9cc1f846" x="103.228654" y="257.05077" style="fill: #ff7f0e; stroke: #ff7f0e"/>
     <use xlink:href="#m1b9cc1f846" x="107.723475" y="260.426069" style="fill: #ff7f0e; stroke: #ff7f0e"/>
     <use xlink:href="#m1b9cc1f846" x="112.218297" y="259.172433" style="fill: #ff7f0e; stroke: #ff7f0e"/>
     <use xlink:href="#m1b9cc1f846" x="116.713119" y="266.797109" style="fill: #ff7f0e; stroke: #ff7f0e"/>
     <use xlink:href="#m1b9cc1f846" x="121.20794" y="280.388618" style="fill: #ff7f0e; stroke: #ff7f0e"/>
     <use xlink:href="#m1b9cc1f846" x="125.702762" y="290.018365" style="fill: #ff7f0e; stroke: #ff7f0e"/>
     <use xlink:href="#m1b9cc1f846" x="130.197583" y="297.187714" style="fill: #ff7f0e; stroke: #ff7f0e"/>
     <use xlink:href="#m1b9cc1f846" x="134.692405" y="302.299492" style="fill: #ff7f0e; stroke: #ff7f0e"/>
     <use xlink:href="#m1b9cc1f846" x="139.187227" y="304.359414" style="fill: #ff7f0e; stroke: #ff7f0e"/>
     <use xlink:href="#m1b9cc1f846" x="143.682048" y="306.060024" style="fill: #ff7f0e; stroke: #ff7f0e"/>
     <use xlink:href="#m1b9cc1f846" x="148.17687" y="306.624697" style="fill: #ff7f0e; stroke: #ff7f0e"/>
     <use xlink:href="#m1b9cc1f846" x="152.671692" y="306.346017" style="fill: #ff7f0e; stroke: #ff7f0e"/>
     <use xlink:href="#m1b9cc1f846" x="157.166513" y="306.68554" style="fill: #ff7f0e; stroke: #ff7f0e"/>
     <use xlink:href="#m1b9cc1f846" x="161.661335" y="307.32621" style="fill: #ff7f0e; stroke: #ff7f0e"/>
     <use xlink:href="#m1b9cc1f846" x="166.156157" y="307.832954" style="fill: #ff7f0e; stroke: #ff7f0e"/>
     <use xlink:href="#m1b9cc1f846" x="170.650978" y="307.146493" style="fill: #ff7f0e; stroke: #ff7f0e"/>
     <use xlink:href="#m1b9cc1f846" x="175.1458" y="307.273777" style="fill: #ff7f0e; stroke: #ff7f0e"/>
     <use xlink:href="#m1b9cc1f846" x="179.640621" y="308.258568" style="fill: #ff7f0e; stroke: #ff7f0e"/>
     <use xlink:href="#m1b9cc1f846" x="184.135443" y="308.664675" style="fill: #ff7f0e; stroke: #ff7f0e"/>
     <use xlink:href="#m1b9cc1f846" x="188.630265" y="309.160789" style="fill: #ff7f0e; stroke: #ff7f0e"/>
     <use xlink:href="#m1b9cc1f846" x="193.125086" y="309.610522" style="fill: #ff7f0e; stroke: #ff7f0e"/>
     <use xlink:href="#m1b9cc1f846" x="197.619908" y="310.493285" style="fill: #ff7f0e; stroke: #ff7f0e"/>
     <use xlink:href="#m1b9cc1f846" x="202.11473" y="311.531471" style="fill: #ff7f0e; stroke: #ff7f0e"/>
     <use xlink:href="#m1b9cc1f846" x="206.609551" y="312.1538" style="fill: #ff7f0e; stroke: #ff7f0e"/>
     <use xlink:href="#m1b9cc1f846" x="211.104373" y="312.716843" style="fill: #ff7f0e; stroke: #ff7f0e"/>
     <use xlink:href="#m1b9cc1f846" x="215.599194" y="313.8356" style="fill: #ff7f0e; stroke: #ff7f0e"/>
     <use xlink:href="#m1b9cc1f846" x="220.094016" y="314.52213" style="fill: #ff7f0e; stroke: #ff7f0e"/>
     <use xlink:href="#m1b9cc1f846" x="224.588838" y="315.133413" style="fill: #ff7f0e; stroke: #ff7f0e"/>
     <use xlink:href="#m1b9cc1f846" x="229.083659" y="315.438869" style="fill: #ff7f0e; stroke: #ff7f0e"/>
     <use xlink:href="#m1b9cc1f846" x="233.578481" y="315.682631" style="fill: #ff7f0e; stroke: #ff7f0e"/>
     <use xlink:href="#m1b9cc1f846" x="238.073303" y="316.027016" style="fill: #ff7f0e; stroke: #ff7f0e"/>
     <use xlink:href="#m1b9cc1f846" x="242.568124" y="317.684897" style="fill: #ff7f0e; stroke: #ff7f0e"/>
     <use xlink:href="#m1b9cc1f846" x="247.062946" y="321.137619" style="fill: #ff7f0e; stroke: #ff7f0e"/>
     <use xlink:href="#m1b9cc1f846" x="251.557768" y="324.248065" style="fill: #ff7f0e; stroke: #ff7f0e"/>
     <use xlink:href="#m1b9cc1f846" x="256.052589" y="326.920276" style="fill: #ff7f0e; stroke: #ff7f0e"/>
     <use xlink:href="#m1b9cc1f846" x="260.547411" y="329.242896" style="fill: #ff7f0e; stroke: #ff7f0e"/>
     <use xlink:href="#m1b9cc1f846" x="265.042232" y="331.416544" style="fill: #ff7f0e; stroke: #ff7f0e"/>
     <use xlink:href="#m1b9cc1f846" x="269.537054" y="333.297593" style="fill: #ff7f0e; stroke: #ff7f0e"/>
     <use xlink:href="#m1b9cc1f846" x="274.031876" y="335.133647" style="fill: #ff7f0e; stroke: #ff7f0e"/>
     <use xlink:href="#m1b9cc1f846" x="278.526697" y="336.866786" style="fill: #ff7f0e; stroke: #ff7f0e"/>
     <use xlink:href="#m1b9cc1f846" x="283.021519" y="338.420092" style="fill: #ff7f0e; stroke: #ff7f0e"/>
     <use xlink:href="#m1b9cc1f846" x="287.516341" y="339.919345" style="fill: #ff7f0e; stroke: #ff7f0e"/>
     <use xlink:href="#m1b9cc1f846" x="292.011162" y="341.328942" style="fill: #ff7f0e; stroke: #ff7f0e"/>
     <use xlink:href="#m1b9cc1f846" x="296.505984" y="342.954932" style="fill: #ff7f0e; stroke: #ff7f0e"/>
     <use xlink:href="#m1b9cc1f846" x="301.000806" y="344.662857" style="fill: #ff7f0e; stroke: #ff7f0e"/>
    </g>
   </g>
   <g id="line2d_18">
    <path d="M 80.754545 169.581193 
L 85.249367 173.009907 
L 89.744189 155.478637 
L 94.23901 155.93967 
L 98.733832 188.047355 
L 103.228654 196.091169 
L 107.723475 232.231349 
L 112.218297 255.547408 
L 116.713119 277.211065 
L 121.20794 290.72149 
L 125.702762 297.718696 
L 130.197583 300.749445 
L 134.692405 303.678958 
L 139.187227 305.019548 
L 143.682048 305.700742 
L 148.17687 304.802787 
L 152.671692 303.471253 
L 157.166513 303.263835 
L 161.661335 302.346028 
L 166.156157 301.874412 
L 170.650978 302.444925 
L 175.1458 302.214964 
L 179.640621 302.592259 
L 184.135443 303.293759 
L 188.630265 303.336238 
L 193.125086 303.0047 
L 197.619908 302.803244 
L 202.11473 302.19851 
L 206.609551 301.470295 
L 211.104373 301.308051 
L 215.599194 301.711778 
L 220.094016 302.331745 
L 224.588838 303.035152 
L 229.083659 303.796728 
L 233.578481 304.517822 
L 238.073303 305.46637 
L 242.568124 306.14691 
L 247.062946 307.208776 
L 251.557768 308.631268 
L 256.052589 310.125812 
L 260.547411 311.580952 
L 265.042232 312.968718 
L 269.537054 313.857809 
L 274.031876 314.682732 
L 278.526697 315.17028 
L 283.021519 316.013616 
L 287.516341 316.871785 
L 292.011162 317.589409 
L 296.505984 318.240976 
L 301.000806 319.225368 
L 305.495627 320.655317 
L 309.990449 321.738846 
L 314.48527 322.707831 
L 318.980092 323.925746 
L 323.474914 324.887302 
L 327.969735 325.875025 
L 332.464557 327.215102 
L 336.959379 328.825606 
L 341.4542 330.581931 
L 345.949022 332.202185 
L 350.443843 333.40597 
L 354.938665 334.607596 
L 359.433487 336.108237 
L 363.928308 337.313421 
L 368.42313 338.462794 
L 372.917952 339.769836 
L 377.412773 341.072786 
L 381.907595 342.302333 
L 386.402417 342.98775 
L 390.897238 344.500023 
L 395.39206 345.75295 
L 399.886881 347.218671 
L 404.381703 348.416503 
L 408.876525 349.619899 
L 413.371346 351.917019 
L 417.866168 353.211568 
L 422.36099 354.32292 
L 426.855811 355.538925 
L 431.350633 356.868021 
L 435.845455 358.574214 
" clip-path="url(#p7098ae81ff)" style="fill: none; stroke: #1f77b4; stroke-width: 1.5; stroke-linecap: square"/>
   </g>
   <g id="line2d_19">
    <path d="M 80.754545 173.098484 
L 85.249367 176.527197 
L 89.744189 158.995927 
L 94.23901 159.45696 
L 98.733832 191.564646 
L 103.228654 199.608459 
L 107.723475 235.74864 
L 112.218297 259.064698 
L 116.713119 280.728356 
L 121.20794 294.238781 
L 125.702762 301.235986 
L 130.197583 304.266735 
L 134.692405 307.196248 
L 139.187227 308.536839 
L 143.682048 309.218033 
L 148.17687 308.320077 
L 152.671692 306.988544 
L 157.166513 306.781126 
L 161.661335 305.863318 
L 166.156157 305.391702 
L 170.650978 305.962216 
L 175.1458 305.732254 
L 179.640621 306.10955 
L 184.135443 306.81105 
L 188.630265 306.853529 
L 193.125086 306.521991 
L 197.619908 306.320534 
L 202.11473 305.7158 
L 206.609551 304.987585 
L 211.104373 304.825342 
L 215.599194 305.229069 
L 220.094016 305.849036 
L 224.588838 306.552443 
L 229.083659 307.314019 
L 233.578481 308.035112 
L 238.073303 308.98366 
L 242.568124 309.6642 
L 247.062946 310.726067 
L 251.557768 312.148559 
L 256.052589 313.643103 
L 260.547411 315.098243 
L 265.042232 316.486009 
L 269.537054 317.375099 
L 274.031876 318.200023 
L 278.526697 318.687571 
L 283.021519 319.530907 
L 287.516341 320.389076 
L 292.011162 321.1067 
L 296.505984 321.758266 
L 301.000806 322.742658 
L 305.495627 324.172608 
L 309.990449 325.256136 
L 314.48527 326.225122 
L 318.980092 327.443037 
L 323.474914 328.404592 
L 327.969735 329.392316 
L 332.464557 330.732393 
L 336.959379 332.342897 
L 341.4542 334.099221 
L 345.949022 335.719476 
L 350.443843 336.92326 
L 354.938665 338.124887 
L 359.433487 339.625527 
L 363.928308 340.830712 
L 368.42313 341.980084 
L 372.917952 343.287127 
L 377.412773 344.590076 
L 381.907595 345.819624 
L 386.402417 346.505041 
L 390.897238 348.017313 
L 395.39206 349.270241 
L 399.886881 350.735962 
L 404.381703 351.933794 
L 408.876525 353.13719 
L 413.371346 355.43431 
L 417.866168 356.728859 
L 422.36099 357.840211 
L 426.855811 359.056216 
L 431.350633 360.385312 
L 435.845455 362.091505 
" clip-path="url(#p7098ae81ff)" style="fill: none; stroke: #1f77b4; stroke-width: 1.5; stroke-linecap: square"/>
   </g>
   <g id="line2d_20">
    <path d="M 80.754545 171.339838 
L 85.249367 174.768552 
L 89.744189 157.237282 
L 94.23901 157.698315 
L 98.733832 189.806001 
L 103.228654 197.849814 
L 107.723475 233.989994 
L 112.218297 257.306053 
L 116.713119 278.96971 
L 121.20794 292.480136 
L 125.702762 299.477341 
L 130.197583 302.50809 
L 134.692405 305.437603 
L 139.187227 306.778193 
L 143.682048 307.459387 
L 148.17687 306.561432 
L 152.671692 305.229898 
L 157.166513 305.022481 
L 161.661335 304.104673 
L 166.156157 303.633057 
L 170.650978 304.20357 
L 175.1458 303.973609 
L 179.640621 304.350904 
L 184.135443 305.052405 
L 188.630265 305.094883 
L 193.125086 304.763346 
L 197.619908 304.561889 
L 202.11473 303.957155 
L 206.609551 303.22894 
L 211.104373 303.066697 
L 215.599194 303.470424 
L 220.094016 304.09039 
L 224.588838 304.793797 
L 229.083659 305.555374 
L 233.578481 306.276467 
L 238.073303 307.225015 
L 242.568124 307.905555 
L 247.062946 308.967422 
L 251.557768 310.389914 
L 256.052589 311.884457 
L 260.547411 313.339598 
L 265.042232 314.727363 
L 269.537054 315.616454 
L 274.031876 316.441377 
L 278.526697 316.928926 
L 283.021519 317.772261 
L 287.516341 318.630431 
L 292.011162 319.348054 
L 296.505984 319.999621 
L 301.000806 320.984013 
L 305.495627 322.413963 
L 309.990449 323.497491 
L 314.48527 324.466477 
L 318.980092 325.684392 
L 323.474914 326.645947 
L 327.969735 327.63367 
L 332.464557 328.973747 
L 336.959379 330.584251 
L 341.4542 332.340576 
L 345.949022 333.960831 
L 350.443843 335.164615 
L 354.938665 336.366242 
L 359.433487 337.866882 
L 363.928308 339.072066 
L 368.42313 340.221439 
L 372.917952 341.528481 
L 377.412773 342.831431 
L 381.907595 344.060978 
L 386.402417 344.746396 
L 390.897238 346.258668 
L 395.39206 347.511596 
L 399.886881 348.977317 
L 404.381703 350.175148 
L 408.876525 351.378545 
L 413.371346 353.675665 
L 417.866168 354.970213 
L 422.36099 356.081565 
L 426.855811 357.297571 
L 431.350633 358.626667 
L 435.845455 360.33286 
" clip-path="url(#p7098ae81ff)" style="fill: none; stroke: #008000; stroke-width: 1.5; stroke-linecap: square"/>
    <defs>
     <path id="m62fb1c5292" d="M 0 1.5 
C 0.397805 1.5 0.77937 1.341951 1.06066 1.06066 
C 1.341951 0.77937 1.5 0.397805 1.5 0 
C 1.5 -0.397805 1.341951 -0.77937 1.06066 -1.06066 
C 0.77937 -1.341951 0.397805 -1.5 0 -1.5 
C -0.397805 -1.5 -0.77937 -1.341951 -1.06066 -1.06066 
C -1.341951 -0.77937 -1.5 -0.397805 -1.5 0 
C -1.5 0.397805 -1.341951 0.77937 -1.06066 1.06066 
C -0.77937 1.341951 -0.397805 1.5 0 1.5 
z
" style="stroke: #008000"/>
    </defs>
    <g clip-path="url(#p7098ae81ff)">
     <use xlink:href="#m62fb1c5292" x="80.754545" y="171.339838" style="fill: #008000; stroke: #008000"/>
     <use xlink:href="#m62fb1c5292" x="85.249367" y="174.768552" style="fill: #008000; stroke: #008000"/>
     <use xlink:href="#m62fb1c5292" x="89.744189" y="157.237282" style="fill: #008000; stroke: #008000"/>
     <use xlink:href="#m62fb1c5292" x="94.23901" y="157.698315" style="fill: #008000; stroke: #008000"/>
     <use xlink:href="#m62fb1c5292" x="98.733832" y="189.806001" style="fill: #008000; stroke: #008000"/>
     <use xlink:href="#m62fb1c5292" x="103.228654" y="197.849814" style="fill: #008000; stroke: #008000"/>
     <use xlink:href="#m62fb1c5292" x="107.723475" y="233.989994" style="fill: #008000; stroke: #008000"/>
     <use xlink:href="#m62fb1c5292" x="112.218297" y="257.306053" style="fill: #008000; stroke: #008000"/>
     <use xlink:href="#m62fb1c5292" x="116.713119" y="278.96971" style="fill: #008000; stroke: #008000"/>
     <use xlink:href="#m62fb1c5292" x="121.20794" y="292.480136" style="fill: #008000; stroke: #008000"/>
     <use xlink:href="#m62fb1c5292" x="125.702762" y="299.477341" style="fill: #008000; stroke: #008000"/>
     <use xlink:href="#m62fb1c5292" x="130.197583" y="302.50809" style="fill: #008000; stroke: #008000"/>
     <use xlink:href="#m62fb1c5292" x="134.692405" y="305.437603" style="fill: #008000; stroke: #008000"/>
     <use xlink:href="#m62fb1c5292" x="139.187227" y="306.778193" style="fill: #008000; stroke: #008000"/>
     <use xlink:href="#m62fb1c5292" x="143.682048" y="307.459387" style="fill: #008000; stroke: #008000"/>
     <use xlink:href="#m62fb1c5292" x="148.17687" y="306.561432" style="fill: #008000; stroke: #008000"/>
     <use xlink:href="#m62fb1c5292" x="152.671692" y="305.229898" style="fill: #008000; stroke: #008000"/>
     <use xlink:href="#m62fb1c5292" x="157.166513" y="305.022481" style="fill: #008000; stroke: #008000"/>
     <use xlink:href="#m62fb1c5292" x="161.661335" y="304.104673" style="fill: #008000; stroke: #008000"/>
     <use xlink:href="#m62fb1c5292" x="166.156157" y="303.633057" style="fill: #008000; stroke: #008000"/>
     <use xlink:href="#m62fb1c5292" x="170.650978" y="304.20357" style="fill: #008000; stroke: #008000"/>
     <use xlink:href="#m62fb1c5292" x="175.1458" y="303.973609" style="fill: #008000; stroke: #008000"/>
     <use xlink:href="#m62fb1c5292" x="179.640621" y="304.350904" style="fill: #008000; stroke: #008000"/>
     <use xlink:href="#m62fb1c5292" x="184.135443" y="305.052405" style="fill: #008000; stroke: #008000"/>
     <use xlink:href="#m62fb1c5292" x="188.630265" y="305.094883" style="fill: #008000; stroke: #008000"/>
     <use xlink:href="#m62fb1c5292" x="193.125086" y="304.763346" style="fill: #008000; stroke: #008000"/>
     <use xlink:href="#m62fb1c5292" x="197.619908" y="304.561889" style="fill: #008000; stroke: #008000"/>
     <use xlink:href="#m62fb1c5292" x="202.11473" y="303.957155" style="fill: #008000; stroke: #008000"/>
     <use xlink:href="#m62fb1c5292" x="206.609551" y="303.22894" style="fill: #008000; stroke: #008000"/>
     <use xlink:href="#m62fb1c5292" x="211.104373" y="303.066697" style="fill: #008000; stroke: #008000"/>
     <use xlink:href="#m62fb1c5292" x="215.599194" y="303.470424" style="fill: #008000; stroke: #008000"/>
     <use xlink:href="#m62fb1c5292" x="220.094016" y="304.09039" style="fill: #008000; stroke: #008000"/>
     <use xlink:href="#m62fb1c5292" x="224.588838" y="304.793797" style="fill: #008000; stroke: #008000"/>
     <use xlink:href="#m62fb1c5292" x="229.083659" y="305.555374" style="fill: #008000; stroke: #008000"/>
     <use xlink:href="#m62fb1c5292" x="233.578481" y="306.276467" style="fill: #008000; stroke: #008000"/>
     <use xlink:href="#m62fb1c5292" x="238.073303" y="307.225015" style="fill: #008000; stroke: #008000"/>
     <use xlink:href="#m62fb1c5292" x="242.568124" y="307.905555" style="fill: #008000; stroke: #008000"/>
     <use xlink:href="#m62fb1c5292" x="247.062946" y="308.967422" style="fill: #008000; stroke: #008000"/>
     <use xlink:href="#m62fb1c5292" x="251.557768" y="310.389914" style="fill: #008000; stroke: #008000"/>
     <use xlink:href="#m62fb1c5292" x="256.052589" y="311.884457" style="fill: #008000; stroke: #008000"/>
     <use xlink:href="#m62fb1c5292" x="260.547411" y="313.339598" style="fill: #008000; stroke: #008000"/>
     <use xlink:href="#m62fb1c5292" x="265.042232" y="314.727363" style="fill: #008000; stroke: #008000"/>
     <use xlink:href="#m62fb1c5292" x="269.537054" y="315.616454" style="fill: #008000; stroke: #008000"/>
     <use xlink:href="#m62fb1c5292" x="274.031876" y="316.441377" style="fill: #008000; stroke: #008000"/>
     <use xlink:href="#m62fb1c5292" x="278.526697" y="316.928926" style="fill: #008000; stroke: #008000"/>
     <use xlink:href="#m62fb1c5292" x="283.021519" y="317.772261" style="fill: #008000; stroke: #008000"/>
     <use xlink:href="#m62fb1c5292" x="287.516341" y="318.630431" style="fill: #008000; stroke: #008000"/>
     <use xlink:href="#m62fb1c5292" x="292.011162" y="319.348054" style="fill: #008000; stroke: #008000"/>
     <use xlink:href="#m62fb1c5292" x="296.505984" y="319.999621" style="fill: #008000; stroke: #008000"/>
     <use xlink:href="#m62fb1c5292" x="301.000806" y="320.984013" style="fill: #008000; stroke: #008000"/>
     <use xlink:href="#m62fb1c5292" x="305.495627" y="322.413963" style="fill: #008000; stroke: #008000"/>
     <use xlink:href="#m62fb1c5292" x="309.990449" y="323.497491" style="fill: #008000; stroke: #008000"/>
     <use xlink:href="#m62fb1c5292" x="314.48527" y="324.466477" style="fill: #008000; stroke: #008000"/>
     <use xlink:href="#m62fb1c5292" x="318.980092" y="325.684392" style="fill: #008000; stroke: #008000"/>
     <use xlink:href="#m62fb1c5292" x="323.474914" y="326.645947" style="fill: #008000; stroke: #008000"/>
     <use xlink:href="#m62fb1c5292" x="327.969735" y="327.63367" style="fill: #008000; stroke: #008000"/>
     <use xlink:href="#m62fb1c5292" x="332.464557" y="328.973747" style="fill: #008000; stroke: #008000"/>
     <use xlink:href="#m62fb1c5292" x="336.959379" y="330.584251" style="fill: #008000; stroke: #008000"/>
     <use xlink:href="#m62fb1c5292" x="341.4542" y="332.340576" style="fill: #008000; stroke: #008000"/>
     <use xlink:href="#m62fb1c5292" x="345.949022" y="333.960831" style="fill: #008000; stroke: #008000"/>
     <use xlink:href="#m62fb1c5292" x="350.443843" y="335.164615" style="fill: #008000; stroke: #008000"/>
     <use xlink:href="#m62fb1c5292" x="354.938665" y="336.366242" style="fill: #008000; stroke: #008000"/>
     <use xlink:href="#m62fb1c5292" x="359.433487" y="337.866882" style="fill: #008000; stroke: #008000"/>
     <use xlink:href="#m62fb1c5292" x="363.928308" y="339.072066" style="fill: #008000; stroke: #008000"/>
     <use xlink:href="#m62fb1c5292" x="368.42313" y="340.221439" style="fill: #008000; stroke: #008000"/>
     <use xlink:href="#m62fb1c5292" x="372.917952" y="341.528481" style="fill: #008000; stroke: #008000"/>
     <use xlink:href="#m62fb1c5292" x="377.412773" y="342.831431" style="fill: #008000; stroke: #008000"/>
     <use xlink:href="#m62fb1c5292" x="381.907595" y="344.060978" style="fill: #008000; stroke: #008000"/>
     <use xlink:href="#m62fb1c5292" x="386.402417" y="344.746396" style="fill: #008000; stroke: #008000"/>
     <use xlink:href="#m62fb1c5292" x="390.897238" y="346.258668" style="fill: #008000; stroke: #008000"/>
     <use xlink:href="#m62fb1c5292" x="395.39206" y="347.511596" style="fill: #008000; stroke: #008000"/>
     <use xlink:href="#m62fb1c5292" x="399.886881" y="348.977317" style="fill: #008000; stroke: #008000"/>
     <use xlink:href="#m62fb1c5292" x="404.381703" y="350.175148" style="fill: #008000; stroke: #008000"/>
     <use xlink:href="#m62fb1c5292" x="408.876525" y="351.378545" style="fill: #008000; stroke: #008000"/>
     <use xlink:href="#m62fb1c5292" x="413.371346" y="353.675665" style="fill: #008000; stroke: #008000"/>
     <use xlink:href="#m62fb1c5292" x="417.866168" y="354.970213" style="fill: #008000; stroke: #008000"/>
     <use xlink:href="#m62fb1c5292" x="422.36099" y="356.081565" style="fill: #008000; stroke: #008000"/>
     <use xlink:href="#m62fb1c5292" x="426.855811" y="357.297571" style="fill: #008000; stroke: #008000"/>
     <use xlink:href="#m62fb1c5292" x="431.350633" y="358.626667" style="fill: #008000; stroke: #008000"/>
     <use xlink:href="#m62fb1c5292" x="435.845455" y="360.33286" style="fill: #008000; stroke: #008000"/>
    </g>
   </g>
   <g id="patch_3">
    <path d="M 63 378 
L 63 51.84 
" style="fill: none; stroke: #000000; stroke-width: 0.8; stroke-linejoin: miter; stroke-linecap: square"/>
   </g>
   <g id="patch_4">
    <path d="M 453.6 378 
L 453.6 51.84 
" style="fill: none; stroke: #000000; stroke-width: 0.8; stroke-linejoin: miter; stroke-linecap: square"/>
   </g>
   <g id="patch_5">
    <path d="M 63 378 
L 453.6 378 
" style="fill: none; stroke: #000000; stroke-width: 0.8; stroke-linejoin: miter; stroke-linecap: square"/>
   </g>
   <g id="patch_6">
    <path d="M 63 51.84 
L 453.6 51.84 
" style="fill: none; stroke: #000000; stroke-width: 0.8; stroke-linejoin: miter; stroke-linecap: square"/>
   </g>
   <g id="text_17">
    <!-- peak energy shift -->
    <g transform="translate(188.52875 45.84)scale(0.16 -0.16)">
     <defs>
      <path id="DejaVuSans-70" d="M 1159 525 
L 1159 -1331 
L 581 -1331 
L 581 3500 
L 1159 3500 
L 1159 2969 
Q 1341 3281 1617 3432 
Q 1894 3584 2278 3584 
Q 2916 3584 3314 3078 
Q 3713 2572 3713 1747 
Q 3713 922 3314 415 
Q 2916 -91 2278 -91 
Q 1894 -91 1617 61 
Q 1341 213 1159 525 
z
M 3116 1747 
Q 3116 2381 2855 2742 
Q 2594 3103 2138 3103 
Q 1681 3103 1420 2742 
Q 1159 2381 1159 1747 
Q 1159 1113 1420 752 
Q 1681 391 2138 391 
Q 2594 391 2855 752 
Q 3116 1113 3116 1747 
z
" transform="scale(0.015625)"/>
      <path id="DejaVuSans-61" d="M 2194 1759 
Q 1497 1759 1228 1600 
Q 959 1441 959 1056 
Q 959 750 1161 570 
Q 1363 391 1709 391 
Q 2188 391 2477 730 
Q 2766 1069 2766 1631 
L 2766 1759 
L 2194 1759 
z
M 3341 1997 
L 3341 0 
L 2766 0 
L 2766 531 
Q 2569 213 2275 61 
Q 1981 -91 1556 -91 
Q 1019 -91 701 211 
Q 384 513 384 1019 
Q 384 1609 779 1909 
Q 1175 2209 1959 2209 
L 2766 2209 
L 2766 2266 
Q 2766 2663 2505 2880 
Q 2244 3097 1772 3097 
Q 1472 3097 1187 3025 
Q 903 2953 641 2809 
L 641 3341 
Q 956 3463 1253 3523 
Q 1550 3584 1831 3584 
Q 2591 3584 2966 3190 
Q 3341 2797 3341 1997 
z
" transform="scale(0.015625)"/>
      <path id="DejaVuSans-6b" d="M 581 4863 
L 1159 4863 
L 1159 1991 
L 2875 3500 
L 3609 3500 
L 1753 1863 
L 3688 0 
L 2938 0 
L 1159 1709 
L 1159 0 
L 581 0 
L 581 4863 
z
" transform="scale(0.015625)"/>
      <path id="DejaVuSans-20" transform="scale(0.015625)"/>
      <path id="DejaVuSans-73" d="M 2834 3397 
L 2834 2853 
Q 2591 2978 2328 3040 
Q 2066 3103 1784 3103 
Q 1356 3103 1142 2972 
Q 928 2841 928 2578 
Q 928 2378 1081 2264 
Q 1234 2150 1697 2047 
L 1894 2003 
Q 2506 1872 2764 1633 
Q 3022 1394 3022 966 
Q 3022 478 2636 193 
Q 2250 -91 1575 -91 
Q 1294 -91 989 -36 
Q 684 19 347 128 
L 347 722 
Q 666 556 975 473 
Q 1284 391 1588 391 
Q 1994 391 2212 530 
Q 2431 669 2431 922 
Q 2431 1156 2273 1281 
Q 2116 1406 1581 1522 
L 1381 1569 
Q 847 1681 609 1914 
Q 372 2147 372 2553 
Q 372 3047 722 3315 
Q 1072 3584 1716 3584 
Q 2034 3584 2315 3537 
Q 2597 3491 2834 3397 
z
" transform="scale(0.015625)"/>
      <path id="DejaVuSans-68" d="M 3513 2113 
L 3513 0 
L 2938 0 
L 2938 2094 
Q 2938 2591 2744 2837 
Q 2550 3084 2163 3084 
Q 1697 3084 1428 2787 
Q 1159 2491 1159 1978 
L 1159 0 
L 581 0 
L 581 4863 
L 1159 4863 
L 1159 2956 
Q 1366 3272 1645 3428 
Q 1925 3584 2291 3584 
Q 2894 3584 3203 3211 
Q 3513 2838 3513 2113 
z
" transform="scale(0.015625)"/>
      <path id="DejaVuSans-69" d="M 603 3500 
L 1178 3500 
L 1178 0 
L 603 0 
L 603 3500 
z
M 603 4863 
L 1178 4863 
L 1178 4134 
L 603 4134 
L 603 4863 
z
" transform="scale(0.015625)"/>
      <path id="DejaVuSans-66" d="M 2375 4863 
L 2375 4384 
L 1825 4384 
Q 1516 4384 1395 4259 
Q 1275 4134 1275 3809 
L 1275 3500 
L 2222 3500 
L 2222 3053 
L 1275 3053 
L 1275 0 
L 697 0 
L 697 3053 
L 147 3053 
L 147 3500 
L 697 3500 
L 697 3744 
Q 697 4328 969 4595 
Q 1241 4863 1831 4863 
L 2375 4863 
z
" transform="scale(0.015625)"/>
      <path id="DejaVuSans-74" d="M 1172 4494 
L 1172 3500 
L 2356 3500 
L 2356 3053 
L 1172 3053 
L 1172 1153 
Q 1172 725 1289 603 
Q 1406 481 1766 481 
L 2356 481 
L 2356 0 
L 1766 0 
Q 1100 0 847 248 
Q 594 497 594 1153 
L 594 3053 
L 172 3053 
L 172 3500 
L 594 3500 
L 594 4494 
L 1172 4494 
z
" transform="scale(0.015625)"/>
     </defs>
     <use xlink:href="#DejaVuSans-70"/>
     <use xlink:href="#DejaVuSans-65" x="63.476562"/>
     <use xlink:href="#DejaVuSans-61" x="125"/>
     <use xlink:href="#DejaVuSans-6b" x="186.279297"/>
     <use xlink:href="#DejaVuSans-20" x="244.189453"/>
     <use xlink:href="#DejaVuSans-65" x="275.976562"/>
     <use xlink:href="#DejaVuSans-6e" x="337.5"/>
     <use xlink:href="#DejaVuSans-65" x="400.878906"/>
     <use xlink:href="#DejaVuSans-72" x="462.402344"/>
     <use xlink:href="#DejaVuSans-67" x="501.765625"/>
     <use xlink:href="#DejaVuSans-79" x="565.242188"/>
     <use xlink:href="#DejaVuSans-20" x="624.421875"/>
     <use xlink:href="#DejaVuSans-73" x="656.208984"/>
     <use xlink:href="#DejaVuSans-68" x="708.308594"/>
     <use xlink:href="#DejaVuSans-69" x="771.6875"/>
     <use xlink:href="#DejaVuSans-66" x="799.470703"/>
     <use xlink:href="#DejaVuSans-74" x="832.925781"/>
    </g>
   </g>
   <g id="legend_1">
    <g id="patch_7">
     <path d="M 227.2775 135.095 
L 442.4 135.095 
Q 445.6 135.095 445.6 131.895 
L 445.6 63.04 
Q 445.6 59.84 442.4 59.84 
L 227.2775 59.84 
Q 224.0775 59.84 224.0775 63.04 
L 224.0775 131.895 
Q 224.0775 135.095 227.2775 135.095 
z
" style="fill: #ffffff; opacity: 0.8; stroke: #cccccc; stroke-linejoin: miter"/>
    </g>
    <g id="line2d_21">
     <path d="M 230.4775 72.7975 
L 246.4775 72.7975 
L 262.4775 72.7975 
" style="fill: none; stroke: #ff7f0e; stroke-width: 1.5; stroke-linecap: square"/>
     <g>
      <use xlink:href="#m1b9cc1f846" x="246.4775" y="72.7975" style="fill: #ff7f0e; stroke: #ff7f0e"/>
     </g>
    </g>
    <g id="text_18">
     <!-- data (downramp) -->
     <g transform="translate(275.2775 78.3975)scale(0.16 -0.16)">
      <defs>
       <path id="DejaVuSans-64" d="M 2906 2969 
L 2906 4863 
L 3481 4863 
L 3481 0 
L 2906 0 
L 2906 525 
Q 2725 213 2448 61 
Q 2172 -91 1784 -91 
Q 1150 -91 751 415 
Q 353 922 353 1747 
Q 353 2572 751 3078 
Q 1150 3584 1784 3584 
Q 2172 3584 2448 3432 
Q 2725 3281 2906 2969 
z
M 947 1747 
Q 947 1113 1208 752 
Q 1469 391 1925 391 
Q 2381 391 2643 752 
Q 2906 1113 2906 1747 
Q 2906 2381 2643 2742 
Q 2381 3103 1925 3103 
Q 1469 3103 1208 2742 
Q 947 2381 947 1747 
z
" transform="scale(0.015625)"/>
       <path id="DejaVuSans-28" d="M 1984 4856 
Q 1566 4138 1362 3434 
Q 1159 2731 1159 2009 
Q 1159 1288 1364 580 
Q 1569 -128 1984 -844 
L 1484 -844 
Q 1016 -109 783 600 
Q 550 1309 550 2009 
Q 550 2706 781 3412 
Q 1013 4119 1484 4856 
L 1984 4856 
z
" transform="scale(0.015625)"/>
       <path id="DejaVuSans-6f" d="M 1959 3097 
Q 1497 3097 1228 2736 
Q 959 2375 959 1747 
Q 959 1119 1226 758 
Q 1494 397 1959 397 
Q 2419 397 2687 759 
Q 2956 1122 2956 1747 
Q 2956 2369 2687 2733 
Q 2419 3097 1959 3097 
z
M 1959 3584 
Q 2709 3584 3137 3096 
Q 3566 2609 3566 1747 
Q 3566 888 3137 398 
Q 2709 -91 1959 -91 
Q 1206 -91 779 398 
Q 353 888 353 1747 
Q 353 2609 779 3096 
Q 1206 3584 1959 3584 
z
" transform="scale(0.015625)"/>
       <path id="DejaVuSans-77" d="M 269 3500 
L 844 3500 
L 1563 769 
L 2278 3500 
L 2956 3500 
L 3675 769 
L 4391 3500 
L 4966 3500 
L 4050 0 
L 3372 0 
L 2619 2869 
L 1863 0 
L 1184 0 
L 269 3500 
z
" transform="scale(0.015625)"/>
       <path id="DejaVuSans-29" d="M 513 4856 
L 1013 4856 
Q 1481 4119 1714 3412 
Q 1947 2706 1947 2009 
Q 1947 1309 1714 600 
Q 1481 -109 1013 -844 
L 513 -844 
Q 928 -128 1133 580 
Q 1338 1288 1338 2009 
Q 1338 2731 1133 3434 
Q 928 4138 513 4856 
z
" transform="scale(0.015625)"/>
      </defs>
      <use xlink:href="#DejaVuSans-64"/>
      <use xlink:href="#DejaVuSans-61" x="63.476562"/>
      <use xlink:href="#DejaVuSans-74" x="124.755859"/>
      <use xlink:href="#DejaVuSans-61" x="163.964844"/>
      <use xlink:href="#DejaVuSans-20" x="225.244141"/>
      <use xlink:href="#DejaVuSans-28" x="257.03125"/>
      <use xlink:href="#DejaVuSans-64" x="296.044922"/>
      <use xlink:href="#DejaVuSans-6f" x="359.521484"/>
      <use xlink:href="#DejaVuSans-77" x="420.703125"/>
      <use xlink:href="#DejaVuSans-6e" x="502.490234"/>
      <use xlink:href="#DejaVuSans-72" x="565.869141"/>
      <use xlink:href="#DejaVuSans-61" x="606.982422"/>
      <use xlink:href="#DejaVuSans-6d" x="668.261719"/>
      <use xlink:href="#DejaVuSans-70" x="765.673828"/>
      <use xlink:href="#DejaVuSans-29" x="829.150391"/>
     </g>
    </g>
    <g id="line2d_22">
     <path d="M 230.4775 96.2825 
L 246.4775 96.2825 
L 262.4775 96.2825 
" style="fill: none; stroke: #1f77b4; stroke-width: 1.5; stroke-linecap: square"/>
    </g>
    <g id="text_19">
     <!-- sys. uncertainty -->
     <g transform="translate(275.2775 101.8825)scale(0.16 -0.16)">
      <defs>
       <path id="DejaVuSans-2e" d="M 684 794 
L 1344 794 
L 1344 0 
L 684 0 
L 684 794 
z
" transform="scale(0.015625)"/>
       <path id="DejaVuSans-75" d="M 544 1381 
L 544 3500 
L 1119 3500 
L 1119 1403 
Q 1119 906 1312 657 
Q 1506 409 1894 409 
Q 2359 409 2629 706 
Q 2900 1003 2900 1516 
L 2900 3500 
L 3475 3500 
L 3475 0 
L 2900 0 
L 2900 538 
Q 2691 219 2414 64 
Q 2138 -91 1772 -91 
Q 1169 -91 856 284 
Q 544 659 544 1381 
z
M 1991 3584 
L 1991 3584 
z
" transform="scale(0.015625)"/>
       <path id="DejaVuSans-63" d="M 3122 3366 
L 3122 2828 
Q 2878 2963 2633 3030 
Q 2388 3097 2138 3097 
Q 1578 3097 1268 2742 
Q 959 2388 959 1747 
Q 959 1106 1268 751 
Q 1578 397 2138 397 
Q 2388 397 2633 464 
Q 2878 531 3122 666 
L 3122 134 
Q 2881 22 2623 -34 
Q 2366 -91 2075 -91 
Q 1284 -91 818 406 
Q 353 903 353 1747 
Q 353 2603 823 3093 
Q 1294 3584 2113 3584 
Q 2378 3584 2631 3529 
Q 2884 3475 3122 3366 
z
" transform="scale(0.015625)"/>
      </defs>
      <use xlink:href="#DejaVuSans-73"/>
      <use xlink:href="#DejaVuSans-79" x="52.099609"/>
      <use xlink:href="#DejaVuSans-73" x="111.279297"/>
      <use xlink:href="#DejaVuSans-2e" x="163.378906"/>
      <use xlink:href="#DejaVuSans-20" x="195.166016"/>
      <use xlink:href="#DejaVuSans-75" x="226.953125"/>
      <use xlink:href="#DejaVuSans-6e" x="290.332031"/>
      <use xlink:href="#DejaVuSans-63" x="353.710938"/>
      <use xlink:href="#DejaVuSans-65" x="408.691406"/>
      <use xlink:href="#DejaVuSans-72" x="470.214844"/>
      <use xlink:href="#DejaVuSans-74" x="511.328125"/>
      <use xlink:href="#DejaVuSans-61" x="550.537109"/>
      <use xlink:href="#DejaVuSans-69" x="611.816406"/>
      <use xlink:href="#DejaVuSans-6e" x="639.599609"/>
      <use xlink:href="#DejaVuSans-74" x="702.978516"/>
      <use xlink:href="#DejaVuSans-79" x="742.1875"/>
     </g>
    </g>
    <g id="LineCollection_2">
     <path d="M 246.4775 127.7675 
L 246.4775 111.7675 
" style="fill: none; stroke: #008000; stroke-width: 1.5"/>
    </g>
    <g id="line2d_23">
     <g>
      <use xlink:href="#m013d806e62" x="246.4775" y="127.7675" style="fill: #008000; stroke: #008000"/>
     </g>
    </g>
    <g id="line2d_24">
     <g>
      <use xlink:href="#m013d806e62" x="246.4775" y="111.7675" style="fill: #008000; stroke: #008000"/>
     </g>
    </g>
    <g id="line2d_25">
     <path d="M 230.4775 119.7675 
L 262.4775 119.7675 
" style="fill: none; stroke: #008000; stroke-width: 1.5; stroke-linecap: square"/>
    </g>
    <g id="line2d_26">
     <g>
      <use xlink:href="#m62fb1c5292" x="246.4775" y="119.7675" style="fill: #008000; stroke: #008000"/>
     </g>
    </g>
    <g id="text_20">
     <!-- data (no downramp) -->
     <g transform="translate(275.2775 125.3675)scale(0.16 -0.16)">
      <use xlink:href="#DejaVuSans-64"/>
      <use xlink:href="#DejaVuSans-61" x="63.476562"/>
      <use xlink:href="#DejaVuSans-74" x="124.755859"/>
      <use xlink:href="#DejaVuSans-61" x="163.964844"/>
      <use xlink:href="#DejaVuSans-20" x="225.244141"/>
      <use xlink:href="#DejaVuSans-28" x="257.03125"/>
      <use xlink:href="#DejaVuSans-6e" x="296.044922"/>
      <use xlink:href="#DejaVuSans-6f" x="359.423828"/>
      <use xlink:href="#DejaVuSans-20" x="420.605469"/>
      <use xlink:href="#DejaVuSans-64" x="452.392578"/>
      <use xlink:href="#DejaVuSans-6f" x="515.869141"/>
      <use xlink:href="#DejaVuSans-77" x="577.050781"/>
      <use xlink:href="#DejaVuSans-6e" x="658.837891"/>
      <use xlink:href="#DejaVuSans-72" x="722.216797"/>
      <use xlink:href="#DejaVuSans-61" x="763.330078"/>
      <use xlink:href="#DejaVuSans-6d" x="824.609375"/>
      <use xlink:href="#DejaVuSans-70" x="922.021484"/>
      <use xlink:href="#DejaVuSans-29" x="985.498047"/>
     </g>
    </g>
   </g>
  </g>
 </g>
 <defs>
  <clipPath id="p7098ae81ff">
   <rect x="63" y="51.84" width="390.6" height="326.16"/>
  </clipPath>
 </defs>
</svg>
