<?xml version="1.0" encoding="utf-8" standalone="no"?>
<!DOCTYPE svg PUBLIC "-//W3C//DTD SVG 1.1//EN"
  "http://www.w3.org/Graphics/SVG/1.1/DTD/svg11.dtd">
<svg xmlns:xlink="http://www.w3.org/1999/xlink" width="504pt" height="432pt" viewBox="0 0 504 432" xmlns="http://www.w3.org/2000/svg" version="1.1">
 <metadata>
  <rdf:RDF xmlns:dc="http://purl.org/dc/elements/1.1/" xmlns:cc="http://creativecommons.org/ns#" xmlns:rdf="http://www.w3.org/1999/02/22-rdf-syntax-ns#">
   <cc:Work>
    <dc:type rdf:resource="http://purl.org/dc/dcmitype/StillImage"/>
    <dc:date>2023-01-20T11:31:06.644806</dc:date>
    <dc:format>image/svg+xml</dc:format>
    <dc:creator>
     <cc:Agent>
      <dc:title>Matplotlib v3.5.1, https://matplotlib.org/</dc:title>
     </cc:Agent>
    </dc:creator>
   </cc:Work>
  </rdf:RDF>
 </metadata>
 <defs>
  <style type="text/css">*{stroke-linejoin: round; stroke-linecap: butt}</style>
 </defs>
 <g id="figure_1">
  <g id="patch_1">
   <path d="M 0 432 
L 504 432 
L 504 0 
L 0 0 
z
" style="fill: #ffffff"/>
  </g>
  <g id="axes_1">
   <g id="patch_2">
    <path d="M 63 378 
L 453.6 378 
L 453.6 51.84 
L 63 51.84 
z
" style="fill: #ffffff"/>
   </g>
   <g id="matplotlib.axis_1">
    <g id="xtick_1">
     <g id="line2d_1">
      <path d="M 87.403378 378 
L 87.403378 51.84 
" clip-path="url(#pd299ccc39f)" style="fill: none; stroke: #b0b0b0; stroke-width: 0.8; stroke-linecap: square"/>
     </g>
     <g id="line2d_2">
      <defs>
       <path id="m90fce2355f" d="M 0 0 
L 0 3.5 
" style="stroke: #000000; stroke-width: 0.8"/>
      </defs>
      <g>
       <use xlink:href="#m90fce2355f" x="87.403378" y="378" style="stroke: #000000; stroke-width: 0.8"/>
      </g>
     </g>
     <g id="text_1">
      <!-- 0 -->
      <g transform="translate(82.949628 395.637812)scale(0.14 -0.14)">
       <defs>
        <path id="DejaVuSans-30" d="M 2034 4250 
Q 1547 4250 1301 3770 
Q 1056 3291 1056 2328 
Q 1056 1369 1301 889 
Q 1547 409 2034 409 
Q 2525 409 2770 889 
Q 3016 1369 3016 2328 
Q 3016 3291 2770 3770 
Q 2525 4250 2034 4250 
z
M 2034 4750 
Q 2819 4750 3233 4129 
Q 3647 3509 3647 2328 
Q 3647 1150 3233 529 
Q 2819 -91 2034 -91 
Q 1250 -91 836 529 
Q 422 1150 422 2328 
Q 422 3509 836 4129 
Q 1250 4750 2034 4750 
z
" transform="scale(0.015625)"/>
       </defs>
       <use xlink:href="#DejaVuSans-30"/>
      </g>
     </g>
    </g>
    <g id="xtick_2">
     <g id="line2d_3">
      <path d="M 143.926792 378 
L 143.926792 51.84 
" clip-path="url(#pd299ccc39f)" style="fill: none; stroke: #b0b0b0; stroke-width: 0.8; stroke-linecap: square"/>
     </g>
     <g id="line2d_4">
      <g>
       <use xlink:href="#m90fce2355f" x="143.926792" y="378" style="stroke: #000000; stroke-width: 0.8"/>
      </g>
     </g>
     <g id="text_2">
      <!-- 1 -->
      <g transform="translate(139.473042 395.637812)scale(0.14 -0.14)">
       <defs>
        <path id="DejaVuSans-31" d="M 794 531 
L 1825 531 
L 1825 4091 
L 703 3866 
L 703 4441 
L 1819 4666 
L 2450 4666 
L 2450 531 
L 3481 531 
L 3481 0 
L 794 0 
L 794 531 
z
" transform="scale(0.015625)"/>
       </defs>
       <use xlink:href="#DejaVuSans-31"/>
      </g>
     </g>
    </g>
    <g id="xtick_3">
     <g id="line2d_5">
      <path d="M 200.450206 378 
L 200.450206 51.84 
" clip-path="url(#pd299ccc39f)" style="fill: none; stroke: #b0b0b0; stroke-width: 0.8; stroke-linecap: square"/>
     </g>
     <g id="line2d_6">
      <g>
       <use xlink:href="#m90fce2355f" x="200.450206" y="378" style="stroke: #000000; stroke-width: 0.8"/>
      </g>
     </g>
     <g id="text_3">
      <!-- 2 -->
      <g transform="translate(195.996456 395.637812)scale(0.14 -0.14)">
       <defs>
        <path id="DejaVuSans-32" d="M 1228 531 
L 3431 531 
L 3431 0 
L 469 0 
L 469 531 
Q 828 903 1448 1529 
Q 2069 2156 2228 2338 
Q 2531 2678 2651 2914 
Q 2772 3150 2772 3378 
Q 2772 3750 2511 3984 
Q 2250 4219 1831 4219 
Q 1534 4219 1204 4116 
Q 875 4013 500 3803 
L 500 4441 
Q 881 4594 1212 4672 
Q 1544 4750 1819 4750 
Q 2544 4750 2975 4387 
Q 3406 4025 3406 3419 
Q 3406 3131 3298 2873 
Q 3191 2616 2906 2266 
Q 2828 2175 2409 1742 
Q 1991 1309 1228 531 
z
" transform="scale(0.015625)"/>
       </defs>
       <use xlink:href="#DejaVuSans-32"/>
      </g>
     </g>
    </g>
    <g id="xtick_4">
     <g id="line2d_7">
      <path d="M 256.973619 378 
L 256.973619 51.84 
" clip-path="url(#pd299ccc39f)" style="fill: none; stroke: #b0b0b0; stroke-width: 0.8; stroke-linecap: square"/>
     </g>
     <g id="line2d_8">
      <g>
       <use xlink:href="#m90fce2355f" x="256.973619" y="378" style="stroke: #000000; stroke-width: 0.8"/>
      </g>
     </g>
     <g id="text_4">
      <!-- 3 -->
      <g transform="translate(252.519869 395.637812)scale(0.14 -0.14)">
       <defs>
        <path id="DejaVuSans-33" d="M 2597 2516 
Q 3050 2419 3304 2112 
Q 3559 1806 3559 1356 
Q 3559 666 3084 287 
Q 2609 -91 1734 -91 
Q 1441 -91 1130 -33 
Q 819 25 488 141 
L 488 750 
Q 750 597 1062 519 
Q 1375 441 1716 441 
Q 2309 441 2620 675 
Q 2931 909 2931 1356 
Q 2931 1769 2642 2001 
Q 2353 2234 1838 2234 
L 1294 2234 
L 1294 2753 
L 1863 2753 
Q 2328 2753 2575 2939 
Q 2822 3125 2822 3475 
Q 2822 3834 2567 4026 
Q 2313 4219 1838 4219 
Q 1578 4219 1281 4162 
Q 984 4106 628 3988 
L 628 4550 
Q 988 4650 1302 4700 
Q 1616 4750 1894 4750 
Q 2613 4750 3031 4423 
Q 3450 4097 3450 3541 
Q 3450 3153 3228 2886 
Q 3006 2619 2597 2516 
z
" transform="scale(0.015625)"/>
       </defs>
       <use xlink:href="#DejaVuSans-33"/>
      </g>
     </g>
    </g>
    <g id="xtick_5">
     <g id="line2d_9">
      <path d="M 313.497033 378 
L 313.497033 51.84 
" clip-path="url(#pd299ccc39f)" style="fill: none; stroke: #b0b0b0; stroke-width: 0.8; stroke-linecap: square"/>
     </g>
     <g id="line2d_10">
      <g>
       <use xlink:href="#m90fce2355f" x="313.497033" y="378" style="stroke: #000000; stroke-width: 0.8"/>
      </g>
     </g>
     <g id="text_5">
      <!-- 4 -->
      <g transform="translate(309.043283 395.637812)scale(0.14 -0.14)">
       <defs>
        <path id="DejaVuSans-34" d="M 2419 4116 
L 825 1625 
L 2419 1625 
L 2419 4116 
z
M 2253 4666 
L 3047 4666 
L 3047 1625 
L 3713 1625 
L 3713 1100 
L 3047 1100 
L 3047 0 
L 2419 0 
L 2419 1100 
L 313 1100 
L 313 1709 
L 2253 4666 
z
" transform="scale(0.015625)"/>
       </defs>
       <use xlink:href="#DejaVuSans-34"/>
      </g>
     </g>
    </g>
    <g id="xtick_6">
     <g id="line2d_11">
      <path d="M 370.020447 378 
L 370.020447 51.84 
" clip-path="url(#pd299ccc39f)" style="fill: none; stroke: #b0b0b0; stroke-width: 0.8; stroke-linecap: square"/>
     </g>
     <g id="line2d_12">
      <g>
       <use xlink:href="#m90fce2355f" x="370.020447" y="378" style="stroke: #000000; stroke-width: 0.8"/>
      </g>
     </g>
     <g id="text_6">
      <!-- 5 -->
      <g transform="translate(365.566697 395.637812)scale(0.14 -0.14)">
       <defs>
        <path id="DejaVuSans-35" d="M 691 4666 
L 3169 4666 
L 3169 4134 
L 1269 4134 
L 1269 2991 
Q 1406 3038 1543 3061 
Q 1681 3084 1819 3084 
Q 2600 3084 3056 2656 
Q 3513 2228 3513 1497 
Q 3513 744 3044 326 
Q 2575 -91 1722 -91 
Q 1428 -91 1123 -41 
Q 819 9 494 109 
L 494 744 
Q 775 591 1075 516 
Q 1375 441 1709 441 
Q 2250 441 2565 725 
Q 2881 1009 2881 1497 
Q 2881 1984 2565 2268 
Q 2250 2553 1709 2553 
Q 1456 2553 1204 2497 
Q 953 2441 691 2322 
L 691 4666 
z
" transform="scale(0.015625)"/>
       </defs>
       <use xlink:href="#DejaVuSans-35"/>
      </g>
     </g>
    </g>
    <g id="xtick_7">
     <g id="line2d_13">
      <path d="M 426.54386 378 
L 426.54386 51.84 
" clip-path="url(#pd299ccc39f)" style="fill: none; stroke: #b0b0b0; stroke-width: 0.8; stroke-linecap: square"/>
     </g>
     <g id="line2d_14">
      <g>
       <use xlink:href="#m90fce2355f" x="426.54386" y="378" style="stroke: #000000; stroke-width: 0.8"/>
      </g>
     </g>
     <g id="text_7">
      <!-- 6 -->
      <g transform="translate(422.09011 395.637812)scale(0.14 -0.14)">
       <defs>
        <path id="DejaVuSans-36" d="M 2113 2584 
Q 1688 2584 1439 2293 
Q 1191 2003 1191 1497 
Q 1191 994 1439 701 
Q 1688 409 2113 409 
Q 2538 409 2786 701 
Q 3034 994 3034 1497 
Q 3034 2003 2786 2293 
Q 2538 2584 2113 2584 
z
M 3366 4563 
L 3366 3988 
Q 3128 4100 2886 4159 
Q 2644 4219 2406 4219 
Q 1781 4219 1451 3797 
Q 1122 3375 1075 2522 
Q 1259 2794 1537 2939 
Q 1816 3084 2150 3084 
Q 2853 3084 3261 2657 
Q 3669 2231 3669 1497 
Q 3669 778 3244 343 
Q 2819 -91 2113 -91 
Q 1303 -91 875 529 
Q 447 1150 447 2328 
Q 447 3434 972 4092 
Q 1497 4750 2381 4750 
Q 2619 4750 2861 4703 
Q 3103 4656 3366 4563 
z
" transform="scale(0.015625)"/>
       </defs>
       <use xlink:href="#DejaVuSans-36"/>
      </g>
     </g>
    </g>
    <g id="text_8">
     <!-- $y \, \mathrm{[mm]}$ -->
     <g transform="translate(230.38 414.709375)scale(0.16 -0.16)">
      <defs>
       <path id="DejaVuSans-Oblique-79" d="M 1588 -325 
Q 1188 -997 936 -1164 
Q 684 -1331 294 -1331 
L -159 -1331 
L -63 -850 
L 269 -850 
Q 509 -850 678 -719 
Q 847 -588 1056 -206 
L 1234 128 
L 459 3500 
L 1069 3500 
L 1650 819 
L 3256 3500 
L 3859 3500 
L 1588 -325 
z
" transform="scale(0.015625)"/>
       <path id="DejaVuSans-5b" d="M 550 4863 
L 1875 4863 
L 1875 4416 
L 1125 4416 
L 1125 -397 
L 1875 -397 
L 1875 -844 
L 550 -844 
L 550 4863 
z
" transform="scale(0.015625)"/>
       <path id="DejaVuSans-6d" d="M 3328 2828 
Q 3544 3216 3844 3400 
Q 4144 3584 4550 3584 
Q 5097 3584 5394 3201 
Q 5691 2819 5691 2113 
L 5691 0 
L 5113 0 
L 5113 2094 
Q 5113 2597 4934 2840 
Q 4756 3084 4391 3084 
Q 3944 3084 3684 2787 
Q 3425 2491 3425 1978 
L 3425 0 
L 2847 0 
L 2847 2094 
Q 2847 2600 2669 2842 
Q 2491 3084 2119 3084 
Q 1678 3084 1418 2786 
Q 1159 2488 1159 1978 
L 1159 0 
L 581 0 
L 581 3500 
L 1159 3500 
L 1159 2956 
Q 1356 3278 1631 3431 
Q 1906 3584 2284 3584 
Q 2666 3584 2933 3390 
Q 3200 3197 3328 2828 
z
" transform="scale(0.015625)"/>
       <path id="DejaVuSans-5d" d="M 1947 4863 
L 1947 -844 
L 622 -844 
L 622 -397 
L 1369 -397 
L 1369 4416 
L 622 4416 
L 622 4863 
L 1947 4863 
z
" transform="scale(0.015625)"/>
      </defs>
      <use xlink:href="#DejaVuSans-Oblique-79" transform="translate(0 0.015625)"/>
      <use xlink:href="#DejaVuSans-5b" transform="translate(75.415364 0.015625)"/>
      <use xlink:href="#DejaVuSans-6d" transform="translate(114.429036 0.015625)"/>
      <use xlink:href="#DejaVuSans-6d" transform="translate(211.841145 0.015625)"/>
      <use xlink:href="#DejaVuSans-5d" transform="translate(309.253254 0.015625)"/>
     </g>
    </g>
   </g>
   <g id="matplotlib.axis_2">
    <g id="ytick_1">
     <g id="line2d_15">
      <path d="M 63 344.022756 
L 453.6 344.022756 
" clip-path="url(#pd299ccc39f)" style="fill: none; stroke: #b0b0b0; stroke-width: 0.8; stroke-linecap: square"/>
     </g>
     <g id="line2d_16">
      <defs>
       <path id="m487de42631" d="M 0 0 
L -3.5 0 
" style="stroke: #000000; stroke-width: 0.8"/>
      </defs>
      <g>
       <use xlink:href="#m487de42631" x="63" y="344.022756" style="stroke: #000000; stroke-width: 0.8"/>
      </g>
     </g>
     <g id="text_9">
      <!-- −10 -->
      <g transform="translate(26.453437 349.341662)scale(0.14 -0.14)">
       <defs>
        <path id="DejaVuSans-2212" d="M 678 2272 
L 4684 2272 
L 4684 1741 
L 678 1741 
L 678 2272 
z
" transform="scale(0.015625)"/>
       </defs>
       <use xlink:href="#DejaVuSans-2212"/>
       <use xlink:href="#DejaVuSans-31" x="83.789062"/>
       <use xlink:href="#DejaVuSans-30" x="147.412109"/>
      </g>
     </g>
    </g>
    <g id="ytick_2">
     <g id="line2d_17">
      <path d="M 63 288.777435 
L 453.6 288.777435 
" clip-path="url(#pd299ccc39f)" style="fill: none; stroke: #b0b0b0; stroke-width: 0.8; stroke-linecap: square"/>
     </g>
     <g id="line2d_18">
      <g>
       <use xlink:href="#m487de42631" x="63" y="288.777435" style="stroke: #000000; stroke-width: 0.8"/>
      </g>
     </g>
     <g id="text_10">
      <!-- −8 -->
      <g transform="translate(35.360937 294.096341)scale(0.14 -0.14)">
       <defs>
        <path id="DejaVuSans-38" d="M 2034 2216 
Q 1584 2216 1326 1975 
Q 1069 1734 1069 1313 
Q 1069 891 1326 650 
Q 1584 409 2034 409 
Q 2484 409 2743 651 
Q 3003 894 3003 1313 
Q 3003 1734 2745 1975 
Q 2488 2216 2034 2216 
z
M 1403 2484 
Q 997 2584 770 2862 
Q 544 3141 544 3541 
Q 544 4100 942 4425 
Q 1341 4750 2034 4750 
Q 2731 4750 3128 4425 
Q 3525 4100 3525 3541 
Q 3525 3141 3298 2862 
Q 3072 2584 2669 2484 
Q 3125 2378 3379 2068 
Q 3634 1759 3634 1313 
Q 3634 634 3220 271 
Q 2806 -91 2034 -91 
Q 1263 -91 848 271 
Q 434 634 434 1313 
Q 434 1759 690 2068 
Q 947 2378 1403 2484 
z
M 1172 3481 
Q 1172 3119 1398 2916 
Q 1625 2713 2034 2713 
Q 2441 2713 2670 2916 
Q 2900 3119 2900 3481 
Q 2900 3844 2670 4047 
Q 2441 4250 2034 4250 
Q 1625 4250 1398 4047 
Q 1172 3844 1172 3481 
z
" transform="scale(0.015625)"/>
       </defs>
       <use xlink:href="#DejaVuSans-2212"/>
       <use xlink:href="#DejaVuSans-38" x="83.789062"/>
      </g>
     </g>
    </g>
    <g id="ytick_3">
     <g id="line2d_19">
      <path d="M 63 233.532114 
L 453.6 233.532114 
" clip-path="url(#pd299ccc39f)" style="fill: none; stroke: #b0b0b0; stroke-width: 0.8; stroke-linecap: square"/>
     </g>
     <g id="line2d_20">
      <g>
       <use xlink:href="#m487de42631" x="63" y="233.532114" style="stroke: #000000; stroke-width: 0.8"/>
      </g>
     </g>
     <g id="text_11">
      <!-- −6 -->
      <g transform="translate(35.360937 238.85102)scale(0.14 -0.14)">
       <use xlink:href="#DejaVuSans-2212"/>
       <use xlink:href="#DejaVuSans-36" x="83.789062"/>
      </g>
     </g>
    </g>
    <g id="ytick_4">
     <g id="line2d_21">
      <path d="M 63 178.286793 
L 453.6 178.286793 
" clip-path="url(#pd299ccc39f)" style="fill: none; stroke: #b0b0b0; stroke-width: 0.8; stroke-linecap: square"/>
     </g>
     <g id="line2d_22">
      <g>
       <use xlink:href="#m487de42631" x="63" y="178.286793" style="stroke: #000000; stroke-width: 0.8"/>
      </g>
     </g>
     <g id="text_12">
      <!-- −4 -->
      <g transform="translate(35.360937 183.605699)scale(0.14 -0.14)">
       <use xlink:href="#DejaVuSans-2212"/>
       <use xlink:href="#DejaVuSans-34" x="83.789062"/>
      </g>
     </g>
    </g>
    <g id="ytick_5">
     <g id="line2d_23">
      <path d="M 63 123.041472 
L 453.6 123.041472 
" clip-path="url(#pd299ccc39f)" style="fill: none; stroke: #b0b0b0; stroke-width: 0.8; stroke-linecap: square"/>
     </g>
     <g id="line2d_24">
      <g>
       <use xlink:href="#m487de42631" x="63" y="123.041472" style="stroke: #000000; stroke-width: 0.8"/>
      </g>
     </g>
     <g id="text_13">
      <!-- −2 -->
      <g transform="translate(35.360937 128.360378)scale(0.14 -0.14)">
       <use xlink:href="#DejaVuSans-2212"/>
       <use xlink:href="#DejaVuSans-32" x="83.789062"/>
      </g>
     </g>
    </g>
    <g id="ytick_6">
     <g id="line2d_25">
      <path d="M 63 67.796151 
L 453.6 67.796151 
" clip-path="url(#pd299ccc39f)" style="fill: none; stroke: #b0b0b0; stroke-width: 0.8; stroke-linecap: square"/>
     </g>
     <g id="line2d_26">
      <g>
       <use xlink:href="#m487de42631" x="63" y="67.796151" style="stroke: #000000; stroke-width: 0.8"/>
      </g>
     </g>
     <g id="text_14">
      <!-- 0 -->
      <g transform="translate(47.0925 73.115057)scale(0.14 -0.14)">
       <use xlink:href="#DejaVuSans-30"/>
      </g>
     </g>
    </g>
    <g id="text_15">
     <!-- $\mathrm{energy \, change \, [MeV]}$ -->
     <g transform="translate(19.093437 298.52)rotate(-90)scale(0.16 -0.16)">
      <defs>
       <path id="DejaVuSans-65" d="M 3597 1894 
L 3597 1613 
L 953 1613 
Q 991 1019 1311 708 
Q 1631 397 2203 397 
Q 2534 397 2845 478 
Q 3156 559 3463 722 
L 3463 178 
Q 3153 47 2828 -22 
Q 2503 -91 2169 -91 
Q 1331 -91 842 396 
Q 353 884 353 1716 
Q 353 2575 817 3079 
Q 1281 3584 2069 3584 
Q 2775 3584 3186 3129 
Q 3597 2675 3597 1894 
z
M 3022 2063 
Q 3016 2534 2758 2815 
Q 2500 3097 2075 3097 
Q 1594 3097 1305 2825 
Q 1016 2553 972 2059 
L 3022 2063 
z
" transform="scale(0.015625)"/>
       <path id="DejaVuSans-6e" d="M 3513 2113 
L 3513 0 
L 2938 0 
L 2938 2094 
Q 2938 2591 2744 2837 
Q 2550 3084 2163 3084 
Q 1697 3084 1428 2787 
Q 1159 2491 1159 1978 
L 1159 0 
L 581 0 
L 581 3500 
L 1159 3500 
L 1159 2956 
Q 1366 3272 1645 3428 
Q 1925 3584 2291 3584 
Q 2894 3584 3203 3211 
Q 3513 2838 3513 2113 
z
" transform="scale(0.015625)"/>
       <path id="DejaVuSans-72" d="M 2631 2963 
Q 2534 3019 2420 3045 
Q 2306 3072 2169 3072 
Q 1681 3072 1420 2755 
Q 1159 2438 1159 1844 
L 1159 0 
L 581 0 
L 581 3500 
L 1159 3500 
L 1159 2956 
Q 1341 3275 1631 3429 
Q 1922 3584 2338 3584 
Q 2397 3584 2469 3576 
Q 2541 3569 2628 3553 
L 2631 2963 
z
" transform="scale(0.015625)"/>
       <path id="DejaVuSans-67" d="M 2906 1791 
Q 2906 2416 2648 2759 
Q 2391 3103 1925 3103 
Q 1463 3103 1205 2759 
Q 947 2416 947 1791 
Q 947 1169 1205 825 
Q 1463 481 1925 481 
Q 2391 481 2648 825 
Q 2906 1169 2906 1791 
z
M 3481 434 
Q 3481 -459 3084 -895 
Q 2688 -1331 1869 -1331 
Q 1566 -1331 1297 -1286 
Q 1028 -1241 775 -1147 
L 775 -588 
Q 1028 -725 1275 -790 
Q 1522 -856 1778 -856 
Q 2344 -856 2625 -561 
Q 2906 -266 2906 331 
L 2906 616 
Q 2728 306 2450 153 
Q 2172 0 1784 0 
Q 1141 0 747 490 
Q 353 981 353 1791 
Q 353 2603 747 3093 
Q 1141 3584 1784 3584 
Q 2172 3584 2450 3431 
Q 2728 3278 2906 2969 
L 2906 3500 
L 3481 3500 
L 3481 434 
z
" transform="scale(0.015625)"/>
       <path id="DejaVuSans-79" d="M 2059 -325 
Q 1816 -950 1584 -1140 
Q 1353 -1331 966 -1331 
L 506 -1331 
L 506 -850 
L 844 -850 
Q 1081 -850 1212 -737 
Q 1344 -625 1503 -206 
L 1606 56 
L 191 3500 
L 800 3500 
L 1894 763 
L 2988 3500 
L 3597 3500 
L 2059 -325 
z
" transform="scale(0.015625)"/>
       <path id="DejaVuSans-63" d="M 3122 3366 
L 3122 2828 
Q 2878 2963 2633 3030 
Q 2388 3097 2138 3097 
Q 1578 3097 1268 2742 
Q 959 2388 959 1747 
Q 959 1106 1268 751 
Q 1578 397 2138 397 
Q 2388 397 2633 464 
Q 2878 531 3122 666 
L 3122 134 
Q 2881 22 2623 -34 
Q 2366 -91 2075 -91 
Q 1284 -91 818 406 
Q 353 903 353 1747 
Q 353 2603 823 3093 
Q 1294 3584 2113 3584 
Q 2378 3584 2631 3529 
Q 2884 3475 3122 3366 
z
" transform="scale(0.015625)"/>
       <path id="DejaVuSans-68" d="M 3513 2113 
L 3513 0 
L 2938 0 
L 2938 2094 
Q 2938 2591 2744 2837 
Q 2550 3084 2163 3084 
Q 1697 3084 1428 2787 
Q 1159 2491 1159 1978 
L 1159 0 
L 581 0 
L 581 4863 
L 1159 4863 
L 1159 2956 
Q 1366 3272 1645 3428 
Q 1925 3584 2291 3584 
Q 2894 3584 3203 3211 
Q 3513 2838 3513 2113 
z
" transform="scale(0.015625)"/>
       <path id="DejaVuSans-61" d="M 2194 1759 
Q 1497 1759 1228 1600 
Q 959 1441 959 1056 
Q 959 750 1161 570 
Q 1363 391 1709 391 
Q 2188 391 2477 730 
Q 2766 1069 2766 1631 
L 2766 1759 
L 2194 1759 
z
M 3341 1997 
L 3341 0 
L 2766 0 
L 2766 531 
Q 2569 213 2275 61 
Q 1981 -91 1556 -91 
Q 1019 -91 701 211 
Q 384 513 384 1019 
Q 384 1609 779 1909 
Q 1175 2209 1959 2209 
L 2766 2209 
L 2766 2266 
Q 2766 2663 2505 2880 
Q 2244 3097 1772 3097 
Q 1472 3097 1187 3025 
Q 903 2953 641 2809 
L 641 3341 
Q 956 3463 1253 3523 
Q 1550 3584 1831 3584 
Q 2591 3584 2966 3190 
Q 3341 2797 3341 1997 
z
" transform="scale(0.015625)"/>
       <path id="DejaVuSans-4d" d="M 628 4666 
L 1569 4666 
L 2759 1491 
L 3956 4666 
L 4897 4666 
L 4897 0 
L 4281 0 
L 4281 4097 
L 3078 897 
L 2444 897 
L 1241 4097 
L 1241 0 
L 628 0 
L 628 4666 
z
" transform="scale(0.015625)"/>
       <path id="DejaVuSans-56" d="M 1831 0 
L 50 4666 
L 709 4666 
L 2188 738 
L 3669 4666 
L 4325 4666 
L 2547 0 
L 1831 0 
z
" transform="scale(0.015625)"/>
      </defs>
      <use xlink:href="#DejaVuSans-65" transform="translate(0 0.015625)"/>
      <use xlink:href="#DejaVuSans-6e" transform="translate(61.523438 0.015625)"/>
      <use xlink:href="#DejaVuSans-65" transform="translate(124.902344 0.015625)"/>
      <use xlink:href="#DejaVuSans-72" transform="translate(186.425781 0.015625)"/>
      <use xlink:href="#DejaVuSans-67" transform="translate(227.539062 0.015625)"/>
      <use xlink:href="#DejaVuSans-79" transform="translate(291.015625 0.015625)"/>
      <use xlink:href="#DejaVuSans-63" transform="translate(366.430989 0.015625)"/>
      <use xlink:href="#DejaVuSans-68" transform="translate(421.411458 0.015625)"/>
      <use xlink:href="#DejaVuSans-61" transform="translate(484.790364 0.015625)"/>
      <use xlink:href="#DejaVuSans-6e" transform="translate(546.069661 0.015625)"/>
      <use xlink:href="#DejaVuSans-67" transform="translate(609.448567 0.015625)"/>
      <use xlink:href="#DejaVuSans-65" transform="translate(672.925129 0.015625)"/>
      <use xlink:href="#DejaVuSans-5b" transform="translate(750.684243 0.015625)"/>
      <use xlink:href="#DejaVuSans-4d" transform="translate(789.697915 0.015625)"/>
      <use xlink:href="#DejaVuSans-65" transform="translate(875.977212 0.015625)"/>
      <use xlink:href="#DejaVuSans-56" transform="translate(937.500649 0.015625)"/>
      <use xlink:href="#DejaVuSans-5d" transform="translate(1005.908853 0.015625)"/>
     </g>
    </g>
   </g>
   <g id="line2d_27">
    <path d="M 80.754545 83.295618 
L 85.249367 87.331722 
L 89.744189 66.665455 
L 94.23901 67.231138 
L 98.733832 105.047315 
L 103.228654 115.206529 
L 107.723475 157.096851 
L 112.218297 184.56292 
L 116.713119 210.082235 
L 121.20794 225.997634 
L 125.702762 234.240404 
L 130.197583 237.810653 
L 134.692405 241.261645 
L 139.187227 242.840872 
L 143.682048 243.643324 
L 148.17687 242.585525 
L 152.671692 241.016967 
L 157.166513 240.772627 
L 161.661335 239.691442 
L 166.156157 239.135873 
L 170.650978 239.807943 
L 175.1458 239.537047 
L 179.640621 239.981504 
L 184.135443 240.807878 
L 188.630265 240.857918 
L 193.125086 240.467363 
L 197.619908 240.230046 
L 202.11473 239.517664 
L 206.609551 238.65982 
L 211.104373 238.468696 
L 215.599194 238.94429 
L 220.094016 239.674616 
L 224.588838 240.503236 
L 229.083659 241.40038 
L 233.578481 242.249834 
L 238.073303 243.367232 
L 242.568124 244.168914 
L 247.062946 245.419802 
L 251.557768 247.09551 
L 256.052589 248.856096 
L 260.547411 250.570264 
L 265.042232 252.205064 
L 269.537054 253.25242 
L 274.031876 254.224187 
L 278.526697 254.798524 
L 283.021519 255.79198 
L 287.516341 256.802911 
L 292.011162 257.648279 
L 296.505984 258.41583 
L 301.000806 259.575452 
L 305.495627 261.259945 
L 309.990449 262.536351 
L 314.48527 263.677825 
L 318.980092 265.112539 
L 323.474914 266.24526 
L 327.969735 267.408807 
L 332.464557 268.987429 
L 336.959379 270.884617 
L 341.4542 272.953583 
L 345.949022 274.862257 
L 350.443843 276.280326 
L 354.938665 277.695852 
L 359.433487 279.46362 
L 363.928308 280.883338 
L 368.42313 282.237309 
L 372.917952 283.777016 
L 377.412773 285.311902 
L 381.907595 286.76032 
L 386.402417 287.567747 
L 390.897238 289.349217 
L 395.39206 290.825177 
L 399.886881 292.551809 
L 404.381703 293.962866 
L 408.876525 295.380477 
L 413.371346 298.086505 
L 417.866168 299.611495 
L 422.36099 300.920677 
L 426.855811 302.353141 
L 431.350633 303.918828 
L 435.845455 305.928739 
" clip-path="url(#pd299ccc39f)" style="fill: none; stroke: #008000; stroke-width: 1.5; stroke-linecap: square"/>
    <defs>
     <path id="m0852f197cf" d="M 0 1.5 
C 0.397805 1.5 0.77937 1.341951 1.06066 1.06066 
C 1.341951 0.77937 1.5 0.397805 1.5 0 
C 1.5 -0.397805 1.341951 -0.77937 1.06066 -1.06066 
C 0.77937 -1.341951 0.397805 -1.5 0 -1.5 
C -0.397805 -1.5 -0.77937 -1.341951 -1.06066 -1.06066 
C -1.341951 -0.77937 -1.5 -0.397805 -1.5 0 
C -1.5 0.397805 -1.341951 0.77937 -1.06066 1.06066 
C -0.77937 1.341951 -0.397805 1.5 0 1.5 
z
" style="stroke: #008000"/>
    </defs>
    <g clip-path="url(#pd299ccc39f)">
     <use xlink:href="#m0852f197cf" x="80.754545" y="83.295618" style="fill: #008000; stroke: #008000"/>
     <use xlink:href="#m0852f197cf" x="85.249367" y="87.331722" style="fill: #008000; stroke: #008000"/>
     <use xlink:href="#m0852f197cf" x="89.744189" y="66.665455" style="fill: #008000; stroke: #008000"/>
     <use xlink:href="#m0852f197cf" x="94.23901" y="67.231138" style="fill: #008000; stroke: #008000"/>
     <use xlink:href="#m0852f197cf" x="98.733832" y="105.047315" style="fill: #008000; stroke: #008000"/>
     <use xlink:href="#m0852f197cf" x="103.228654" y="115.206529" style="fill: #008000; stroke: #008000"/>
     <use xlink:href="#m0852f197cf" x="107.723475" y="157.096851" style="fill: #008000; stroke: #008000"/>
     <use xlink:href="#m0852f197cf" x="112.218297" y="184.56292" style="fill: #008000; stroke: #008000"/>
     <use xlink:href="#m0852f197cf" x="116.713119" y="210.082235" style="fill: #008000; stroke: #008000"/>
     <use xlink:href="#m0852f197cf" x="121.20794" y="225.997634" style="fill: #008000; stroke: #008000"/>
     <use xlink:href="#m0852f197cf" x="125.702762" y="234.240404" style="fill: #008000; stroke: #008000"/>
     <use xlink:href="#m0852f197cf" x="130.197583" y="237.810653" style="fill: #008000; stroke: #008000"/>
     <use xlink:href="#m0852f197cf" x="134.692405" y="241.261645" style="fill: #008000; stroke: #008000"/>
     <use xlink:href="#m0852f197cf" x="139.187227" y="242.840872" style="fill: #008000; stroke: #008000"/>
     <use xlink:href="#m0852f197cf" x="143.682048" y="243.643324" style="fill: #008000; stroke: #008000"/>
     <use xlink:href="#m0852f197cf" x="148.17687" y="242.585525" style="fill: #008000; stroke: #008000"/>
     <use xlink:href="#m0852f197cf" x="152.671692" y="241.016967" style="fill: #008000; stroke: #008000"/>
     <use xlink:href="#m0852f197cf" x="157.166513" y="240.772627" style="fill: #008000; stroke: #008000"/>
     <use xlink:href="#m0852f197cf" x="161.661335" y="239.691442" style="fill: #008000; stroke: #008000"/>
     <use xlink:href="#m0852f197cf" x="166.156157" y="239.135873" style="fill: #008000; stroke: #008000"/>
     <use xlink:href="#m0852f197cf" x="170.650978" y="239.807943" style="fill: #008000; stroke: #008000"/>
     <use xlink:href="#m0852f197cf" x="175.1458" y="239.537047" style="fill: #008000; stroke: #008000"/>
     <use xlink:href="#m0852f197cf" x="179.640621" y="239.981504" style="fill: #008000; stroke: #008000"/>
     <use xlink:href="#m0852f197cf" x="184.135443" y="240.807878" style="fill: #008000; stroke: #008000"/>
     <use xlink:href="#m0852f197cf" x="188.630265" y="240.857918" style="fill: #008000; stroke: #008000"/>
     <use xlink:href="#m0852f197cf" x="193.125086" y="240.467363" style="fill: #008000; stroke: #008000"/>
     <use xlink:href="#m0852f197cf" x="197.619908" y="240.230046" style="fill: #008000; stroke: #008000"/>
     <use xlink:href="#m0852f197cf" x="202.11473" y="239.517664" style="fill: #008000; stroke: #008000"/>
     <use xlink:href="#m0852f197cf" x="206.609551" y="238.65982" style="fill: #008000; stroke: #008000"/>
     <use xlink:href="#m0852f197cf" x="211.104373" y="238.468696" style="fill: #008000; stroke: #008000"/>
     <use xlink:href="#m0852f197cf" x="215.599194" y="238.94429" style="fill: #008000; stroke: #008000"/>
     <use xlink:href="#m0852f197cf" x="220.094016" y="239.674616" style="fill: #008000; stroke: #008000"/>
     <use xlink:href="#m0852f197cf" x="224.588838" y="240.503236" style="fill: #008000; stroke: #008000"/>
     <use xlink:href="#m0852f197cf" x="229.083659" y="241.40038" style="fill: #008000; stroke: #008000"/>
     <use xlink:href="#m0852f197cf" x="233.578481" y="242.249834" style="fill: #008000; stroke: #008000"/>
     <use xlink:href="#m0852f197cf" x="238.073303" y="243.367232" style="fill: #008000; stroke: #008000"/>
     <use xlink:href="#m0852f197cf" x="242.568124" y="244.168914" style="fill: #008000; stroke: #008000"/>
     <use xlink:href="#m0852f197cf" x="247.062946" y="245.419802" style="fill: #008000; stroke: #008000"/>
     <use xlink:href="#m0852f197cf" x="251.557768" y="247.09551" style="fill: #008000; stroke: #008000"/>
     <use xlink:href="#m0852f197cf" x="256.052589" y="248.856096" style="fill: #008000; stroke: #008000"/>
     <use xlink:href="#m0852f197cf" x="260.547411" y="250.570264" style="fill: #008000; stroke: #008000"/>
     <use xlink:href="#m0852f197cf" x="265.042232" y="252.205064" style="fill: #008000; stroke: #008000"/>
     <use xlink:href="#m0852f197cf" x="269.537054" y="253.25242" style="fill: #008000; stroke: #008000"/>
     <use xlink:href="#m0852f197cf" x="274.031876" y="254.224187" style="fill: #008000; stroke: #008000"/>
     <use xlink:href="#m0852f197cf" x="278.526697" y="254.798524" style="fill: #008000; stroke: #008000"/>
     <use xlink:href="#m0852f197cf" x="283.021519" y="255.79198" style="fill: #008000; stroke: #008000"/>
     <use xlink:href="#m0852f197cf" x="287.516341" y="256.802911" style="fill: #008000; stroke: #008000"/>
     <use xlink:href="#m0852f197cf" x="292.011162" y="257.648279" style="fill: #008000; stroke: #008000"/>
     <use xlink:href="#m0852f197cf" x="296.505984" y="258.41583" style="fill: #008000; stroke: #008000"/>
     <use xlink:href="#m0852f197cf" x="301.000806" y="259.575452" style="fill: #008000; stroke: #008000"/>
     <use xlink:href="#m0852f197cf" x="305.495627" y="261.259945" style="fill: #008000; stroke: #008000"/>
     <use xlink:href="#m0852f197cf" x="309.990449" y="262.536351" style="fill: #008000; stroke: #008000"/>
     <use xlink:href="#m0852f197cf" x="314.48527" y="263.677825" style="fill: #008000; stroke: #008000"/>
     <use xlink:href="#m0852f197cf" x="318.980092" y="265.112539" style="fill: #008000; stroke: #008000"/>
     <use xlink:href="#m0852f197cf" x="323.474914" y="266.24526" style="fill: #008000; stroke: #008000"/>
     <use xlink:href="#m0852f197cf" x="327.969735" y="267.408807" style="fill: #008000; stroke: #008000"/>
     <use xlink:href="#m0852f197cf" x="332.464557" y="268.987429" style="fill: #008000; stroke: #008000"/>
     <use xlink:href="#m0852f197cf" x="336.959379" y="270.884617" style="fill: #008000; stroke: #008000"/>
     <use xlink:href="#m0852f197cf" x="341.4542" y="272.953583" style="fill: #008000; stroke: #008000"/>
     <use xlink:href="#m0852f197cf" x="345.949022" y="274.862257" style="fill: #008000; stroke: #008000"/>
     <use xlink:href="#m0852f197cf" x="350.443843" y="276.280326" style="fill: #008000; stroke: #008000"/>
     <use xlink:href="#m0852f197cf" x="354.938665" y="277.695852" style="fill: #008000; stroke: #008000"/>
     <use xlink:href="#m0852f197cf" x="359.433487" y="279.46362" style="fill: #008000; stroke: #008000"/>
     <use xlink:href="#m0852f197cf" x="363.928308" y="280.883338" style="fill: #008000; stroke: #008000"/>
     <use xlink:href="#m0852f197cf" x="368.42313" y="282.237309" style="fill: #008000; stroke: #008000"/>
     <use xlink:href="#m0852f197cf" x="372.917952" y="283.777016" style="fill: #008000; stroke: #008000"/>
     <use xlink:href="#m0852f197cf" x="377.412773" y="285.311902" style="fill: #008000; stroke: #008000"/>
     <use xlink:href="#m0852f197cf" x="381.907595" y="286.76032" style="fill: #008000; stroke: #008000"/>
     <use xlink:href="#m0852f197cf" x="386.402417" y="287.567747" style="fill: #008000; stroke: #008000"/>
     <use xlink:href="#m0852f197cf" x="390.897238" y="289.349217" style="fill: #008000; stroke: #008000"/>
     <use xlink:href="#m0852f197cf" x="395.39206" y="290.825177" style="fill: #008000; stroke: #008000"/>
     <use xlink:href="#m0852f197cf" x="399.886881" y="292.551809" style="fill: #008000; stroke: #008000"/>
     <use xlink:href="#m0852f197cf" x="404.381703" y="293.962866" style="fill: #008000; stroke: #008000"/>
     <use xlink:href="#m0852f197cf" x="408.876525" y="295.380477" style="fill: #008000; stroke: #008000"/>
     <use xlink:href="#m0852f197cf" x="413.371346" y="298.086505" style="fill: #008000; stroke: #008000"/>
     <use xlink:href="#m0852f197cf" x="417.866168" y="299.611495" style="fill: #008000; stroke: #008000"/>
     <use xlink:href="#m0852f197cf" x="422.36099" y="300.920677" style="fill: #008000; stroke: #008000"/>
     <use xlink:href="#m0852f197cf" x="426.855811" y="302.353141" style="fill: #008000; stroke: #008000"/>
     <use xlink:href="#m0852f197cf" x="431.350633" y="303.918828" style="fill: #008000; stroke: #008000"/>
     <use xlink:href="#m0852f197cf" x="435.845455" y="305.928739" style="fill: #008000; stroke: #008000"/>
    </g>
   </g>
   <g id="line2d_28">
    <path d="M 80.754545 86.138474 
L 85.249367 90.185548 
L 89.744189 111.27328 
L 94.23901 141.583679 
L 98.733832 173.807576 
L 103.228654 192.941501 
L 107.723475 204.249655 
L 112.218297 175.24558 
L 116.713119 200.88128 
L 121.20794 219.950468 
L 125.702762 235.274392 
L 130.197583 241.698978 
L 134.692405 246.347223 
L 139.187227 250.895744 
L 143.682048 254.162364 
L 148.17687 255.543776 
L 152.671692 256.26816 
L 157.166513 256.292298 
L 161.661335 255.753817 
L 166.156157 255.433352 
L 170.650978 255.419084 
L 175.1458 255.32075 
L 179.640621 255.451302 
L 184.135443 256.845923 
L 188.630265 258.378809 
L 193.125086 259.20989 
L 197.619908 259.053433 
L 202.11473 259.139573 
L 206.609551 259.68251 
L 211.104373 260.033444 
L 215.599194 260.083341 
L 220.094016 260.097348 
L 224.588838 260.288202 
L 229.083659 260.899287 
L 233.578481 261.908768 
L 238.073303 262.833371 
L 242.568124 263.684841 
L 247.062946 264.652319 
L 251.557768 264.856729 
L 256.052589 265.420904 
L 260.547411 265.940798 
L 265.042232 266.898194 
L 269.537054 268.151456 
L 274.031876 268.976388 
L 278.526697 269.816116 
L 283.021519 270.231944 
L 287.516341 271.508767 
L 292.011162 273.024748 
L 296.505984 274.174922 
L 301.000806 275.286171 
L 305.495627 276.01589 
L 309.990449 277.375161 
L 314.48527 278.964858 
L 318.980092 279.8007 
L 323.474914 281.168816 
L 327.969735 282.622698 
L 332.464557 283.931906 
L 336.959379 285.37602 
L 341.4542 286.714663 
L 345.949022 287.906116 
L 350.443843 289.133936 
L 354.938665 290.093921 
L 359.433487 290.970479 
L 363.928308 292.708638 
L 368.42313 293.637709 
L 372.917952 295.317902 
L 377.412773 296.996581 
L 381.907595 298.982902 
L 386.402417 301.095827 
L 390.897238 303.214922 
L 395.39206 305.944249 
L 399.886881 308.20055 
L 404.381703 310.441168 
L 408.876525 312.433736 
L 413.371346 314.609084 
L 417.866168 315.782063 
L 422.36099 317.96521 
L 426.855811 319.883137 
L 431.350633 321.192771 
L 435.845455 323.160374 
" clip-path="url(#pd299ccc39f)" style="fill: none; stroke: #ff7f0e; stroke-width: 1.5; stroke-linecap: square"/>
    <defs>
     <path id="m5b4700955c" d="M 0 1.5 
C 0.397805 1.5 0.77937 1.341951 1.06066 1.06066 
C 1.341951 0.77937 1.5 0.397805 1.5 0 
C 1.5 -0.397805 1.341951 -0.77937 1.06066 -1.06066 
C 0.77937 -1.341951 0.397805 -1.5 0 -1.5 
C -0.397805 -1.5 -0.77937 -1.341951 -1.06066 -1.06066 
C -1.341951 -0.77937 -1.5 -0.397805 -1.5 0 
C -1.5 0.397805 -1.341951 0.77937 -1.06066 1.06066 
C -0.77937 1.341951 -0.397805 1.5 0 1.5 
z
" style="stroke: #ff7f0e"/>
    </defs>
    <g clip-path="url(#pd299ccc39f)">
     <use xlink:href="#m5b4700955c" x="80.754545" y="86.138474" style="fill: #ff7f0e; stroke: #ff7f0e"/>
     <use xlink:href="#m5b4700955c" x="85.249367" y="90.185548" style="fill: #ff7f0e; stroke: #ff7f0e"/>
     <use xlink:href="#m5b4700955c" x="89.744189" y="111.27328" style="fill: #ff7f0e; stroke: #ff7f0e"/>
     <use xlink:href="#m5b4700955c" x="94.23901" y="141.583679" style="fill: #ff7f0e; stroke: #ff7f0e"/>
     <use xlink:href="#m5b4700955c" x="98.733832" y="173.807576" style="fill: #ff7f0e; stroke: #ff7f0e"/>
     <use xlink:href="#m5b4700955c" x="103.228654" y="192.941501" style="fill: #ff7f0e; stroke: #ff7f0e"/>
     <use xlink:href="#m5b4700955c" x="107.723475" y="204.249655" style="fill: #ff7f0e; stroke: #ff7f0e"/>
     <use xlink:href="#m5b4700955c" x="112.218297" y="175.24558" style="fill: #ff7f0e; stroke: #ff7f0e"/>
     <use xlink:href="#m5b4700955c" x="116.713119" y="200.88128" style="fill: #ff7f0e; stroke: #ff7f0e"/>
     <use xlink:href="#m5b4700955c" x="121.20794" y="219.950468" style="fill: #ff7f0e; stroke: #ff7f0e"/>
     <use xlink:href="#m5b4700955c" x="125.702762" y="235.274392" style="fill: #ff7f0e; stroke: #ff7f0e"/>
     <use xlink:href="#m5b4700955c" x="130.197583" y="241.698978" style="fill: #ff7f0e; stroke: #ff7f0e"/>
     <use xlink:href="#m5b4700955c" x="134.692405" y="246.347223" style="fill: #ff7f0e; stroke: #ff7f0e"/>
     <use xlink:href="#m5b4700955c" x="139.187227" y="250.895744" style="fill: #ff7f0e; stroke: #ff7f0e"/>
     <use xlink:href="#m5b4700955c" x="143.682048" y="254.162364" style="fill: #ff7f0e; stroke: #ff7f0e"/>
     <use xlink:href="#m5b4700955c" x="148.17687" y="255.543776" style="fill: #ff7f0e; stroke: #ff7f0e"/>
     <use xlink:href="#m5b4700955c" x="152.671692" y="256.26816" style="fill: #ff7f0e; stroke: #ff7f0e"/>
     <use xlink:href="#m5b4700955c" x="157.166513" y="256.292298" style="fill: #ff7f0e; stroke: #ff7f0e"/>
     <use xlink:href="#m5b4700955c" x="161.661335" y="255.753817" style="fill: #ff7f0e; stroke: #ff7f0e"/>
     <use xlink:href="#m5b4700955c" x="166.156157" y="255.433352" style="fill: #ff7f0e; stroke: #ff7f0e"/>
     <use xlink:href="#m5b4700955c" x="170.650978" y="255.419084" style="fill: #ff7f0e; stroke: #ff7f0e"/>
     <use xlink:href="#m5b4700955c" x="175.1458" y="255.32075" style="fill: #ff7f0e; stroke: #ff7f0e"/>
     <use xlink:href="#m5b4700955c" x="179.640621" y="255.451302" style="fill: #ff7f0e; stroke: #ff7f0e"/>
     <use xlink:href="#m5b4700955c" x="184.135443" y="256.845923" style="fill: #ff7f0e; stroke: #ff7f0e"/>
     <use xlink:href="#m5b4700955c" x="188.630265" y="258.378809" style="fill: #ff7f0e; stroke: #ff7f0e"/>
     <use xlink:href="#m5b4700955c" x="193.125086" y="259.20989" style="fill: #ff7f0e; stroke: #ff7f0e"/>
     <use xlink:href="#m5b4700955c" x="197.619908" y="259.053433" style="fill: #ff7f0e; stroke: #ff7f0e"/>
     <use xlink:href="#m5b4700955c" x="202.11473" y="259.139573" style="fill: #ff7f0e; stroke: #ff7f0e"/>
     <use xlink:href="#m5b4700955c" x="206.609551" y="259.68251" style="fill: #ff7f0e; stroke: #ff7f0e"/>
     <use xlink:href="#m5b4700955c" x="211.104373" y="260.033444" style="fill: #ff7f0e; stroke: #ff7f0e"/>
     <use xlink:href="#m5b4700955c" x="215.599194" y="260.083341" style="fill: #ff7f0e; stroke: #ff7f0e"/>
     <use xlink:href="#m5b4700955c" x="220.094016" y="260.097348" style="fill: #ff7f0e; stroke: #ff7f0e"/>
     <use xlink:href="#m5b4700955c" x="224.588838" y="260.288202" style="fill: #ff7f0e; stroke: #ff7f0e"/>
     <use xlink:href="#m5b4700955c" x="229.083659" y="260.899287" style="fill: #ff7f0e; stroke: #ff7f0e"/>
     <use xlink:href="#m5b4700955c" x="233.578481" y="261.908768" style="fill: #ff7f0e; stroke: #ff7f0e"/>
     <use xlink:href="#m5b4700955c" x="238.073303" y="262.833371" style="fill: #ff7f0e; stroke: #ff7f0e"/>
     <use xlink:href="#m5b4700955c" x="242.568124" y="263.684841" style="fill: #ff7f0e; stroke: #ff7f0e"/>
     <use xlink:href="#m5b4700955c" x="247.062946" y="264.652319" style="fill: #ff7f0e; stroke: #ff7f0e"/>
     <use xlink:href="#m5b4700955c" x="251.557768" y="264.856729" style="fill: #ff7f0e; stroke: #ff7f0e"/>
     <use xlink:href="#m5b4700955c" x="256.052589" y="265.420904" style="fill: #ff7f0e; stroke: #ff7f0e"/>
     <use xlink:href="#m5b4700955c" x="260.547411" y="265.940798" style="fill: #ff7f0e; stroke: #ff7f0e"/>
     <use xlink:href="#m5b4700955c" x="265.042232" y="266.898194" style="fill: #ff7f0e; stroke: #ff7f0e"/>
     <use xlink:href="#m5b4700955c" x="269.537054" y="268.151456" style="fill: #ff7f0e; stroke: #ff7f0e"/>
     <use xlink:href="#m5b4700955c" x="274.031876" y="268.976388" style="fill: #ff7f0e; stroke: #ff7f0e"/>
     <use xlink:href="#m5b4700955c" x="278.526697" y="269.816116" style="fill: #ff7f0e; stroke: #ff7f0e"/>
     <use xlink:href="#m5b4700955c" x="283.021519" y="270.231944" style="fill: #ff7f0e; stroke: #ff7f0e"/>
     <use xlink:href="#m5b4700955c" x="287.516341" y="271.508767" style="fill: #ff7f0e; stroke: #ff7f0e"/>
     <use xlink:href="#m5b4700955c" x="292.011162" y="273.024748" style="fill: #ff7f0e; stroke: #ff7f0e"/>
     <use xlink:href="#m5b4700955c" x="296.505984" y="274.174922" style="fill: #ff7f0e; stroke: #ff7f0e"/>
     <use xlink:href="#m5b4700955c" x="301.000806" y="275.286171" style="fill: #ff7f0e; stroke: #ff7f0e"/>
     <use xlink:href="#m5b4700955c" x="305.495627" y="276.01589" style="fill: #ff7f0e; stroke: #ff7f0e"/>
     <use xlink:href="#m5b4700955c" x="309.990449" y="277.375161" style="fill: #ff7f0e; stroke: #ff7f0e"/>
     <use xlink:href="#m5b4700955c" x="314.48527" y="278.964858" style="fill: #ff7f0e; stroke: #ff7f0e"/>
     <use xlink:href="#m5b4700955c" x="318.980092" y="279.8007" style="fill: #ff7f0e; stroke: #ff7f0e"/>
     <use xlink:href="#m5b4700955c" x="323.474914" y="281.168816" style="fill: #ff7f0e; stroke: #ff7f0e"/>
     <use xlink:href="#m5b4700955c" x="327.969735" y="282.622698" style="fill: #ff7f0e; stroke: #ff7f0e"/>
     <use xlink:href="#m5b4700955c" x="332.464557" y="283.931906" style="fill: #ff7f0e; stroke: #ff7f0e"/>
     <use xlink:href="#m5b4700955c" x="336.959379" y="285.37602" style="fill: #ff7f0e; stroke: #ff7f0e"/>
     <use xlink:href="#m5b4700955c" x="341.4542" y="286.714663" style="fill: #ff7f0e; stroke: #ff7f0e"/>
     <use xlink:href="#m5b4700955c" x="345.949022" y="287.906116" style="fill: #ff7f0e; stroke: #ff7f0e"/>
     <use xlink:href="#m5b4700955c" x="350.443843" y="289.133936" style="fill: #ff7f0e; stroke: #ff7f0e"/>
     <use xlink:href="#m5b4700955c" x="354.938665" y="290.093921" style="fill: #ff7f0e; stroke: #ff7f0e"/>
     <use xlink:href="#m5b4700955c" x="359.433487" y="290.970479" style="fill: #ff7f0e; stroke: #ff7f0e"/>
     <use xlink:href="#m5b4700955c" x="363.928308" y="292.708638" style="fill: #ff7f0e; stroke: #ff7f0e"/>
     <use xlink:href="#m5b4700955c" x="368.42313" y="293.637709" style="fill: #ff7f0e; stroke: #ff7f0e"/>
     <use xlink:href="#m5b4700955c" x="372.917952" y="295.317902" style="fill: #ff7f0e; stroke: #ff7f0e"/>
     <use xlink:href="#m5b4700955c" x="377.412773" y="296.996581" style="fill: #ff7f0e; stroke: #ff7f0e"/>
     <use xlink:href="#m5b4700955c" x="381.907595" y="298.982902" style="fill: #ff7f0e; stroke: #ff7f0e"/>
     <use xlink:href="#m5b4700955c" x="386.402417" y="301.095827" style="fill: #ff7f0e; stroke: #ff7f0e"/>
     <use xlink:href="#m5b4700955c" x="390.897238" y="303.214922" style="fill: #ff7f0e; stroke: #ff7f0e"/>
     <use xlink:href="#m5b4700955c" x="395.39206" y="305.944249" style="fill: #ff7f0e; stroke: #ff7f0e"/>
     <use xlink:href="#m5b4700955c" x="399.886881" y="308.20055" style="fill: #ff7f0e; stroke: #ff7f0e"/>
     <use xlink:href="#m5b4700955c" x="404.381703" y="310.441168" style="fill: #ff7f0e; stroke: #ff7f0e"/>
     <use xlink:href="#m5b4700955c" x="408.876525" y="312.433736" style="fill: #ff7f0e; stroke: #ff7f0e"/>
     <use xlink:href="#m5b4700955c" x="413.371346" y="314.609084" style="fill: #ff7f0e; stroke: #ff7f0e"/>
     <use xlink:href="#m5b4700955c" x="417.866168" y="315.782063" style="fill: #ff7f0e; stroke: #ff7f0e"/>
     <use xlink:href="#m5b4700955c" x="422.36099" y="317.96521" style="fill: #ff7f0e; stroke: #ff7f0e"/>
     <use xlink:href="#m5b4700955c" x="426.855811" y="319.883137" style="fill: #ff7f0e; stroke: #ff7f0e"/>
     <use xlink:href="#m5b4700955c" x="431.350633" y="321.192771" style="fill: #ff7f0e; stroke: #ff7f0e"/>
     <use xlink:href="#m5b4700955c" x="435.845455" y="323.160374" style="fill: #ff7f0e; stroke: #ff7f0e"/>
    </g>
   </g>
   <g id="line2d_29">
    <path d="M 80.754545 85.764544 
L 85.249367 89.963017 
L 89.744189 111.528646 
L 94.23901 144.886048 
L 98.733832 131.743703 
L 103.228654 113.817763 
L 107.723475 157.731739 
L 112.218297 180.168857 
L 116.713119 196.971618 
L 121.20794 210.691298 
L 125.702762 227.600119 
L 130.197583 241.580744 
L 134.692405 250.218009 
L 139.187227 255.50211 
L 143.682048 258.525139 
L 148.17687 260.719733 
L 152.671692 261.839561 
L 157.166513 262.69138 
L 161.661335 263.659638 
L 166.156157 264.330322 
L 170.650978 264.690607 
L 175.1458 265.188365 
L 179.640621 265.995363 
L 184.135443 267.051789 
L 188.630265 267.183449 
L 193.125086 267.637037 
L 197.619908 267.764832 
L 202.11473 267.975777 
L 206.609551 268.755601 
L 211.104373 268.997556 
L 215.599194 269.5858 
L 220.094016 270.390423 
L 224.588838 270.696239 
L 229.083659 271.168137 
L 233.578481 272.120351 
L 238.073303 273.221128 
L 242.568124 274.426091 
L 247.062946 275.681852 
L 251.557768 276.988561 
L 256.052589 278.324638 
L 260.547411 279.952583 
L 265.042232 281.590592 
L 269.537054 283.300012 
L 274.031876 285.121037 
L 278.526697 286.683076 
L 283.021519 288.720712 
L 287.516341 290.766237 
L 292.011162 292.936712 
L 296.505984 295.277191 
L 301.000806 297.038863 
L 305.495627 298.656069 
L 309.990449 300.383257 
L 314.48527 302.32617 
L 318.980092 304.585206 
L 323.474914 306.512656 
L 327.969735 308.1371 
L 332.464557 310.367889 
L 336.959379 311.962576 
L 341.4542 313.794459 
L 345.949022 315.827934 
L 350.443843 318.318813 
L 354.938665 320.39127 
L 359.433487 322.921552 
L 363.928308 325.536631 
L 368.42313 327.507666 
L 372.917952 330.008214 
L 377.412773 331.944139 
L 381.907595 334.04598 
L 386.402417 336.185205 
L 390.897238 338.279193 
L 395.39206 340.464114 
L 399.886881 343.518101 
L 404.381703 346.056888 
L 408.876525 347.755891 
L 413.371346 351.495852 
L 417.866168 353.926851 
L 422.36099 356.117005 
L 426.855811 358.136091 
L 431.350633 359.6905 
L 435.845455 363.174545 
" clip-path="url(#pd299ccc39f)" style="fill: none; stroke: #1f77b4; stroke-width: 1.5; stroke-linecap: square"/>
    <defs>
     <path id="m7e9cb22598" d="M 0 1.5 
C 0.397805 1.5 0.77937 1.341951 1.06066 1.06066 
C 1.341951 0.77937 1.5 0.397805 1.5 0 
C 1.5 -0.397805 1.341951 -0.77937 1.06066 -1.06066 
C 0.77937 -1.341951 0.397805 -1.5 0 -1.5 
C -0.397805 -1.5 -0.77937 -1.341951 -1.06066 -1.06066 
C -1.341951 -0.77937 -1.5 -0.397805 -1.5 0 
C -1.5 0.397805 -1.341951 0.77937 -1.06066 1.06066 
C -0.77937 1.341951 -0.397805 1.5 0 1.5 
z
" style="stroke: #1f77b4"/>
    </defs>
    <g clip-path="url(#pd299ccc39f)">
     <use xlink:href="#m7e9cb22598" x="80.754545" y="85.764544" style="fill: #1f77b4; stroke: #1f77b4"/>
     <use xlink:href="#m7e9cb22598" x="85.249367" y="89.963017" style="fill: #1f77b4; stroke: #1f77b4"/>
     <use xlink:href="#m7e9cb22598" x="89.744189" y="111.528646" style="fill: #1f77b4; stroke: #1f77b4"/>
     <use xlink:href="#m7e9cb22598" x="94.23901" y="144.886048" style="fill: #1f77b4; stroke: #1f77b4"/>
     <use xlink:href="#m7e9cb22598" x="98.733832" y="131.743703" style="fill: #1f77b4; stroke: #1f77b4"/>
     <use xlink:href="#m7e9cb22598" x="103.228654" y="113.817763" style="fill: #1f77b4; stroke: #1f77b4"/>
     <use xlink:href="#m7e9cb22598" x="107.723475" y="157.731739" style="fill: #1f77b4; stroke: #1f77b4"/>
     <use xlink:href="#m7e9cb22598" x="112.218297" y="180.168857" style="fill: #1f77b4; stroke: #1f77b4"/>
     <use xlink:href="#m7e9cb22598" x="116.713119" y="196.971618" style="fill: #1f77b4; stroke: #1f77b4"/>
     <use xlink:href="#m7e9cb22598" x="121.20794" y="210.691298" style="fill: #1f77b4; stroke: #1f77b4"/>
     <use xlink:href="#m7e9cb22598" x="125.702762" y="227.600119" style="fill: #1f77b4; stroke: #1f77b4"/>
     <use xlink:href="#m7e9cb22598" x="130.197583" y="241.580744" style="fill: #1f77b4; stroke: #1f77b4"/>
     <use xlink:href="#m7e9cb22598" x="134.692405" y="250.218009" style="fill: #1f77b4; stroke: #1f77b4"/>
     <use xlink:href="#m7e9cb22598" x="139.187227" y="255.50211" style="fill: #1f77b4; stroke: #1f77b4"/>
     <use xlink:href="#m7e9cb22598" x="143.682048" y="258.525139" style="fill: #1f77b4; stroke: #1f77b4"/>
     <use xlink:href="#m7e9cb22598" x="148.17687" y="260.719733" style="fill: #1f77b4; stroke: #1f77b4"/>
     <use xlink:href="#m7e9cb22598" x="152.671692" y="261.839561" style="fill: #1f77b4; stroke: #1f77b4"/>
     <use xlink:href="#m7e9cb22598" x="157.166513" y="262.69138" style="fill: #1f77b4; stroke: #1f77b4"/>
     <use xlink:href="#m7e9cb22598" x="161.661335" y="263.659638" style="fill: #1f77b4; stroke: #1f77b4"/>
     <use xlink:href="#m7e9cb22598" x="166.156157" y="264.330322" style="fill: #1f77b4; stroke: #1f77b4"/>
     <use xlink:href="#m7e9cb22598" x="170.650978" y="264.690607" style="fill: #1f77b4; stroke: #1f77b4"/>
     <use xlink:href="#m7e9cb22598" x="175.1458" y="265.188365" style="fill: #1f77b4; stroke: #1f77b4"/>
     <use xlink:href="#m7e9cb22598" x="179.640621" y="265.995363" style="fill: #1f77b4; stroke: #1f77b4"/>
     <use xlink:href="#m7e9cb22598" x="184.135443" y="267.051789" style="fill: #1f77b4; stroke: #1f77b4"/>
     <use xlink:href="#m7e9cb22598" x="188.630265" y="267.183449" style="fill: #1f77b4; stroke: #1f77b4"/>
     <use xlink:href="#m7e9cb22598" x="193.125086" y="267.637037" style="fill: #1f77b4; stroke: #1f77b4"/>
     <use xlink:href="#m7e9cb22598" x="197.619908" y="267.764832" style="fill: #1f77b4; stroke: #1f77b4"/>
     <use xlink:href="#m7e9cb22598" x="202.11473" y="267.975777" style="fill: #1f77b4; stroke: #1f77b4"/>
     <use xlink:href="#m7e9cb22598" x="206.609551" y="268.755601" style="fill: #1f77b4; stroke: #1f77b4"/>
     <use xlink:href="#m7e9cb22598" x="211.104373" y="268.997556" style="fill: #1f77b4; stroke: #1f77b4"/>
     <use xlink:href="#m7e9cb22598" x="215.599194" y="269.5858" style="fill: #1f77b4; stroke: #1f77b4"/>
     <use xlink:href="#m7e9cb22598" x="220.094016" y="270.390423" style="fill: #1f77b4; stroke: #1f77b4"/>
     <use xlink:href="#m7e9cb22598" x="224.588838" y="270.696239" style="fill: #1f77b4; stroke: #1f77b4"/>
     <use xlink:href="#m7e9cb22598" x="229.083659" y="271.168137" style="fill: #1f77b4; stroke: #1f77b4"/>
     <use xlink:href="#m7e9cb22598" x="233.578481" y="272.120351" style="fill: #1f77b4; stroke: #1f77b4"/>
     <use xlink:href="#m7e9cb22598" x="238.073303" y="273.221128" style="fill: #1f77b4; stroke: #1f77b4"/>
     <use xlink:href="#m7e9cb22598" x="242.568124" y="274.426091" style="fill: #1f77b4; stroke: #1f77b4"/>
     <use xlink:href="#m7e9cb22598" x="247.062946" y="275.681852" style="fill: #1f77b4; stroke: #1f77b4"/>
     <use xlink:href="#m7e9cb22598" x="251.557768" y="276.988561" style="fill: #1f77b4; stroke: #1f77b4"/>
     <use xlink:href="#m7e9cb22598" x="256.052589" y="278.324638" style="fill: #1f77b4; stroke: #1f77b4"/>
     <use xlink:href="#m7e9cb22598" x="260.547411" y="279.952583" style="fill: #1f77b4; stroke: #1f77b4"/>
     <use xlink:href="#m7e9cb22598" x="265.042232" y="281.590592" style="fill: #1f77b4; stroke: #1f77b4"/>
     <use xlink:href="#m7e9cb22598" x="269.537054" y="283.300012" style="fill: #1f77b4; stroke: #1f77b4"/>
     <use xlink:href="#m7e9cb22598" x="274.031876" y="285.121037" style="fill: #1f77b4; stroke: #1f77b4"/>
     <use xlink:href="#m7e9cb22598" x="278.526697" y="286.683076" style="fill: #1f77b4; stroke: #1f77b4"/>
     <use xlink:href="#m7e9cb22598" x="283.021519" y="288.720712" style="fill: #1f77b4; stroke: #1f77b4"/>
     <use xlink:href="#m7e9cb22598" x="287.516341" y="290.766237" style="fill: #1f77b4; stroke: #1f77b4"/>
     <use xlink:href="#m7e9cb22598" x="292.011162" y="292.936712" style="fill: #1f77b4; stroke: #1f77b4"/>
     <use xlink:href="#m7e9cb22598" x="296.505984" y="295.277191" style="fill: #1f77b4; stroke: #1f77b4"/>
     <use xlink:href="#m7e9cb22598" x="301.000806" y="297.038863" style="fill: #1f77b4; stroke: #1f77b4"/>
     <use xlink:href="#m7e9cb22598" x="305.495627" y="298.656069" style="fill: #1f77b4; stroke: #1f77b4"/>
     <use xlink:href="#m7e9cb22598" x="309.990449" y="300.383257" style="fill: #1f77b4; stroke: #1f77b4"/>
     <use xlink:href="#m7e9cb22598" x="314.48527" y="302.32617" style="fill: #1f77b4; stroke: #1f77b4"/>
     <use xlink:href="#m7e9cb22598" x="318.980092" y="304.585206" style="fill: #1f77b4; stroke: #1f77b4"/>
     <use xlink:href="#m7e9cb22598" x="323.474914" y="306.512656" style="fill: #1f77b4; stroke: #1f77b4"/>
     <use xlink:href="#m7e9cb22598" x="327.969735" y="308.1371" style="fill: #1f77b4; stroke: #1f77b4"/>
     <use xlink:href="#m7e9cb22598" x="332.464557" y="310.367889" style="fill: #1f77b4; stroke: #1f77b4"/>
     <use xlink:href="#m7e9cb22598" x="336.959379" y="311.962576" style="fill: #1f77b4; stroke: #1f77b4"/>
     <use xlink:href="#m7e9cb22598" x="341.4542" y="313.794459" style="fill: #1f77b4; stroke: #1f77b4"/>
     <use xlink:href="#m7e9cb22598" x="345.949022" y="315.827934" style="fill: #1f77b4; stroke: #1f77b4"/>
     <use xlink:href="#m7e9cb22598" x="350.443843" y="318.318813" style="fill: #1f77b4; stroke: #1f77b4"/>
     <use xlink:href="#m7e9cb22598" x="354.938665" y="320.39127" style="fill: #1f77b4; stroke: #1f77b4"/>
     <use xlink:href="#m7e9cb22598" x="359.433487" y="322.921552" style="fill: #1f77b4; stroke: #1f77b4"/>
     <use xlink:href="#m7e9cb22598" x="363.928308" y="325.536631" style="fill: #1f77b4; stroke: #1f77b4"/>
     <use xlink:href="#m7e9cb22598" x="368.42313" y="327.507666" style="fill: #1f77b4; stroke: #1f77b4"/>
     <use xlink:href="#m7e9cb22598" x="372.917952" y="330.008214" style="fill: #1f77b4; stroke: #1f77b4"/>
     <use xlink:href="#m7e9cb22598" x="377.412773" y="331.944139" style="fill: #1f77b4; stroke: #1f77b4"/>
     <use xlink:href="#m7e9cb22598" x="381.907595" y="334.04598" style="fill: #1f77b4; stroke: #1f77b4"/>
     <use xlink:href="#m7e9cb22598" x="386.402417" y="336.185205" style="fill: #1f77b4; stroke: #1f77b4"/>
     <use xlink:href="#m7e9cb22598" x="390.897238" y="338.279193" style="fill: #1f77b4; stroke: #1f77b4"/>
     <use xlink:href="#m7e9cb22598" x="395.39206" y="340.464114" style="fill: #1f77b4; stroke: #1f77b4"/>
     <use xlink:href="#m7e9cb22598" x="399.886881" y="343.518101" style="fill: #1f77b4; stroke: #1f77b4"/>
     <use xlink:href="#m7e9cb22598" x="404.381703" y="346.056888" style="fill: #1f77b4; stroke: #1f77b4"/>
     <use xlink:href="#m7e9cb22598" x="408.876525" y="347.755891" style="fill: #1f77b4; stroke: #1f77b4"/>
     <use xlink:href="#m7e9cb22598" x="413.371346" y="351.495852" style="fill: #1f77b4; stroke: #1f77b4"/>
     <use xlink:href="#m7e9cb22598" x="417.866168" y="353.926851" style="fill: #1f77b4; stroke: #1f77b4"/>
     <use xlink:href="#m7e9cb22598" x="422.36099" y="356.117005" style="fill: #1f77b4; stroke: #1f77b4"/>
     <use xlink:href="#m7e9cb22598" x="426.855811" y="358.136091" style="fill: #1f77b4; stroke: #1f77b4"/>
     <use xlink:href="#m7e9cb22598" x="431.350633" y="359.6905" style="fill: #1f77b4; stroke: #1f77b4"/>
     <use xlink:href="#m7e9cb22598" x="435.845455" y="363.174545" style="fill: #1f77b4; stroke: #1f77b4"/>
    </g>
   </g>
   <g id="LineCollection_1">
    <path d="M 143.926792 274.966105 
L 143.926792 219.720784 
" clip-path="url(#pd299ccc39f)" style="fill: none; stroke: #000000; stroke-width: 1.5"/>
   </g>
   <g id="LineCollection_2">
    <path d="M 245.668937 288.777435 
L 245.668937 233.532114 
" clip-path="url(#pd299ccc39f)" style="fill: none; stroke: #000000; stroke-width: 1.5"/>
   </g>
   <g id="LineCollection_3">
    <path d="M 324.801716 316.400095 
L 324.801716 233.532114 
" clip-path="url(#pd299ccc39f)" style="fill: none; stroke: #000000; stroke-width: 1.5"/>
   </g>
   <g id="patch_3">
    <path d="M 63 378 
L 63 51.84 
" style="fill: none; stroke: #000000; stroke-width: 0.8; stroke-linejoin: miter; stroke-linecap: square"/>
   </g>
   <g id="patch_4">
    <path d="M 453.6 378 
L 453.6 51.84 
" style="fill: none; stroke: #000000; stroke-width: 0.8; stroke-linejoin: miter; stroke-linecap: square"/>
   </g>
   <g id="patch_5">
    <path d="M 63 378 
L 453.6 378 
" style="fill: none; stroke: #000000; stroke-width: 0.8; stroke-linejoin: miter; stroke-linecap: square"/>
   </g>
   <g id="patch_6">
    <path d="M 63 51.84 
L 453.6 51.84 
" style="fill: none; stroke: #000000; stroke-width: 0.8; stroke-linejoin: miter; stroke-linecap: square"/>
   </g>
   <g id="text_16">
    <!-- end of  -->
    <g transform="translate(119.542729 292.433735)scale(0.14 -0.14)">
     <defs>
      <path id="DejaVuSans-64" d="M 2906 2969 
L 2906 4863 
L 3481 4863 
L 3481 0 
L 2906 0 
L 2906 525 
Q 2725 213 2448 61 
Q 2172 -91 1784 -91 
Q 1150 -91 751 415 
Q 353 922 353 1747 
Q 353 2572 751 3078 
Q 1150 3584 1784 3584 
Q 2172 3584 2448 3432 
Q 2725 3281 2906 2969 
z
M 947 1747 
Q 947 1113 1208 752 
Q 1469 391 1925 391 
Q 2381 391 2643 752 
Q 2906 1113 2906 1747 
Q 2906 2381 2643 2742 
Q 2381 3103 1925 3103 
Q 1469 3103 1208 2742 
Q 947 2381 947 1747 
z
" transform="scale(0.015625)"/>
      <path id="DejaVuSans-20" transform="scale(0.015625)"/>
      <path id="DejaVuSans-6f" d="M 1959 3097 
Q 1497 3097 1228 2736 
Q 959 2375 959 1747 
Q 959 1119 1226 758 
Q 1494 397 1959 397 
Q 2419 397 2687 759 
Q 2956 1122 2956 1747 
Q 2956 2369 2687 2733 
Q 2419 3097 1959 3097 
z
M 1959 3584 
Q 2709 3584 3137 3096 
Q 3566 2609 3566 1747 
Q 3566 888 3137 398 
Q 2709 -91 1959 -91 
Q 1206 -91 779 398 
Q 353 888 353 1747 
Q 353 2609 779 3096 
Q 1206 3584 1959 3584 
z
" transform="scale(0.015625)"/>
      <path id="DejaVuSans-66" d="M 2375 4863 
L 2375 4384 
L 1825 4384 
Q 1516 4384 1395 4259 
Q 1275 4134 1275 3809 
L 1275 3500 
L 2222 3500 
L 2222 3053 
L 1275 3053 
L 1275 0 
L 697 0 
L 697 3053 
L 147 3053 
L 147 3500 
L 697 3500 
L 697 3744 
Q 697 4328 969 4595 
Q 1241 4863 1831 4863 
L 2375 4863 
z
" transform="scale(0.015625)"/>
     </defs>
     <use xlink:href="#DejaVuSans-65"/>
     <use xlink:href="#DejaVuSans-6e" x="61.523438"/>
     <use xlink:href="#DejaVuSans-64" x="124.902344"/>
     <use xlink:href="#DejaVuSans-20" x="188.378906"/>
     <use xlink:href="#DejaVuSans-6f" x="220.166016"/>
     <use xlink:href="#DejaVuSans-66" x="281.347656"/>
     <use xlink:href="#DejaVuSans-20" x="316.552734"/>
    </g>
    <!--  $5 \, \mathrm{MeV}$ drop -->
    <g transform="translate(102.696792 308.113297)scale(0.14 -0.14)">
     <defs>
      <path id="DejaVuSans-70" d="M 1159 525 
L 1159 -1331 
L 581 -1331 
L 581 3500 
L 1159 3500 
L 1159 2969 
Q 1341 3281 1617 3432 
Q 1894 3584 2278 3584 
Q 2916 3584 3314 3078 
Q 3713 2572 3713 1747 
Q 3713 922 3314 415 
Q 2916 -91 2278 -91 
Q 1894 -91 1617 61 
Q 1341 213 1159 525 
z
M 3116 1747 
Q 3116 2381 2855 2742 
Q 2594 3103 2138 3103 
Q 1681 3103 1420 2742 
Q 1159 2381 1159 1747 
Q 1159 1113 1420 752 
Q 1681 391 2138 391 
Q 2594 391 2855 752 
Q 3116 1113 3116 1747 
z
" transform="scale(0.015625)"/>
     </defs>
     <use xlink:href="#DejaVuSans-20" transform="translate(0 0.015625)"/>
     <use xlink:href="#DejaVuSans-35" transform="translate(31.787109 0.015625)"/>
     <use xlink:href="#DejaVuSans-4d" transform="translate(111.645833 0.015625)"/>
     <use xlink:href="#DejaVuSans-65" transform="translate(197.925129 0.015625)"/>
     <use xlink:href="#DejaVuSans-56" transform="translate(259.448567 0.015625)"/>
     <use xlink:href="#DejaVuSans-20" transform="translate(327.85677 0.015625)"/>
     <use xlink:href="#DejaVuSans-64" transform="translate(359.643879 0.015625)"/>
     <use xlink:href="#DejaVuSans-72" transform="translate(423.120442 0.015625)"/>
     <use xlink:href="#DejaVuSans-6f" transform="translate(464.233723 0.015625)"/>
     <use xlink:href="#DejaVuSans-70" transform="translate(525.415364 0.015625)"/>
    </g>
   </g>
   <g id="text_17">
    <!-- breakup of  -->
    <g transform="translate(205.996437 300.723158)scale(0.14 -0.14)">
     <defs>
      <path id="DejaVuSans-62" d="M 3116 1747 
Q 3116 2381 2855 2742 
Q 2594 3103 2138 3103 
Q 1681 3103 1420 2742 
Q 1159 2381 1159 1747 
Q 1159 1113 1420 752 
Q 1681 391 2138 391 
Q 2594 391 2855 752 
Q 3116 1113 3116 1747 
z
M 1159 2969 
Q 1341 3281 1617 3432 
Q 1894 3584 2278 3584 
Q 2916 3584 3314 3078 
Q 3713 2572 3713 1747 
Q 3713 922 3314 415 
Q 2916 -91 2278 -91 
Q 1894 -91 1617 61 
Q 1341 213 1159 525 
L 1159 0 
L 581 0 
L 581 4863 
L 1159 4863 
L 1159 2969 
z
" transform="scale(0.015625)"/>
      <path id="DejaVuSans-6b" d="M 581 4863 
L 1159 4863 
L 1159 1991 
L 2875 3500 
L 3609 3500 
L 1753 1863 
L 3688 0 
L 2938 0 
L 1159 1709 
L 1159 0 
L 581 0 
L 581 4863 
z
" transform="scale(0.015625)"/>
      <path id="DejaVuSans-75" d="M 544 1381 
L 544 3500 
L 1119 3500 
L 1119 1403 
Q 1119 906 1312 657 
Q 1506 409 1894 409 
Q 2359 409 2629 706 
Q 2900 1003 2900 1516 
L 2900 3500 
L 3475 3500 
L 3475 0 
L 2900 0 
L 2900 538 
Q 2691 219 2414 64 
Q 2138 -91 1772 -91 
Q 1169 -91 856 284 
Q 544 659 544 1381 
z
M 1991 3584 
L 1991 3584 
z
" transform="scale(0.015625)"/>
     </defs>
     <use xlink:href="#DejaVuSans-62"/>
     <use xlink:href="#DejaVuSans-72" x="63.476562"/>
     <use xlink:href="#DejaVuSans-65" x="102.339844"/>
     <use xlink:href="#DejaVuSans-61" x="163.863281"/>
     <use xlink:href="#DejaVuSans-6b" x="225.142578"/>
     <use xlink:href="#DejaVuSans-75" x="279.927734"/>
     <use xlink:href="#DejaVuSans-70" x="343.306641"/>
     <use xlink:href="#DejaVuSans-20" x="406.783203"/>
     <use xlink:href="#DejaVuSans-6f" x="438.570312"/>
     <use xlink:href="#DejaVuSans-66" x="499.751953"/>
     <use xlink:href="#DejaVuSans-20" x="534.957031"/>
    </g>
    <!--  $250 \, \mathrm{MeV}$ driver -->
    <g transform="translate(190.928937 316.400095)scale(0.14 -0.14)">
     <defs>
      <path id="DejaVuSans-69" d="M 603 3500 
L 1178 3500 
L 1178 0 
L 603 0 
L 603 3500 
z
M 603 4863 
L 1178 4863 
L 1178 4134 
L 603 4134 
L 603 4863 
z
" transform="scale(0.015625)"/>
      <path id="DejaVuSans-76" d="M 191 3500 
L 800 3500 
L 1894 563 
L 2988 3500 
L 3597 3500 
L 2284 0 
L 1503 0 
L 191 3500 
z
" transform="scale(0.015625)"/>
     </defs>
     <use xlink:href="#DejaVuSans-20" transform="translate(0 0.015625)"/>
     <use xlink:href="#DejaVuSans-32" transform="translate(31.787109 0.015625)"/>
     <use xlink:href="#DejaVuSans-35" transform="translate(95.410156 0.015625)"/>
     <use xlink:href="#DejaVuSans-30" transform="translate(159.033203 0.015625)"/>
     <use xlink:href="#DejaVuSans-4d" transform="translate(238.891926 0.015625)"/>
     <use xlink:href="#DejaVuSans-65" transform="translate(325.171223 0.015625)"/>
     <use xlink:href="#DejaVuSans-56" transform="translate(386.694661 0.015625)"/>
     <use xlink:href="#DejaVuSans-20" transform="translate(455.102864 0.015625)"/>
     <use xlink:href="#DejaVuSans-64" transform="translate(486.889973 0.015625)"/>
     <use xlink:href="#DejaVuSans-72" transform="translate(550.366536 0.015625)"/>
     <use xlink:href="#DejaVuSans-69" transform="translate(591.479817 0.015625)"/>
     <use xlink:href="#DejaVuSans-76" transform="translate(619.26302 0.015625)"/>
     <use xlink:href="#DejaVuSans-65" transform="translate(678.442708 0.015625)"/>
     <use xlink:href="#DejaVuSans-72" transform="translate(739.966145 0.015625)"/>
    </g>
   </g>
   <g id="text_18">
    <!-- breakup of  -->
    <g transform="translate(285.129216 336.632616)scale(0.14 -0.14)">
     <use xlink:href="#DejaVuSans-62"/>
     <use xlink:href="#DejaVuSans-72" x="63.476562"/>
     <use xlink:href="#DejaVuSans-65" x="102.339844"/>
     <use xlink:href="#DejaVuSans-61" x="163.863281"/>
     <use xlink:href="#DejaVuSans-6b" x="225.142578"/>
     <use xlink:href="#DejaVuSans-75" x="279.927734"/>
     <use xlink:href="#DejaVuSans-70" x="343.306641"/>
     <use xlink:href="#DejaVuSans-20" x="406.783203"/>
     <use xlink:href="#DejaVuSans-6f" x="438.570312"/>
     <use xlink:href="#DejaVuSans-66" x="499.751953"/>
     <use xlink:href="#DejaVuSans-20" x="534.957031"/>
    </g>
    <!--  $300 \, \mathrm{MeV}$ driver -->
    <g transform="translate(270.061716 352.309554)scale(0.14 -0.14)">
     <use xlink:href="#DejaVuSans-20" transform="translate(0 0.015625)"/>
     <use xlink:href="#DejaVuSans-33" transform="translate(31.787109 0.015625)"/>
     <use xlink:href="#DejaVuSans-30" transform="translate(95.410156 0.015625)"/>
     <use xlink:href="#DejaVuSans-30" transform="translate(159.033203 0.015625)"/>
     <use xlink:href="#DejaVuSans-4d" transform="translate(238.891926 0.015625)"/>
     <use xlink:href="#DejaVuSans-65" transform="translate(325.171223 0.015625)"/>
     <use xlink:href="#DejaVuSans-56" transform="translate(386.694661 0.015625)"/>
     <use xlink:href="#DejaVuSans-20" transform="translate(455.102864 0.015625)"/>
     <use xlink:href="#DejaVuSans-64" transform="translate(486.889973 0.015625)"/>
     <use xlink:href="#DejaVuSans-72" transform="translate(550.366536 0.015625)"/>
     <use xlink:href="#DejaVuSans-69" transform="translate(591.479817 0.015625)"/>
     <use xlink:href="#DejaVuSans-76" transform="translate(619.26302 0.015625)"/>
     <use xlink:href="#DejaVuSans-65" transform="translate(678.442708 0.015625)"/>
     <use xlink:href="#DejaVuSans-72" transform="translate(739.966145 0.015625)"/>
    </g>
   </g>
   <g id="text_19">
    <!-- comparison for different initial energies -->
    <g transform="translate(99.87125 45.84)scale(0.16 -0.16)">
     <defs>
      <path id="DejaVuSans-73" d="M 2834 3397 
L 2834 2853 
Q 2591 2978 2328 3040 
Q 2066 3103 1784 3103 
Q 1356 3103 1142 2972 
Q 928 2841 928 2578 
Q 928 2378 1081 2264 
Q 1234 2150 1697 2047 
L 1894 2003 
Q 2506 1872 2764 1633 
Q 3022 1394 3022 966 
Q 3022 478 2636 193 
Q 2250 -91 1575 -91 
Q 1294 -91 989 -36 
Q 684 19 347 128 
L 347 722 
Q 666 556 975 473 
Q 1284 391 1588 391 
Q 1994 391 2212 530 
Q 2431 669 2431 922 
Q 2431 1156 2273 1281 
Q 2116 1406 1581 1522 
L 1381 1569 
Q 847 1681 609 1914 
Q 372 2147 372 2553 
Q 372 3047 722 3315 
Q 1072 3584 1716 3584 
Q 2034 3584 2315 3537 
Q 2597 3491 2834 3397 
z
" transform="scale(0.015625)"/>
      <path id="DejaVuSans-74" d="M 1172 4494 
L 1172 3500 
L 2356 3500 
L 2356 3053 
L 1172 3053 
L 1172 1153 
Q 1172 725 1289 603 
Q 1406 481 1766 481 
L 2356 481 
L 2356 0 
L 1766 0 
Q 1100 0 847 248 
Q 594 497 594 1153 
L 594 3053 
L 172 3053 
L 172 3500 
L 594 3500 
L 594 4494 
L 1172 4494 
z
" transform="scale(0.015625)"/>
      <path id="DejaVuSans-6c" d="M 603 4863 
L 1178 4863 
L 1178 0 
L 603 0 
L 603 4863 
z
" transform="scale(0.015625)"/>
     </defs>
     <use xlink:href="#DejaVuSans-63"/>
     <use xlink:href="#DejaVuSans-6f" x="54.980469"/>
     <use xlink:href="#DejaVuSans-6d" x="116.162109"/>
     <use xlink:href="#DejaVuSans-70" x="213.574219"/>
     <use xlink:href="#DejaVuSans-61" x="277.050781"/>
     <use xlink:href="#DejaVuSans-72" x="338.330078"/>
     <use xlink:href="#DejaVuSans-69" x="379.443359"/>
     <use xlink:href="#DejaVuSans-73" x="407.226562"/>
     <use xlink:href="#DejaVuSans-6f" x="459.326172"/>
     <use xlink:href="#DejaVuSans-6e" x="520.507812"/>
     <use xlink:href="#DejaVuSans-20" x="583.886719"/>
     <use xlink:href="#DejaVuSans-66" x="615.673828"/>
     <use xlink:href="#DejaVuSans-6f" x="650.878906"/>
     <use xlink:href="#DejaVuSans-72" x="712.060547"/>
     <use xlink:href="#DejaVuSans-20" x="753.173828"/>
     <use xlink:href="#DejaVuSans-64" x="784.960938"/>
     <use xlink:href="#DejaVuSans-69" x="848.4375"/>
     <use xlink:href="#DejaVuSans-66" x="876.220703"/>
     <use xlink:href="#DejaVuSans-66" x="911.425781"/>
     <use xlink:href="#DejaVuSans-65" x="946.630859"/>
     <use xlink:href="#DejaVuSans-72" x="1008.154297"/>
     <use xlink:href="#DejaVuSans-65" x="1047.017578"/>
     <use xlink:href="#DejaVuSans-6e" x="1108.541016"/>
     <use xlink:href="#DejaVuSans-74" x="1171.919922"/>
     <use xlink:href="#DejaVuSans-20" x="1211.128906"/>
     <use xlink:href="#DejaVuSans-69" x="1242.916016"/>
     <use xlink:href="#DejaVuSans-6e" x="1270.699219"/>
     <use xlink:href="#DejaVuSans-69" x="1334.078125"/>
     <use xlink:href="#DejaVuSans-74" x="1361.861328"/>
     <use xlink:href="#DejaVuSans-69" x="1401.070312"/>
     <use xlink:href="#DejaVuSans-61" x="1428.853516"/>
     <use xlink:href="#DejaVuSans-6c" x="1490.132812"/>
     <use xlink:href="#DejaVuSans-20" x="1517.916016"/>
     <use xlink:href="#DejaVuSans-65" x="1549.703125"/>
     <use xlink:href="#DejaVuSans-6e" x="1611.226562"/>
     <use xlink:href="#DejaVuSans-65" x="1674.605469"/>
     <use xlink:href="#DejaVuSans-72" x="1736.128906"/>
     <use xlink:href="#DejaVuSans-67" x="1775.492188"/>
     <use xlink:href="#DejaVuSans-69" x="1838.96875"/>
     <use xlink:href="#DejaVuSans-65" x="1866.751953"/>
     <use xlink:href="#DejaVuSans-73" x="1928.275391"/>
    </g>
   </g>
   <g id="legend_1">
    <g id="patch_7">
     <path d="M 323.36 135.095 
L 442.4 135.095 
Q 445.6 135.095 445.6 131.895 
L 445.6 63.04 
Q 445.6 59.84 442.4 59.84 
L 323.36 59.84 
Q 320.16 59.84 320.16 63.04 
L 320.16 131.895 
Q 320.16 135.095 323.36 135.095 
z
" style="fill: #ffffff; opacity: 0.8; stroke: #cccccc; stroke-linejoin: miter"/>
    </g>
    <g id="line2d_30">
     <path d="M 326.56 72.7975 
L 342.56 72.7975 
L 358.56 72.7975 
" style="fill: none; stroke: #008000; stroke-width: 1.5; stroke-linecap: square"/>
     <g>
      <use xlink:href="#m0852f197cf" x="342.56" y="72.7975" style="fill: #008000; stroke: #008000"/>
     </g>
    </g>
    <g id="text_20">
     <!-- $250 \, \mathrm{MeV}$ -->
     <g transform="translate(371.36 78.3975)scale(0.16 -0.16)">
      <use xlink:href="#DejaVuSans-32" transform="translate(0 0.78125)"/>
      <use xlink:href="#DejaVuSans-35" transform="translate(63.623047 0.78125)"/>
      <use xlink:href="#DejaVuSans-30" transform="translate(127.246094 0.78125)"/>
      <use xlink:href="#DejaVuSans-4d" transform="translate(207.104817 0.78125)"/>
      <use xlink:href="#DejaVuSans-65" transform="translate(293.384114 0.78125)"/>
      <use xlink:href="#DejaVuSans-56" transform="translate(354.907551 0.78125)"/>
     </g>
    </g>
    <g id="line2d_31">
     <path d="M 326.56 96.2825 
L 342.56 96.2825 
L 358.56 96.2825 
" style="fill: none; stroke: #ff7f0e; stroke-width: 1.5; stroke-linecap: square"/>
     <g>
      <use xlink:href="#m5b4700955c" x="342.56" y="96.2825" style="fill: #ff7f0e; stroke: #ff7f0e"/>
     </g>
    </g>
    <g id="text_21">
     <!-- $300 \, \mathrm{MeV}$ -->
     <g transform="translate(371.36 101.8825)scale(0.16 -0.16)">
      <use xlink:href="#DejaVuSans-33" transform="translate(0 0.78125)"/>
      <use xlink:href="#DejaVuSans-30" transform="translate(63.623047 0.78125)"/>
      <use xlink:href="#DejaVuSans-30" transform="translate(127.246094 0.78125)"/>
      <use xlink:href="#DejaVuSans-4d" transform="translate(207.104817 0.78125)"/>
      <use xlink:href="#DejaVuSans-65" transform="translate(293.384114 0.78125)"/>
      <use xlink:href="#DejaVuSans-56" transform="translate(354.907551 0.78125)"/>
     </g>
    </g>
    <g id="line2d_32">
     <path d="M 326.56 119.7675 
L 342.56 119.7675 
L 358.56 119.7675 
" style="fill: none; stroke: #1f77b4; stroke-width: 1.5; stroke-linecap: square"/>
     <g>
      <use xlink:href="#m7e9cb22598" x="342.56" y="119.7675" style="fill: #1f77b4; stroke: #1f77b4"/>
     </g>
    </g>
    <g id="text_22">
     <!-- $350 \, \mathrm{MeV}$ -->
     <g transform="translate(371.36 125.3675)scale(0.16 -0.16)">
      <use xlink:href="#DejaVuSans-33" transform="translate(0 0.78125)"/>
      <use xlink:href="#DejaVuSans-35" transform="translate(63.623047 0.78125)"/>
      <use xlink:href="#DejaVuSans-30" transform="translate(127.246094 0.78125)"/>
      <use xlink:href="#DejaVuSans-4d" transform="translate(207.104817 0.78125)"/>
      <use xlink:href="#DejaVuSans-65" transform="translate(293.384114 0.78125)"/>
      <use xlink:href="#DejaVuSans-56" transform="translate(354.907551 0.78125)"/>
     </g>
    </g>
   </g>
  </g>
 </g>
 <defs>
  <clipPath id="pd299ccc39f">
   <rect x="63" y="51.84" width="390.6" height="326.16"/>
  </clipPath>
 </defs>
</svg>
