<?xml version="1.0" encoding="utf-8" standalone="no"?>
<!DOCTYPE svg PUBLIC "-//W3C//DTD SVG 1.1//EN"
  "http://www.w3.org/Graphics/SVG/1.1/DTD/svg11.dtd">
<svg xmlns:xlink="http://www.w3.org/1999/xlink" width="504pt" height="432pt" viewBox="0 0 504 432" xmlns="http://www.w3.org/2000/svg" version="1.1">
 <metadata>
  <rdf:RDF xmlns:dc="http://purl.org/dc/elements/1.1/" xmlns:cc="http://creativecommons.org/ns#" xmlns:rdf="http://www.w3.org/1999/02/22-rdf-syntax-ns#">
   <cc:Work>
    <dc:type rdf:resource="http://purl.org/dc/dcmitype/StillImage"/>
    <dc:date>2023-01-20T11:31:45.248472</dc:date>
    <dc:format>image/svg+xml</dc:format>
    <dc:creator>
     <cc:Agent>
      <dc:title>Matplotlib v3.5.1, https://matplotlib.org/</dc:title>
     </cc:Agent>
    </dc:creator>
   </cc:Work>
  </rdf:RDF>
 </metadata>
 <defs>
  <style type="text/css">*{stroke-linejoin: round; stroke-linecap: butt}</style>
 </defs>
 <g id="figure_1">
  <g id="patch_1">
   <path d="M 0 432 
L 504 432 
L 504 0 
L 0 0 
z
" style="fill: #ffffff"/>
  </g>
  <g id="axes_1">
   <g id="patch_2">
    <path d="M 63 378 
L 453.6 378 
L 453.6 51.84 
L 63 51.84 
z
" style="fill: #ffffff"/>
   </g>
   <g id="matplotlib.axis_1">
    <g id="xtick_1">
     <g id="line2d_1">
      <path d="M 87.403378 378 
L 87.403378 51.84 
" clip-path="url(#pcee164b766)" style="fill: none; stroke: #b0b0b0; stroke-width: 0.8; stroke-linecap: square"/>
     </g>
     <g id="line2d_2">
      <defs>
       <path id="m8bbbdbbcab" d="M 0 0 
L 0 3.5 
" style="stroke: #000000; stroke-width: 0.8"/>
      </defs>
      <g>
       <use xlink:href="#m8bbbdbbcab" x="87.403378" y="378" style="stroke: #000000; stroke-width: 0.8"/>
      </g>
     </g>
     <g id="text_1">
      <!-- 0 -->
      <g transform="translate(82.949628 395.637812)scale(0.14 -0.14)">
       <defs>
        <path id="DejaVuSans-30" d="M 2034 4250 
Q 1547 4250 1301 3770 
Q 1056 3291 1056 2328 
Q 1056 1369 1301 889 
Q 1547 409 2034 409 
Q 2525 409 2770 889 
Q 3016 1369 3016 2328 
Q 3016 3291 2770 3770 
Q 2525 4250 2034 4250 
z
M 2034 4750 
Q 2819 4750 3233 4129 
Q 3647 3509 3647 2328 
Q 3647 1150 3233 529 
Q 2819 -91 2034 -91 
Q 1250 -91 836 529 
Q 422 1150 422 2328 
Q 422 3509 836 4129 
Q 1250 4750 2034 4750 
z
" transform="scale(0.015625)"/>
       </defs>
       <use xlink:href="#DejaVuSans-30"/>
      </g>
     </g>
    </g>
    <g id="xtick_2">
     <g id="line2d_3">
      <path d="M 143.926792 378 
L 143.926792 51.84 
" clip-path="url(#pcee164b766)" style="fill: none; stroke: #b0b0b0; stroke-width: 0.8; stroke-linecap: square"/>
     </g>
     <g id="line2d_4">
      <g>
       <use xlink:href="#m8bbbdbbcab" x="143.926792" y="378" style="stroke: #000000; stroke-width: 0.8"/>
      </g>
     </g>
     <g id="text_2">
      <!-- 1 -->
      <g transform="translate(139.473042 395.637812)scale(0.14 -0.14)">
       <defs>
        <path id="DejaVuSans-31" d="M 794 531 
L 1825 531 
L 1825 4091 
L 703 3866 
L 703 4441 
L 1819 4666 
L 2450 4666 
L 2450 531 
L 3481 531 
L 3481 0 
L 794 0 
L 794 531 
z
" transform="scale(0.015625)"/>
       </defs>
       <use xlink:href="#DejaVuSans-31"/>
      </g>
     </g>
    </g>
    <g id="xtick_3">
     <g id="line2d_5">
      <path d="M 200.450206 378 
L 200.450206 51.84 
" clip-path="url(#pcee164b766)" style="fill: none; stroke: #b0b0b0; stroke-width: 0.8; stroke-linecap: square"/>
     </g>
     <g id="line2d_6">
      <g>
       <use xlink:href="#m8bbbdbbcab" x="200.450206" y="378" style="stroke: #000000; stroke-width: 0.8"/>
      </g>
     </g>
     <g id="text_3">
      <!-- 2 -->
      <g transform="translate(195.996456 395.637812)scale(0.14 -0.14)">
       <defs>
        <path id="DejaVuSans-32" d="M 1228 531 
L 3431 531 
L 3431 0 
L 469 0 
L 469 531 
Q 828 903 1448 1529 
Q 2069 2156 2228 2338 
Q 2531 2678 2651 2914 
Q 2772 3150 2772 3378 
Q 2772 3750 2511 3984 
Q 2250 4219 1831 4219 
Q 1534 4219 1204 4116 
Q 875 4013 500 3803 
L 500 4441 
Q 881 4594 1212 4672 
Q 1544 4750 1819 4750 
Q 2544 4750 2975 4387 
Q 3406 4025 3406 3419 
Q 3406 3131 3298 2873 
Q 3191 2616 2906 2266 
Q 2828 2175 2409 1742 
Q 1991 1309 1228 531 
z
" transform="scale(0.015625)"/>
       </defs>
       <use xlink:href="#DejaVuSans-32"/>
      </g>
     </g>
    </g>
    <g id="xtick_4">
     <g id="line2d_7">
      <path d="M 256.973619 378 
L 256.973619 51.84 
" clip-path="url(#pcee164b766)" style="fill: none; stroke: #b0b0b0; stroke-width: 0.8; stroke-linecap: square"/>
     </g>
     <g id="line2d_8">
      <g>
       <use xlink:href="#m8bbbdbbcab" x="256.973619" y="378" style="stroke: #000000; stroke-width: 0.8"/>
      </g>
     </g>
     <g id="text_4">
      <!-- 3 -->
      <g transform="translate(252.519869 395.637812)scale(0.14 -0.14)">
       <defs>
        <path id="DejaVuSans-33" d="M 2597 2516 
Q 3050 2419 3304 2112 
Q 3559 1806 3559 1356 
Q 3559 666 3084 287 
Q 2609 -91 1734 -91 
Q 1441 -91 1130 -33 
Q 819 25 488 141 
L 488 750 
Q 750 597 1062 519 
Q 1375 441 1716 441 
Q 2309 441 2620 675 
Q 2931 909 2931 1356 
Q 2931 1769 2642 2001 
Q 2353 2234 1838 2234 
L 1294 2234 
L 1294 2753 
L 1863 2753 
Q 2328 2753 2575 2939 
Q 2822 3125 2822 3475 
Q 2822 3834 2567 4026 
Q 2313 4219 1838 4219 
Q 1578 4219 1281 4162 
Q 984 4106 628 3988 
L 628 4550 
Q 988 4650 1302 4700 
Q 1616 4750 1894 4750 
Q 2613 4750 3031 4423 
Q 3450 4097 3450 3541 
Q 3450 3153 3228 2886 
Q 3006 2619 2597 2516 
z
" transform="scale(0.015625)"/>
       </defs>
       <use xlink:href="#DejaVuSans-33"/>
      </g>
     </g>
    </g>
    <g id="xtick_5">
     <g id="line2d_9">
      <path d="M 313.497033 378 
L 313.497033 51.84 
" clip-path="url(#pcee164b766)" style="fill: none; stroke: #b0b0b0; stroke-width: 0.8; stroke-linecap: square"/>
     </g>
     <g id="line2d_10">
      <g>
       <use xlink:href="#m8bbbdbbcab" x="313.497033" y="378" style="stroke: #000000; stroke-width: 0.8"/>
      </g>
     </g>
     <g id="text_5">
      <!-- 4 -->
      <g transform="translate(309.043283 395.637812)scale(0.14 -0.14)">
       <defs>
        <path id="DejaVuSans-34" d="M 2419 4116 
L 825 1625 
L 2419 1625 
L 2419 4116 
z
M 2253 4666 
L 3047 4666 
L 3047 1625 
L 3713 1625 
L 3713 1100 
L 3047 1100 
L 3047 0 
L 2419 0 
L 2419 1100 
L 313 1100 
L 313 1709 
L 2253 4666 
z
" transform="scale(0.015625)"/>
       </defs>
       <use xlink:href="#DejaVuSans-34"/>
      </g>
     </g>
    </g>
    <g id="xtick_6">
     <g id="line2d_11">
      <path d="M 370.020447 378 
L 370.020447 51.84 
" clip-path="url(#pcee164b766)" style="fill: none; stroke: #b0b0b0; stroke-width: 0.8; stroke-linecap: square"/>
     </g>
     <g id="line2d_12">
      <g>
       <use xlink:href="#m8bbbdbbcab" x="370.020447" y="378" style="stroke: #000000; stroke-width: 0.8"/>
      </g>
     </g>
     <g id="text_6">
      <!-- 5 -->
      <g transform="translate(365.566697 395.637812)scale(0.14 -0.14)">
       <defs>
        <path id="DejaVuSans-35" d="M 691 4666 
L 3169 4666 
L 3169 4134 
L 1269 4134 
L 1269 2991 
Q 1406 3038 1543 3061 
Q 1681 3084 1819 3084 
Q 2600 3084 3056 2656 
Q 3513 2228 3513 1497 
Q 3513 744 3044 326 
Q 2575 -91 1722 -91 
Q 1428 -91 1123 -41 
Q 819 9 494 109 
L 494 744 
Q 775 591 1075 516 
Q 1375 441 1709 441 
Q 2250 441 2565 725 
Q 2881 1009 2881 1497 
Q 2881 1984 2565 2268 
Q 2250 2553 1709 2553 
Q 1456 2553 1204 2497 
Q 953 2441 691 2322 
L 691 4666 
z
" transform="scale(0.015625)"/>
       </defs>
       <use xlink:href="#DejaVuSans-35"/>
      </g>
     </g>
    </g>
    <g id="xtick_7">
     <g id="line2d_13">
      <path d="M 426.54386 378 
L 426.54386 51.84 
" clip-path="url(#pcee164b766)" style="fill: none; stroke: #b0b0b0; stroke-width: 0.8; stroke-linecap: square"/>
     </g>
     <g id="line2d_14">
      <g>
       <use xlink:href="#m8bbbdbbcab" x="426.54386" y="378" style="stroke: #000000; stroke-width: 0.8"/>
      </g>
     </g>
     <g id="text_7">
      <!-- 6 -->
      <g transform="translate(422.09011 395.637812)scale(0.14 -0.14)">
       <defs>
        <path id="DejaVuSans-36" d="M 2113 2584 
Q 1688 2584 1439 2293 
Q 1191 2003 1191 1497 
Q 1191 994 1439 701 
Q 1688 409 2113 409 
Q 2538 409 2786 701 
Q 3034 994 3034 1497 
Q 3034 2003 2786 2293 
Q 2538 2584 2113 2584 
z
M 3366 4563 
L 3366 3988 
Q 3128 4100 2886 4159 
Q 2644 4219 2406 4219 
Q 1781 4219 1451 3797 
Q 1122 3375 1075 2522 
Q 1259 2794 1537 2939 
Q 1816 3084 2150 3084 
Q 2853 3084 3261 2657 
Q 3669 2231 3669 1497 
Q 3669 778 3244 343 
Q 2819 -91 2113 -91 
Q 1303 -91 875 529 
Q 447 1150 447 2328 
Q 447 3434 972 4092 
Q 1497 4750 2381 4750 
Q 2619 4750 2861 4703 
Q 3103 4656 3366 4563 
z
" transform="scale(0.015625)"/>
       </defs>
       <use xlink:href="#DejaVuSans-36"/>
      </g>
     </g>
    </g>
    <g id="text_8">
     <!-- $y \, \mathrm{[mm]}$ -->
     <g transform="translate(230.38 414.709375)scale(0.16 -0.16)">
      <defs>
       <path id="DejaVuSans-Oblique-79" d="M 1588 -325 
Q 1188 -997 936 -1164 
Q 684 -1331 294 -1331 
L -159 -1331 
L -63 -850 
L 269 -850 
Q 509 -850 678 -719 
Q 847 -588 1056 -206 
L 1234 128 
L 459 3500 
L 1069 3500 
L 1650 819 
L 3256 3500 
L 3859 3500 
L 1588 -325 
z
" transform="scale(0.015625)"/>
       <path id="DejaVuSans-5b" d="M 550 4863 
L 1875 4863 
L 1875 4416 
L 1125 4416 
L 1125 -397 
L 1875 -397 
L 1875 -844 
L 550 -844 
L 550 4863 
z
" transform="scale(0.015625)"/>
       <path id="DejaVuSans-6d" d="M 3328 2828 
Q 3544 3216 3844 3400 
Q 4144 3584 4550 3584 
Q 5097 3584 5394 3201 
Q 5691 2819 5691 2113 
L 5691 0 
L 5113 0 
L 5113 2094 
Q 5113 2597 4934 2840 
Q 4756 3084 4391 3084 
Q 3944 3084 3684 2787 
Q 3425 2491 3425 1978 
L 3425 0 
L 2847 0 
L 2847 2094 
Q 2847 2600 2669 2842 
Q 2491 3084 2119 3084 
Q 1678 3084 1418 2786 
Q 1159 2488 1159 1978 
L 1159 0 
L 581 0 
L 581 3500 
L 1159 3500 
L 1159 2956 
Q 1356 3278 1631 3431 
Q 1906 3584 2284 3584 
Q 2666 3584 2933 3390 
Q 3200 3197 3328 2828 
z
" transform="scale(0.015625)"/>
       <path id="DejaVuSans-5d" d="M 1947 4863 
L 1947 -844 
L 622 -844 
L 622 -397 
L 1369 -397 
L 1369 4416 
L 622 4416 
L 622 4863 
L 1947 4863 
z
" transform="scale(0.015625)"/>
      </defs>
      <use xlink:href="#DejaVuSans-Oblique-79" transform="translate(0 0.015625)"/>
      <use xlink:href="#DejaVuSans-5b" transform="translate(75.415364 0.015625)"/>
      <use xlink:href="#DejaVuSans-6d" transform="translate(114.429036 0.015625)"/>
      <use xlink:href="#DejaVuSans-6d" transform="translate(211.841145 0.015625)"/>
      <use xlink:href="#DejaVuSans-5d" transform="translate(309.253254 0.015625)"/>
     </g>
    </g>
   </g>
   <g id="matplotlib.axis_2">
    <g id="ytick_1">
     <g id="line2d_15">
      <path d="M 63 376.345164 
L 453.6 376.345164 
" clip-path="url(#pcee164b766)" style="fill: none; stroke: #b0b0b0; stroke-width: 0.8; stroke-linecap: square"/>
     </g>
     <g id="line2d_16">
      <defs>
       <path id="ma39525a700" d="M 0 0 
L -3.5 0 
" style="stroke: #000000; stroke-width: 0.8"/>
      </defs>
      <g>
       <use xlink:href="#ma39525a700" x="63" y="376.345164" style="stroke: #000000; stroke-width: 0.8"/>
      </g>
     </g>
     <g id="text_9">
      <!-- −16 -->
      <g transform="translate(26.453437 381.66407)scale(0.14 -0.14)">
       <defs>
        <path id="DejaVuSans-2212" d="M 678 2272 
L 4684 2272 
L 4684 1741 
L 678 1741 
L 678 2272 
z
" transform="scale(0.015625)"/>
       </defs>
       <use xlink:href="#DejaVuSans-2212"/>
       <use xlink:href="#DejaVuSans-31" x="83.789062"/>
       <use xlink:href="#DejaVuSans-36" x="147.412109"/>
      </g>
     </g>
    </g>
    <g id="ytick_2">
     <g id="line2d_17">
      <path d="M 63 337.796279 
L 453.6 337.796279 
" clip-path="url(#pcee164b766)" style="fill: none; stroke: #b0b0b0; stroke-width: 0.8; stroke-linecap: square"/>
     </g>
     <g id="line2d_18">
      <g>
       <use xlink:href="#ma39525a700" x="63" y="337.796279" style="stroke: #000000; stroke-width: 0.8"/>
      </g>
     </g>
     <g id="text_10">
      <!-- −14 -->
      <g transform="translate(26.453437 343.115185)scale(0.14 -0.14)">
       <use xlink:href="#DejaVuSans-2212"/>
       <use xlink:href="#DejaVuSans-31" x="83.789062"/>
       <use xlink:href="#DejaVuSans-34" x="147.412109"/>
      </g>
     </g>
    </g>
    <g id="ytick_3">
     <g id="line2d_19">
      <path d="M 63 299.247394 
L 453.6 299.247394 
" clip-path="url(#pcee164b766)" style="fill: none; stroke: #b0b0b0; stroke-width: 0.8; stroke-linecap: square"/>
     </g>
     <g id="line2d_20">
      <g>
       <use xlink:href="#ma39525a700" x="63" y="299.247394" style="stroke: #000000; stroke-width: 0.8"/>
      </g>
     </g>
     <g id="text_11">
      <!-- −12 -->
      <g transform="translate(26.453437 304.566301)scale(0.14 -0.14)">
       <use xlink:href="#DejaVuSans-2212"/>
       <use xlink:href="#DejaVuSans-31" x="83.789062"/>
       <use xlink:href="#DejaVuSans-32" x="147.412109"/>
      </g>
     </g>
    </g>
    <g id="ytick_4">
     <g id="line2d_21">
      <path d="M 63 260.69851 
L 453.6 260.69851 
" clip-path="url(#pcee164b766)" style="fill: none; stroke: #b0b0b0; stroke-width: 0.8; stroke-linecap: square"/>
     </g>
     <g id="line2d_22">
      <g>
       <use xlink:href="#ma39525a700" x="63" y="260.69851" style="stroke: #000000; stroke-width: 0.8"/>
      </g>
     </g>
     <g id="text_12">
      <!-- −10 -->
      <g transform="translate(26.453437 266.017416)scale(0.14 -0.14)">
       <use xlink:href="#DejaVuSans-2212"/>
       <use xlink:href="#DejaVuSans-31" x="83.789062"/>
       <use xlink:href="#DejaVuSans-30" x="147.412109"/>
      </g>
     </g>
    </g>
    <g id="ytick_5">
     <g id="line2d_23">
      <path d="M 63 222.149625 
L 453.6 222.149625 
" clip-path="url(#pcee164b766)" style="fill: none; stroke: #b0b0b0; stroke-width: 0.8; stroke-linecap: square"/>
     </g>
     <g id="line2d_24">
      <g>
       <use xlink:href="#ma39525a700" x="63" y="222.149625" style="stroke: #000000; stroke-width: 0.8"/>
      </g>
     </g>
     <g id="text_13">
      <!-- −8 -->
      <g transform="translate(35.360937 227.468531)scale(0.14 -0.14)">
       <defs>
        <path id="DejaVuSans-38" d="M 2034 2216 
Q 1584 2216 1326 1975 
Q 1069 1734 1069 1313 
Q 1069 891 1326 650 
Q 1584 409 2034 409 
Q 2484 409 2743 651 
Q 3003 894 3003 1313 
Q 3003 1734 2745 1975 
Q 2488 2216 2034 2216 
z
M 1403 2484 
Q 997 2584 770 2862 
Q 544 3141 544 3541 
Q 544 4100 942 4425 
Q 1341 4750 2034 4750 
Q 2731 4750 3128 4425 
Q 3525 4100 3525 3541 
Q 3525 3141 3298 2862 
Q 3072 2584 2669 2484 
Q 3125 2378 3379 2068 
Q 3634 1759 3634 1313 
Q 3634 634 3220 271 
Q 2806 -91 2034 -91 
Q 1263 -91 848 271 
Q 434 634 434 1313 
Q 434 1759 690 2068 
Q 947 2378 1403 2484 
z
M 1172 3481 
Q 1172 3119 1398 2916 
Q 1625 2713 2034 2713 
Q 2441 2713 2670 2916 
Q 2900 3119 2900 3481 
Q 2900 3844 2670 4047 
Q 2441 4250 2034 4250 
Q 1625 4250 1398 4047 
Q 1172 3844 1172 3481 
z
" transform="scale(0.015625)"/>
       </defs>
       <use xlink:href="#DejaVuSans-2212"/>
       <use xlink:href="#DejaVuSans-38" x="83.789062"/>
      </g>
     </g>
    </g>
    <g id="ytick_6">
     <g id="line2d_25">
      <path d="M 63 183.600741 
L 453.6 183.600741 
" clip-path="url(#pcee164b766)" style="fill: none; stroke: #b0b0b0; stroke-width: 0.8; stroke-linecap: square"/>
     </g>
     <g id="line2d_26">
      <g>
       <use xlink:href="#ma39525a700" x="63" y="183.600741" style="stroke: #000000; stroke-width: 0.8"/>
      </g>
     </g>
     <g id="text_14">
      <!-- −6 -->
      <g transform="translate(35.360937 188.919647)scale(0.14 -0.14)">
       <use xlink:href="#DejaVuSans-2212"/>
       <use xlink:href="#DejaVuSans-36" x="83.789062"/>
      </g>
     </g>
    </g>
    <g id="ytick_7">
     <g id="line2d_27">
      <path d="M 63 145.051856 
L 453.6 145.051856 
" clip-path="url(#pcee164b766)" style="fill: none; stroke: #b0b0b0; stroke-width: 0.8; stroke-linecap: square"/>
     </g>
     <g id="line2d_28">
      <g>
       <use xlink:href="#ma39525a700" x="63" y="145.051856" style="stroke: #000000; stroke-width: 0.8"/>
      </g>
     </g>
     <g id="text_15">
      <!-- −4 -->
      <g transform="translate(35.360937 150.370762)scale(0.14 -0.14)">
       <use xlink:href="#DejaVuSans-2212"/>
       <use xlink:href="#DejaVuSans-34" x="83.789062"/>
      </g>
     </g>
    </g>
    <g id="ytick_8">
     <g id="line2d_29">
      <path d="M 63 106.502971 
L 453.6 106.502971 
" clip-path="url(#pcee164b766)" style="fill: none; stroke: #b0b0b0; stroke-width: 0.8; stroke-linecap: square"/>
     </g>
     <g id="line2d_30">
      <g>
       <use xlink:href="#ma39525a700" x="63" y="106.502971" style="stroke: #000000; stroke-width: 0.8"/>
      </g>
     </g>
     <g id="text_16">
      <!-- −2 -->
      <g transform="translate(35.360937 111.821878)scale(0.14 -0.14)">
       <use xlink:href="#DejaVuSans-2212"/>
       <use xlink:href="#DejaVuSans-32" x="83.789062"/>
      </g>
     </g>
    </g>
    <g id="ytick_9">
     <g id="line2d_31">
      <path d="M 63 67.954087 
L 453.6 67.954087 
" clip-path="url(#pcee164b766)" style="fill: none; stroke: #b0b0b0; stroke-width: 0.8; stroke-linecap: square"/>
     </g>
     <g id="line2d_32">
      <g>
       <use xlink:href="#ma39525a700" x="63" y="67.954087" style="stroke: #000000; stroke-width: 0.8"/>
      </g>
     </g>
     <g id="text_17">
      <!-- 0 -->
      <g transform="translate(47.0925 73.272993)scale(0.14 -0.14)">
       <use xlink:href="#DejaVuSans-30"/>
      </g>
     </g>
    </g>
    <g id="text_18">
     <!-- $\mathrm{energy \, change \, [MeV]}$ -->
     <g transform="translate(19.093437 298.52)rotate(-90)scale(0.16 -0.16)">
      <defs>
       <path id="DejaVuSans-65" d="M 3597 1894 
L 3597 1613 
L 953 1613 
Q 991 1019 1311 708 
Q 1631 397 2203 397 
Q 2534 397 2845 478 
Q 3156 559 3463 722 
L 3463 178 
Q 3153 47 2828 -22 
Q 2503 -91 2169 -91 
Q 1331 -91 842 396 
Q 353 884 353 1716 
Q 353 2575 817 3079 
Q 1281 3584 2069 3584 
Q 2775 3584 3186 3129 
Q 3597 2675 3597 1894 
z
M 3022 2063 
Q 3016 2534 2758 2815 
Q 2500 3097 2075 3097 
Q 1594 3097 1305 2825 
Q 1016 2553 972 2059 
L 3022 2063 
z
" transform="scale(0.015625)"/>
       <path id="DejaVuSans-6e" d="M 3513 2113 
L 3513 0 
L 2938 0 
L 2938 2094 
Q 2938 2591 2744 2837 
Q 2550 3084 2163 3084 
Q 1697 3084 1428 2787 
Q 1159 2491 1159 1978 
L 1159 0 
L 581 0 
L 581 3500 
L 1159 3500 
L 1159 2956 
Q 1366 3272 1645 3428 
Q 1925 3584 2291 3584 
Q 2894 3584 3203 3211 
Q 3513 2838 3513 2113 
z
" transform="scale(0.015625)"/>
       <path id="DejaVuSans-72" d="M 2631 2963 
Q 2534 3019 2420 3045 
Q 2306 3072 2169 3072 
Q 1681 3072 1420 2755 
Q 1159 2438 1159 1844 
L 1159 0 
L 581 0 
L 581 3500 
L 1159 3500 
L 1159 2956 
Q 1341 3275 1631 3429 
Q 1922 3584 2338 3584 
Q 2397 3584 2469 3576 
Q 2541 3569 2628 3553 
L 2631 2963 
z
" transform="scale(0.015625)"/>
       <path id="DejaVuSans-67" d="M 2906 1791 
Q 2906 2416 2648 2759 
Q 2391 3103 1925 3103 
Q 1463 3103 1205 2759 
Q 947 2416 947 1791 
Q 947 1169 1205 825 
Q 1463 481 1925 481 
Q 2391 481 2648 825 
Q 2906 1169 2906 1791 
z
M 3481 434 
Q 3481 -459 3084 -895 
Q 2688 -1331 1869 -1331 
Q 1566 -1331 1297 -1286 
Q 1028 -1241 775 -1147 
L 775 -588 
Q 1028 -725 1275 -790 
Q 1522 -856 1778 -856 
Q 2344 -856 2625 -561 
Q 2906 -266 2906 331 
L 2906 616 
Q 2728 306 2450 153 
Q 2172 0 1784 0 
Q 1141 0 747 490 
Q 353 981 353 1791 
Q 353 2603 747 3093 
Q 1141 3584 1784 3584 
Q 2172 3584 2450 3431 
Q 2728 3278 2906 2969 
L 2906 3500 
L 3481 3500 
L 3481 434 
z
" transform="scale(0.015625)"/>
       <path id="DejaVuSans-79" d="M 2059 -325 
Q 1816 -950 1584 -1140 
Q 1353 -1331 966 -1331 
L 506 -1331 
L 506 -850 
L 844 -850 
Q 1081 -850 1212 -737 
Q 1344 -625 1503 -206 
L 1606 56 
L 191 3500 
L 800 3500 
L 1894 763 
L 2988 3500 
L 3597 3500 
L 2059 -325 
z
" transform="scale(0.015625)"/>
       <path id="DejaVuSans-63" d="M 3122 3366 
L 3122 2828 
Q 2878 2963 2633 3030 
Q 2388 3097 2138 3097 
Q 1578 3097 1268 2742 
Q 959 2388 959 1747 
Q 959 1106 1268 751 
Q 1578 397 2138 397 
Q 2388 397 2633 464 
Q 2878 531 3122 666 
L 3122 134 
Q 2881 22 2623 -34 
Q 2366 -91 2075 -91 
Q 1284 -91 818 406 
Q 353 903 353 1747 
Q 353 2603 823 3093 
Q 1294 3584 2113 3584 
Q 2378 3584 2631 3529 
Q 2884 3475 3122 3366 
z
" transform="scale(0.015625)"/>
       <path id="DejaVuSans-68" d="M 3513 2113 
L 3513 0 
L 2938 0 
L 2938 2094 
Q 2938 2591 2744 2837 
Q 2550 3084 2163 3084 
Q 1697 3084 1428 2787 
Q 1159 2491 1159 1978 
L 1159 0 
L 581 0 
L 581 4863 
L 1159 4863 
L 1159 2956 
Q 1366 3272 1645 3428 
Q 1925 3584 2291 3584 
Q 2894 3584 3203 3211 
Q 3513 2838 3513 2113 
z
" transform="scale(0.015625)"/>
       <path id="DejaVuSans-61" d="M 2194 1759 
Q 1497 1759 1228 1600 
Q 959 1441 959 1056 
Q 959 750 1161 570 
Q 1363 391 1709 391 
Q 2188 391 2477 730 
Q 2766 1069 2766 1631 
L 2766 1759 
L 2194 1759 
z
M 3341 1997 
L 3341 0 
L 2766 0 
L 2766 531 
Q 2569 213 2275 61 
Q 1981 -91 1556 -91 
Q 1019 -91 701 211 
Q 384 513 384 1019 
Q 384 1609 779 1909 
Q 1175 2209 1959 2209 
L 2766 2209 
L 2766 2266 
Q 2766 2663 2505 2880 
Q 2244 3097 1772 3097 
Q 1472 3097 1187 3025 
Q 903 2953 641 2809 
L 641 3341 
Q 956 3463 1253 3523 
Q 1550 3584 1831 3584 
Q 2591 3584 2966 3190 
Q 3341 2797 3341 1997 
z
" transform="scale(0.015625)"/>
       <path id="DejaVuSans-4d" d="M 628 4666 
L 1569 4666 
L 2759 1491 
L 3956 4666 
L 4897 4666 
L 4897 0 
L 4281 0 
L 4281 4097 
L 3078 897 
L 2444 897 
L 1241 4097 
L 1241 0 
L 628 0 
L 628 4666 
z
" transform="scale(0.015625)"/>
       <path id="DejaVuSans-56" d="M 1831 0 
L 50 4666 
L 709 4666 
L 2188 738 
L 3669 4666 
L 4325 4666 
L 2547 0 
L 1831 0 
z
" transform="scale(0.015625)"/>
      </defs>
      <use xlink:href="#DejaVuSans-65" transform="translate(0 0.015625)"/>
      <use xlink:href="#DejaVuSans-6e" transform="translate(61.523438 0.015625)"/>
      <use xlink:href="#DejaVuSans-65" transform="translate(124.902344 0.015625)"/>
      <use xlink:href="#DejaVuSans-72" transform="translate(186.425781 0.015625)"/>
      <use xlink:href="#DejaVuSans-67" transform="translate(227.539062 0.015625)"/>
      <use xlink:href="#DejaVuSans-79" transform="translate(291.015625 0.015625)"/>
      <use xlink:href="#DejaVuSans-63" transform="translate(366.430989 0.015625)"/>
      <use xlink:href="#DejaVuSans-68" transform="translate(421.411458 0.015625)"/>
      <use xlink:href="#DejaVuSans-61" transform="translate(484.790364 0.015625)"/>
      <use xlink:href="#DejaVuSans-6e" transform="translate(546.069661 0.015625)"/>
      <use xlink:href="#DejaVuSans-67" transform="translate(609.448567 0.015625)"/>
      <use xlink:href="#DejaVuSans-65" transform="translate(672.925129 0.015625)"/>
      <use xlink:href="#DejaVuSans-5b" transform="translate(750.684243 0.015625)"/>
      <use xlink:href="#DejaVuSans-4d" transform="translate(789.697915 0.015625)"/>
      <use xlink:href="#DejaVuSans-65" transform="translate(875.977212 0.015625)"/>
      <use xlink:href="#DejaVuSans-56" transform="translate(937.500649 0.015625)"/>
      <use xlink:href="#DejaVuSans-5d" transform="translate(1005.908853 0.015625)"/>
     </g>
    </g>
   </g>
   <g id="line2d_33">
    <path d="M 80.754545 80.379263 
L 85.249367 83.233119 
L 89.744189 95.828101 
L 94.23901 87.228529 
L 98.733832 138.060941 
L 103.228654 150.975255 
L 107.723475 156.003359 
L 112.218297 156.844609 
L 116.713119 169.417051 
L 121.20794 180.048852 
L 125.702762 185.148491 
L 130.197583 187.980404 
L 134.692405 188.839742 
L 139.187227 187.893962 
L 143.682048 186.943142 
L 148.17687 186.114715 
L 152.671692 185.13485 
L 157.166513 184.010696 
L 161.661335 183.397619 
L 166.156157 184.217622 
L 170.650978 184.246593 
L 175.1458 183.398621 
L 179.640621 182.105123 
L 184.135443 182.328149 
L 188.630265 181.952449 
L 193.125086 182.212552 
L 197.619908 181.225281 
L 202.11473 180.463245 
L 206.609551 179.679262 
L 211.104373 179.764305 
L 215.599194 179.921634 
L 220.094016 180.384985 
L 224.588838 179.898789 
L 229.083659 179.596681 
L 233.578481 179.783488 
L 238.073303 179.569847 
L 242.568124 179.445384 
L 247.062946 179.789488 
L 251.557768 179.986424 
L 256.052589 180.111342 
L 260.547411 179.545238 
L 265.042232 179.105916 
L 269.537054 178.689095 
L 274.031876 178.564186 
L 278.526697 178.056432 
L 283.021519 178.122756 
L 287.516341 177.338289 
L 292.011162 176.119453 
L 296.505984 175.250716 
L 301.000806 174.68558 
L 305.495627 174.916743 
L 309.990449 174.274065 
L 314.48527 173.933551 
L 318.980092 173.665768 
L 323.474914 173.443979 
L 327.969735 173.627083 
L 332.464557 174.065675 
L 336.959379 174.493002 
L 341.4542 174.533111 
L 345.949022 174.313557 
L 350.443843 174.815058 
L 354.938665 176.19271 
L 359.433487 177.31335 
L 363.928308 177.431278 
L 368.42313 176.783682 
L 372.917952 176.333215 
L 377.412773 176.034728 
L 381.907595 176.442574 
L 386.402417 177.297695 
L 390.897238 177.40352 
L 395.39206 177.394329 
L 399.886881 177.772094 
L 404.381703 178.768233 
L 408.876525 179.683301 
L 413.371346 179.857851 
L 417.866168 180.353253 
L 422.36099 181.149244 
L 426.855811 182.068879 
L 431.350633 183.15884 
L 435.845455 183.947354 
" clip-path="url(#pcee164b766)" style="fill: none; stroke: #1f77b4; stroke-width: 1.5; stroke-linecap: square"/>
    <defs>
     <path id="mabbed98f19" d="M 0 1.5 
C 0.397805 1.5 0.77937 1.341951 1.06066 1.06066 
C 1.341951 0.77937 1.5 0.397805 1.5 0 
C 1.5 -0.397805 1.341951 -0.77937 1.06066 -1.06066 
C 0.77937 -1.341951 0.397805 -1.5 0 -1.5 
C -0.397805 -1.5 -0.77937 -1.341951 -1.06066 -1.06066 
C -1.341951 -0.77937 -1.5 -0.397805 -1.5 0 
C -1.5 0.397805 -1.341951 0.77937 -1.06066 1.06066 
C -0.77937 1.341951 -0.397805 1.5 0 1.5 
z
" style="stroke: #1f77b4"/>
    </defs>
    <g clip-path="url(#pcee164b766)">
     <use xlink:href="#mabbed98f19" x="80.754545" y="80.379263" style="fill: #1f77b4; stroke: #1f77b4"/>
     <use xlink:href="#mabbed98f19" x="85.249367" y="83.233119" style="fill: #1f77b4; stroke: #1f77b4"/>
     <use xlink:href="#mabbed98f19" x="89.744189" y="95.828101" style="fill: #1f77b4; stroke: #1f77b4"/>
     <use xlink:href="#mabbed98f19" x="94.23901" y="87.228529" style="fill: #1f77b4; stroke: #1f77b4"/>
     <use xlink:href="#mabbed98f19" x="98.733832" y="138.060941" style="fill: #1f77b4; stroke: #1f77b4"/>
     <use xlink:href="#mabbed98f19" x="103.228654" y="150.975255" style="fill: #1f77b4; stroke: #1f77b4"/>
     <use xlink:href="#mabbed98f19" x="107.723475" y="156.003359" style="fill: #1f77b4; stroke: #1f77b4"/>
     <use xlink:href="#mabbed98f19" x="112.218297" y="156.844609" style="fill: #1f77b4; stroke: #1f77b4"/>
     <use xlink:href="#mabbed98f19" x="116.713119" y="169.417051" style="fill: #1f77b4; stroke: #1f77b4"/>
     <use xlink:href="#mabbed98f19" x="121.20794" y="180.048852" style="fill: #1f77b4; stroke: #1f77b4"/>
     <use xlink:href="#mabbed98f19" x="125.702762" y="185.148491" style="fill: #1f77b4; stroke: #1f77b4"/>
     <use xlink:href="#mabbed98f19" x="130.197583" y="187.980404" style="fill: #1f77b4; stroke: #1f77b4"/>
     <use xlink:href="#mabbed98f19" x="134.692405" y="188.839742" style="fill: #1f77b4; stroke: #1f77b4"/>
     <use xlink:href="#mabbed98f19" x="139.187227" y="187.893962" style="fill: #1f77b4; stroke: #1f77b4"/>
     <use xlink:href="#mabbed98f19" x="143.682048" y="186.943142" style="fill: #1f77b4; stroke: #1f77b4"/>
     <use xlink:href="#mabbed98f19" x="148.17687" y="186.114715" style="fill: #1f77b4; stroke: #1f77b4"/>
     <use xlink:href="#mabbed98f19" x="152.671692" y="185.13485" style="fill: #1f77b4; stroke: #1f77b4"/>
     <use xlink:href="#mabbed98f19" x="157.166513" y="184.010696" style="fill: #1f77b4; stroke: #1f77b4"/>
     <use xlink:href="#mabbed98f19" x="161.661335" y="183.397619" style="fill: #1f77b4; stroke: #1f77b4"/>
     <use xlink:href="#mabbed98f19" x="166.156157" y="184.217622" style="fill: #1f77b4; stroke: #1f77b4"/>
     <use xlink:href="#mabbed98f19" x="170.650978" y="184.246593" style="fill: #1f77b4; stroke: #1f77b4"/>
     <use xlink:href="#mabbed98f19" x="175.1458" y="183.398621" style="fill: #1f77b4; stroke: #1f77b4"/>
     <use xlink:href="#mabbed98f19" x="179.640621" y="182.105123" style="fill: #1f77b4; stroke: #1f77b4"/>
     <use xlink:href="#mabbed98f19" x="184.135443" y="182.328149" style="fill: #1f77b4; stroke: #1f77b4"/>
     <use xlink:href="#mabbed98f19" x="188.630265" y="181.952449" style="fill: #1f77b4; stroke: #1f77b4"/>
     <use xlink:href="#mabbed98f19" x="193.125086" y="182.212552" style="fill: #1f77b4; stroke: #1f77b4"/>
     <use xlink:href="#mabbed98f19" x="197.619908" y="181.225281" style="fill: #1f77b4; stroke: #1f77b4"/>
     <use xlink:href="#mabbed98f19" x="202.11473" y="180.463245" style="fill: #1f77b4; stroke: #1f77b4"/>
     <use xlink:href="#mabbed98f19" x="206.609551" y="179.679262" style="fill: #1f77b4; stroke: #1f77b4"/>
     <use xlink:href="#mabbed98f19" x="211.104373" y="179.764305" style="fill: #1f77b4; stroke: #1f77b4"/>
     <use xlink:href="#mabbed98f19" x="215.599194" y="179.921634" style="fill: #1f77b4; stroke: #1f77b4"/>
     <use xlink:href="#mabbed98f19" x="220.094016" y="180.384985" style="fill: #1f77b4; stroke: #1f77b4"/>
     <use xlink:href="#mabbed98f19" x="224.588838" y="179.898789" style="fill: #1f77b4; stroke: #1f77b4"/>
     <use xlink:href="#mabbed98f19" x="229.083659" y="179.596681" style="fill: #1f77b4; stroke: #1f77b4"/>
     <use xlink:href="#mabbed98f19" x="233.578481" y="179.783488" style="fill: #1f77b4; stroke: #1f77b4"/>
     <use xlink:href="#mabbed98f19" x="238.073303" y="179.569847" style="fill: #1f77b4; stroke: #1f77b4"/>
     <use xlink:href="#mabbed98f19" x="242.568124" y="179.445384" style="fill: #1f77b4; stroke: #1f77b4"/>
     <use xlink:href="#mabbed98f19" x="247.062946" y="179.789488" style="fill: #1f77b4; stroke: #1f77b4"/>
     <use xlink:href="#mabbed98f19" x="251.557768" y="179.986424" style="fill: #1f77b4; stroke: #1f77b4"/>
     <use xlink:href="#mabbed98f19" x="256.052589" y="180.111342" style="fill: #1f77b4; stroke: #1f77b4"/>
     <use xlink:href="#mabbed98f19" x="260.547411" y="179.545238" style="fill: #1f77b4; stroke: #1f77b4"/>
     <use xlink:href="#mabbed98f19" x="265.042232" y="179.105916" style="fill: #1f77b4; stroke: #1f77b4"/>
     <use xlink:href="#mabbed98f19" x="269.537054" y="178.689095" style="fill: #1f77b4; stroke: #1f77b4"/>
     <use xlink:href="#mabbed98f19" x="274.031876" y="178.564186" style="fill: #1f77b4; stroke: #1f77b4"/>
     <use xlink:href="#mabbed98f19" x="278.526697" y="178.056432" style="fill: #1f77b4; stroke: #1f77b4"/>
     <use xlink:href="#mabbed98f19" x="283.021519" y="178.122756" style="fill: #1f77b4; stroke: #1f77b4"/>
     <use xlink:href="#mabbed98f19" x="287.516341" y="177.338289" style="fill: #1f77b4; stroke: #1f77b4"/>
     <use xlink:href="#mabbed98f19" x="292.011162" y="176.119453" style="fill: #1f77b4; stroke: #1f77b4"/>
     <use xlink:href="#mabbed98f19" x="296.505984" y="175.250716" style="fill: #1f77b4; stroke: #1f77b4"/>
     <use xlink:href="#mabbed98f19" x="301.000806" y="174.68558" style="fill: #1f77b4; stroke: #1f77b4"/>
     <use xlink:href="#mabbed98f19" x="305.495627" y="174.916743" style="fill: #1f77b4; stroke: #1f77b4"/>
     <use xlink:href="#mabbed98f19" x="309.990449" y="174.274065" style="fill: #1f77b4; stroke: #1f77b4"/>
     <use xlink:href="#mabbed98f19" x="314.48527" y="173.933551" style="fill: #1f77b4; stroke: #1f77b4"/>
     <use xlink:href="#mabbed98f19" x="318.980092" y="173.665768" style="fill: #1f77b4; stroke: #1f77b4"/>
     <use xlink:href="#mabbed98f19" x="323.474914" y="173.443979" style="fill: #1f77b4; stroke: #1f77b4"/>
     <use xlink:href="#mabbed98f19" x="327.969735" y="173.627083" style="fill: #1f77b4; stroke: #1f77b4"/>
     <use xlink:href="#mabbed98f19" x="332.464557" y="174.065675" style="fill: #1f77b4; stroke: #1f77b4"/>
     <use xlink:href="#mabbed98f19" x="336.959379" y="174.493002" style="fill: #1f77b4; stroke: #1f77b4"/>
     <use xlink:href="#mabbed98f19" x="341.4542" y="174.533111" style="fill: #1f77b4; stroke: #1f77b4"/>
     <use xlink:href="#mabbed98f19" x="345.949022" y="174.313557" style="fill: #1f77b4; stroke: #1f77b4"/>
     <use xlink:href="#mabbed98f19" x="350.443843" y="174.815058" style="fill: #1f77b4; stroke: #1f77b4"/>
     <use xlink:href="#mabbed98f19" x="354.938665" y="176.19271" style="fill: #1f77b4; stroke: #1f77b4"/>
     <use xlink:href="#mabbed98f19" x="359.433487" y="177.31335" style="fill: #1f77b4; stroke: #1f77b4"/>
     <use xlink:href="#mabbed98f19" x="363.928308" y="177.431278" style="fill: #1f77b4; stroke: #1f77b4"/>
     <use xlink:href="#mabbed98f19" x="368.42313" y="176.783682" style="fill: #1f77b4; stroke: #1f77b4"/>
     <use xlink:href="#mabbed98f19" x="372.917952" y="176.333215" style="fill: #1f77b4; stroke: #1f77b4"/>
     <use xlink:href="#mabbed98f19" x="377.412773" y="176.034728" style="fill: #1f77b4; stroke: #1f77b4"/>
     <use xlink:href="#mabbed98f19" x="381.907595" y="176.442574" style="fill: #1f77b4; stroke: #1f77b4"/>
     <use xlink:href="#mabbed98f19" x="386.402417" y="177.297695" style="fill: #1f77b4; stroke: #1f77b4"/>
     <use xlink:href="#mabbed98f19" x="390.897238" y="177.40352" style="fill: #1f77b4; stroke: #1f77b4"/>
     <use xlink:href="#mabbed98f19" x="395.39206" y="177.394329" style="fill: #1f77b4; stroke: #1f77b4"/>
     <use xlink:href="#mabbed98f19" x="399.886881" y="177.772094" style="fill: #1f77b4; stroke: #1f77b4"/>
     <use xlink:href="#mabbed98f19" x="404.381703" y="178.768233" style="fill: #1f77b4; stroke: #1f77b4"/>
     <use xlink:href="#mabbed98f19" x="408.876525" y="179.683301" style="fill: #1f77b4; stroke: #1f77b4"/>
     <use xlink:href="#mabbed98f19" x="413.371346" y="179.857851" style="fill: #1f77b4; stroke: #1f77b4"/>
     <use xlink:href="#mabbed98f19" x="417.866168" y="180.353253" style="fill: #1f77b4; stroke: #1f77b4"/>
     <use xlink:href="#mabbed98f19" x="422.36099" y="181.149244" style="fill: #1f77b4; stroke: #1f77b4"/>
     <use xlink:href="#mabbed98f19" x="426.855811" y="182.068879" style="fill: #1f77b4; stroke: #1f77b4"/>
     <use xlink:href="#mabbed98f19" x="431.350633" y="183.15884" style="fill: #1f77b4; stroke: #1f77b4"/>
     <use xlink:href="#mabbed98f19" x="435.845455" y="183.947354" style="fill: #1f77b4; stroke: #1f77b4"/>
    </g>
   </g>
   <g id="line2d_34">
    <path d="M 80.754545 78.76925 
L 85.249367 81.585549 
L 89.744189 67.165113 
L 94.23901 67.559834 
L 98.733832 93.947072 
L 103.228654 101.035933 
L 107.723475 130.266013 
L 112.218297 149.43119 
L 116.713119 167.237967 
L 121.20794 178.343358 
L 125.702762 184.094968 
L 130.197583 186.586204 
L 134.692405 188.994225 
L 139.187227 190.096173 
L 143.682048 190.656105 
L 148.17687 189.917998 
L 152.671692 188.823495 
L 157.166513 188.653 
L 161.661335 187.898574 
L 166.156157 187.510912 
L 170.650978 187.979867 
L 175.1458 187.790841 
L 179.640621 188.100973 
L 184.135443 188.677597 
L 188.630265 188.712514 
L 193.125086 188.439994 
L 197.619908 188.2744 
L 202.11473 187.777317 
L 206.609551 187.178733 
L 211.104373 187.045371 
L 215.599194 187.37723 
L 220.094016 187.886834 
L 224.588838 188.465025 
L 229.083659 189.091031 
L 233.578481 189.68376 
L 238.073303 190.463454 
L 242.568124 191.022849 
L 247.062946 191.89569 
L 251.557768 193.064959 
L 256.052589 194.293454 
L 260.547411 195.48956 
L 265.042232 196.630286 
L 269.537054 197.361106 
L 274.031876 198.039182 
L 278.526697 198.439941 
L 283.021519 199.133151 
L 287.516341 199.838555 
L 292.011162 200.428433 
L 296.505984 200.964012 
L 301.000806 201.773169 
L 305.495627 202.948569 
L 309.990449 203.839215 
L 314.48527 204.635708 
L 318.980092 205.636818 
L 323.474914 206.427204 
L 327.969735 207.2391 
L 332.464557 208.340625 
L 336.959379 209.664438 
L 341.4542 211.108114 
L 345.949022 212.439942 
L 350.443843 213.429437 
L 354.938665 214.417158 
L 359.433487 215.650664 
L 363.928308 216.64131 
L 368.42313 217.586079 
L 372.917952 218.660451 
L 377.412773 219.731458 
L 381.907595 220.74213 
L 386.402417 221.305534 
L 390.897238 222.548602 
L 395.39206 223.578492 
L 399.886881 224.783295 
L 404.381703 225.767897 
L 408.876525 226.757073 
L 413.371346 228.645275 
L 417.866168 229.709377 
L 422.36099 230.622894 
L 426.855811 231.622434 
L 431.350633 232.714933 
L 435.845455 234.117401 
" clip-path="url(#pcee164b766)" style="fill: none; stroke: #ff7f0e; stroke-width: 1.5; stroke-linecap: square"/>
    <defs>
     <path id="m4ce4fb4de7" d="M 0 1.5 
C 0.397805 1.5 0.77937 1.341951 1.06066 1.06066 
C 1.341951 0.77937 1.5 0.397805 1.5 0 
C 1.5 -0.397805 1.341951 -0.77937 1.06066 -1.06066 
C 0.77937 -1.341951 0.397805 -1.5 0 -1.5 
C -0.397805 -1.5 -0.77937 -1.341951 -1.06066 -1.06066 
C -1.341951 -0.77937 -1.5 -0.397805 -1.5 0 
C -1.5 0.397805 -1.341951 0.77937 -1.06066 1.06066 
C -0.77937 1.341951 -0.397805 1.5 0 1.5 
z
" style="stroke: #ff7f0e"/>
    </defs>
    <g clip-path="url(#pcee164b766)">
     <use xlink:href="#m4ce4fb4de7" x="80.754545" y="78.76925" style="fill: #ff7f0e; stroke: #ff7f0e"/>
     <use xlink:href="#m4ce4fb4de7" x="85.249367" y="81.585549" style="fill: #ff7f0e; stroke: #ff7f0e"/>
     <use xlink:href="#m4ce4fb4de7" x="89.744189" y="67.165113" style="fill: #ff7f0e; stroke: #ff7f0e"/>
     <use xlink:href="#m4ce4fb4de7" x="94.23901" y="67.559834" style="fill: #ff7f0e; stroke: #ff7f0e"/>
     <use xlink:href="#m4ce4fb4de7" x="98.733832" y="93.947072" style="fill: #ff7f0e; stroke: #ff7f0e"/>
     <use xlink:href="#m4ce4fb4de7" x="103.228654" y="101.035933" style="fill: #ff7f0e; stroke: #ff7f0e"/>
     <use xlink:href="#m4ce4fb4de7" x="107.723475" y="130.266013" style="fill: #ff7f0e; stroke: #ff7f0e"/>
     <use xlink:href="#m4ce4fb4de7" x="112.218297" y="149.43119" style="fill: #ff7f0e; stroke: #ff7f0e"/>
     <use xlink:href="#m4ce4fb4de7" x="116.713119" y="167.237967" style="fill: #ff7f0e; stroke: #ff7f0e"/>
     <use xlink:href="#m4ce4fb4de7" x="121.20794" y="178.343358" style="fill: #ff7f0e; stroke: #ff7f0e"/>
     <use xlink:href="#m4ce4fb4de7" x="125.702762" y="184.094968" style="fill: #ff7f0e; stroke: #ff7f0e"/>
     <use xlink:href="#m4ce4fb4de7" x="130.197583" y="186.586204" style="fill: #ff7f0e; stroke: #ff7f0e"/>
     <use xlink:href="#m4ce4fb4de7" x="134.692405" y="188.994225" style="fill: #ff7f0e; stroke: #ff7f0e"/>
     <use xlink:href="#m4ce4fb4de7" x="139.187227" y="190.096173" style="fill: #ff7f0e; stroke: #ff7f0e"/>
     <use xlink:href="#m4ce4fb4de7" x="143.682048" y="190.656105" style="fill: #ff7f0e; stroke: #ff7f0e"/>
     <use xlink:href="#m4ce4fb4de7" x="148.17687" y="189.917998" style="fill: #ff7f0e; stroke: #ff7f0e"/>
     <use xlink:href="#m4ce4fb4de7" x="152.671692" y="188.823495" style="fill: #ff7f0e; stroke: #ff7f0e"/>
     <use xlink:href="#m4ce4fb4de7" x="157.166513" y="188.653" style="fill: #ff7f0e; stroke: #ff7f0e"/>
     <use xlink:href="#m4ce4fb4de7" x="161.661335" y="187.898574" style="fill: #ff7f0e; stroke: #ff7f0e"/>
     <use xlink:href="#m4ce4fb4de7" x="166.156157" y="187.510912" style="fill: #ff7f0e; stroke: #ff7f0e"/>
     <use xlink:href="#m4ce4fb4de7" x="170.650978" y="187.979867" style="fill: #ff7f0e; stroke: #ff7f0e"/>
     <use xlink:href="#m4ce4fb4de7" x="175.1458" y="187.790841" style="fill: #ff7f0e; stroke: #ff7f0e"/>
     <use xlink:href="#m4ce4fb4de7" x="179.640621" y="188.100973" style="fill: #ff7f0e; stroke: #ff7f0e"/>
     <use xlink:href="#m4ce4fb4de7" x="184.135443" y="188.677597" style="fill: #ff7f0e; stroke: #ff7f0e"/>
     <use xlink:href="#m4ce4fb4de7" x="188.630265" y="188.712514" style="fill: #ff7f0e; stroke: #ff7f0e"/>
     <use xlink:href="#m4ce4fb4de7" x="193.125086" y="188.439994" style="fill: #ff7f0e; stroke: #ff7f0e"/>
     <use xlink:href="#m4ce4fb4de7" x="197.619908" y="188.2744" style="fill: #ff7f0e; stroke: #ff7f0e"/>
     <use xlink:href="#m4ce4fb4de7" x="202.11473" y="187.777317" style="fill: #ff7f0e; stroke: #ff7f0e"/>
     <use xlink:href="#m4ce4fb4de7" x="206.609551" y="187.178733" style="fill: #ff7f0e; stroke: #ff7f0e"/>
     <use xlink:href="#m4ce4fb4de7" x="211.104373" y="187.045371" style="fill: #ff7f0e; stroke: #ff7f0e"/>
     <use xlink:href="#m4ce4fb4de7" x="215.599194" y="187.37723" style="fill: #ff7f0e; stroke: #ff7f0e"/>
     <use xlink:href="#m4ce4fb4de7" x="220.094016" y="187.886834" style="fill: #ff7f0e; stroke: #ff7f0e"/>
     <use xlink:href="#m4ce4fb4de7" x="224.588838" y="188.465025" style="fill: #ff7f0e; stroke: #ff7f0e"/>
     <use xlink:href="#m4ce4fb4de7" x="229.083659" y="189.091031" style="fill: #ff7f0e; stroke: #ff7f0e"/>
     <use xlink:href="#m4ce4fb4de7" x="233.578481" y="189.68376" style="fill: #ff7f0e; stroke: #ff7f0e"/>
     <use xlink:href="#m4ce4fb4de7" x="238.073303" y="190.463454" style="fill: #ff7f0e; stroke: #ff7f0e"/>
     <use xlink:href="#m4ce4fb4de7" x="242.568124" y="191.022849" style="fill: #ff7f0e; stroke: #ff7f0e"/>
     <use xlink:href="#m4ce4fb4de7" x="247.062946" y="191.89569" style="fill: #ff7f0e; stroke: #ff7f0e"/>
     <use xlink:href="#m4ce4fb4de7" x="251.557768" y="193.064959" style="fill: #ff7f0e; stroke: #ff7f0e"/>
     <use xlink:href="#m4ce4fb4de7" x="256.052589" y="194.293454" style="fill: #ff7f0e; stroke: #ff7f0e"/>
     <use xlink:href="#m4ce4fb4de7" x="260.547411" y="195.48956" style="fill: #ff7f0e; stroke: #ff7f0e"/>
     <use xlink:href="#m4ce4fb4de7" x="265.042232" y="196.630286" style="fill: #ff7f0e; stroke: #ff7f0e"/>
     <use xlink:href="#m4ce4fb4de7" x="269.537054" y="197.361106" style="fill: #ff7f0e; stroke: #ff7f0e"/>
     <use xlink:href="#m4ce4fb4de7" x="274.031876" y="198.039182" style="fill: #ff7f0e; stroke: #ff7f0e"/>
     <use xlink:href="#m4ce4fb4de7" x="278.526697" y="198.439941" style="fill: #ff7f0e; stroke: #ff7f0e"/>
     <use xlink:href="#m4ce4fb4de7" x="283.021519" y="199.133151" style="fill: #ff7f0e; stroke: #ff7f0e"/>
     <use xlink:href="#m4ce4fb4de7" x="287.516341" y="199.838555" style="fill: #ff7f0e; stroke: #ff7f0e"/>
     <use xlink:href="#m4ce4fb4de7" x="292.011162" y="200.428433" style="fill: #ff7f0e; stroke: #ff7f0e"/>
     <use xlink:href="#m4ce4fb4de7" x="296.505984" y="200.964012" style="fill: #ff7f0e; stroke: #ff7f0e"/>
     <use xlink:href="#m4ce4fb4de7" x="301.000806" y="201.773169" style="fill: #ff7f0e; stroke: #ff7f0e"/>
     <use xlink:href="#m4ce4fb4de7" x="305.495627" y="202.948569" style="fill: #ff7f0e; stroke: #ff7f0e"/>
     <use xlink:href="#m4ce4fb4de7" x="309.990449" y="203.839215" style="fill: #ff7f0e; stroke: #ff7f0e"/>
     <use xlink:href="#m4ce4fb4de7" x="314.48527" y="204.635708" style="fill: #ff7f0e; stroke: #ff7f0e"/>
     <use xlink:href="#m4ce4fb4de7" x="318.980092" y="205.636818" style="fill: #ff7f0e; stroke: #ff7f0e"/>
     <use xlink:href="#m4ce4fb4de7" x="323.474914" y="206.427204" style="fill: #ff7f0e; stroke: #ff7f0e"/>
     <use xlink:href="#m4ce4fb4de7" x="327.969735" y="207.2391" style="fill: #ff7f0e; stroke: #ff7f0e"/>
     <use xlink:href="#m4ce4fb4de7" x="332.464557" y="208.340625" style="fill: #ff7f0e; stroke: #ff7f0e"/>
     <use xlink:href="#m4ce4fb4de7" x="336.959379" y="209.664438" style="fill: #ff7f0e; stroke: #ff7f0e"/>
     <use xlink:href="#m4ce4fb4de7" x="341.4542" y="211.108114" style="fill: #ff7f0e; stroke: #ff7f0e"/>
     <use xlink:href="#m4ce4fb4de7" x="345.949022" y="212.439942" style="fill: #ff7f0e; stroke: #ff7f0e"/>
     <use xlink:href="#m4ce4fb4de7" x="350.443843" y="213.429437" style="fill: #ff7f0e; stroke: #ff7f0e"/>
     <use xlink:href="#m4ce4fb4de7" x="354.938665" y="214.417158" style="fill: #ff7f0e; stroke: #ff7f0e"/>
     <use xlink:href="#m4ce4fb4de7" x="359.433487" y="215.650664" style="fill: #ff7f0e; stroke: #ff7f0e"/>
     <use xlink:href="#m4ce4fb4de7" x="363.928308" y="216.64131" style="fill: #ff7f0e; stroke: #ff7f0e"/>
     <use xlink:href="#m4ce4fb4de7" x="368.42313" y="217.586079" style="fill: #ff7f0e; stroke: #ff7f0e"/>
     <use xlink:href="#m4ce4fb4de7" x="372.917952" y="218.660451" style="fill: #ff7f0e; stroke: #ff7f0e"/>
     <use xlink:href="#m4ce4fb4de7" x="377.412773" y="219.731458" style="fill: #ff7f0e; stroke: #ff7f0e"/>
     <use xlink:href="#m4ce4fb4de7" x="381.907595" y="220.74213" style="fill: #ff7f0e; stroke: #ff7f0e"/>
     <use xlink:href="#m4ce4fb4de7" x="386.402417" y="221.305534" style="fill: #ff7f0e; stroke: #ff7f0e"/>
     <use xlink:href="#m4ce4fb4de7" x="390.897238" y="222.548602" style="fill: #ff7f0e; stroke: #ff7f0e"/>
     <use xlink:href="#m4ce4fb4de7" x="395.39206" y="223.578492" style="fill: #ff7f0e; stroke: #ff7f0e"/>
     <use xlink:href="#m4ce4fb4de7" x="399.886881" y="224.783295" style="fill: #ff7f0e; stroke: #ff7f0e"/>
     <use xlink:href="#m4ce4fb4de7" x="404.381703" y="225.767897" style="fill: #ff7f0e; stroke: #ff7f0e"/>
     <use xlink:href="#m4ce4fb4de7" x="408.876525" y="226.757073" style="fill: #ff7f0e; stroke: #ff7f0e"/>
     <use xlink:href="#m4ce4fb4de7" x="413.371346" y="228.645275" style="fill: #ff7f0e; stroke: #ff7f0e"/>
     <use xlink:href="#m4ce4fb4de7" x="417.866168" y="229.709377" style="fill: #ff7f0e; stroke: #ff7f0e"/>
     <use xlink:href="#m4ce4fb4de7" x="422.36099" y="230.622894" style="fill: #ff7f0e; stroke: #ff7f0e"/>
     <use xlink:href="#m4ce4fb4de7" x="426.855811" y="231.622434" style="fill: #ff7f0e; stroke: #ff7f0e"/>
     <use xlink:href="#m4ce4fb4de7" x="431.350633" y="232.714933" style="fill: #ff7f0e; stroke: #ff7f0e"/>
     <use xlink:href="#m4ce4fb4de7" x="435.845455" y="234.117401" style="fill: #ff7f0e; stroke: #ff7f0e"/>
    </g>
   </g>
   <g id="line2d_35">
    <path d="M 80.754545 66.665455 
L 85.249367 70.498734 
L 89.744189 85.799857 
L 94.23901 87.228529 
L 98.733832 127.842597 
L 103.228654 140.367753 
L 107.723475 147.200832 
L 112.218297 147.885503 
L 116.713119 146.669297 
L 121.20794 148.313517 
L 125.702762 152.604774 
L 130.197583 156.75063 
L 134.692405 161.091211 
L 139.187227 164.872035 
L 143.682048 167.989075 
L 148.17687 170.742602 
L 152.671692 173.549056 
L 157.166513 176.130086 
L 161.661335 178.69982 
L 166.156157 181.291415 
L 170.650978 184.007882 
L 175.1458 186.676018 
L 179.640621 189.344259 
L 184.135443 191.94148 
L 188.630265 194.630109 
L 193.125086 197.705902 
L 197.619908 200.654959 
L 202.11473 203.568381 
L 206.609551 206.397142 
L 211.104373 209.409616 
L 215.599194 212.426155 
L 220.094016 215.429248 
L 224.588838 219.025968 
L 229.083659 222.310601 
L 233.578481 225.912239 
L 238.073303 229.311201 
L 242.568124 232.388907 
L 247.062946 235.808802 
L 251.557768 239.177633 
L 256.052589 242.267436 
L 260.547411 245.923892 
L 265.042232 248.876891 
L 269.537054 251.598214 
L 274.031876 254.367171 
L 278.526697 257.073523 
L 283.021519 259.260489 
L 287.516341 261.782658 
L 292.011162 265.04705 
L 296.505984 268.00845 
L 301.000806 271.289055 
L 305.495627 274.936143 
L 309.990449 278.31096 
L 314.48527 280.915526 
L 318.980092 283.125511 
L 323.474914 286.22658 
L 327.969735 289.460894 
L 332.464557 292.824806 
L 336.959379 294.677854 
L 341.4542 298.370652 
L 345.949022 300.546549 
L 350.443843 303.011566 
L 354.938665 305.172968 
L 359.433487 309.008046 
L 363.928308 312.489852 
L 368.42313 315.270329 
L 372.917952 317.702831 
L 377.412773 320.574064 
L 381.907595 324.002236 
L 386.402417 326.957378 
L 390.897238 330.011306 
L 395.39206 333.58358 
L 399.886881 336.948188 
L 404.381703 339.786488 
L 408.876525 342.419329 
L 413.371346 344.954665 
L 417.866168 348.094386 
L 422.36099 351.366284 
L 426.855811 355.774728 
L 431.350633 361.073021 
L 435.845455 363.174545 
" clip-path="url(#pcee164b766)" style="fill: none; stroke: #2ca02c; stroke-width: 1.5; stroke-linecap: square"/>
    <defs>
     <path id="me86f587092" d="M 0 1.5 
C 0.397805 1.5 0.77937 1.341951 1.06066 1.06066 
C 1.341951 0.77937 1.5 0.397805 1.5 0 
C 1.5 -0.397805 1.341951 -0.77937 1.06066 -1.06066 
C 0.77937 -1.341951 0.397805 -1.5 0 -1.5 
C -0.397805 -1.5 -0.77937 -1.341951 -1.06066 -1.06066 
C -1.341951 -0.77937 -1.5 -0.397805 -1.5 0 
C -1.5 0.397805 -1.341951 0.77937 -1.06066 1.06066 
C -0.77937 1.341951 -0.397805 1.5 0 1.5 
z
" style="stroke: #2ca02c"/>
    </defs>
    <g clip-path="url(#pcee164b766)">
     <use xlink:href="#me86f587092" x="80.754545" y="66.665455" style="fill: #2ca02c; stroke: #2ca02c"/>
     <use xlink:href="#me86f587092" x="85.249367" y="70.498734" style="fill: #2ca02c; stroke: #2ca02c"/>
     <use xlink:href="#me86f587092" x="89.744189" y="85.799857" style="fill: #2ca02c; stroke: #2ca02c"/>
     <use xlink:href="#me86f587092" x="94.23901" y="87.228529" style="fill: #2ca02c; stroke: #2ca02c"/>
     <use xlink:href="#me86f587092" x="98.733832" y="127.842597" style="fill: #2ca02c; stroke: #2ca02c"/>
     <use xlink:href="#me86f587092" x="103.228654" y="140.367753" style="fill: #2ca02c; stroke: #2ca02c"/>
     <use xlink:href="#me86f587092" x="107.723475" y="147.200832" style="fill: #2ca02c; stroke: #2ca02c"/>
     <use xlink:href="#me86f587092" x="112.218297" y="147.885503" style="fill: #2ca02c; stroke: #2ca02c"/>
     <use xlink:href="#me86f587092" x="116.713119" y="146.669297" style="fill: #2ca02c; stroke: #2ca02c"/>
     <use xlink:href="#me86f587092" x="121.20794" y="148.313517" style="fill: #2ca02c; stroke: #2ca02c"/>
     <use xlink:href="#me86f587092" x="125.702762" y="152.604774" style="fill: #2ca02c; stroke: #2ca02c"/>
     <use xlink:href="#me86f587092" x="130.197583" y="156.75063" style="fill: #2ca02c; stroke: #2ca02c"/>
     <use xlink:href="#me86f587092" x="134.692405" y="161.091211" style="fill: #2ca02c; stroke: #2ca02c"/>
     <use xlink:href="#me86f587092" x="139.187227" y="164.872035" style="fill: #2ca02c; stroke: #2ca02c"/>
     <use xlink:href="#me86f587092" x="143.682048" y="167.989075" style="fill: #2ca02c; stroke: #2ca02c"/>
     <use xlink:href="#me86f587092" x="148.17687" y="170.742602" style="fill: #2ca02c; stroke: #2ca02c"/>
     <use xlink:href="#me86f587092" x="152.671692" y="173.549056" style="fill: #2ca02c; stroke: #2ca02c"/>
     <use xlink:href="#me86f587092" x="157.166513" y="176.130086" style="fill: #2ca02c; stroke: #2ca02c"/>
     <use xlink:href="#me86f587092" x="161.661335" y="178.69982" style="fill: #2ca02c; stroke: #2ca02c"/>
     <use xlink:href="#me86f587092" x="166.156157" y="181.291415" style="fill: #2ca02c; stroke: #2ca02c"/>
     <use xlink:href="#me86f587092" x="170.650978" y="184.007882" style="fill: #2ca02c; stroke: #2ca02c"/>
     <use xlink:href="#me86f587092" x="175.1458" y="186.676018" style="fill: #2ca02c; stroke: #2ca02c"/>
     <use xlink:href="#me86f587092" x="179.640621" y="189.344259" style="fill: #2ca02c; stroke: #2ca02c"/>
     <use xlink:href="#me86f587092" x="184.135443" y="191.94148" style="fill: #2ca02c; stroke: #2ca02c"/>
     <use xlink:href="#me86f587092" x="188.630265" y="194.630109" style="fill: #2ca02c; stroke: #2ca02c"/>
     <use xlink:href="#me86f587092" x="193.125086" y="197.705902" style="fill: #2ca02c; stroke: #2ca02c"/>
     <use xlink:href="#me86f587092" x="197.619908" y="200.654959" style="fill: #2ca02c; stroke: #2ca02c"/>
     <use xlink:href="#me86f587092" x="202.11473" y="203.568381" style="fill: #2ca02c; stroke: #2ca02c"/>
     <use xlink:href="#me86f587092" x="206.609551" y="206.397142" style="fill: #2ca02c; stroke: #2ca02c"/>
     <use xlink:href="#me86f587092" x="211.104373" y="209.409616" style="fill: #2ca02c; stroke: #2ca02c"/>
     <use xlink:href="#me86f587092" x="215.599194" y="212.426155" style="fill: #2ca02c; stroke: #2ca02c"/>
     <use xlink:href="#me86f587092" x="220.094016" y="215.429248" style="fill: #2ca02c; stroke: #2ca02c"/>
     <use xlink:href="#me86f587092" x="224.588838" y="219.025968" style="fill: #2ca02c; stroke: #2ca02c"/>
     <use xlink:href="#me86f587092" x="229.083659" y="222.310601" style="fill: #2ca02c; stroke: #2ca02c"/>
     <use xlink:href="#me86f587092" x="233.578481" y="225.912239" style="fill: #2ca02c; stroke: #2ca02c"/>
     <use xlink:href="#me86f587092" x="238.073303" y="229.311201" style="fill: #2ca02c; stroke: #2ca02c"/>
     <use xlink:href="#me86f587092" x="242.568124" y="232.388907" style="fill: #2ca02c; stroke: #2ca02c"/>
     <use xlink:href="#me86f587092" x="247.062946" y="235.808802" style="fill: #2ca02c; stroke: #2ca02c"/>
     <use xlink:href="#me86f587092" x="251.557768" y="239.177633" style="fill: #2ca02c; stroke: #2ca02c"/>
     <use xlink:href="#me86f587092" x="256.052589" y="242.267436" style="fill: #2ca02c; stroke: #2ca02c"/>
     <use xlink:href="#me86f587092" x="260.547411" y="245.923892" style="fill: #2ca02c; stroke: #2ca02c"/>
     <use xlink:href="#me86f587092" x="265.042232" y="248.876891" style="fill: #2ca02c; stroke: #2ca02c"/>
     <use xlink:href="#me86f587092" x="269.537054" y="251.598214" style="fill: #2ca02c; stroke: #2ca02c"/>
     <use xlink:href="#me86f587092" x="274.031876" y="254.367171" style="fill: #2ca02c; stroke: #2ca02c"/>
     <use xlink:href="#me86f587092" x="278.526697" y="257.073523" style="fill: #2ca02c; stroke: #2ca02c"/>
     <use xlink:href="#me86f587092" x="283.021519" y="259.260489" style="fill: #2ca02c; stroke: #2ca02c"/>
     <use xlink:href="#me86f587092" x="287.516341" y="261.782658" style="fill: #2ca02c; stroke: #2ca02c"/>
     <use xlink:href="#me86f587092" x="292.011162" y="265.04705" style="fill: #2ca02c; stroke: #2ca02c"/>
     <use xlink:href="#me86f587092" x="296.505984" y="268.00845" style="fill: #2ca02c; stroke: #2ca02c"/>
     <use xlink:href="#me86f587092" x="301.000806" y="271.289055" style="fill: #2ca02c; stroke: #2ca02c"/>
     <use xlink:href="#me86f587092" x="305.495627" y="274.936143" style="fill: #2ca02c; stroke: #2ca02c"/>
     <use xlink:href="#me86f587092" x="309.990449" y="278.31096" style="fill: #2ca02c; stroke: #2ca02c"/>
     <use xlink:href="#me86f587092" x="314.48527" y="280.915526" style="fill: #2ca02c; stroke: #2ca02c"/>
     <use xlink:href="#me86f587092" x="318.980092" y="283.125511" style="fill: #2ca02c; stroke: #2ca02c"/>
     <use xlink:href="#me86f587092" x="323.474914" y="286.22658" style="fill: #2ca02c; stroke: #2ca02c"/>
     <use xlink:href="#me86f587092" x="327.969735" y="289.460894" style="fill: #2ca02c; stroke: #2ca02c"/>
     <use xlink:href="#me86f587092" x="332.464557" y="292.824806" style="fill: #2ca02c; stroke: #2ca02c"/>
     <use xlink:href="#me86f587092" x="336.959379" y="294.677854" style="fill: #2ca02c; stroke: #2ca02c"/>
     <use xlink:href="#me86f587092" x="341.4542" y="298.370652" style="fill: #2ca02c; stroke: #2ca02c"/>
     <use xlink:href="#me86f587092" x="345.949022" y="300.546549" style="fill: #2ca02c; stroke: #2ca02c"/>
     <use xlink:href="#me86f587092" x="350.443843" y="303.011566" style="fill: #2ca02c; stroke: #2ca02c"/>
     <use xlink:href="#me86f587092" x="354.938665" y="305.172968" style="fill: #2ca02c; stroke: #2ca02c"/>
     <use xlink:href="#me86f587092" x="359.433487" y="309.008046" style="fill: #2ca02c; stroke: #2ca02c"/>
     <use xlink:href="#me86f587092" x="363.928308" y="312.489852" style="fill: #2ca02c; stroke: #2ca02c"/>
     <use xlink:href="#me86f587092" x="368.42313" y="315.270329" style="fill: #2ca02c; stroke: #2ca02c"/>
     <use xlink:href="#me86f587092" x="372.917952" y="317.702831" style="fill: #2ca02c; stroke: #2ca02c"/>
     <use xlink:href="#me86f587092" x="377.412773" y="320.574064" style="fill: #2ca02c; stroke: #2ca02c"/>
     <use xlink:href="#me86f587092" x="381.907595" y="324.002236" style="fill: #2ca02c; stroke: #2ca02c"/>
     <use xlink:href="#me86f587092" x="386.402417" y="326.957378" style="fill: #2ca02c; stroke: #2ca02c"/>
     <use xlink:href="#me86f587092" x="390.897238" y="330.011306" style="fill: #2ca02c; stroke: #2ca02c"/>
     <use xlink:href="#me86f587092" x="395.39206" y="333.58358" style="fill: #2ca02c; stroke: #2ca02c"/>
     <use xlink:href="#me86f587092" x="399.886881" y="336.948188" style="fill: #2ca02c; stroke: #2ca02c"/>
     <use xlink:href="#me86f587092" x="404.381703" y="339.786488" style="fill: #2ca02c; stroke: #2ca02c"/>
     <use xlink:href="#me86f587092" x="408.876525" y="342.419329" style="fill: #2ca02c; stroke: #2ca02c"/>
     <use xlink:href="#me86f587092" x="413.371346" y="344.954665" style="fill: #2ca02c; stroke: #2ca02c"/>
     <use xlink:href="#me86f587092" x="417.866168" y="348.094386" style="fill: #2ca02c; stroke: #2ca02c"/>
     <use xlink:href="#me86f587092" x="422.36099" y="351.366284" style="fill: #2ca02c; stroke: #2ca02c"/>
     <use xlink:href="#me86f587092" x="426.855811" y="355.774728" style="fill: #2ca02c; stroke: #2ca02c"/>
     <use xlink:href="#me86f587092" x="431.350633" y="361.073021" style="fill: #2ca02c; stroke: #2ca02c"/>
     <use xlink:href="#me86f587092" x="435.845455" y="363.174545" style="fill: #2ca02c; stroke: #2ca02c"/>
    </g>
   </g>
   <g id="LineCollection_1">
    <path d="M 245.668937 222.149625 
L 245.668937 164.326298 
" clip-path="url(#pcee164b766)" style="fill: none; stroke: #000000; stroke-width: 1.5"/>
   </g>
   <g id="LineCollection_2">
    <path d="M 200.450206 222.149625 
L 200.450206 164.326298 
" clip-path="url(#pcee164b766)" style="fill: none; stroke: #000000; stroke-width: 1.5"/>
   </g>
   <g id="patch_3">
    <path d="M 63 378 
L 63 51.84 
" style="fill: none; stroke: #000000; stroke-width: 0.8; stroke-linejoin: miter; stroke-linecap: square"/>
   </g>
   <g id="patch_4">
    <path d="M 453.6 378 
L 453.6 51.84 
" style="fill: none; stroke: #000000; stroke-width: 0.8; stroke-linejoin: miter; stroke-linecap: square"/>
   </g>
   <g id="patch_5">
    <path d="M 63 378 
L 453.6 378 
" style="fill: none; stroke: #000000; stroke-width: 0.8; stroke-linejoin: miter; stroke-linecap: square"/>
   </g>
   <g id="patch_6">
    <path d="M 63 51.84 
L 453.6 51.84 
" style="fill: none; stroke: #000000; stroke-width: 0.8; stroke-linejoin: miter; stroke-linecap: square"/>
   </g>
   <g id="text_19">
    <!-- breakup of  -->
    <g transform="translate(160.777706 235.384351)scale(0.14 -0.14)">
     <defs>
      <path id="DejaVuSans-62" d="M 3116 1747 
Q 3116 2381 2855 2742 
Q 2594 3103 2138 3103 
Q 1681 3103 1420 2742 
Q 1159 2381 1159 1747 
Q 1159 1113 1420 752 
Q 1681 391 2138 391 
Q 2594 391 2855 752 
Q 3116 1113 3116 1747 
z
M 1159 2969 
Q 1341 3281 1617 3432 
Q 1894 3584 2278 3584 
Q 2916 3584 3314 3078 
Q 3713 2572 3713 1747 
Q 3713 922 3314 415 
Q 2916 -91 2278 -91 
Q 1894 -91 1617 61 
Q 1341 213 1159 525 
L 1159 0 
L 581 0 
L 581 4863 
L 1159 4863 
L 1159 2969 
z
" transform="scale(0.015625)"/>
      <path id="DejaVuSans-6b" d="M 581 4863 
L 1159 4863 
L 1159 1991 
L 2875 3500 
L 3609 3500 
L 1753 1863 
L 3688 0 
L 2938 0 
L 1159 1709 
L 1159 0 
L 581 0 
L 581 4863 
z
" transform="scale(0.015625)"/>
      <path id="DejaVuSans-75" d="M 544 1381 
L 544 3500 
L 1119 3500 
L 1119 1403 
Q 1119 906 1312 657 
Q 1506 409 1894 409 
Q 2359 409 2629 706 
Q 2900 1003 2900 1516 
L 2900 3500 
L 3475 3500 
L 3475 0 
L 2900 0 
L 2900 538 
Q 2691 219 2414 64 
Q 2138 -91 1772 -91 
Q 1169 -91 856 284 
Q 544 659 544 1381 
z
M 1991 3584 
L 1991 3584 
z
" transform="scale(0.015625)"/>
      <path id="DejaVuSans-70" d="M 1159 525 
L 1159 -1331 
L 581 -1331 
L 581 3500 
L 1159 3500 
L 1159 2969 
Q 1341 3281 1617 3432 
Q 1894 3584 2278 3584 
Q 2916 3584 3314 3078 
Q 3713 2572 3713 1747 
Q 3713 922 3314 415 
Q 2916 -91 2278 -91 
Q 1894 -91 1617 61 
Q 1341 213 1159 525 
z
M 3116 1747 
Q 3116 2381 2855 2742 
Q 2594 3103 2138 3103 
Q 1681 3103 1420 2742 
Q 1159 2381 1159 1747 
Q 1159 1113 1420 752 
Q 1681 391 2138 391 
Q 2594 391 2855 752 
Q 3116 1113 3116 1747 
z
" transform="scale(0.015625)"/>
      <path id="DejaVuSans-20" transform="scale(0.015625)"/>
      <path id="DejaVuSans-6f" d="M 1959 3097 
Q 1497 3097 1228 2736 
Q 959 2375 959 1747 
Q 959 1119 1226 758 
Q 1494 397 1959 397 
Q 2419 397 2687 759 
Q 2956 1122 2956 1747 
Q 2956 2369 2687 2733 
Q 2419 3097 1959 3097 
z
M 1959 3584 
Q 2709 3584 3137 3096 
Q 3566 2609 3566 1747 
Q 3566 888 3137 398 
Q 2709 -91 1959 -91 
Q 1206 -91 779 398 
Q 353 888 353 1747 
Q 353 2609 779 3096 
Q 1206 3584 1959 3584 
z
" transform="scale(0.015625)"/>
      <path id="DejaVuSans-66" d="M 2375 4863 
L 2375 4384 
L 1825 4384 
Q 1516 4384 1395 4259 
Q 1275 4134 1275 3809 
L 1275 3500 
L 2222 3500 
L 2222 3053 
L 1275 3053 
L 1275 0 
L 697 0 
L 697 3053 
L 147 3053 
L 147 3500 
L 697 3500 
L 697 3744 
Q 697 4328 969 4595 
Q 1241 4863 1831 4863 
L 2375 4863 
z
" transform="scale(0.015625)"/>
     </defs>
     <use xlink:href="#DejaVuSans-62"/>
     <use xlink:href="#DejaVuSans-72" x="63.476562"/>
     <use xlink:href="#DejaVuSans-65" x="102.339844"/>
     <use xlink:href="#DejaVuSans-61" x="163.863281"/>
     <use xlink:href="#DejaVuSans-6b" x="225.142578"/>
     <use xlink:href="#DejaVuSans-75" x="279.927734"/>
     <use xlink:href="#DejaVuSans-70" x="343.306641"/>
     <use xlink:href="#DejaVuSans-20" x="406.783203"/>
     <use xlink:href="#DejaVuSans-6f" x="438.570312"/>
     <use xlink:href="#DejaVuSans-66" x="499.751953"/>
     <use xlink:href="#DejaVuSans-20" x="534.957031"/>
    </g>
    <!--  $1.7 \, \mathrm{mrad}$ driver -->
    <g transform="translate(145.220206 251.061289)scale(0.14 -0.14)">
     <defs>
      <path id="DejaVuSans-2e" d="M 684 794 
L 1344 794 
L 1344 0 
L 684 0 
L 684 794 
z
" transform="scale(0.015625)"/>
      <path id="DejaVuSans-37" d="M 525 4666 
L 3525 4666 
L 3525 4397 
L 1831 0 
L 1172 0 
L 2766 4134 
L 525 4134 
L 525 4666 
z
" transform="scale(0.015625)"/>
      <path id="DejaVuSans-64" d="M 2906 2969 
L 2906 4863 
L 3481 4863 
L 3481 0 
L 2906 0 
L 2906 525 
Q 2725 213 2448 61 
Q 2172 -91 1784 -91 
Q 1150 -91 751 415 
Q 353 922 353 1747 
Q 353 2572 751 3078 
Q 1150 3584 1784 3584 
Q 2172 3584 2448 3432 
Q 2725 3281 2906 2969 
z
M 947 1747 
Q 947 1113 1208 752 
Q 1469 391 1925 391 
Q 2381 391 2643 752 
Q 2906 1113 2906 1747 
Q 2906 2381 2643 2742 
Q 2381 3103 1925 3103 
Q 1469 3103 1208 2742 
Q 947 2381 947 1747 
z
" transform="scale(0.015625)"/>
      <path id="DejaVuSans-69" d="M 603 3500 
L 1178 3500 
L 1178 0 
L 603 0 
L 603 3500 
z
M 603 4863 
L 1178 4863 
L 1178 4134 
L 603 4134 
L 603 4863 
z
" transform="scale(0.015625)"/>
      <path id="DejaVuSans-76" d="M 191 3500 
L 800 3500 
L 1894 563 
L 2988 3500 
L 3597 3500 
L 2284 0 
L 1503 0 
L 191 3500 
z
" transform="scale(0.015625)"/>
     </defs>
     <use xlink:href="#DejaVuSans-20" transform="translate(0 0.015625)"/>
     <use xlink:href="#DejaVuSans-31" transform="translate(31.787109 0.015625)"/>
     <use xlink:href="#DejaVuSans-2e" transform="translate(95.410156 0.015625)"/>
     <use xlink:href="#DejaVuSans-37" transform="translate(119.447266 0.015625)"/>
     <use xlink:href="#DejaVuSans-6d" transform="translate(199.305989 0.015625)"/>
     <use xlink:href="#DejaVuSans-72" transform="translate(296.718098 0.015625)"/>
     <use xlink:href="#DejaVuSans-61" transform="translate(337.831379 0.015625)"/>
     <use xlink:href="#DejaVuSans-64" transform="translate(399.110676 0.015625)"/>
     <use xlink:href="#DejaVuSans-20" transform="translate(462.587239 0.015625)"/>
     <use xlink:href="#DejaVuSans-64" transform="translate(494.374348 0.015625)"/>
     <use xlink:href="#DejaVuSans-72" transform="translate(557.850911 0.015625)"/>
     <use xlink:href="#DejaVuSans-69" transform="translate(598.964192 0.015625)"/>
     <use xlink:href="#DejaVuSans-76" transform="translate(626.747395 0.015625)"/>
     <use xlink:href="#DejaVuSans-65" transform="translate(685.927083 0.015625)"/>
     <use xlink:href="#DejaVuSans-72" transform="translate(747.45052 0.015625)"/>
    </g>
   </g>
   <g id="text_20">
    <!-- breakup of  -->
    <g transform="translate(205.996437 139.01214)scale(0.14 -0.14)">
     <use xlink:href="#DejaVuSans-62"/>
     <use xlink:href="#DejaVuSans-72" x="63.476562"/>
     <use xlink:href="#DejaVuSans-65" x="102.339844"/>
     <use xlink:href="#DejaVuSans-61" x="163.863281"/>
     <use xlink:href="#DejaVuSans-6b" x="225.142578"/>
     <use xlink:href="#DejaVuSans-75" x="279.927734"/>
     <use xlink:href="#DejaVuSans-70" x="343.306641"/>
     <use xlink:href="#DejaVuSans-20" x="406.783203"/>
     <use xlink:href="#DejaVuSans-6f" x="438.570312"/>
     <use xlink:href="#DejaVuSans-66" x="499.751953"/>
     <use xlink:href="#DejaVuSans-20" x="534.957031"/>
    </g>
    <!--  $4.2 \, \mathrm{mrad}$ driver -->
    <g transform="translate(190.298937 154.689077)scale(0.14 -0.14)">
     <use xlink:href="#DejaVuSans-20" transform="translate(0 0.015625)"/>
     <use xlink:href="#DejaVuSans-34" transform="translate(31.787109 0.015625)"/>
     <use xlink:href="#DejaVuSans-2e" transform="translate(95.410156 0.015625)"/>
     <use xlink:href="#DejaVuSans-32" transform="translate(121.697266 0.015625)"/>
     <use xlink:href="#DejaVuSans-6d" transform="translate(201.555989 0.015625)"/>
     <use xlink:href="#DejaVuSans-72" transform="translate(298.968098 0.015625)"/>
     <use xlink:href="#DejaVuSans-61" transform="translate(340.081379 0.015625)"/>
     <use xlink:href="#DejaVuSans-64" transform="translate(401.360676 0.015625)"/>
     <use xlink:href="#DejaVuSans-20" transform="translate(464.837239 0.015625)"/>
     <use xlink:href="#DejaVuSans-64" transform="translate(496.624348 0.015625)"/>
     <use xlink:href="#DejaVuSans-72" transform="translate(560.100911 0.015625)"/>
     <use xlink:href="#DejaVuSans-69" transform="translate(601.214192 0.015625)"/>
     <use xlink:href="#DejaVuSans-76" transform="translate(628.997395 0.015625)"/>
     <use xlink:href="#DejaVuSans-65" transform="translate(688.177083 0.015625)"/>
     <use xlink:href="#DejaVuSans-72" transform="translate(749.70052 0.015625)"/>
    </g>
   </g>
   <g id="text_21">
    <!-- comparison for different initial divergences -->
    <g transform="translate(85.65875 45.84)scale(0.16 -0.16)">
     <defs>
      <path id="DejaVuSans-73" d="M 2834 3397 
L 2834 2853 
Q 2591 2978 2328 3040 
Q 2066 3103 1784 3103 
Q 1356 3103 1142 2972 
Q 928 2841 928 2578 
Q 928 2378 1081 2264 
Q 1234 2150 1697 2047 
L 1894 2003 
Q 2506 1872 2764 1633 
Q 3022 1394 3022 966 
Q 3022 478 2636 193 
Q 2250 -91 1575 -91 
Q 1294 -91 989 -36 
Q 684 19 347 128 
L 347 722 
Q 666 556 975 473 
Q 1284 391 1588 391 
Q 1994 391 2212 530 
Q 2431 669 2431 922 
Q 2431 1156 2273 1281 
Q 2116 1406 1581 1522 
L 1381 1569 
Q 847 1681 609 1914 
Q 372 2147 372 2553 
Q 372 3047 722 3315 
Q 1072 3584 1716 3584 
Q 2034 3584 2315 3537 
Q 2597 3491 2834 3397 
z
" transform="scale(0.015625)"/>
      <path id="DejaVuSans-74" d="M 1172 4494 
L 1172 3500 
L 2356 3500 
L 2356 3053 
L 1172 3053 
L 1172 1153 
Q 1172 725 1289 603 
Q 1406 481 1766 481 
L 2356 481 
L 2356 0 
L 1766 0 
Q 1100 0 847 248 
Q 594 497 594 1153 
L 594 3053 
L 172 3053 
L 172 3500 
L 594 3500 
L 594 4494 
L 1172 4494 
z
" transform="scale(0.015625)"/>
      <path id="DejaVuSans-6c" d="M 603 4863 
L 1178 4863 
L 1178 0 
L 603 0 
L 603 4863 
z
" transform="scale(0.015625)"/>
     </defs>
     <use xlink:href="#DejaVuSans-63"/>
     <use xlink:href="#DejaVuSans-6f" x="54.980469"/>
     <use xlink:href="#DejaVuSans-6d" x="116.162109"/>
     <use xlink:href="#DejaVuSans-70" x="213.574219"/>
     <use xlink:href="#DejaVuSans-61" x="277.050781"/>
     <use xlink:href="#DejaVuSans-72" x="338.330078"/>
     <use xlink:href="#DejaVuSans-69" x="379.443359"/>
     <use xlink:href="#DejaVuSans-73" x="407.226562"/>
     <use xlink:href="#DejaVuSans-6f" x="459.326172"/>
     <use xlink:href="#DejaVuSans-6e" x="520.507812"/>
     <use xlink:href="#DejaVuSans-20" x="583.886719"/>
     <use xlink:href="#DejaVuSans-66" x="615.673828"/>
     <use xlink:href="#DejaVuSans-6f" x="650.878906"/>
     <use xlink:href="#DejaVuSans-72" x="712.060547"/>
     <use xlink:href="#DejaVuSans-20" x="753.173828"/>
     <use xlink:href="#DejaVuSans-64" x="784.960938"/>
     <use xlink:href="#DejaVuSans-69" x="848.4375"/>
     <use xlink:href="#DejaVuSans-66" x="876.220703"/>
     <use xlink:href="#DejaVuSans-66" x="911.425781"/>
     <use xlink:href="#DejaVuSans-65" x="946.630859"/>
     <use xlink:href="#DejaVuSans-72" x="1008.154297"/>
     <use xlink:href="#DejaVuSans-65" x="1047.017578"/>
     <use xlink:href="#DejaVuSans-6e" x="1108.541016"/>
     <use xlink:href="#DejaVuSans-74" x="1171.919922"/>
     <use xlink:href="#DejaVuSans-20" x="1211.128906"/>
     <use xlink:href="#DejaVuSans-69" x="1242.916016"/>
     <use xlink:href="#DejaVuSans-6e" x="1270.699219"/>
     <use xlink:href="#DejaVuSans-69" x="1334.078125"/>
     <use xlink:href="#DejaVuSans-74" x="1361.861328"/>
     <use xlink:href="#DejaVuSans-69" x="1401.070312"/>
     <use xlink:href="#DejaVuSans-61" x="1428.853516"/>
     <use xlink:href="#DejaVuSans-6c" x="1490.132812"/>
     <use xlink:href="#DejaVuSans-20" x="1517.916016"/>
     <use xlink:href="#DejaVuSans-64" x="1549.703125"/>
     <use xlink:href="#DejaVuSans-69" x="1613.179688"/>
     <use xlink:href="#DejaVuSans-76" x="1640.962891"/>
     <use xlink:href="#DejaVuSans-65" x="1700.142578"/>
     <use xlink:href="#DejaVuSans-72" x="1761.666016"/>
     <use xlink:href="#DejaVuSans-67" x="1801.029297"/>
     <use xlink:href="#DejaVuSans-65" x="1864.505859"/>
     <use xlink:href="#DejaVuSans-6e" x="1926.029297"/>
     <use xlink:href="#DejaVuSans-63" x="1989.408203"/>
     <use xlink:href="#DejaVuSans-65" x="2044.388672"/>
     <use xlink:href="#DejaVuSans-73" x="2105.912109"/>
    </g>
   </g>
   <g id="legend_1">
    <g id="patch_7">
     <path d="M 321.76 135.095 
L 442.4 135.095 
Q 445.6 135.095 445.6 131.895 
L 445.6 63.04 
Q 445.6 59.84 442.4 59.84 
L 321.76 59.84 
Q 318.56 59.84 318.56 63.04 
L 318.56 131.895 
Q 318.56 135.095 321.76 135.095 
z
" style="fill: #ffffff; opacity: 0.8; stroke: #cccccc; stroke-linejoin: miter"/>
    </g>
    <g id="line2d_36">
     <path d="M 324.96 72.7975 
L 340.96 72.7975 
L 356.96 72.7975 
" style="fill: none; stroke: #1f77b4; stroke-width: 1.5; stroke-linecap: square"/>
     <g>
      <use xlink:href="#mabbed98f19" x="340.96" y="72.7975" style="fill: #1f77b4; stroke: #1f77b4"/>
     </g>
    </g>
    <g id="text_22">
     <!-- $1.7 \, \mathrm{mrad}$ -->
     <g transform="translate(369.76 78.3975)scale(0.16 -0.16)">
      <use xlink:href="#DejaVuSans-31" transform="translate(0 0.015625)"/>
      <use xlink:href="#DejaVuSans-2e" transform="translate(63.623047 0.015625)"/>
      <use xlink:href="#DejaVuSans-37" transform="translate(87.660156 0.015625)"/>
      <use xlink:href="#DejaVuSans-6d" transform="translate(167.518879 0.015625)"/>
      <use xlink:href="#DejaVuSans-72" transform="translate(264.930989 0.015625)"/>
      <use xlink:href="#DejaVuSans-61" transform="translate(306.04427 0.015625)"/>
      <use xlink:href="#DejaVuSans-64" transform="translate(367.323567 0.015625)"/>
     </g>
    </g>
    <g id="line2d_37">
     <path d="M 324.96 96.2825 
L 340.96 96.2825 
L 356.96 96.2825 
" style="fill: none; stroke: #ff7f0e; stroke-width: 1.5; stroke-linecap: square"/>
     <g>
      <use xlink:href="#m4ce4fb4de7" x="340.96" y="96.2825" style="fill: #ff7f0e; stroke: #ff7f0e"/>
     </g>
    </g>
    <g id="text_23">
     <!-- $4.2 \, \mathrm{mrad}$ -->
     <g transform="translate(369.76 101.8825)scale(0.16 -0.16)">
      <use xlink:href="#DejaVuSans-34" transform="translate(0 0.015625)"/>
      <use xlink:href="#DejaVuSans-2e" transform="translate(63.623047 0.015625)"/>
      <use xlink:href="#DejaVuSans-32" transform="translate(89.910156 0.015625)"/>
      <use xlink:href="#DejaVuSans-6d" transform="translate(169.768879 0.015625)"/>
      <use xlink:href="#DejaVuSans-72" transform="translate(267.180989 0.015625)"/>
      <use xlink:href="#DejaVuSans-61" transform="translate(308.29427 0.015625)"/>
      <use xlink:href="#DejaVuSans-64" transform="translate(369.573567 0.015625)"/>
     </g>
    </g>
    <g id="line2d_38">
     <path d="M 324.96 119.7675 
L 340.96 119.7675 
L 356.96 119.7675 
" style="fill: none; stroke: #2ca02c; stroke-width: 1.5; stroke-linecap: square"/>
     <g>
      <use xlink:href="#me86f587092" x="340.96" y="119.7675" style="fill: #2ca02c; stroke: #2ca02c"/>
     </g>
    </g>
    <g id="text_24">
     <!-- $8.7 \, \mathrm{mrad}$ -->
     <g transform="translate(369.76 125.3675)scale(0.16 -0.16)">
      <use xlink:href="#DejaVuSans-38" transform="translate(0 0.015625)"/>
      <use xlink:href="#DejaVuSans-2e" transform="translate(63.623047 0.015625)"/>
      <use xlink:href="#DejaVuSans-37" transform="translate(87.660156 0.015625)"/>
      <use xlink:href="#DejaVuSans-6d" transform="translate(167.518879 0.015625)"/>
      <use xlink:href="#DejaVuSans-72" transform="translate(264.930989 0.015625)"/>
      <use xlink:href="#DejaVuSans-61" transform="translate(306.04427 0.015625)"/>
      <use xlink:href="#DejaVuSans-64" transform="translate(367.323567 0.015625)"/>
     </g>
    </g>
   </g>
  </g>
 </g>
 <defs>
  <clipPath id="pcee164b766">
   <rect x="63" y="51.84" width="390.6" height="326.16"/>
  </clipPath>
 </defs>
</svg>
