<?xml version="1.0" encoding="utf-8" standalone="no"?>
<!DOCTYPE svg PUBLIC "-//W3C//DTD SVG 1.1//EN"
  "http://www.w3.org/Graphics/SVG/1.1/DTD/svg11.dtd">
<svg xmlns:xlink="http://www.w3.org/1999/xlink" width="504pt" height="432pt" viewBox="0 0 504 432" xmlns="http://www.w3.org/2000/svg" version="1.1">
 <metadata>
  <rdf:RDF xmlns:dc="http://purl.org/dc/elements/1.1/" xmlns:cc="http://creativecommons.org/ns#" xmlns:rdf="http://www.w3.org/1999/02/22-rdf-syntax-ns#">
   <cc:Work>
    <dc:type rdf:resource="http://purl.org/dc/dcmitype/StillImage"/>
    <dc:date>2023-01-20T09:31:34.136028</dc:date>
    <dc:format>image/svg+xml</dc:format>
    <dc:creator>
     <cc:Agent>
      <dc:title>Matplotlib v3.5.1, https://matplotlib.org/</dc:title>
     </cc:Agent>
    </dc:creator>
   </cc:Work>
  </rdf:RDF>
 </metadata>
 <defs>
  <style type="text/css">*{stroke-linejoin: round; stroke-linecap: butt}</style>
 </defs>
 <g id="figure_1">
  <g id="patch_1">
   <path d="M 0 432 
L 504 432 
L 504 0 
L 0 0 
z
" style="fill: #ffffff"/>
  </g>
  <g id="axes_1">
   <g id="patch_2">
    <path d="M 63 378 
L 453.6 378 
L 453.6 51.84 
L 63 51.84 
z
" style="fill: #ffffff"/>
   </g>
   <g id="matplotlib.axis_1">
    <g id="xtick_1">
     <g id="line2d_1">
      <defs>
       <path id="m97b05c7890" d="M 0 0 
L 0 3.5 
" style="stroke: #000000; stroke-width: 0.8"/>
      </defs>
      <g>
       <use xlink:href="#m97b05c7890" x="87.403378" y="378" style="stroke: #000000; stroke-width: 0.8"/>
      </g>
     </g>
     <g id="text_1">
      <!-- 0 -->
      <g transform="translate(82.949628 395.637812)scale(0.14 -0.14)">
       <defs>
        <path id="DejaVuSans-30" d="M 2034 4250 
Q 1547 4250 1301 3770 
Q 1056 3291 1056 2328 
Q 1056 1369 1301 889 
Q 1547 409 2034 409 
Q 2525 409 2770 889 
Q 3016 1369 3016 2328 
Q 3016 3291 2770 3770 
Q 2525 4250 2034 4250 
z
M 2034 4750 
Q 2819 4750 3233 4129 
Q 3647 3509 3647 2328 
Q 3647 1150 3233 529 
Q 2819 -91 2034 -91 
Q 1250 -91 836 529 
Q 422 1150 422 2328 
Q 422 3509 836 4129 
Q 1250 4750 2034 4750 
z
" transform="scale(0.015625)"/>
       </defs>
       <use xlink:href="#DejaVuSans-30"/>
      </g>
     </g>
    </g>
    <g id="xtick_2">
     <g id="line2d_2">
      <g>
       <use xlink:href="#m97b05c7890" x="143.926792" y="378" style="stroke: #000000; stroke-width: 0.8"/>
      </g>
     </g>
     <g id="text_2">
      <!-- 1 -->
      <g transform="translate(139.473042 395.637812)scale(0.14 -0.14)">
       <defs>
        <path id="DejaVuSans-31" d="M 794 531 
L 1825 531 
L 1825 4091 
L 703 3866 
L 703 4441 
L 1819 4666 
L 2450 4666 
L 2450 531 
L 3481 531 
L 3481 0 
L 794 0 
L 794 531 
z
" transform="scale(0.015625)"/>
       </defs>
       <use xlink:href="#DejaVuSans-31"/>
      </g>
     </g>
    </g>
    <g id="xtick_3">
     <g id="line2d_3">
      <g>
       <use xlink:href="#m97b05c7890" x="200.450206" y="378" style="stroke: #000000; stroke-width: 0.8"/>
      </g>
     </g>
     <g id="text_3">
      <!-- 2 -->
      <g transform="translate(195.996456 395.637812)scale(0.14 -0.14)">
       <defs>
        <path id="DejaVuSans-32" d="M 1228 531 
L 3431 531 
L 3431 0 
L 469 0 
L 469 531 
Q 828 903 1448 1529 
Q 2069 2156 2228 2338 
Q 2531 2678 2651 2914 
Q 2772 3150 2772 3378 
Q 2772 3750 2511 3984 
Q 2250 4219 1831 4219 
Q 1534 4219 1204 4116 
Q 875 4013 500 3803 
L 500 4441 
Q 881 4594 1212 4672 
Q 1544 4750 1819 4750 
Q 2544 4750 2975 4387 
Q 3406 4025 3406 3419 
Q 3406 3131 3298 2873 
Q 3191 2616 2906 2266 
Q 2828 2175 2409 1742 
Q 1991 1309 1228 531 
z
" transform="scale(0.015625)"/>
       </defs>
       <use xlink:href="#DejaVuSans-32"/>
      </g>
     </g>
    </g>
    <g id="xtick_4">
     <g id="line2d_4">
      <g>
       <use xlink:href="#m97b05c7890" x="256.973619" y="378" style="stroke: #000000; stroke-width: 0.8"/>
      </g>
     </g>
     <g id="text_4">
      <!-- 3 -->
      <g transform="translate(252.519869 395.637812)scale(0.14 -0.14)">
       <defs>
        <path id="DejaVuSans-33" d="M 2597 2516 
Q 3050 2419 3304 2112 
Q 3559 1806 3559 1356 
Q 3559 666 3084 287 
Q 2609 -91 1734 -91 
Q 1441 -91 1130 -33 
Q 819 25 488 141 
L 488 750 
Q 750 597 1062 519 
Q 1375 441 1716 441 
Q 2309 441 2620 675 
Q 2931 909 2931 1356 
Q 2931 1769 2642 2001 
Q 2353 2234 1838 2234 
L 1294 2234 
L 1294 2753 
L 1863 2753 
Q 2328 2753 2575 2939 
Q 2822 3125 2822 3475 
Q 2822 3834 2567 4026 
Q 2313 4219 1838 4219 
Q 1578 4219 1281 4162 
Q 984 4106 628 3988 
L 628 4550 
Q 988 4650 1302 4700 
Q 1616 4750 1894 4750 
Q 2613 4750 3031 4423 
Q 3450 4097 3450 3541 
Q 3450 3153 3228 2886 
Q 3006 2619 2597 2516 
z
" transform="scale(0.015625)"/>
       </defs>
       <use xlink:href="#DejaVuSans-33"/>
      </g>
     </g>
    </g>
    <g id="xtick_5">
     <g id="line2d_5">
      <g>
       <use xlink:href="#m97b05c7890" x="313.497033" y="378" style="stroke: #000000; stroke-width: 0.8"/>
      </g>
     </g>
     <g id="text_5">
      <!-- 4 -->
      <g transform="translate(309.043283 395.637812)scale(0.14 -0.14)">
       <defs>
        <path id="DejaVuSans-34" d="M 2419 4116 
L 825 1625 
L 2419 1625 
L 2419 4116 
z
M 2253 4666 
L 3047 4666 
L 3047 1625 
L 3713 1625 
L 3713 1100 
L 3047 1100 
L 3047 0 
L 2419 0 
L 2419 1100 
L 313 1100 
L 313 1709 
L 2253 4666 
z
" transform="scale(0.015625)"/>
       </defs>
       <use xlink:href="#DejaVuSans-34"/>
      </g>
     </g>
    </g>
    <g id="xtick_6">
     <g id="line2d_6">
      <g>
       <use xlink:href="#m97b05c7890" x="370.020447" y="378" style="stroke: #000000; stroke-width: 0.8"/>
      </g>
     </g>
     <g id="text_6">
      <!-- 5 -->
      <g transform="translate(365.566697 395.637812)scale(0.14 -0.14)">
       <defs>
        <path id="DejaVuSans-35" d="M 691 4666 
L 3169 4666 
L 3169 4134 
L 1269 4134 
L 1269 2991 
Q 1406 3038 1543 3061 
Q 1681 3084 1819 3084 
Q 2600 3084 3056 2656 
Q 3513 2228 3513 1497 
Q 3513 744 3044 326 
Q 2575 -91 1722 -91 
Q 1428 -91 1123 -41 
Q 819 9 494 109 
L 494 744 
Q 775 591 1075 516 
Q 1375 441 1709 441 
Q 2250 441 2565 725 
Q 2881 1009 2881 1497 
Q 2881 1984 2565 2268 
Q 2250 2553 1709 2553 
Q 1456 2553 1204 2497 
Q 953 2441 691 2322 
L 691 4666 
z
" transform="scale(0.015625)"/>
       </defs>
       <use xlink:href="#DejaVuSans-35"/>
      </g>
     </g>
    </g>
    <g id="xtick_7">
     <g id="line2d_7">
      <g>
       <use xlink:href="#m97b05c7890" x="426.54386" y="378" style="stroke: #000000; stroke-width: 0.8"/>
      </g>
     </g>
     <g id="text_7">
      <!-- 6 -->
      <g transform="translate(422.09011 395.637812)scale(0.14 -0.14)">
       <defs>
        <path id="DejaVuSans-36" d="M 2113 2584 
Q 1688 2584 1439 2293 
Q 1191 2003 1191 1497 
Q 1191 994 1439 701 
Q 1688 409 2113 409 
Q 2538 409 2786 701 
Q 3034 994 3034 1497 
Q 3034 2003 2786 2293 
Q 2538 2584 2113 2584 
z
M 3366 4563 
L 3366 3988 
Q 3128 4100 2886 4159 
Q 2644 4219 2406 4219 
Q 1781 4219 1451 3797 
Q 1122 3375 1075 2522 
Q 1259 2794 1537 2939 
Q 1816 3084 2150 3084 
Q 2853 3084 3261 2657 
Q 3669 2231 3669 1497 
Q 3669 778 3244 343 
Q 2819 -91 2113 -91 
Q 1303 -91 875 529 
Q 447 1150 447 2328 
Q 447 3434 972 4092 
Q 1497 4750 2381 4750 
Q 2619 4750 2861 4703 
Q 3103 4656 3366 4563 
z
" transform="scale(0.015625)"/>
       </defs>
       <use xlink:href="#DejaVuSans-36"/>
      </g>
     </g>
    </g>
    <g id="text_8">
     <!-- $y \, \mathrm{[mm]}$ -->
     <g transform="translate(230.38 414.709375)scale(0.16 -0.16)">
      <defs>
       <path id="DejaVuSans-Oblique-79" d="M 1588 -325 
Q 1188 -997 936 -1164 
Q 684 -1331 294 -1331 
L -159 -1331 
L -63 -850 
L 269 -850 
Q 509 -850 678 -719 
Q 847 -588 1056 -206 
L 1234 128 
L 459 3500 
L 1069 3500 
L 1650 819 
L 3256 3500 
L 3859 3500 
L 1588 -325 
z
" transform="scale(0.015625)"/>
       <path id="DejaVuSans-5b" d="M 550 4863 
L 1875 4863 
L 1875 4416 
L 1125 4416 
L 1125 -397 
L 1875 -397 
L 1875 -844 
L 550 -844 
L 550 4863 
z
" transform="scale(0.015625)"/>
       <path id="DejaVuSans-6d" d="M 3328 2828 
Q 3544 3216 3844 3400 
Q 4144 3584 4550 3584 
Q 5097 3584 5394 3201 
Q 5691 2819 5691 2113 
L 5691 0 
L 5113 0 
L 5113 2094 
Q 5113 2597 4934 2840 
Q 4756 3084 4391 3084 
Q 3944 3084 3684 2787 
Q 3425 2491 3425 1978 
L 3425 0 
L 2847 0 
L 2847 2094 
Q 2847 2600 2669 2842 
Q 2491 3084 2119 3084 
Q 1678 3084 1418 2786 
Q 1159 2488 1159 1978 
L 1159 0 
L 581 0 
L 581 3500 
L 1159 3500 
L 1159 2956 
Q 1356 3278 1631 3431 
Q 1906 3584 2284 3584 
Q 2666 3584 2933 3390 
Q 3200 3197 3328 2828 
z
" transform="scale(0.015625)"/>
       <path id="DejaVuSans-5d" d="M 1947 4863 
L 1947 -844 
L 622 -844 
L 622 -397 
L 1369 -397 
L 1369 4416 
L 622 4416 
L 622 4863 
L 1947 4863 
z
" transform="scale(0.015625)"/>
      </defs>
      <use xlink:href="#DejaVuSans-Oblique-79" transform="translate(0 0.015625)"/>
      <use xlink:href="#DejaVuSans-5b" transform="translate(75.415364 0.015625)"/>
      <use xlink:href="#DejaVuSans-6d" transform="translate(114.429036 0.015625)"/>
      <use xlink:href="#DejaVuSans-6d" transform="translate(211.841145 0.015625)"/>
      <use xlink:href="#DejaVuSans-5d" transform="translate(309.253254 0.015625)"/>
     </g>
    </g>
   </g>
   <g id="matplotlib.axis_2">
    <g id="ytick_1">
     <g id="line2d_8">
      <defs>
       <path id="ma1048c6ab4" d="M 0 0 
L -3.5 0 
" style="stroke: #000000; stroke-width: 0.8"/>
      </defs>
      <g>
       <use xlink:href="#ma1048c6ab4" x="63" y="353.84" style="stroke: #000000; stroke-width: 0.8"/>
      </g>
     </g>
     <g id="text_9">
      <!-- 242 -->
      <g transform="translate(29.2775 359.158906)scale(0.14 -0.14)">
       <use xlink:href="#DejaVuSans-32"/>
       <use xlink:href="#DejaVuSans-34" x="63.623047"/>
       <use xlink:href="#DejaVuSans-32" x="127.246094"/>
      </g>
     </g>
    </g>
    <g id="ytick_2">
     <g id="line2d_9">
      <g>
       <use xlink:href="#ma1048c6ab4" x="63" y="305.52" style="stroke: #000000; stroke-width: 0.8"/>
      </g>
     </g>
     <g id="text_10">
      <!-- 244 -->
      <g transform="translate(29.2775 310.838906)scale(0.14 -0.14)">
       <use xlink:href="#DejaVuSans-32"/>
       <use xlink:href="#DejaVuSans-34" x="63.623047"/>
       <use xlink:href="#DejaVuSans-34" x="127.246094"/>
      </g>
     </g>
    </g>
    <g id="ytick_3">
     <g id="line2d_10">
      <g>
       <use xlink:href="#ma1048c6ab4" x="63" y="257.2" style="stroke: #000000; stroke-width: 0.8"/>
      </g>
     </g>
     <g id="text_11">
      <!-- 246 -->
      <g transform="translate(29.2775 262.518906)scale(0.14 -0.14)">
       <use xlink:href="#DejaVuSans-32"/>
       <use xlink:href="#DejaVuSans-34" x="63.623047"/>
       <use xlink:href="#DejaVuSans-36" x="127.246094"/>
      </g>
     </g>
    </g>
    <g id="ytick_4">
     <g id="line2d_11">
      <g>
       <use xlink:href="#ma1048c6ab4" x="63" y="208.88" style="stroke: #000000; stroke-width: 0.8"/>
      </g>
     </g>
     <g id="text_12">
      <!-- 248 -->
      <g transform="translate(29.2775 214.198906)scale(0.14 -0.14)">
       <defs>
        <path id="DejaVuSans-38" d="M 2034 2216 
Q 1584 2216 1326 1975 
Q 1069 1734 1069 1313 
Q 1069 891 1326 650 
Q 1584 409 2034 409 
Q 2484 409 2743 651 
Q 3003 894 3003 1313 
Q 3003 1734 2745 1975 
Q 2488 2216 2034 2216 
z
M 1403 2484 
Q 997 2584 770 2862 
Q 544 3141 544 3541 
Q 544 4100 942 4425 
Q 1341 4750 2034 4750 
Q 2731 4750 3128 4425 
Q 3525 4100 3525 3541 
Q 3525 3141 3298 2862 
Q 3072 2584 2669 2484 
Q 3125 2378 3379 2068 
Q 3634 1759 3634 1313 
Q 3634 634 3220 271 
Q 2806 -91 2034 -91 
Q 1263 -91 848 271 
Q 434 634 434 1313 
Q 434 1759 690 2068 
Q 947 2378 1403 2484 
z
M 1172 3481 
Q 1172 3119 1398 2916 
Q 1625 2713 2034 2713 
Q 2441 2713 2670 2916 
Q 2900 3119 2900 3481 
Q 2900 3844 2670 4047 
Q 2441 4250 2034 4250 
Q 1625 4250 1398 4047 
Q 1172 3844 1172 3481 
z
" transform="scale(0.015625)"/>
       </defs>
       <use xlink:href="#DejaVuSans-32"/>
       <use xlink:href="#DejaVuSans-34" x="63.623047"/>
       <use xlink:href="#DejaVuSans-38" x="127.246094"/>
      </g>
     </g>
    </g>
    <g id="ytick_5">
     <g id="line2d_12">
      <g>
       <use xlink:href="#ma1048c6ab4" x="63" y="160.56" style="stroke: #000000; stroke-width: 0.8"/>
      </g>
     </g>
     <g id="text_13">
      <!-- 250 -->
      <g transform="translate(29.2775 165.878906)scale(0.14 -0.14)">
       <use xlink:href="#DejaVuSans-32"/>
       <use xlink:href="#DejaVuSans-35" x="63.623047"/>
       <use xlink:href="#DejaVuSans-30" x="127.246094"/>
      </g>
     </g>
    </g>
    <g id="ytick_6">
     <g id="line2d_13">
      <g>
       <use xlink:href="#ma1048c6ab4" x="63" y="112.24" style="stroke: #000000; stroke-width: 0.8"/>
      </g>
     </g>
     <g id="text_14">
      <!-- 252 -->
      <g transform="translate(29.2775 117.558906)scale(0.14 -0.14)">
       <use xlink:href="#DejaVuSans-32"/>
       <use xlink:href="#DejaVuSans-35" x="63.623047"/>
       <use xlink:href="#DejaVuSans-32" x="127.246094"/>
      </g>
     </g>
    </g>
    <g id="ytick_7">
     <g id="line2d_14">
      <g>
       <use xlink:href="#ma1048c6ab4" x="63" y="63.92" style="stroke: #000000; stroke-width: 0.8"/>
      </g>
     </g>
     <g id="text_15">
      <!-- 254 -->
      <g transform="translate(29.2775 69.238906)scale(0.14 -0.14)">
       <use xlink:href="#DejaVuSans-32"/>
       <use xlink:href="#DejaVuSans-35" x="63.623047"/>
       <use xlink:href="#DejaVuSans-34" x="127.246094"/>
      </g>
     </g>
    </g>
    <g id="text_16">
     <!-- $\mathrm{energy \, [MeV]}$ -->
     <g transform="translate(21.9175 267.8)rotate(-90)scale(0.16 -0.16)">
      <defs>
       <path id="DejaVuSans-65" d="M 3597 1894 
L 3597 1613 
L 953 1613 
Q 991 1019 1311 708 
Q 1631 397 2203 397 
Q 2534 397 2845 478 
Q 3156 559 3463 722 
L 3463 178 
Q 3153 47 2828 -22 
Q 2503 -91 2169 -91 
Q 1331 -91 842 396 
Q 353 884 353 1716 
Q 353 2575 817 3079 
Q 1281 3584 2069 3584 
Q 2775 3584 3186 3129 
Q 3597 2675 3597 1894 
z
M 3022 2063 
Q 3016 2534 2758 2815 
Q 2500 3097 2075 3097 
Q 1594 3097 1305 2825 
Q 1016 2553 972 2059 
L 3022 2063 
z
" transform="scale(0.015625)"/>
       <path id="DejaVuSans-6e" d="M 3513 2113 
L 3513 0 
L 2938 0 
L 2938 2094 
Q 2938 2591 2744 2837 
Q 2550 3084 2163 3084 
Q 1697 3084 1428 2787 
Q 1159 2491 1159 1978 
L 1159 0 
L 581 0 
L 581 3500 
L 1159 3500 
L 1159 2956 
Q 1366 3272 1645 3428 
Q 1925 3584 2291 3584 
Q 2894 3584 3203 3211 
Q 3513 2838 3513 2113 
z
" transform="scale(0.015625)"/>
       <path id="DejaVuSans-72" d="M 2631 2963 
Q 2534 3019 2420 3045 
Q 2306 3072 2169 3072 
Q 1681 3072 1420 2755 
Q 1159 2438 1159 1844 
L 1159 0 
L 581 0 
L 581 3500 
L 1159 3500 
L 1159 2956 
Q 1341 3275 1631 3429 
Q 1922 3584 2338 3584 
Q 2397 3584 2469 3576 
Q 2541 3569 2628 3553 
L 2631 2963 
z
" transform="scale(0.015625)"/>
       <path id="DejaVuSans-67" d="M 2906 1791 
Q 2906 2416 2648 2759 
Q 2391 3103 1925 3103 
Q 1463 3103 1205 2759 
Q 947 2416 947 1791 
Q 947 1169 1205 825 
Q 1463 481 1925 481 
Q 2391 481 2648 825 
Q 2906 1169 2906 1791 
z
M 3481 434 
Q 3481 -459 3084 -895 
Q 2688 -1331 1869 -1331 
Q 1566 -1331 1297 -1286 
Q 1028 -1241 775 -1147 
L 775 -588 
Q 1028 -725 1275 -790 
Q 1522 -856 1778 -856 
Q 2344 -856 2625 -561 
Q 2906 -266 2906 331 
L 2906 616 
Q 2728 306 2450 153 
Q 2172 0 1784 0 
Q 1141 0 747 490 
Q 353 981 353 1791 
Q 353 2603 747 3093 
Q 1141 3584 1784 3584 
Q 2172 3584 2450 3431 
Q 2728 3278 2906 2969 
L 2906 3500 
L 3481 3500 
L 3481 434 
z
" transform="scale(0.015625)"/>
       <path id="DejaVuSans-79" d="M 2059 -325 
Q 1816 -950 1584 -1140 
Q 1353 -1331 966 -1331 
L 506 -1331 
L 506 -850 
L 844 -850 
Q 1081 -850 1212 -737 
Q 1344 -625 1503 -206 
L 1606 56 
L 191 3500 
L 800 3500 
L 1894 763 
L 2988 3500 
L 3597 3500 
L 2059 -325 
z
" transform="scale(0.015625)"/>
       <path id="DejaVuSans-4d" d="M 628 4666 
L 1569 4666 
L 2759 1491 
L 3956 4666 
L 4897 4666 
L 4897 0 
L 4281 0 
L 4281 4097 
L 3078 897 
L 2444 897 
L 1241 4097 
L 1241 0 
L 628 0 
L 628 4666 
z
" transform="scale(0.015625)"/>
       <path id="DejaVuSans-56" d="M 1831 0 
L 50 4666 
L 709 4666 
L 2188 738 
L 3669 4666 
L 4325 4666 
L 2547 0 
L 1831 0 
z
" transform="scale(0.015625)"/>
      </defs>
      <use xlink:href="#DejaVuSans-65" transform="translate(0 0.015625)"/>
      <use xlink:href="#DejaVuSans-6e" transform="translate(61.523438 0.015625)"/>
      <use xlink:href="#DejaVuSans-65" transform="translate(124.902344 0.015625)"/>
      <use xlink:href="#DejaVuSans-72" transform="translate(186.425781 0.015625)"/>
      <use xlink:href="#DejaVuSans-67" transform="translate(227.539062 0.015625)"/>
      <use xlink:href="#DejaVuSans-79" transform="translate(291.015625 0.015625)"/>
      <use xlink:href="#DejaVuSans-5b" transform="translate(366.430989 0.015625)"/>
      <use xlink:href="#DejaVuSans-4d" transform="translate(405.444661 0.015625)"/>
      <use xlink:href="#DejaVuSans-65" transform="translate(491.723958 0.015625)"/>
      <use xlink:href="#DejaVuSans-56" transform="translate(553.247395 0.015625)"/>
      <use xlink:href="#DejaVuSans-5d" transform="translate(621.655598 0.015625)"/>
     </g>
    </g>
   </g>
   <g id="LineCollection_1">
    <path d="M 80.754545 175.612099 
L 80.754545 172.616886 
" clip-path="url(#p6516719d43)" style="fill: none; stroke: #008000; stroke-width: 1.5"/>
    <path d="M 85.249367 179.235641 
L 85.249367 176.058815 
" clip-path="url(#p6516719d43)" style="fill: none; stroke: #008000; stroke-width: 1.5"/>
    <path d="M 89.744189 202.65063 
L 89.744189 116.51754 
" clip-path="url(#p6516719d43)" style="fill: none; stroke: #008000; stroke-width: 1.5"/>
    <path d="M 94.23901 206.971097 
L 94.23901 113.147112 
" clip-path="url(#p6516719d43)" style="fill: none; stroke: #008000; stroke-width: 1.5"/>
    <path d="M 98.733832 226.659066 
L 98.733832 159.622717 
" clip-path="url(#p6516719d43)" style="fill: none; stroke: #008000; stroke-width: 1.5"/>
    <path d="M 103.228654 205.691014 
L 103.228654 197.166471 
" clip-path="url(#p6516719d43)" style="fill: none; stroke: #008000; stroke-width: 1.5"/>
    <path d="M 107.723475 245.31618 
L 107.723475 232.014548 
" clip-path="url(#p6516719d43)" style="fill: none; stroke: #008000; stroke-width: 1.5"/>
    <path d="M 112.218297 265.793138 
L 112.218297 259.584457 
" clip-path="url(#p6516719d43)" style="fill: none; stroke: #008000; stroke-width: 1.5"/>
    <path d="M 116.713119 286.882806 
L 116.713119 283.136592 
" clip-path="url(#p6516719d43)" style="fill: none; stroke: #008000; stroke-width: 1.5"/>
    <path d="M 121.20794 300.455614 
L 121.20794 297.404409 
" clip-path="url(#p6516719d43)" style="fill: none; stroke: #008000; stroke-width: 1.5"/>
    <path d="M 125.702762 307.543072 
L 125.702762 304.735931 
" clip-path="url(#p6516719d43)" style="fill: none; stroke: #008000; stroke-width: 1.5"/>
    <path d="M 130.197583 310.590043 
L 130.197583 307.934356 
" clip-path="url(#p6516719d43)" style="fill: none; stroke: #008000; stroke-width: 1.5"/>
    <path d="M 134.692405 313.558894 
L 134.692405 311.002285 
" clip-path="url(#p6516719d43)" style="fill: none; stroke: #008000; stroke-width: 1.5"/>
    <path d="M 139.187227 315.008609 
L 139.187227 312.315094 
" clip-path="url(#p6516719d43)" style="fill: none; stroke: #008000; stroke-width: 1.5"/>
    <path d="M 143.682048 315.850391 
L 143.682048 312.877032 
" clip-path="url(#p6516719d43)" style="fill: none; stroke: #008000; stroke-width: 1.5"/>
    <path d="M 148.17687 314.945224 
L 148.17687 311.931803 
" clip-path="url(#p6516719d43)" style="fill: none; stroke: #008000; stroke-width: 1.5"/>
    <path d="M 152.671692 313.607072 
L 152.671692 310.526095 
" clip-path="url(#p6516719d43)" style="fill: none; stroke: #008000; stroke-width: 1.5"/>
    <path d="M 157.166513 313.384704 
L 157.166513 310.321042 
" clip-path="url(#p6516719d43)" style="fill: none; stroke: #008000; stroke-width: 1.5"/>
    <path d="M 161.661335 312.450733 
L 161.661335 309.363707 
" clip-path="url(#p6516719d43)" style="fill: none; stroke: #008000; stroke-width: 1.5"/>
    <path d="M 166.156157 312.034274 
L 166.156157 308.808317 
" clip-path="url(#p6516719d43)" style="fill: none; stroke: #008000; stroke-width: 1.5"/>
    <path d="M 170.650978 312.663951 
L 170.650978 309.354285 
" clip-path="url(#p6516719d43)" style="fill: none; stroke: #008000; stroke-width: 1.5"/>
    <path d="M 175.1458 312.459269 
L 175.1458 309.08509 
" clip-path="url(#p6516719d43)" style="fill: none; stroke: #008000; stroke-width: 1.5"/>
    <path d="M 179.640621 312.858095 
L 179.640621 309.463749 
" clip-path="url(#p6516719d43)" style="fill: none; stroke: #008000; stroke-width: 1.5"/>
    <path d="M 184.135443 313.661815 
L 184.135443 310.105594 
" clip-path="url(#p6516719d43)" style="fill: none; stroke: #008000; stroke-width: 1.5"/>
    <path d="M 188.630265 313.807816 
L 188.630265 310.047128 
" clip-path="url(#p6516719d43)" style="fill: none; stroke: #008000; stroke-width: 1.5"/>
    <path d="M 193.125086 313.422466 
L 193.125086 309.749286 
" clip-path="url(#p6516719d43)" style="fill: none; stroke: #008000; stroke-width: 1.5"/>
    <path d="M 197.619908 313.190955 
L 197.619908 309.56566 
" clip-path="url(#p6516719d43)" style="fill: none; stroke: #008000; stroke-width: 1.5"/>
    <path d="M 202.11473 312.611366 
L 202.11473 308.899087 
" clip-path="url(#p6516719d43)" style="fill: none; stroke: #008000; stroke-width: 1.5"/>
    <path d="M 206.609551 311.842434 
L 206.609551 308.167404 
" clip-path="url(#p6516719d43)" style="fill: none; stroke: #008000; stroke-width: 1.5"/>
    <path d="M 211.104373 311.754742 
L 211.104373 307.920765 
" clip-path="url(#p6516719d43)" style="fill: none; stroke: #008000; stroke-width: 1.5"/>
    <path d="M 215.599194 312.156619 
L 215.599194 308.350838 
" clip-path="url(#p6516719d43)" style="fill: none; stroke: #008000; stroke-width: 1.5"/>
    <path d="M 220.094016 312.823816 
L 220.094016 308.961192 
" clip-path="url(#p6516719d43)" style="fill: none; stroke: #008000; stroke-width: 1.5"/>
    <path d="M 224.588838 313.58043 
L 224.588838 309.654073 
" clip-path="url(#p6516719d43)" style="fill: none; stroke: #008000; stroke-width: 1.5"/>
    <path d="M 229.083659 314.382057 
L 229.083659 310.421809 
" clip-path="url(#p6516719d43)" style="fill: none; stroke: #008000; stroke-width: 1.5"/>
    <path d="M 233.578481 315.150908 
L 233.578481 311.138899 
" clip-path="url(#p6516719d43)" style="fill: none; stroke: #008000; stroke-width: 1.5"/>
    <path d="M 238.073303 316.078053 
L 238.073303 312.166404 
" clip-path="url(#p6516719d43)" style="fill: none; stroke: #008000; stroke-width: 1.5"/>
    <path d="M 242.568124 316.873035 
L 242.568124 312.773796 
" clip-path="url(#p6516719d43)" style="fill: none; stroke: #008000; stroke-width: 1.5"/>
    <path d="M 247.062946 317.932091 
L 247.062946 313.902904 
" clip-path="url(#p6516719d43)" style="fill: none; stroke: #008000; stroke-width: 1.5"/>
    <path d="M 251.557768 319.413881 
L 251.557768 315.352411 
" clip-path="url(#p6516719d43)" style="fill: none; stroke: #008000; stroke-width: 1.5"/>
    <path d="M 256.052589 320.927613 
L 256.052589 316.91845 
" clip-path="url(#p6516719d43)" style="fill: none; stroke: #008000; stroke-width: 1.5"/>
    <path d="M 260.547411 322.463976 
L 260.547411 318.380662 
" clip-path="url(#p6516719d43)" style="fill: none; stroke: #008000; stroke-width: 1.5"/>
    <path d="M 265.042232 323.944931 
L 265.042232 319.759444 
" clip-path="url(#p6516719d43)" style="fill: none; stroke: #008000; stroke-width: 1.5"/>
    <path d="M 269.537054 324.814605 
L 269.537054 320.721898 
" clip-path="url(#p6516719d43)" style="fill: none; stroke: #008000; stroke-width: 1.5"/>
    <path d="M 274.031876 325.664276 
L 274.031876 321.572128 
" clip-path="url(#p6516719d43)" style="fill: none; stroke: #008000; stroke-width: 1.5"/>
    <path d="M 278.526697 326.260082 
L 278.526697 321.981003 
" clip-path="url(#p6516719d43)" style="fill: none; stroke: #008000; stroke-width: 1.5"/>
    <path d="M 283.021519 327.172617 
L 283.021519 322.806309 
" clip-path="url(#p6516719d43)" style="fill: none; stroke: #008000; stroke-width: 1.5"/>
    <path d="M 287.516341 328.100593 
L 287.516341 323.646744 
" clip-path="url(#p6516719d43)" style="fill: none; stroke: #008000; stroke-width: 1.5"/>
    <path d="M 292.011162 328.846891 
L 292.011162 324.379237 
" clip-path="url(#p6516719d43)" style="fill: none; stroke: #008000; stroke-width: 1.5"/>
    <path d="M 296.505984 329.438582 
L 296.505984 325.130214 
" clip-path="url(#p6516719d43)" style="fill: none; stroke: #008000; stroke-width: 1.5"/>
    <path d="M 301.000806 330.553651 
L 301.000806 326.043659 
" clip-path="url(#p6516719d43)" style="fill: none; stroke: #008000; stroke-width: 1.5"/>
    <path d="M 305.495627 331.991117 
L 305.495627 327.552857 
" clip-path="url(#p6516719d43)" style="fill: none; stroke: #008000; stroke-width: 1.5"/>
    <path d="M 309.990449 333.216099 
L 309.990449 328.560677 
" clip-path="url(#p6516719d43)" style="fill: none; stroke: #008000; stroke-width: 1.5"/>
    <path d="M 314.48527 334.117284 
L 314.48527 329.656259 
" clip-path="url(#p6516719d43)" style="fill: none; stroke: #008000; stroke-width: 1.5"/>
    <path d="M 318.980092 335.443058 
L 318.980092 330.840214 
" clip-path="url(#p6516719d43)" style="fill: none; stroke: #008000; stroke-width: 1.5"/>
    <path d="M 323.474914 336.471446 
L 323.474914 331.793281 
" clip-path="url(#p6516719d43)" style="fill: none; stroke: #008000; stroke-width: 1.5"/>
    <path d="M 327.969735 337.564891 
L 327.969735 332.735215 
" clip-path="url(#p6516719d43)" style="fill: none; stroke: #008000; stroke-width: 1.5"/>
    <path d="M 332.464557 338.933323 
L 332.464557 334.12825 
" clip-path="url(#p6516719d43)" style="fill: none; stroke: #008000; stroke-width: 1.5"/>
    <path d="M 336.959379 340.682156 
L 336.959379 335.698145 
" clip-path="url(#p6516719d43)" style="fill: none; stroke: #008000; stroke-width: 1.5"/>
    <path d="M 341.4542 342.548417 
L 341.4542 337.451103 
" clip-path="url(#p6516719d43)" style="fill: none; stroke: #008000; stroke-width: 1.5"/>
    <path d="M 345.949022 344.232192 
L 345.949022 339.106149 
" clip-path="url(#p6516719d43)" style="fill: none; stroke: #008000; stroke-width: 1.5"/>
    <path d="M 350.443843 345.493209 
L 350.443843 340.325743 
" clip-path="url(#p6516719d43)" style="fill: none; stroke: #008000; stroke-width: 1.5"/>
    <path d="M 354.938665 346.726713 
L 354.938665 341.568403 
" clip-path="url(#p6516719d43)" style="fill: none; stroke: #008000; stroke-width: 1.5"/>
    <path d="M 359.433487 348.26691 
L 359.433487 343.120542 
" clip-path="url(#p6516719d43)" style="fill: none; stroke: #008000; stroke-width: 1.5"/>
    <path d="M 363.928308 349.628084 
L 363.928308 344.242864 
" clip-path="url(#p6516719d43)" style="fill: none; stroke: #008000; stroke-width: 1.5"/>
    <path d="M 368.42313 350.733715 
L 368.42313 345.505718 
" clip-path="url(#p6516719d43)" style="fill: none; stroke: #008000; stroke-width: 1.5"/>
    <path d="M 372.917952 352.056077 
L 372.917952 346.876749 
" clip-path="url(#p6516719d43)" style="fill: none; stroke: #008000; stroke-width: 1.5"/>
    <path d="M 377.412773 353.45078 
L 377.412773 348.167005 
" clip-path="url(#p6516719d43)" style="fill: none; stroke: #008000; stroke-width: 1.5"/>
    <path d="M 381.907595 354.734746 
L 381.907595 349.416738 
" clip-path="url(#p6516719d43)" style="fill: none; stroke: #008000; stroke-width: 1.5"/>
    <path d="M 386.402417 355.606411 
L 386.402417 349.957496 
" clip-path="url(#p6516719d43)" style="fill: none; stroke: #008000; stroke-width: 1.5"/>
    <path d="M 390.897238 357.078326 
L 390.897238 351.601887 
" clip-path="url(#p6516719d43)" style="fill: none; stroke: #008000; stroke-width: 1.5"/>
    <path d="M 395.39206 358.396349 
L 395.39206 352.865743 
" clip-path="url(#p6516719d43)" style="fill: none; stroke: #008000; stroke-width: 1.5"/>
    <path d="M 399.886881 359.983161 
L 399.886881 354.299308 
" clip-path="url(#p6516719d43)" style="fill: none; stroke: #008000; stroke-width: 1.5"/>
    <path d="M 404.381703 361.306321 
L 404.381703 355.444493 
" clip-path="url(#p6516719d43)" style="fill: none; stroke: #008000; stroke-width: 1.5"/>
    <path d="M 408.876525 362.500133 
L 408.876525 356.730492 
" clip-path="url(#p6516719d43)" style="fill: none; stroke: #008000; stroke-width: 1.5"/>
    <path d="M 413.371346 364.752517 
L 413.371346 359.211731 
" clip-path="url(#p6516719d43)" style="fill: none; stroke: #008000; stroke-width: 1.5"/>
    <path d="M 417.866168 366.190763 
L 417.866168 360.441132 
" clip-path="url(#p6516719d43)" style="fill: none; stroke: #008000; stroke-width: 1.5"/>
    <path d="M 422.36099 367.259653 
L 422.36099 361.66238 
" clip-path="url(#p6516719d43)" style="fill: none; stroke: #008000; stroke-width: 1.5"/>
    <path d="M 426.855811 368.554493 
L 426.855811 362.873334 
" clip-path="url(#p6516719d43)" style="fill: none; stroke: #008000; stroke-width: 1.5"/>
    <path d="M 431.350633 370.029634 
L 431.350633 364.13703 
" clip-path="url(#p6516719d43)" style="fill: none; stroke: #008000; stroke-width: 1.5"/>
    <path d="M 435.845455 371.769187 
L 435.845455 365.91339 
" clip-path="url(#p6516719d43)" style="fill: none; stroke: #008000; stroke-width: 1.5"/>
   </g>
   <g id="line2d_15">
    <defs>
     <path id="mcc7c528658" d="M 3 0 
L -3 -0 
" style="stroke: #008000"/>
    </defs>
    <g clip-path="url(#p6516719d43)">
     <use xlink:href="#mcc7c528658" x="80.754545" y="175.612099" style="fill: #008000; stroke: #008000"/>
     <use xlink:href="#mcc7c528658" x="85.249367" y="179.235641" style="fill: #008000; stroke: #008000"/>
     <use xlink:href="#mcc7c528658" x="89.744189" y="202.65063" style="fill: #008000; stroke: #008000"/>
     <use xlink:href="#mcc7c528658" x="94.23901" y="206.971097" style="fill: #008000; stroke: #008000"/>
     <use xlink:href="#mcc7c528658" x="98.733832" y="226.659066" style="fill: #008000; stroke: #008000"/>
     <use xlink:href="#mcc7c528658" x="103.228654" y="205.691014" style="fill: #008000; stroke: #008000"/>
     <use xlink:href="#mcc7c528658" x="107.723475" y="245.31618" style="fill: #008000; stroke: #008000"/>
     <use xlink:href="#mcc7c528658" x="112.218297" y="265.793138" style="fill: #008000; stroke: #008000"/>
     <use xlink:href="#mcc7c528658" x="116.713119" y="286.882806" style="fill: #008000; stroke: #008000"/>
     <use xlink:href="#mcc7c528658" x="121.20794" y="300.455614" style="fill: #008000; stroke: #008000"/>
     <use xlink:href="#mcc7c528658" x="125.702762" y="307.543072" style="fill: #008000; stroke: #008000"/>
     <use xlink:href="#mcc7c528658" x="130.197583" y="310.590043" style="fill: #008000; stroke: #008000"/>
     <use xlink:href="#mcc7c528658" x="134.692405" y="313.558894" style="fill: #008000; stroke: #008000"/>
     <use xlink:href="#mcc7c528658" x="139.187227" y="315.008609" style="fill: #008000; stroke: #008000"/>
     <use xlink:href="#mcc7c528658" x="143.682048" y="315.850391" style="fill: #008000; stroke: #008000"/>
     <use xlink:href="#mcc7c528658" x="148.17687" y="314.945224" style="fill: #008000; stroke: #008000"/>
     <use xlink:href="#mcc7c528658" x="152.671692" y="313.607072" style="fill: #008000; stroke: #008000"/>
     <use xlink:href="#mcc7c528658" x="157.166513" y="313.384704" style="fill: #008000; stroke: #008000"/>
     <use xlink:href="#mcc7c528658" x="161.661335" y="312.450733" style="fill: #008000; stroke: #008000"/>
     <use xlink:href="#mcc7c528658" x="166.156157" y="312.034274" style="fill: #008000; stroke: #008000"/>
     <use xlink:href="#mcc7c528658" x="170.650978" y="312.663951" style="fill: #008000; stroke: #008000"/>
     <use xlink:href="#mcc7c528658" x="175.1458" y="312.459269" style="fill: #008000; stroke: #008000"/>
     <use xlink:href="#mcc7c528658" x="179.640621" y="312.858095" style="fill: #008000; stroke: #008000"/>
     <use xlink:href="#mcc7c528658" x="184.135443" y="313.661815" style="fill: #008000; stroke: #008000"/>
     <use xlink:href="#mcc7c528658" x="188.630265" y="313.807816" style="fill: #008000; stroke: #008000"/>
     <use xlink:href="#mcc7c528658" x="193.125086" y="313.422466" style="fill: #008000; stroke: #008000"/>
     <use xlink:href="#mcc7c528658" x="197.619908" y="313.190955" style="fill: #008000; stroke: #008000"/>
     <use xlink:href="#mcc7c528658" x="202.11473" y="312.611366" style="fill: #008000; stroke: #008000"/>
     <use xlink:href="#mcc7c528658" x="206.609551" y="311.842434" style="fill: #008000; stroke: #008000"/>
     <use xlink:href="#mcc7c528658" x="211.104373" y="311.754742" style="fill: #008000; stroke: #008000"/>
     <use xlink:href="#mcc7c528658" x="215.599194" y="312.156619" style="fill: #008000; stroke: #008000"/>
     <use xlink:href="#mcc7c528658" x="220.094016" y="312.823816" style="fill: #008000; stroke: #008000"/>
     <use xlink:href="#mcc7c528658" x="224.588838" y="313.58043" style="fill: #008000; stroke: #008000"/>
     <use xlink:href="#mcc7c528658" x="229.083659" y="314.382057" style="fill: #008000; stroke: #008000"/>
     <use xlink:href="#mcc7c528658" x="233.578481" y="315.150908" style="fill: #008000; stroke: #008000"/>
     <use xlink:href="#mcc7c528658" x="238.073303" y="316.078053" style="fill: #008000; stroke: #008000"/>
     <use xlink:href="#mcc7c528658" x="242.568124" y="316.873035" style="fill: #008000; stroke: #008000"/>
     <use xlink:href="#mcc7c528658" x="247.062946" y="317.932091" style="fill: #008000; stroke: #008000"/>
     <use xlink:href="#mcc7c528658" x="251.557768" y="319.413881" style="fill: #008000; stroke: #008000"/>
     <use xlink:href="#mcc7c528658" x="256.052589" y="320.927613" style="fill: #008000; stroke: #008000"/>
     <use xlink:href="#mcc7c528658" x="260.547411" y="322.463976" style="fill: #008000; stroke: #008000"/>
     <use xlink:href="#mcc7c528658" x="265.042232" y="323.944931" style="fill: #008000; stroke: #008000"/>
     <use xlink:href="#mcc7c528658" x="269.537054" y="324.814605" style="fill: #008000; stroke: #008000"/>
     <use xlink:href="#mcc7c528658" x="274.031876" y="325.664276" style="fill: #008000; stroke: #008000"/>
     <use xlink:href="#mcc7c528658" x="278.526697" y="326.260082" style="fill: #008000; stroke: #008000"/>
     <use xlink:href="#mcc7c528658" x="283.021519" y="327.172617" style="fill: #008000; stroke: #008000"/>
     <use xlink:href="#mcc7c528658" x="287.516341" y="328.100593" style="fill: #008000; stroke: #008000"/>
     <use xlink:href="#mcc7c528658" x="292.011162" y="328.846891" style="fill: #008000; stroke: #008000"/>
     <use xlink:href="#mcc7c528658" x="296.505984" y="329.438582" style="fill: #008000; stroke: #008000"/>
     <use xlink:href="#mcc7c528658" x="301.000806" y="330.553651" style="fill: #008000; stroke: #008000"/>
     <use xlink:href="#mcc7c528658" x="305.495627" y="331.991117" style="fill: #008000; stroke: #008000"/>
     <use xlink:href="#mcc7c528658" x="309.990449" y="333.216099" style="fill: #008000; stroke: #008000"/>
     <use xlink:href="#mcc7c528658" x="314.48527" y="334.117284" style="fill: #008000; stroke: #008000"/>
     <use xlink:href="#mcc7c528658" x="318.980092" y="335.443058" style="fill: #008000; stroke: #008000"/>
     <use xlink:href="#mcc7c528658" x="323.474914" y="336.471446" style="fill: #008000; stroke: #008000"/>
     <use xlink:href="#mcc7c528658" x="327.969735" y="337.564891" style="fill: #008000; stroke: #008000"/>
     <use xlink:href="#mcc7c528658" x="332.464557" y="338.933323" style="fill: #008000; stroke: #008000"/>
     <use xlink:href="#mcc7c528658" x="336.959379" y="340.682156" style="fill: #008000; stroke: #008000"/>
     <use xlink:href="#mcc7c528658" x="341.4542" y="342.548417" style="fill: #008000; stroke: #008000"/>
     <use xlink:href="#mcc7c528658" x="345.949022" y="344.232192" style="fill: #008000; stroke: #008000"/>
     <use xlink:href="#mcc7c528658" x="350.443843" y="345.493209" style="fill: #008000; stroke: #008000"/>
     <use xlink:href="#mcc7c528658" x="354.938665" y="346.726713" style="fill: #008000; stroke: #008000"/>
     <use xlink:href="#mcc7c528658" x="359.433487" y="348.26691" style="fill: #008000; stroke: #008000"/>
     <use xlink:href="#mcc7c528658" x="363.928308" y="349.628084" style="fill: #008000; stroke: #008000"/>
     <use xlink:href="#mcc7c528658" x="368.42313" y="350.733715" style="fill: #008000; stroke: #008000"/>
     <use xlink:href="#mcc7c528658" x="372.917952" y="352.056077" style="fill: #008000; stroke: #008000"/>
     <use xlink:href="#mcc7c528658" x="377.412773" y="353.45078" style="fill: #008000; stroke: #008000"/>
     <use xlink:href="#mcc7c528658" x="381.907595" y="354.734746" style="fill: #008000; stroke: #008000"/>
     <use xlink:href="#mcc7c528658" x="386.402417" y="355.606411" style="fill: #008000; stroke: #008000"/>
     <use xlink:href="#mcc7c528658" x="390.897238" y="357.078326" style="fill: #008000; stroke: #008000"/>
     <use xlink:href="#mcc7c528658" x="395.39206" y="358.396349" style="fill: #008000; stroke: #008000"/>
     <use xlink:href="#mcc7c528658" x="399.886881" y="359.983161" style="fill: #008000; stroke: #008000"/>
     <use xlink:href="#mcc7c528658" x="404.381703" y="361.306321" style="fill: #008000; stroke: #008000"/>
     <use xlink:href="#mcc7c528658" x="408.876525" y="362.500133" style="fill: #008000; stroke: #008000"/>
     <use xlink:href="#mcc7c528658" x="413.371346" y="364.752517" style="fill: #008000; stroke: #008000"/>
     <use xlink:href="#mcc7c528658" x="417.866168" y="366.190763" style="fill: #008000; stroke: #008000"/>
     <use xlink:href="#mcc7c528658" x="422.36099" y="367.259653" style="fill: #008000; stroke: #008000"/>
     <use xlink:href="#mcc7c528658" x="426.855811" y="368.554493" style="fill: #008000; stroke: #008000"/>
     <use xlink:href="#mcc7c528658" x="431.350633" y="370.029634" style="fill: #008000; stroke: #008000"/>
     <use xlink:href="#mcc7c528658" x="435.845455" y="371.769187" style="fill: #008000; stroke: #008000"/>
    </g>
   </g>
   <g id="line2d_16">
    <g clip-path="url(#p6516719d43)">
     <use xlink:href="#mcc7c528658" x="80.754545" y="172.616886" style="fill: #008000; stroke: #008000"/>
     <use xlink:href="#mcc7c528658" x="85.249367" y="176.058815" style="fill: #008000; stroke: #008000"/>
     <use xlink:href="#mcc7c528658" x="89.744189" y="116.51754" style="fill: #008000; stroke: #008000"/>
     <use xlink:href="#mcc7c528658" x="94.23901" y="113.147112" style="fill: #008000; stroke: #008000"/>
     <use xlink:href="#mcc7c528658" x="98.733832" y="159.622717" style="fill: #008000; stroke: #008000"/>
     <use xlink:href="#mcc7c528658" x="103.228654" y="197.166471" style="fill: #008000; stroke: #008000"/>
     <use xlink:href="#mcc7c528658" x="107.723475" y="232.014548" style="fill: #008000; stroke: #008000"/>
     <use xlink:href="#mcc7c528658" x="112.218297" y="259.584457" style="fill: #008000; stroke: #008000"/>
     <use xlink:href="#mcc7c528658" x="116.713119" y="283.136592" style="fill: #008000; stroke: #008000"/>
     <use xlink:href="#mcc7c528658" x="121.20794" y="297.404409" style="fill: #008000; stroke: #008000"/>
     <use xlink:href="#mcc7c528658" x="125.702762" y="304.735931" style="fill: #008000; stroke: #008000"/>
     <use xlink:href="#mcc7c528658" x="130.197583" y="307.934356" style="fill: #008000; stroke: #008000"/>
     <use xlink:href="#mcc7c528658" x="134.692405" y="311.002285" style="fill: #008000; stroke: #008000"/>
     <use xlink:href="#mcc7c528658" x="139.187227" y="312.315094" style="fill: #008000; stroke: #008000"/>
     <use xlink:href="#mcc7c528658" x="143.682048" y="312.877032" style="fill: #008000; stroke: #008000"/>
     <use xlink:href="#mcc7c528658" x="148.17687" y="311.931803" style="fill: #008000; stroke: #008000"/>
     <use xlink:href="#mcc7c528658" x="152.671692" y="310.526095" style="fill: #008000; stroke: #008000"/>
     <use xlink:href="#mcc7c528658" x="157.166513" y="310.321042" style="fill: #008000; stroke: #008000"/>
     <use xlink:href="#mcc7c528658" x="161.661335" y="309.363707" style="fill: #008000; stroke: #008000"/>
     <use xlink:href="#mcc7c528658" x="166.156157" y="308.808317" style="fill: #008000; stroke: #008000"/>
     <use xlink:href="#mcc7c528658" x="170.650978" y="309.354285" style="fill: #008000; stroke: #008000"/>
     <use xlink:href="#mcc7c528658" x="175.1458" y="309.08509" style="fill: #008000; stroke: #008000"/>
     <use xlink:href="#mcc7c528658" x="179.640621" y="309.463749" style="fill: #008000; stroke: #008000"/>
     <use xlink:href="#mcc7c528658" x="184.135443" y="310.105594" style="fill: #008000; stroke: #008000"/>
     <use xlink:href="#mcc7c528658" x="188.630265" y="310.047128" style="fill: #008000; stroke: #008000"/>
     <use xlink:href="#mcc7c528658" x="193.125086" y="309.749286" style="fill: #008000; stroke: #008000"/>
     <use xlink:href="#mcc7c528658" x="197.619908" y="309.56566" style="fill: #008000; stroke: #008000"/>
     <use xlink:href="#mcc7c528658" x="202.11473" y="308.899087" style="fill: #008000; stroke: #008000"/>
     <use xlink:href="#mcc7c528658" x="206.609551" y="308.167404" style="fill: #008000; stroke: #008000"/>
     <use xlink:href="#mcc7c528658" x="211.104373" y="307.920765" style="fill: #008000; stroke: #008000"/>
     <use xlink:href="#mcc7c528658" x="215.599194" y="308.350838" style="fill: #008000; stroke: #008000"/>
     <use xlink:href="#mcc7c528658" x="220.094016" y="308.961192" style="fill: #008000; stroke: #008000"/>
     <use xlink:href="#mcc7c528658" x="224.588838" y="309.654073" style="fill: #008000; stroke: #008000"/>
     <use xlink:href="#mcc7c528658" x="229.083659" y="310.421809" style="fill: #008000; stroke: #008000"/>
     <use xlink:href="#mcc7c528658" x="233.578481" y="311.138899" style="fill: #008000; stroke: #008000"/>
     <use xlink:href="#mcc7c528658" x="238.073303" y="312.166404" style="fill: #008000; stroke: #008000"/>
     <use xlink:href="#mcc7c528658" x="242.568124" y="312.773796" style="fill: #008000; stroke: #008000"/>
     <use xlink:href="#mcc7c528658" x="247.062946" y="313.902904" style="fill: #008000; stroke: #008000"/>
     <use xlink:href="#mcc7c528658" x="251.557768" y="315.352411" style="fill: #008000; stroke: #008000"/>
     <use xlink:href="#mcc7c528658" x="256.052589" y="316.91845" style="fill: #008000; stroke: #008000"/>
     <use xlink:href="#mcc7c528658" x="260.547411" y="318.380662" style="fill: #008000; stroke: #008000"/>
     <use xlink:href="#mcc7c528658" x="265.042232" y="319.759444" style="fill: #008000; stroke: #008000"/>
     <use xlink:href="#mcc7c528658" x="269.537054" y="320.721898" style="fill: #008000; stroke: #008000"/>
     <use xlink:href="#mcc7c528658" x="274.031876" y="321.572128" style="fill: #008000; stroke: #008000"/>
     <use xlink:href="#mcc7c528658" x="278.526697" y="321.981003" style="fill: #008000; stroke: #008000"/>
     <use xlink:href="#mcc7c528658" x="283.021519" y="322.806309" style="fill: #008000; stroke: #008000"/>
     <use xlink:href="#mcc7c528658" x="287.516341" y="323.646744" style="fill: #008000; stroke: #008000"/>
     <use xlink:href="#mcc7c528658" x="292.011162" y="324.379237" style="fill: #008000; stroke: #008000"/>
     <use xlink:href="#mcc7c528658" x="296.505984" y="325.130214" style="fill: #008000; stroke: #008000"/>
     <use xlink:href="#mcc7c528658" x="301.000806" y="326.043659" style="fill: #008000; stroke: #008000"/>
     <use xlink:href="#mcc7c528658" x="305.495627" y="327.552857" style="fill: #008000; stroke: #008000"/>
     <use xlink:href="#mcc7c528658" x="309.990449" y="328.560677" style="fill: #008000; stroke: #008000"/>
     <use xlink:href="#mcc7c528658" x="314.48527" y="329.656259" style="fill: #008000; stroke: #008000"/>
     <use xlink:href="#mcc7c528658" x="318.980092" y="330.840214" style="fill: #008000; stroke: #008000"/>
     <use xlink:href="#mcc7c528658" x="323.474914" y="331.793281" style="fill: #008000; stroke: #008000"/>
     <use xlink:href="#mcc7c528658" x="327.969735" y="332.735215" style="fill: #008000; stroke: #008000"/>
     <use xlink:href="#mcc7c528658" x="332.464557" y="334.12825" style="fill: #008000; stroke: #008000"/>
     <use xlink:href="#mcc7c528658" x="336.959379" y="335.698145" style="fill: #008000; stroke: #008000"/>
     <use xlink:href="#mcc7c528658" x="341.4542" y="337.451103" style="fill: #008000; stroke: #008000"/>
     <use xlink:href="#mcc7c528658" x="345.949022" y="339.106149" style="fill: #008000; stroke: #008000"/>
     <use xlink:href="#mcc7c528658" x="350.443843" y="340.325743" style="fill: #008000; stroke: #008000"/>
     <use xlink:href="#mcc7c528658" x="354.938665" y="341.568403" style="fill: #008000; stroke: #008000"/>
     <use xlink:href="#mcc7c528658" x="359.433487" y="343.120542" style="fill: #008000; stroke: #008000"/>
     <use xlink:href="#mcc7c528658" x="363.928308" y="344.242864" style="fill: #008000; stroke: #008000"/>
     <use xlink:href="#mcc7c528658" x="368.42313" y="345.505718" style="fill: #008000; stroke: #008000"/>
     <use xlink:href="#mcc7c528658" x="372.917952" y="346.876749" style="fill: #008000; stroke: #008000"/>
     <use xlink:href="#mcc7c528658" x="377.412773" y="348.167005" style="fill: #008000; stroke: #008000"/>
     <use xlink:href="#mcc7c528658" x="381.907595" y="349.416738" style="fill: #008000; stroke: #008000"/>
     <use xlink:href="#mcc7c528658" x="386.402417" y="349.957496" style="fill: #008000; stroke: #008000"/>
     <use xlink:href="#mcc7c528658" x="390.897238" y="351.601887" style="fill: #008000; stroke: #008000"/>
     <use xlink:href="#mcc7c528658" x="395.39206" y="352.865743" style="fill: #008000; stroke: #008000"/>
     <use xlink:href="#mcc7c528658" x="399.886881" y="354.299308" style="fill: #008000; stroke: #008000"/>
     <use xlink:href="#mcc7c528658" x="404.381703" y="355.444493" style="fill: #008000; stroke: #008000"/>
     <use xlink:href="#mcc7c528658" x="408.876525" y="356.730492" style="fill: #008000; stroke: #008000"/>
     <use xlink:href="#mcc7c528658" x="413.371346" y="359.211731" style="fill: #008000; stroke: #008000"/>
     <use xlink:href="#mcc7c528658" x="417.866168" y="360.441132" style="fill: #008000; stroke: #008000"/>
     <use xlink:href="#mcc7c528658" x="422.36099" y="361.66238" style="fill: #008000; stroke: #008000"/>
     <use xlink:href="#mcc7c528658" x="426.855811" y="362.873334" style="fill: #008000; stroke: #008000"/>
     <use xlink:href="#mcc7c528658" x="431.350633" y="364.13703" style="fill: #008000; stroke: #008000"/>
     <use xlink:href="#mcc7c528658" x="435.845455" y="365.91339" style="fill: #008000; stroke: #008000"/>
    </g>
   </g>
   <g id="line2d_17">
    <path d="M 80.754545 75.119946 
L 85.249367 66.264439 
L 89.744189 68.536576 
L 94.23901 82.15801 
L 98.733832 249.237798 
L 103.228654 262.425769 
L 107.723475 265.903471 
L 112.218297 264.611801 
L 116.713119 272.467798 
L 121.20794 286.471654 
L 125.702762 296.393554 
L 130.197583 303.780411 
L 134.692405 309.047273 
L 139.187227 311.16969 
L 143.682048 312.921894 
L 148.17687 313.503698 
L 152.671692 313.216563 
L 157.166513 313.566387 
L 161.661335 314.226494 
L 166.156157 314.748612 
L 170.650978 314.041325 
L 175.1458 314.17247 
L 179.640621 315.187139 
L 184.135443 315.605566 
L 188.630265 316.116731 
L 193.125086 316.580109 
L 197.619908 317.489653 
L 202.11473 318.559336 
L 206.609551 319.200546 
L 211.104373 319.780671 
L 215.599194 320.93337 
L 220.094016 321.640728 
L 224.588838 322.270557 
L 229.083659 322.585279 
L 233.578481 322.836437 
L 238.073303 323.19127 
L 242.568124 324.899448 
L 247.062946 328.456921 
L 251.557768 331.661734 
L 256.052589 334.415016 
L 260.547411 336.8081 
L 265.042232 339.047694 
L 269.537054 340.985811 
L 274.031876 342.877569 
L 278.526697 344.663288 
L 283.021519 346.26372 
L 287.516341 347.808457 
L 292.011162 349.26082 
L 296.505984 350.93614 
L 301.000806 352.69588 
" clip-path="url(#p6516719d43)" style="fill: none; stroke: #ff7f0e; stroke-width: 1.5; stroke-linecap: square"/>
    <defs>
     <path id="ma7750082ec" d="M 0 1.5 
C 0.397805 1.5 0.77937 1.341951 1.06066 1.06066 
C 1.341951 0.77937 1.5 0.397805 1.5 0 
C 1.5 -0.397805 1.341951 -0.77937 1.06066 -1.06066 
C 0.77937 -1.341951 0.397805 -1.5 0 -1.5 
C -0.397805 -1.5 -0.77937 -1.341951 -1.06066 -1.06066 
C -1.341951 -0.77937 -1.5 -0.397805 -1.5 0 
C -1.5 0.397805 -1.341951 0.77937 -1.06066 1.06066 
C -0.77937 1.341951 -0.397805 1.5 0 1.5 
z
" style="stroke: #ff7f0e"/>
    </defs>
    <g clip-path="url(#p6516719d43)">
     <use xlink:href="#ma7750082ec" x="80.754545" y="75.119946" style="fill: #ff7f0e; stroke: #ff7f0e"/>
     <use xlink:href="#ma7750082ec" x="85.249367" y="66.264439" style="fill: #ff7f0e; stroke: #ff7f0e"/>
     <use xlink:href="#ma7750082ec" x="89.744189" y="68.536576" style="fill: #ff7f0e; stroke: #ff7f0e"/>
     <use xlink:href="#ma7750082ec" x="94.23901" y="82.15801" style="fill: #ff7f0e; stroke: #ff7f0e"/>
     <use xlink:href="#ma7750082ec" x="98.733832" y="249.237798" style="fill: #ff7f0e; stroke: #ff7f0e"/>
     <use xlink:href="#ma7750082ec" x="103.228654" y="262.425769" style="fill: #ff7f0e; stroke: #ff7f0e"/>
     <use xlink:href="#ma7750082ec" x="107.723475" y="265.903471" style="fill: #ff7f0e; stroke: #ff7f0e"/>
     <use xlink:href="#ma7750082ec" x="112.218297" y="264.611801" style="fill: #ff7f0e; stroke: #ff7f0e"/>
     <use xlink:href="#ma7750082ec" x="116.713119" y="272.467798" style="fill: #ff7f0e; stroke: #ff7f0e"/>
     <use xlink:href="#ma7750082ec" x="121.20794" y="286.471654" style="fill: #ff7f0e; stroke: #ff7f0e"/>
     <use xlink:href="#ma7750082ec" x="125.702762" y="296.393554" style="fill: #ff7f0e; stroke: #ff7f0e"/>
     <use xlink:href="#ma7750082ec" x="130.197583" y="303.780411" style="fill: #ff7f0e; stroke: #ff7f0e"/>
     <use xlink:href="#ma7750082ec" x="134.692405" y="309.047273" style="fill: #ff7f0e; stroke: #ff7f0e"/>
     <use xlink:href="#ma7750082ec" x="139.187227" y="311.16969" style="fill: #ff7f0e; stroke: #ff7f0e"/>
     <use xlink:href="#ma7750082ec" x="143.682048" y="312.921894" style="fill: #ff7f0e; stroke: #ff7f0e"/>
     <use xlink:href="#ma7750082ec" x="148.17687" y="313.503698" style="fill: #ff7f0e; stroke: #ff7f0e"/>
     <use xlink:href="#ma7750082ec" x="152.671692" y="313.216563" style="fill: #ff7f0e; stroke: #ff7f0e"/>
     <use xlink:href="#ma7750082ec" x="157.166513" y="313.566387" style="fill: #ff7f0e; stroke: #ff7f0e"/>
     <use xlink:href="#ma7750082ec" x="161.661335" y="314.226494" style="fill: #ff7f0e; stroke: #ff7f0e"/>
     <use xlink:href="#ma7750082ec" x="166.156157" y="314.748612" style="fill: #ff7f0e; stroke: #ff7f0e"/>
     <use xlink:href="#ma7750082ec" x="170.650978" y="314.041325" style="fill: #ff7f0e; stroke: #ff7f0e"/>
     <use xlink:href="#ma7750082ec" x="175.1458" y="314.17247" style="fill: #ff7f0e; stroke: #ff7f0e"/>
     <use xlink:href="#ma7750082ec" x="179.640621" y="315.187139" style="fill: #ff7f0e; stroke: #ff7f0e"/>
     <use xlink:href="#ma7750082ec" x="184.135443" y="315.605566" style="fill: #ff7f0e; stroke: #ff7f0e"/>
     <use xlink:href="#ma7750082ec" x="188.630265" y="316.116731" style="fill: #ff7f0e; stroke: #ff7f0e"/>
     <use xlink:href="#ma7750082ec" x="193.125086" y="316.580109" style="fill: #ff7f0e; stroke: #ff7f0e"/>
     <use xlink:href="#ma7750082ec" x="197.619908" y="317.489653" style="fill: #ff7f0e; stroke: #ff7f0e"/>
     <use xlink:href="#ma7750082ec" x="202.11473" y="318.559336" style="fill: #ff7f0e; stroke: #ff7f0e"/>
     <use xlink:href="#ma7750082ec" x="206.609551" y="319.200546" style="fill: #ff7f0e; stroke: #ff7f0e"/>
     <use xlink:href="#ma7750082ec" x="211.104373" y="319.780671" style="fill: #ff7f0e; stroke: #ff7f0e"/>
     <use xlink:href="#ma7750082ec" x="215.599194" y="320.93337" style="fill: #ff7f0e; stroke: #ff7f0e"/>
     <use xlink:href="#ma7750082ec" x="220.094016" y="321.640728" style="fill: #ff7f0e; stroke: #ff7f0e"/>
     <use xlink:href="#ma7750082ec" x="224.588838" y="322.270557" style="fill: #ff7f0e; stroke: #ff7f0e"/>
     <use xlink:href="#ma7750082ec" x="229.083659" y="322.585279" style="fill: #ff7f0e; stroke: #ff7f0e"/>
     <use xlink:href="#ma7750082ec" x="233.578481" y="322.836437" style="fill: #ff7f0e; stroke: #ff7f0e"/>
     <use xlink:href="#ma7750082ec" x="238.073303" y="323.19127" style="fill: #ff7f0e; stroke: #ff7f0e"/>
     <use xlink:href="#ma7750082ec" x="242.568124" y="324.899448" style="fill: #ff7f0e; stroke: #ff7f0e"/>
     <use xlink:href="#ma7750082ec" x="247.062946" y="328.456921" style="fill: #ff7f0e; stroke: #ff7f0e"/>
     <use xlink:href="#ma7750082ec" x="251.557768" y="331.661734" style="fill: #ff7f0e; stroke: #ff7f0e"/>
     <use xlink:href="#ma7750082ec" x="256.052589" y="334.415016" style="fill: #ff7f0e; stroke: #ff7f0e"/>
     <use xlink:href="#ma7750082ec" x="260.547411" y="336.8081" style="fill: #ff7f0e; stroke: #ff7f0e"/>
     <use xlink:href="#ma7750082ec" x="265.042232" y="339.047694" style="fill: #ff7f0e; stroke: #ff7f0e"/>
     <use xlink:href="#ma7750082ec" x="269.537054" y="340.985811" style="fill: #ff7f0e; stroke: #ff7f0e"/>
     <use xlink:href="#ma7750082ec" x="274.031876" y="342.877569" style="fill: #ff7f0e; stroke: #ff7f0e"/>
     <use xlink:href="#ma7750082ec" x="278.526697" y="344.663288" style="fill: #ff7f0e; stroke: #ff7f0e"/>
     <use xlink:href="#ma7750082ec" x="283.021519" y="346.26372" style="fill: #ff7f0e; stroke: #ff7f0e"/>
     <use xlink:href="#ma7750082ec" x="287.516341" y="347.808457" style="fill: #ff7f0e; stroke: #ff7f0e"/>
     <use xlink:href="#ma7750082ec" x="292.011162" y="349.26082" style="fill: #ff7f0e; stroke: #ff7f0e"/>
     <use xlink:href="#ma7750082ec" x="296.505984" y="350.93614" style="fill: #ff7f0e; stroke: #ff7f0e"/>
     <use xlink:href="#ma7750082ec" x="301.000806" y="352.69588" style="fill: #ff7f0e; stroke: #ff7f0e"/>
    </g>
   </g>
   <g id="line2d_18">
    <path d="M 80.754545 172.302492 
L 85.249367 175.835228 
L 89.744189 157.772085 
L 94.23901 158.247105 
L 98.733832 191.328891 
L 103.228654 199.616742 
L 107.723475 236.853364 
L 112.218297 260.876798 
L 116.713119 283.197699 
L 121.20794 297.118011 
L 125.702762 304.327502 
L 130.197583 307.450199 
L 134.692405 310.468589 
L 139.187227 311.849851 
L 143.682048 312.551712 
L 148.17687 311.626514 
L 152.671692 310.254583 
L 157.166513 310.040873 
L 161.661335 309.09522 
L 166.156157 308.609296 
L 170.650978 309.197118 
L 175.1458 308.96018 
L 179.640621 309.348922 
L 184.135443 310.071705 
L 188.630265 310.115472 
L 193.125086 309.773876 
L 197.619908 309.566307 
L 202.11473 308.943227 
L 206.609551 308.192919 
L 211.104373 308.025753 
L 215.599194 308.441728 
L 220.094016 309.080504 
L 224.588838 309.805251 
L 229.083659 310.589933 
L 233.578481 311.332903 
L 238.073303 312.310229 
L 242.568124 313.011415 
L 247.062946 314.105498 
L 251.557768 315.571146 
L 256.052589 317.111032 
L 260.547411 318.610319 
L 265.042232 320.040188 
L 269.537054 320.956252 
L 274.031876 321.806202 
L 278.526697 322.308542 
L 283.021519 323.177463 
L 287.516341 324.061668 
L 292.011162 324.801064 
L 296.505984 325.472398 
L 301.000806 326.486655 
L 305.495627 327.959987 
L 309.990449 329.076388 
L 314.48527 330.074772 
L 318.980092 331.329636 
L 323.474914 332.320364 
L 327.969735 333.338053 
L 332.464557 334.718786 
L 336.959379 336.378151 
L 341.4542 338.18776 
L 345.949022 339.85717 
L 350.443843 341.097476 
L 354.938665 342.335558 
L 359.433487 343.881726 
L 363.928308 345.123474 
L 368.42313 346.307717 
L 372.917952 347.654413 
L 377.412773 348.996892 
L 381.907595 350.263742 
L 386.402417 350.969954 
L 390.897238 352.528106 
L 395.39206 353.819046 
L 399.886881 355.329235 
L 404.381703 356.563407 
L 408.876525 357.803313 
L 413.371346 360.170124 
L 417.866168 361.503947 
L 422.36099 362.649016 
L 426.855811 363.901913 
L 431.350633 365.271332 
L 435.845455 367.029289 
" clip-path="url(#p6516719d43)" style="fill: none; stroke: #1f77b4; stroke-width: 1.5; stroke-linecap: square"/>
   </g>
   <g id="line2d_19">
    <path d="M 80.754545 175.926492 
L 85.249367 179.459228 
L 89.744189 161.396085 
L 94.23901 161.871105 
L 98.733832 194.952891 
L 103.228654 203.240742 
L 107.723475 240.477364 
L 112.218297 264.500798 
L 116.713119 286.821699 
L 121.20794 300.742011 
L 125.702762 307.951502 
L 130.197583 311.074199 
L 134.692405 314.092589 
L 139.187227 315.473851 
L 143.682048 316.175712 
L 148.17687 315.250514 
L 152.671692 313.878583 
L 157.166513 313.664873 
L 161.661335 312.71922 
L 166.156157 312.233296 
L 170.650978 312.821118 
L 175.1458 312.58418 
L 179.640621 312.972922 
L 184.135443 313.695705 
L 188.630265 313.739472 
L 193.125086 313.397876 
L 197.619908 313.190307 
L 202.11473 312.567227 
L 206.609551 311.816919 
L 211.104373 311.649753 
L 215.599194 312.065728 
L 220.094016 312.704504 
L 224.588838 313.429251 
L 229.083659 314.213933 
L 233.578481 314.956903 
L 238.073303 315.934229 
L 242.568124 316.635415 
L 247.062946 317.729498 
L 251.557768 319.195146 
L 256.052589 320.735032 
L 260.547411 322.234319 
L 265.042232 323.664188 
L 269.537054 324.580252 
L 274.031876 325.430202 
L 278.526697 325.932542 
L 283.021519 326.801463 
L 287.516341 327.685668 
L 292.011162 328.425064 
L 296.505984 329.096398 
L 301.000806 330.110655 
L 305.495627 331.583987 
L 309.990449 332.700388 
L 314.48527 333.698772 
L 318.980092 334.953636 
L 323.474914 335.944364 
L 327.969735 336.962053 
L 332.464557 338.342786 
L 336.959379 340.002151 
L 341.4542 341.81176 
L 345.949022 343.48117 
L 350.443843 344.721476 
L 354.938665 345.959558 
L 359.433487 347.505726 
L 363.928308 348.747474 
L 368.42313 349.931717 
L 372.917952 351.278413 
L 377.412773 352.620892 
L 381.907595 353.887742 
L 386.402417 354.593954 
L 390.897238 356.152106 
L 395.39206 357.443046 
L 399.886881 358.953235 
L 404.381703 360.187407 
L 408.876525 361.427313 
L 413.371346 363.794124 
L 417.866168 365.127947 
L 422.36099 366.273016 
L 426.855811 367.525913 
L 431.350633 368.895332 
L 435.845455 370.653289 
" clip-path="url(#p6516719d43)" style="fill: none; stroke: #1f77b4; stroke-width: 1.5; stroke-linecap: square"/>
   </g>
   <g id="line2d_20">
    <path d="M 80.754545 174.114492 
L 85.249367 177.647228 
L 89.744189 159.584085 
L 94.23901 160.059105 
L 98.733832 193.140891 
L 103.228654 201.428742 
L 107.723475 238.665364 
L 112.218297 262.688798 
L 116.713119 285.009699 
L 121.20794 298.930011 
L 125.702762 306.139502 
L 130.197583 309.262199 
L 134.692405 312.280589 
L 139.187227 313.661851 
L 143.682048 314.363712 
L 148.17687 313.438514 
L 152.671692 312.066583 
L 157.166513 311.852873 
L 161.661335 310.90722 
L 166.156157 310.421296 
L 170.650978 311.009118 
L 175.1458 310.77218 
L 179.640621 311.160922 
L 184.135443 311.883705 
L 188.630265 311.927472 
L 193.125086 311.585876 
L 197.619908 311.378307 
L 202.11473 310.755227 
L 206.609551 310.004919 
L 211.104373 309.837753 
L 215.599194 310.253728 
L 220.094016 310.892504 
L 224.588838 311.617251 
L 229.083659 312.401933 
L 233.578481 313.144903 
L 238.073303 314.122229 
L 242.568124 314.823415 
L 247.062946 315.917498 
L 251.557768 317.383146 
L 256.052589 318.923032 
L 260.547411 320.422319 
L 265.042232 321.852188 
L 269.537054 322.768252 
L 274.031876 323.618202 
L 278.526697 324.120542 
L 283.021519 324.989463 
L 287.516341 325.873668 
L 292.011162 326.613064 
L 296.505984 327.284398 
L 301.000806 328.298655 
L 305.495627 329.771987 
L 309.990449 330.888388 
L 314.48527 331.886772 
L 318.980092 333.141636 
L 323.474914 334.132364 
L 327.969735 335.150053 
L 332.464557 336.530786 
L 336.959379 338.190151 
L 341.4542 339.99976 
L 345.949022 341.66917 
L 350.443843 342.909476 
L 354.938665 344.147558 
L 359.433487 345.693726 
L 363.928308 346.935474 
L 368.42313 348.119717 
L 372.917952 349.466413 
L 377.412773 350.808892 
L 381.907595 352.075742 
L 386.402417 352.781954 
L 390.897238 354.340106 
L 395.39206 355.631046 
L 399.886881 357.141235 
L 404.381703 358.375407 
L 408.876525 359.615313 
L 413.371346 361.982124 
L 417.866168 363.315947 
L 422.36099 364.461016 
L 426.855811 365.713913 
L 431.350633 367.083332 
L 435.845455 368.841289 
" clip-path="url(#p6516719d43)" style="fill: none; stroke: #008000; stroke-width: 1.5; stroke-linecap: square"/>
    <defs>
     <path id="m8bbbc521d5" d="M 0 1.5 
C 0.397805 1.5 0.77937 1.341951 1.06066 1.06066 
C 1.341951 0.77937 1.5 0.397805 1.5 0 
C 1.5 -0.397805 1.341951 -0.77937 1.06066 -1.06066 
C 0.77937 -1.341951 0.397805 -1.5 0 -1.5 
C -0.397805 -1.5 -0.77937 -1.341951 -1.06066 -1.06066 
C -1.341951 -0.77937 -1.5 -0.397805 -1.5 0 
C -1.5 0.397805 -1.341951 0.77937 -1.06066 1.06066 
C -0.77937 1.341951 -0.397805 1.5 0 1.5 
z
" style="stroke: #008000"/>
    </defs>
    <g clip-path="url(#p6516719d43)">
     <use xlink:href="#m8bbbc521d5" x="80.754545" y="174.114492" style="fill: #008000; stroke: #008000"/>
     <use xlink:href="#m8bbbc521d5" x="85.249367" y="177.647228" style="fill: #008000; stroke: #008000"/>
     <use xlink:href="#m8bbbc521d5" x="89.744189" y="159.584085" style="fill: #008000; stroke: #008000"/>
     <use xlink:href="#m8bbbc521d5" x="94.23901" y="160.059105" style="fill: #008000; stroke: #008000"/>
     <use xlink:href="#m8bbbc521d5" x="98.733832" y="193.140891" style="fill: #008000; stroke: #008000"/>
     <use xlink:href="#m8bbbc521d5" x="103.228654" y="201.428742" style="fill: #008000; stroke: #008000"/>
     <use xlink:href="#m8bbbc521d5" x="107.723475" y="238.665364" style="fill: #008000; stroke: #008000"/>
     <use xlink:href="#m8bbbc521d5" x="112.218297" y="262.688798" style="fill: #008000; stroke: #008000"/>
     <use xlink:href="#m8bbbc521d5" x="116.713119" y="285.009699" style="fill: #008000; stroke: #008000"/>
     <use xlink:href="#m8bbbc521d5" x="121.20794" y="298.930011" style="fill: #008000; stroke: #008000"/>
     <use xlink:href="#m8bbbc521d5" x="125.702762" y="306.139502" style="fill: #008000; stroke: #008000"/>
     <use xlink:href="#m8bbbc521d5" x="130.197583" y="309.262199" style="fill: #008000; stroke: #008000"/>
     <use xlink:href="#m8bbbc521d5" x="134.692405" y="312.280589" style="fill: #008000; stroke: #008000"/>
     <use xlink:href="#m8bbbc521d5" x="139.187227" y="313.661851" style="fill: #008000; stroke: #008000"/>
     <use xlink:href="#m8bbbc521d5" x="143.682048" y="314.363712" style="fill: #008000; stroke: #008000"/>
     <use xlink:href="#m8bbbc521d5" x="148.17687" y="313.438514" style="fill: #008000; stroke: #008000"/>
     <use xlink:href="#m8bbbc521d5" x="152.671692" y="312.066583" style="fill: #008000; stroke: #008000"/>
     <use xlink:href="#m8bbbc521d5" x="157.166513" y="311.852873" style="fill: #008000; stroke: #008000"/>
     <use xlink:href="#m8bbbc521d5" x="161.661335" y="310.90722" style="fill: #008000; stroke: #008000"/>
     <use xlink:href="#m8bbbc521d5" x="166.156157" y="310.421296" style="fill: #008000; stroke: #008000"/>
     <use xlink:href="#m8bbbc521d5" x="170.650978" y="311.009118" style="fill: #008000; stroke: #008000"/>
     <use xlink:href="#m8bbbc521d5" x="175.1458" y="310.77218" style="fill: #008000; stroke: #008000"/>
     <use xlink:href="#m8bbbc521d5" x="179.640621" y="311.160922" style="fill: #008000; stroke: #008000"/>
     <use xlink:href="#m8bbbc521d5" x="184.135443" y="311.883705" style="fill: #008000; stroke: #008000"/>
     <use xlink:href="#m8bbbc521d5" x="188.630265" y="311.927472" style="fill: #008000; stroke: #008000"/>
     <use xlink:href="#m8bbbc521d5" x="193.125086" y="311.585876" style="fill: #008000; stroke: #008000"/>
     <use xlink:href="#m8bbbc521d5" x="197.619908" y="311.378307" style="fill: #008000; stroke: #008000"/>
     <use xlink:href="#m8bbbc521d5" x="202.11473" y="310.755227" style="fill: #008000; stroke: #008000"/>
     <use xlink:href="#m8bbbc521d5" x="206.609551" y="310.004919" style="fill: #008000; stroke: #008000"/>
     <use xlink:href="#m8bbbc521d5" x="211.104373" y="309.837753" style="fill: #008000; stroke: #008000"/>
     <use xlink:href="#m8bbbc521d5" x="215.599194" y="310.253728" style="fill: #008000; stroke: #008000"/>
     <use xlink:href="#m8bbbc521d5" x="220.094016" y="310.892504" style="fill: #008000; stroke: #008000"/>
     <use xlink:href="#m8bbbc521d5" x="224.588838" y="311.617251" style="fill: #008000; stroke: #008000"/>
     <use xlink:href="#m8bbbc521d5" x="229.083659" y="312.401933" style="fill: #008000; stroke: #008000"/>
     <use xlink:href="#m8bbbc521d5" x="233.578481" y="313.144903" style="fill: #008000; stroke: #008000"/>
     <use xlink:href="#m8bbbc521d5" x="238.073303" y="314.122229" style="fill: #008000; stroke: #008000"/>
     <use xlink:href="#m8bbbc521d5" x="242.568124" y="314.823415" style="fill: #008000; stroke: #008000"/>
     <use xlink:href="#m8bbbc521d5" x="247.062946" y="315.917498" style="fill: #008000; stroke: #008000"/>
     <use xlink:href="#m8bbbc521d5" x="251.557768" y="317.383146" style="fill: #008000; stroke: #008000"/>
     <use xlink:href="#m8bbbc521d5" x="256.052589" y="318.923032" style="fill: #008000; stroke: #008000"/>
     <use xlink:href="#m8bbbc521d5" x="260.547411" y="320.422319" style="fill: #008000; stroke: #008000"/>
     <use xlink:href="#m8bbbc521d5" x="265.042232" y="321.852188" style="fill: #008000; stroke: #008000"/>
     <use xlink:href="#m8bbbc521d5" x="269.537054" y="322.768252" style="fill: #008000; stroke: #008000"/>
     <use xlink:href="#m8bbbc521d5" x="274.031876" y="323.618202" style="fill: #008000; stroke: #008000"/>
     <use xlink:href="#m8bbbc521d5" x="278.526697" y="324.120542" style="fill: #008000; stroke: #008000"/>
     <use xlink:href="#m8bbbc521d5" x="283.021519" y="324.989463" style="fill: #008000; stroke: #008000"/>
     <use xlink:href="#m8bbbc521d5" x="287.516341" y="325.873668" style="fill: #008000; stroke: #008000"/>
     <use xlink:href="#m8bbbc521d5" x="292.011162" y="326.613064" style="fill: #008000; stroke: #008000"/>
     <use xlink:href="#m8bbbc521d5" x="296.505984" y="327.284398" style="fill: #008000; stroke: #008000"/>
     <use xlink:href="#m8bbbc521d5" x="301.000806" y="328.298655" style="fill: #008000; stroke: #008000"/>
     <use xlink:href="#m8bbbc521d5" x="305.495627" y="329.771987" style="fill: #008000; stroke: #008000"/>
     <use xlink:href="#m8bbbc521d5" x="309.990449" y="330.888388" style="fill: #008000; stroke: #008000"/>
     <use xlink:href="#m8bbbc521d5" x="314.48527" y="331.886772" style="fill: #008000; stroke: #008000"/>
     <use xlink:href="#m8bbbc521d5" x="318.980092" y="333.141636" style="fill: #008000; stroke: #008000"/>
     <use xlink:href="#m8bbbc521d5" x="323.474914" y="334.132364" style="fill: #008000; stroke: #008000"/>
     <use xlink:href="#m8bbbc521d5" x="327.969735" y="335.150053" style="fill: #008000; stroke: #008000"/>
     <use xlink:href="#m8bbbc521d5" x="332.464557" y="336.530786" style="fill: #008000; stroke: #008000"/>
     <use xlink:href="#m8bbbc521d5" x="336.959379" y="338.190151" style="fill: #008000; stroke: #008000"/>
     <use xlink:href="#m8bbbc521d5" x="341.4542" y="339.99976" style="fill: #008000; stroke: #008000"/>
     <use xlink:href="#m8bbbc521d5" x="345.949022" y="341.66917" style="fill: #008000; stroke: #008000"/>
     <use xlink:href="#m8bbbc521d5" x="350.443843" y="342.909476" style="fill: #008000; stroke: #008000"/>
     <use xlink:href="#m8bbbc521d5" x="354.938665" y="344.147558" style="fill: #008000; stroke: #008000"/>
     <use xlink:href="#m8bbbc521d5" x="359.433487" y="345.693726" style="fill: #008000; stroke: #008000"/>
     <use xlink:href="#m8bbbc521d5" x="363.928308" y="346.935474" style="fill: #008000; stroke: #008000"/>
     <use xlink:href="#m8bbbc521d5" x="368.42313" y="348.119717" style="fill: #008000; stroke: #008000"/>
     <use xlink:href="#m8bbbc521d5" x="372.917952" y="349.466413" style="fill: #008000; stroke: #008000"/>
     <use xlink:href="#m8bbbc521d5" x="377.412773" y="350.808892" style="fill: #008000; stroke: #008000"/>
     <use xlink:href="#m8bbbc521d5" x="381.907595" y="352.075742" style="fill: #008000; stroke: #008000"/>
     <use xlink:href="#m8bbbc521d5" x="386.402417" y="352.781954" style="fill: #008000; stroke: #008000"/>
     <use xlink:href="#m8bbbc521d5" x="390.897238" y="354.340106" style="fill: #008000; stroke: #008000"/>
     <use xlink:href="#m8bbbc521d5" x="395.39206" y="355.631046" style="fill: #008000; stroke: #008000"/>
     <use xlink:href="#m8bbbc521d5" x="399.886881" y="357.141235" style="fill: #008000; stroke: #008000"/>
     <use xlink:href="#m8bbbc521d5" x="404.381703" y="358.375407" style="fill: #008000; stroke: #008000"/>
     <use xlink:href="#m8bbbc521d5" x="408.876525" y="359.615313" style="fill: #008000; stroke: #008000"/>
     <use xlink:href="#m8bbbc521d5" x="413.371346" y="361.982124" style="fill: #008000; stroke: #008000"/>
     <use xlink:href="#m8bbbc521d5" x="417.866168" y="363.315947" style="fill: #008000; stroke: #008000"/>
     <use xlink:href="#m8bbbc521d5" x="422.36099" y="364.461016" style="fill: #008000; stroke: #008000"/>
     <use xlink:href="#m8bbbc521d5" x="426.855811" y="365.713913" style="fill: #008000; stroke: #008000"/>
     <use xlink:href="#m8bbbc521d5" x="431.350633" y="367.083332" style="fill: #008000; stroke: #008000"/>
     <use xlink:href="#m8bbbc521d5" x="435.845455" y="368.841289" style="fill: #008000; stroke: #008000"/>
    </g>
   </g>
   <g id="patch_3">
    <path d="M 63 378 
L 63 51.84 
" style="fill: none; stroke: #000000; stroke-width: 0.8; stroke-linejoin: miter; stroke-linecap: square"/>
   </g>
   <g id="patch_4">
    <path d="M 453.6 378 
L 453.6 51.84 
" style="fill: none; stroke: #000000; stroke-width: 0.8; stroke-linejoin: miter; stroke-linecap: square"/>
   </g>
   <g id="patch_5">
    <path d="M 63 378 
L 453.6 378 
" style="fill: none; stroke: #000000; stroke-width: 0.8; stroke-linejoin: miter; stroke-linecap: square"/>
   </g>
   <g id="patch_6">
    <path d="M 63 51.84 
L 453.6 51.84 
" style="fill: none; stroke: #000000; stroke-width: 0.8; stroke-linejoin: miter; stroke-linecap: square"/>
   </g>
   <g id="text_17">
    <!-- peak energy shift -->
    <g transform="translate(188.52875 45.84)scale(0.16 -0.16)">
     <defs>
      <path id="DejaVuSans-70" d="M 1159 525 
L 1159 -1331 
L 581 -1331 
L 581 3500 
L 1159 3500 
L 1159 2969 
Q 1341 3281 1617 3432 
Q 1894 3584 2278 3584 
Q 2916 3584 3314 3078 
Q 3713 2572 3713 1747 
Q 3713 922 3314 415 
Q 2916 -91 2278 -91 
Q 1894 -91 1617 61 
Q 1341 213 1159 525 
z
M 3116 1747 
Q 3116 2381 2855 2742 
Q 2594 3103 2138 3103 
Q 1681 3103 1420 2742 
Q 1159 2381 1159 1747 
Q 1159 1113 1420 752 
Q 1681 391 2138 391 
Q 2594 391 2855 752 
Q 3116 1113 3116 1747 
z
" transform="scale(0.015625)"/>
      <path id="DejaVuSans-61" d="M 2194 1759 
Q 1497 1759 1228 1600 
Q 959 1441 959 1056 
Q 959 750 1161 570 
Q 1363 391 1709 391 
Q 2188 391 2477 730 
Q 2766 1069 2766 1631 
L 2766 1759 
L 2194 1759 
z
M 3341 1997 
L 3341 0 
L 2766 0 
L 2766 531 
Q 2569 213 2275 61 
Q 1981 -91 1556 -91 
Q 1019 -91 701 211 
Q 384 513 384 1019 
Q 384 1609 779 1909 
Q 1175 2209 1959 2209 
L 2766 2209 
L 2766 2266 
Q 2766 2663 2505 2880 
Q 2244 3097 1772 3097 
Q 1472 3097 1187 3025 
Q 903 2953 641 2809 
L 641 3341 
Q 956 3463 1253 3523 
Q 1550 3584 1831 3584 
Q 2591 3584 2966 3190 
Q 3341 2797 3341 1997 
z
" transform="scale(0.015625)"/>
      <path id="DejaVuSans-6b" d="M 581 4863 
L 1159 4863 
L 1159 1991 
L 2875 3500 
L 3609 3500 
L 1753 1863 
L 3688 0 
L 2938 0 
L 1159 1709 
L 1159 0 
L 581 0 
L 581 4863 
z
" transform="scale(0.015625)"/>
      <path id="DejaVuSans-20" transform="scale(0.015625)"/>
      <path id="DejaVuSans-73" d="M 2834 3397 
L 2834 2853 
Q 2591 2978 2328 3040 
Q 2066 3103 1784 3103 
Q 1356 3103 1142 2972 
Q 928 2841 928 2578 
Q 928 2378 1081 2264 
Q 1234 2150 1697 2047 
L 1894 2003 
Q 2506 1872 2764 1633 
Q 3022 1394 3022 966 
Q 3022 478 2636 193 
Q 2250 -91 1575 -91 
Q 1294 -91 989 -36 
Q 684 19 347 128 
L 347 722 
Q 666 556 975 473 
Q 1284 391 1588 391 
Q 1994 391 2212 530 
Q 2431 669 2431 922 
Q 2431 1156 2273 1281 
Q 2116 1406 1581 1522 
L 1381 1569 
Q 847 1681 609 1914 
Q 372 2147 372 2553 
Q 372 3047 722 3315 
Q 1072 3584 1716 3584 
Q 2034 3584 2315 3537 
Q 2597 3491 2834 3397 
z
" transform="scale(0.015625)"/>
      <path id="DejaVuSans-68" d="M 3513 2113 
L 3513 0 
L 2938 0 
L 2938 2094 
Q 2938 2591 2744 2837 
Q 2550 3084 2163 3084 
Q 1697 3084 1428 2787 
Q 1159 2491 1159 1978 
L 1159 0 
L 581 0 
L 581 4863 
L 1159 4863 
L 1159 2956 
Q 1366 3272 1645 3428 
Q 1925 3584 2291 3584 
Q 2894 3584 3203 3211 
Q 3513 2838 3513 2113 
z
" transform="scale(0.015625)"/>
      <path id="DejaVuSans-69" d="M 603 3500 
L 1178 3500 
L 1178 0 
L 603 0 
L 603 3500 
z
M 603 4863 
L 1178 4863 
L 1178 4134 
L 603 4134 
L 603 4863 
z
" transform="scale(0.015625)"/>
      <path id="DejaVuSans-66" d="M 2375 4863 
L 2375 4384 
L 1825 4384 
Q 1516 4384 1395 4259 
Q 1275 4134 1275 3809 
L 1275 3500 
L 2222 3500 
L 2222 3053 
L 1275 3053 
L 1275 0 
L 697 0 
L 697 3053 
L 147 3053 
L 147 3500 
L 697 3500 
L 697 3744 
Q 697 4328 969 4595 
Q 1241 4863 1831 4863 
L 2375 4863 
z
" transform="scale(0.015625)"/>
      <path id="DejaVuSans-74" d="M 1172 4494 
L 1172 3500 
L 2356 3500 
L 2356 3053 
L 1172 3053 
L 1172 1153 
Q 1172 725 1289 603 
Q 1406 481 1766 481 
L 2356 481 
L 2356 0 
L 1766 0 
Q 1100 0 847 248 
Q 594 497 594 1153 
L 594 3053 
L 172 3053 
L 172 3500 
L 594 3500 
L 594 4494 
L 1172 4494 
z
" transform="scale(0.015625)"/>
     </defs>
     <use xlink:href="#DejaVuSans-70"/>
     <use xlink:href="#DejaVuSans-65" x="63.476562"/>
     <use xlink:href="#DejaVuSans-61" x="125"/>
     <use xlink:href="#DejaVuSans-6b" x="186.279297"/>
     <use xlink:href="#DejaVuSans-20" x="244.189453"/>
     <use xlink:href="#DejaVuSans-65" x="275.976562"/>
     <use xlink:href="#DejaVuSans-6e" x="337.5"/>
     <use xlink:href="#DejaVuSans-65" x="400.878906"/>
     <use xlink:href="#DejaVuSans-72" x="462.402344"/>
     <use xlink:href="#DejaVuSans-67" x="501.765625"/>
     <use xlink:href="#DejaVuSans-79" x="565.242188"/>
     <use xlink:href="#DejaVuSans-20" x="624.421875"/>
     <use xlink:href="#DejaVuSans-73" x="656.208984"/>
     <use xlink:href="#DejaVuSans-68" x="708.308594"/>
     <use xlink:href="#DejaVuSans-69" x="771.6875"/>
     <use xlink:href="#DejaVuSans-66" x="799.470703"/>
     <use xlink:href="#DejaVuSans-74" x="832.925781"/>
    </g>
   </g>
   <g id="legend_1">
    <g id="patch_7">
     <path d="M 227.2775 135.095 
L 442.4 135.095 
Q 445.6 135.095 445.6 131.895 
L 445.6 63.04 
Q 445.6 59.84 442.4 59.84 
L 227.2775 59.84 
Q 224.0775 59.84 224.0775 63.04 
L 224.0775 131.895 
Q 224.0775 135.095 227.2775 135.095 
z
" style="fill: #ffffff; opacity: 0.8; stroke: #cccccc; stroke-linejoin: miter"/>
    </g>
    <g id="line2d_21">
     <path d="M 230.4775 72.7975 
L 246.4775 72.7975 
L 262.4775 72.7975 
" style="fill: none; stroke: #ff7f0e; stroke-width: 1.5; stroke-linecap: square"/>
     <g>
      <use xlink:href="#ma7750082ec" x="246.4775" y="72.7975" style="fill: #ff7f0e; stroke: #ff7f0e"/>
     </g>
    </g>
    <g id="text_18">
     <!-- data (downramp) -->
     <g transform="translate(275.2775 78.3975)scale(0.16 -0.16)">
      <defs>
       <path id="DejaVuSans-64" d="M 2906 2969 
L 2906 4863 
L 3481 4863 
L 3481 0 
L 2906 0 
L 2906 525 
Q 2725 213 2448 61 
Q 2172 -91 1784 -91 
Q 1150 -91 751 415 
Q 353 922 353 1747 
Q 353 2572 751 3078 
Q 1150 3584 1784 3584 
Q 2172 3584 2448 3432 
Q 2725 3281 2906 2969 
z
M 947 1747 
Q 947 1113 1208 752 
Q 1469 391 1925 391 
Q 2381 391 2643 752 
Q 2906 1113 2906 1747 
Q 2906 2381 2643 2742 
Q 2381 3103 1925 3103 
Q 1469 3103 1208 2742 
Q 947 2381 947 1747 
z
" transform="scale(0.015625)"/>
       <path id="DejaVuSans-28" d="M 1984 4856 
Q 1566 4138 1362 3434 
Q 1159 2731 1159 2009 
Q 1159 1288 1364 580 
Q 1569 -128 1984 -844 
L 1484 -844 
Q 1016 -109 783 600 
Q 550 1309 550 2009 
Q 550 2706 781 3412 
Q 1013 4119 1484 4856 
L 1984 4856 
z
" transform="scale(0.015625)"/>
       <path id="DejaVuSans-6f" d="M 1959 3097 
Q 1497 3097 1228 2736 
Q 959 2375 959 1747 
Q 959 1119 1226 758 
Q 1494 397 1959 397 
Q 2419 397 2687 759 
Q 2956 1122 2956 1747 
Q 2956 2369 2687 2733 
Q 2419 3097 1959 3097 
z
M 1959 3584 
Q 2709 3584 3137 3096 
Q 3566 2609 3566 1747 
Q 3566 888 3137 398 
Q 2709 -91 1959 -91 
Q 1206 -91 779 398 
Q 353 888 353 1747 
Q 353 2609 779 3096 
Q 1206 3584 1959 3584 
z
" transform="scale(0.015625)"/>
       <path id="DejaVuSans-77" d="M 269 3500 
L 844 3500 
L 1563 769 
L 2278 3500 
L 2956 3500 
L 3675 769 
L 4391 3500 
L 4966 3500 
L 4050 0 
L 3372 0 
L 2619 2869 
L 1863 0 
L 1184 0 
L 269 3500 
z
" transform="scale(0.015625)"/>
       <path id="DejaVuSans-29" d="M 513 4856 
L 1013 4856 
Q 1481 4119 1714 3412 
Q 1947 2706 1947 2009 
Q 1947 1309 1714 600 
Q 1481 -109 1013 -844 
L 513 -844 
Q 928 -128 1133 580 
Q 1338 1288 1338 2009 
Q 1338 2731 1133 3434 
Q 928 4138 513 4856 
z
" transform="scale(0.015625)"/>
      </defs>
      <use xlink:href="#DejaVuSans-64"/>
      <use xlink:href="#DejaVuSans-61" x="63.476562"/>
      <use xlink:href="#DejaVuSans-74" x="124.755859"/>
      <use xlink:href="#DejaVuSans-61" x="163.964844"/>
      <use xlink:href="#DejaVuSans-20" x="225.244141"/>
      <use xlink:href="#DejaVuSans-28" x="257.03125"/>
      <use xlink:href="#DejaVuSans-64" x="296.044922"/>
      <use xlink:href="#DejaVuSans-6f" x="359.521484"/>
      <use xlink:href="#DejaVuSans-77" x="420.703125"/>
      <use xlink:href="#DejaVuSans-6e" x="502.490234"/>
      <use xlink:href="#DejaVuSans-72" x="565.869141"/>
      <use xlink:href="#DejaVuSans-61" x="606.982422"/>
      <use xlink:href="#DejaVuSans-6d" x="668.261719"/>
      <use xlink:href="#DejaVuSans-70" x="765.673828"/>
      <use xlink:href="#DejaVuSans-29" x="829.150391"/>
     </g>
    </g>
    <g id="line2d_22">
     <path d="M 230.4775 96.2825 
L 246.4775 96.2825 
L 262.4775 96.2825 
" style="fill: none; stroke: #1f77b4; stroke-width: 1.5; stroke-linecap: square"/>
    </g>
    <g id="text_19">
     <!-- sys. uncertainty -->
     <g transform="translate(275.2775 101.8825)scale(0.16 -0.16)">
      <defs>
       <path id="DejaVuSans-2e" d="M 684 794 
L 1344 794 
L 1344 0 
L 684 0 
L 684 794 
z
" transform="scale(0.015625)"/>
       <path id="DejaVuSans-75" d="M 544 1381 
L 544 3500 
L 1119 3500 
L 1119 1403 
Q 1119 906 1312 657 
Q 1506 409 1894 409 
Q 2359 409 2629 706 
Q 2900 1003 2900 1516 
L 2900 3500 
L 3475 3500 
L 3475 0 
L 2900 0 
L 2900 538 
Q 2691 219 2414 64 
Q 2138 -91 1772 -91 
Q 1169 -91 856 284 
Q 544 659 544 1381 
z
M 1991 3584 
L 1991 3584 
z
" transform="scale(0.015625)"/>
       <path id="DejaVuSans-63" d="M 3122 3366 
L 3122 2828 
Q 2878 2963 2633 3030 
Q 2388 3097 2138 3097 
Q 1578 3097 1268 2742 
Q 959 2388 959 1747 
Q 959 1106 1268 751 
Q 1578 397 2138 397 
Q 2388 397 2633 464 
Q 2878 531 3122 666 
L 3122 134 
Q 2881 22 2623 -34 
Q 2366 -91 2075 -91 
Q 1284 -91 818 406 
Q 353 903 353 1747 
Q 353 2603 823 3093 
Q 1294 3584 2113 3584 
Q 2378 3584 2631 3529 
Q 2884 3475 3122 3366 
z
" transform="scale(0.015625)"/>
      </defs>
      <use xlink:href="#DejaVuSans-73"/>
      <use xlink:href="#DejaVuSans-79" x="52.099609"/>
      <use xlink:href="#DejaVuSans-73" x="111.279297"/>
      <use xlink:href="#DejaVuSans-2e" x="163.378906"/>
      <use xlink:href="#DejaVuSans-20" x="195.166016"/>
      <use xlink:href="#DejaVuSans-75" x="226.953125"/>
      <use xlink:href="#DejaVuSans-6e" x="290.332031"/>
      <use xlink:href="#DejaVuSans-63" x="353.710938"/>
      <use xlink:href="#DejaVuSans-65" x="408.691406"/>
      <use xlink:href="#DejaVuSans-72" x="470.214844"/>
      <use xlink:href="#DejaVuSans-74" x="511.328125"/>
      <use xlink:href="#DejaVuSans-61" x="550.537109"/>
      <use xlink:href="#DejaVuSans-69" x="611.816406"/>
      <use xlink:href="#DejaVuSans-6e" x="639.599609"/>
      <use xlink:href="#DejaVuSans-74" x="702.978516"/>
      <use xlink:href="#DejaVuSans-79" x="742.1875"/>
     </g>
    </g>
    <g id="LineCollection_2">
     <path d="M 246.4775 127.7675 
L 246.4775 111.7675 
" style="fill: none; stroke: #008000; stroke-width: 1.5"/>
    </g>
    <g id="line2d_23">
     <g>
      <use xlink:href="#mcc7c528658" x="246.4775" y="127.7675" style="fill: #008000; stroke: #008000"/>
     </g>
    </g>
    <g id="line2d_24">
     <g>
      <use xlink:href="#mcc7c528658" x="246.4775" y="111.7675" style="fill: #008000; stroke: #008000"/>
     </g>
    </g>
    <g id="line2d_25">
     <path d="M 230.4775 119.7675 
L 262.4775 119.7675 
" style="fill: none; stroke: #008000; stroke-width: 1.5; stroke-linecap: square"/>
    </g>
    <g id="line2d_26">
     <g>
      <use xlink:href="#m8bbbc521d5" x="246.4775" y="119.7675" style="fill: #008000; stroke: #008000"/>
     </g>
    </g>
    <g id="text_20">
     <!-- data (no downramp) -->
     <g transform="translate(275.2775 125.3675)scale(0.16 -0.16)">
      <use xlink:href="#DejaVuSans-64"/>
      <use xlink:href="#DejaVuSans-61" x="63.476562"/>
      <use xlink:href="#DejaVuSans-74" x="124.755859"/>
      <use xlink:href="#DejaVuSans-61" x="163.964844"/>
      <use xlink:href="#DejaVuSans-20" x="225.244141"/>
      <use xlink:href="#DejaVuSans-28" x="257.03125"/>
      <use xlink:href="#DejaVuSans-6e" x="296.044922"/>
      <use xlink:href="#DejaVuSans-6f" x="359.423828"/>
      <use xlink:href="#DejaVuSans-20" x="420.605469"/>
      <use xlink:href="#DejaVuSans-64" x="452.392578"/>
      <use xlink:href="#DejaVuSans-6f" x="515.869141"/>
      <use xlink:href="#DejaVuSans-77" x="577.050781"/>
      <use xlink:href="#DejaVuSans-6e" x="658.837891"/>
      <use xlink:href="#DejaVuSans-72" x="722.216797"/>
      <use xlink:href="#DejaVuSans-61" x="763.330078"/>
      <use xlink:href="#DejaVuSans-6d" x="824.609375"/>
      <use xlink:href="#DejaVuSans-70" x="922.021484"/>
      <use xlink:href="#DejaVuSans-29" x="985.498047"/>
     </g>
    </g>
   </g>
  </g>
 </g>
 <defs>
  <clipPath id="p6516719d43">
   <rect x="63" y="51.84" width="390.6" height="326.16"/>
  </clipPath>
 </defs>
</svg>
