<?xml version="1.0" encoding="utf-8" standalone="no"?>
<!DOCTYPE svg PUBLIC "-//W3C//DTD SVG 1.1//EN"
  "http://www.w3.org/Graphics/SVG/1.1/DTD/svg11.dtd">
<svg xmlns:xlink="http://www.w3.org/1999/xlink" width="447.874016pt" height="368.503937pt" viewBox="0 0 447.874016 368.503937" xmlns="http://www.w3.org/2000/svg" version="1.1">
 <metadata>
  <rdf:RDF xmlns:dc="http://purl.org/dc/elements/1.1/" xmlns:cc="http://creativecommons.org/ns#" xmlns:rdf="http://www.w3.org/1999/02/22-rdf-syntax-ns#">
   <cc:Work>
    <dc:type rdf:resource="http://purl.org/dc/dcmitype/StillImage"/>
    <dc:date>2023-01-25T16:58:17.873503</dc:date>
    <dc:format>image/svg+xml</dc:format>
    <dc:creator>
     <cc:Agent>
      <dc:title>Matplotlib v3.5.1, https://matplotlib.org/</dc:title>
     </cc:Agent>
    </dc:creator>
   </cc:Work>
  </rdf:RDF>
 </metadata>
 <defs>
  <style type="text/css">*{stroke-linejoin: round; stroke-linecap: butt}</style>
 </defs>
 <g id="figure_1">
  <g id="patch_1">
   <path d="M 0 368.503937 
L 447.874016 368.503937 
L 447.874016 0 
L 0 0 
z
" style="fill: #ffffff"/>
  </g>
  <g id="axes_1">
   <g id="patch_2">
    <path d="M 67.181102 327.968504 
L 425.480315 327.968504 
L 425.480315 25.795276 
L 67.181102 25.795276 
z
" style="fill: #ffffff"/>
   </g>
   <g id="matplotlib.axis_1">
    <g id="xtick_1">
     <g id="line2d_1">
      <path d="M 109.679239 327.968504 
L 109.679239 25.795276 
" clip-path="url(#pbf9c065f23)" style="fill: none; stroke: #b0b0b0; stroke-width: 0.8; stroke-linecap: square"/>
     </g>
     <g id="line2d_2">
      <defs>
       <path id="m7ba945442e" d="M 0 0 
L 0 3.5 
" style="stroke: #000000; stroke-width: 0.8"/>
      </defs>
      <g>
       <use xlink:href="#m7ba945442e" x="109.679239" y="327.968504" style="stroke: #000000; stroke-width: 0.8"/>
      </g>
     </g>
     <g id="text_1">
      <!-- −50 -->
      <g transform="translate(95.961192 344.846473)scale(0.13 -0.13)">
       <defs>
        <path id="DejaVuSans-2212" d="M 678 2272 
L 4684 2272 
L 4684 1741 
L 678 1741 
L 678 2272 
z
" transform="scale(0.015625)"/>
        <path id="DejaVuSans-35" d="M 691 4666 
L 3169 4666 
L 3169 4134 
L 1269 4134 
L 1269 2991 
Q 1406 3038 1543 3061 
Q 1681 3084 1819 3084 
Q 2600 3084 3056 2656 
Q 3513 2228 3513 1497 
Q 3513 744 3044 326 
Q 2575 -91 1722 -91 
Q 1428 -91 1123 -41 
Q 819 9 494 109 
L 494 744 
Q 775 591 1075 516 
Q 1375 441 1709 441 
Q 2250 441 2565 725 
Q 2881 1009 2881 1497 
Q 2881 1984 2565 2268 
Q 2250 2553 1709 2553 
Q 1456 2553 1204 2497 
Q 953 2441 691 2322 
L 691 4666 
z
" transform="scale(0.015625)"/>
        <path id="DejaVuSans-30" d="M 2034 4250 
Q 1547 4250 1301 3770 
Q 1056 3291 1056 2328 
Q 1056 1369 1301 889 
Q 1547 409 2034 409 
Q 2525 409 2770 889 
Q 3016 1369 3016 2328 
Q 3016 3291 2770 3770 
Q 2525 4250 2034 4250 
z
M 2034 4750 
Q 2819 4750 3233 4129 
Q 3647 3509 3647 2328 
Q 3647 1150 3233 529 
Q 2819 -91 2034 -91 
Q 1250 -91 836 529 
Q 422 1150 422 2328 
Q 422 3509 836 4129 
Q 1250 4750 2034 4750 
z
" transform="scale(0.015625)"/>
       </defs>
       <use xlink:href="#DejaVuSans-2212"/>
       <use xlink:href="#DejaVuSans-35" x="83.789062"/>
       <use xlink:href="#DejaVuSans-30" x="147.412109"/>
      </g>
     </g>
    </g>
    <g id="xtick_2">
     <g id="line2d_3">
      <path d="M 155.799175 327.968504 
L 155.799175 25.795276 
" clip-path="url(#pbf9c065f23)" style="fill: none; stroke: #b0b0b0; stroke-width: 0.8; stroke-linecap: square"/>
     </g>
     <g id="line2d_4">
      <g>
       <use xlink:href="#m7ba945442e" x="155.799175" y="327.968504" style="stroke: #000000; stroke-width: 0.8"/>
      </g>
     </g>
     <g id="text_2">
      <!-- −40 -->
      <g transform="translate(142.081128 344.846473)scale(0.13 -0.13)">
       <defs>
        <path id="DejaVuSans-34" d="M 2419 4116 
L 825 1625 
L 2419 1625 
L 2419 4116 
z
M 2253 4666 
L 3047 4666 
L 3047 1625 
L 3713 1625 
L 3713 1100 
L 3047 1100 
L 3047 0 
L 2419 0 
L 2419 1100 
L 313 1100 
L 313 1709 
L 2253 4666 
z
" transform="scale(0.015625)"/>
       </defs>
       <use xlink:href="#DejaVuSans-2212"/>
       <use xlink:href="#DejaVuSans-34" x="83.789062"/>
       <use xlink:href="#DejaVuSans-30" x="147.412109"/>
      </g>
     </g>
    </g>
    <g id="xtick_3">
     <g id="line2d_5">
      <path d="M 201.919112 327.968504 
L 201.919112 25.795276 
" clip-path="url(#pbf9c065f23)" style="fill: none; stroke: #b0b0b0; stroke-width: 0.8; stroke-linecap: square"/>
     </g>
     <g id="line2d_6">
      <g>
       <use xlink:href="#m7ba945442e" x="201.919112" y="327.968504" style="stroke: #000000; stroke-width: 0.8"/>
      </g>
     </g>
     <g id="text_3">
      <!-- −30 -->
      <g transform="translate(188.201065 344.846473)scale(0.13 -0.13)">
       <defs>
        <path id="DejaVuSans-33" d="M 2597 2516 
Q 3050 2419 3304 2112 
Q 3559 1806 3559 1356 
Q 3559 666 3084 287 
Q 2609 -91 1734 -91 
Q 1441 -91 1130 -33 
Q 819 25 488 141 
L 488 750 
Q 750 597 1062 519 
Q 1375 441 1716 441 
Q 2309 441 2620 675 
Q 2931 909 2931 1356 
Q 2931 1769 2642 2001 
Q 2353 2234 1838 2234 
L 1294 2234 
L 1294 2753 
L 1863 2753 
Q 2328 2753 2575 2939 
Q 2822 3125 2822 3475 
Q 2822 3834 2567 4026 
Q 2313 4219 1838 4219 
Q 1578 4219 1281 4162 
Q 984 4106 628 3988 
L 628 4550 
Q 988 4650 1302 4700 
Q 1616 4750 1894 4750 
Q 2613 4750 3031 4423 
Q 3450 4097 3450 3541 
Q 3450 3153 3228 2886 
Q 3006 2619 2597 2516 
z
" transform="scale(0.015625)"/>
       </defs>
       <use xlink:href="#DejaVuSans-2212"/>
       <use xlink:href="#DejaVuSans-33" x="83.789062"/>
       <use xlink:href="#DejaVuSans-30" x="147.412109"/>
      </g>
     </g>
    </g>
    <g id="xtick_4">
     <g id="line2d_7">
      <path d="M 248.039049 327.968504 
L 248.039049 25.795276 
" clip-path="url(#pbf9c065f23)" style="fill: none; stroke: #b0b0b0; stroke-width: 0.8; stroke-linecap: square"/>
     </g>
     <g id="line2d_8">
      <g>
       <use xlink:href="#m7ba945442e" x="248.039049" y="327.968504" style="stroke: #000000; stroke-width: 0.8"/>
      </g>
     </g>
     <g id="text_4">
      <!-- −20 -->
      <g transform="translate(234.321002 344.846473)scale(0.13 -0.13)">
       <defs>
        <path id="DejaVuSans-32" d="M 1228 531 
L 3431 531 
L 3431 0 
L 469 0 
L 469 531 
Q 828 903 1448 1529 
Q 2069 2156 2228 2338 
Q 2531 2678 2651 2914 
Q 2772 3150 2772 3378 
Q 2772 3750 2511 3984 
Q 2250 4219 1831 4219 
Q 1534 4219 1204 4116 
Q 875 4013 500 3803 
L 500 4441 
Q 881 4594 1212 4672 
Q 1544 4750 1819 4750 
Q 2544 4750 2975 4387 
Q 3406 4025 3406 3419 
Q 3406 3131 3298 2873 
Q 3191 2616 2906 2266 
Q 2828 2175 2409 1742 
Q 1991 1309 1228 531 
z
" transform="scale(0.015625)"/>
       </defs>
       <use xlink:href="#DejaVuSans-2212"/>
       <use xlink:href="#DejaVuSans-32" x="83.789062"/>
       <use xlink:href="#DejaVuSans-30" x="147.412109"/>
      </g>
     </g>
    </g>
    <g id="xtick_5">
     <g id="line2d_9">
      <path d="M 294.158985 327.968504 
L 294.158985 25.795276 
" clip-path="url(#pbf9c065f23)" style="fill: none; stroke: #b0b0b0; stroke-width: 0.8; stroke-linecap: square"/>
     </g>
     <g id="line2d_10">
      <g>
       <use xlink:href="#m7ba945442e" x="294.158985" y="327.968504" style="stroke: #000000; stroke-width: 0.8"/>
      </g>
     </g>
     <g id="text_5">
      <!-- −10 -->
      <g transform="translate(280.440938 344.846473)scale(0.13 -0.13)">
       <defs>
        <path id="DejaVuSans-31" d="M 794 531 
L 1825 531 
L 1825 4091 
L 703 3866 
L 703 4441 
L 1819 4666 
L 2450 4666 
L 2450 531 
L 3481 531 
L 3481 0 
L 794 0 
L 794 531 
z
" transform="scale(0.015625)"/>
       </defs>
       <use xlink:href="#DejaVuSans-2212"/>
       <use xlink:href="#DejaVuSans-31" x="83.789062"/>
       <use xlink:href="#DejaVuSans-30" x="147.412109"/>
      </g>
     </g>
    </g>
    <g id="xtick_6">
     <g id="line2d_11">
      <path d="M 340.278922 327.968504 
L 340.278922 25.795276 
" clip-path="url(#pbf9c065f23)" style="fill: none; stroke: #b0b0b0; stroke-width: 0.8; stroke-linecap: square"/>
     </g>
     <g id="line2d_12">
      <g>
       <use xlink:href="#m7ba945442e" x="340.278922" y="327.968504" style="stroke: #000000; stroke-width: 0.8"/>
      </g>
     </g>
     <g id="text_6">
      <!-- 0 -->
      <g transform="translate(336.143297 344.846473)scale(0.13 -0.13)">
       <use xlink:href="#DejaVuSans-30"/>
      </g>
     </g>
    </g>
    <g id="xtick_7">
     <g id="line2d_13">
      <path d="M 386.398858 327.968504 
L 386.398858 25.795276 
" clip-path="url(#pbf9c065f23)" style="fill: none; stroke: #b0b0b0; stroke-width: 0.8; stroke-linecap: square"/>
     </g>
     <g id="line2d_14">
      <g>
       <use xlink:href="#m7ba945442e" x="386.398858" y="327.968504" style="stroke: #000000; stroke-width: 0.8"/>
      </g>
     </g>
     <g id="text_7">
      <!-- 10 -->
      <g transform="translate(378.127608 344.846473)scale(0.13 -0.13)">
       <use xlink:href="#DejaVuSans-31"/>
       <use xlink:href="#DejaVuSans-30" x="63.623047"/>
      </g>
     </g>
    </g>
    <g id="text_8">
     <!-- $\zeta \, \mathrm{[\mu m]}$ -->
     <g transform="translate(223.080709 362.950066)scale(0.15 -0.15)">
      <defs>
       <path id="DejaVuSans-Oblique-3b6" d="M 1966 397 
Q 2378 394 2578 159 
Q 2794 -88 2722 -463 
Q 2650 -822 2372 -1072 
Q 2069 -1344 1559 -1344 
Q 1606 -1109 1650 -872 
Q 1863 -888 2022 -750 
Q 2144 -641 2166 -525 
Q 2197 -359 2125 -222 
Q 2050 -91 1872 -91 
Q -22 -91 316 1669 
Q 616 3206 2609 4284 
L 947 4284 
L 1059 4863 
L 3778 4863 
L 3666 4284 
Q 1181 3147 894 1669 
Q 647 397 1966 397 
z
" transform="scale(0.015625)"/>
       <path id="DejaVuSans-5b" d="M 550 4863 
L 1875 4863 
L 1875 4416 
L 1125 4416 
L 1125 -397 
L 1875 -397 
L 1875 -844 
L 550 -844 
L 550 4863 
z
" transform="scale(0.015625)"/>
       <path id="DejaVuSans-3bc" d="M 544 -1331 
L 544 3500 
L 1119 3500 
L 1119 1325 
Q 1119 872 1334 640 
Q 1550 409 1972 409 
Q 2434 409 2667 671 
Q 2900 934 2900 1459 
L 2900 3500 
L 3475 3500 
L 3475 806 
Q 3475 619 3529 530 
Q 3584 441 3700 441 
Q 3728 441 3778 458 
Q 3828 475 3916 513 
L 3916 50 
Q 3788 -22 3673 -56 
Q 3559 -91 3450 -91 
Q 3234 -91 3106 31 
Q 2978 153 2931 403 
Q 2775 156 2548 32 
Q 2322 -91 2016 -91 
Q 1697 -91 1473 31 
Q 1250 153 1119 397 
L 1119 -1331 
L 544 -1331 
z
" transform="scale(0.015625)"/>
       <path id="DejaVuSans-6d" d="M 3328 2828 
Q 3544 3216 3844 3400 
Q 4144 3584 4550 3584 
Q 5097 3584 5394 3201 
Q 5691 2819 5691 2113 
L 5691 0 
L 5113 0 
L 5113 2094 
Q 5113 2597 4934 2840 
Q 4756 3084 4391 3084 
Q 3944 3084 3684 2787 
Q 3425 2491 3425 1978 
L 3425 0 
L 2847 0 
L 2847 2094 
Q 2847 2600 2669 2842 
Q 2491 3084 2119 3084 
Q 1678 3084 1418 2786 
Q 1159 2488 1159 1978 
L 1159 0 
L 581 0 
L 581 3500 
L 1159 3500 
L 1159 2956 
Q 1356 3278 1631 3431 
Q 1906 3584 2284 3584 
Q 2666 3584 2933 3390 
Q 3200 3197 3328 2828 
z
" transform="scale(0.015625)"/>
       <path id="DejaVuSans-5d" d="M 1947 4863 
L 1947 -844 
L 622 -844 
L 622 -397 
L 1369 -397 
L 1369 4416 
L 622 4416 
L 622 4863 
L 1947 4863 
z
" transform="scale(0.015625)"/>
      </defs>
      <use xlink:href="#DejaVuSans-Oblique-3b6" transform="translate(0 0.015625)"/>
      <use xlink:href="#DejaVuSans-5b" transform="translate(70.630208 0.015625)"/>
      <use xlink:href="#DejaVuSans-3bc" transform="translate(109.643879 0.015625)"/>
      <use xlink:href="#DejaVuSans-6d" transform="translate(173.266926 0.015625)"/>
      <use xlink:href="#DejaVuSans-5d" transform="translate(270.679036 0.015625)"/>
     </g>
    </g>
   </g>
   <g id="matplotlib.axis_2">
    <g id="ytick_1">
     <g id="line2d_15">
      <path d="M 67.181102 319.081056 
L 425.480315 319.081056 
" clip-path="url(#pbf9c065f23)" style="fill: none; stroke: #b0b0b0; stroke-width: 0.8; stroke-linecap: square"/>
     </g>
     <g id="line2d_16">
      <defs>
       <path id="m0704a02b67" d="M 0 0 
L -3.5 0 
" style="stroke: #000000; stroke-width: 0.8"/>
      </defs>
      <g>
       <use xlink:href="#m0704a02b67" x="67.181102" y="319.081056" style="stroke: #000000; stroke-width: 0.8"/>
      </g>
     </g>
     <g id="text_9">
      <!-- −800 -->
      <g transform="translate(24.473759 324.02004)scale(0.13 -0.13)">
       <defs>
        <path id="DejaVuSans-38" d="M 2034 2216 
Q 1584 2216 1326 1975 
Q 1069 1734 1069 1313 
Q 1069 891 1326 650 
Q 1584 409 2034 409 
Q 2484 409 2743 651 
Q 3003 894 3003 1313 
Q 3003 1734 2745 1975 
Q 2488 2216 2034 2216 
z
M 1403 2484 
Q 997 2584 770 2862 
Q 544 3141 544 3541 
Q 544 4100 942 4425 
Q 1341 4750 2034 4750 
Q 2731 4750 3128 4425 
Q 3525 4100 3525 3541 
Q 3525 3141 3298 2862 
Q 3072 2584 2669 2484 
Q 3125 2378 3379 2068 
Q 3634 1759 3634 1313 
Q 3634 634 3220 271 
Q 2806 -91 2034 -91 
Q 1263 -91 848 271 
Q 434 634 434 1313 
Q 434 1759 690 2068 
Q 947 2378 1403 2484 
z
M 1172 3481 
Q 1172 3119 1398 2916 
Q 1625 2713 2034 2713 
Q 2441 2713 2670 2916 
Q 2900 3119 2900 3481 
Q 2900 3844 2670 4047 
Q 2441 4250 2034 4250 
Q 1625 4250 1398 4047 
Q 1172 3844 1172 3481 
z
" transform="scale(0.015625)"/>
       </defs>
       <use xlink:href="#DejaVuSans-2212"/>
       <use xlink:href="#DejaVuSans-38" x="83.789062"/>
       <use xlink:href="#DejaVuSans-30" x="147.412109"/>
       <use xlink:href="#DejaVuSans-30" x="211.035156"/>
      </g>
     </g>
    </g>
    <g id="ytick_2">
     <g id="line2d_17">
      <path d="M 67.181102 283.531264 
L 425.480315 283.531264 
" clip-path="url(#pbf9c065f23)" style="fill: none; stroke: #b0b0b0; stroke-width: 0.8; stroke-linecap: square"/>
     </g>
     <g id="line2d_18">
      <g>
       <use xlink:href="#m0704a02b67" x="67.181102" y="283.531264" style="stroke: #000000; stroke-width: 0.8"/>
      </g>
     </g>
     <g id="text_10">
      <!-- −600 -->
      <g transform="translate(24.473759 288.470249)scale(0.13 -0.13)">
       <defs>
        <path id="DejaVuSans-36" d="M 2113 2584 
Q 1688 2584 1439 2293 
Q 1191 2003 1191 1497 
Q 1191 994 1439 701 
Q 1688 409 2113 409 
Q 2538 409 2786 701 
Q 3034 994 3034 1497 
Q 3034 2003 2786 2293 
Q 2538 2584 2113 2584 
z
M 3366 4563 
L 3366 3988 
Q 3128 4100 2886 4159 
Q 2644 4219 2406 4219 
Q 1781 4219 1451 3797 
Q 1122 3375 1075 2522 
Q 1259 2794 1537 2939 
Q 1816 3084 2150 3084 
Q 2853 3084 3261 2657 
Q 3669 2231 3669 1497 
Q 3669 778 3244 343 
Q 2819 -91 2113 -91 
Q 1303 -91 875 529 
Q 447 1150 447 2328 
Q 447 3434 972 4092 
Q 1497 4750 2381 4750 
Q 2619 4750 2861 4703 
Q 3103 4656 3366 4563 
z
" transform="scale(0.015625)"/>
       </defs>
       <use xlink:href="#DejaVuSans-2212"/>
       <use xlink:href="#DejaVuSans-36" x="83.789062"/>
       <use xlink:href="#DejaVuSans-30" x="147.412109"/>
       <use xlink:href="#DejaVuSans-30" x="211.035156"/>
      </g>
     </g>
    </g>
    <g id="ytick_3">
     <g id="line2d_19">
      <path d="M 67.181102 247.981473 
L 425.480315 247.981473 
" clip-path="url(#pbf9c065f23)" style="fill: none; stroke: #b0b0b0; stroke-width: 0.8; stroke-linecap: square"/>
     </g>
     <g id="line2d_20">
      <g>
       <use xlink:href="#m0704a02b67" x="67.181102" y="247.981473" style="stroke: #000000; stroke-width: 0.8"/>
      </g>
     </g>
     <g id="text_11">
      <!-- −400 -->
      <g transform="translate(24.473759 252.920457)scale(0.13 -0.13)">
       <use xlink:href="#DejaVuSans-2212"/>
       <use xlink:href="#DejaVuSans-34" x="83.789062"/>
       <use xlink:href="#DejaVuSans-30" x="147.412109"/>
       <use xlink:href="#DejaVuSans-30" x="211.035156"/>
      </g>
     </g>
    </g>
    <g id="ytick_4">
     <g id="line2d_21">
      <path d="M 67.181102 212.431681 
L 425.480315 212.431681 
" clip-path="url(#pbf9c065f23)" style="fill: none; stroke: #b0b0b0; stroke-width: 0.8; stroke-linecap: square"/>
     </g>
     <g id="line2d_22">
      <g>
       <use xlink:href="#m0704a02b67" x="67.181102" y="212.431681" style="stroke: #000000; stroke-width: 0.8"/>
      </g>
     </g>
     <g id="text_12">
      <!-- −200 -->
      <g transform="translate(24.473759 217.370666)scale(0.13 -0.13)">
       <use xlink:href="#DejaVuSans-2212"/>
       <use xlink:href="#DejaVuSans-32" x="83.789062"/>
       <use xlink:href="#DejaVuSans-30" x="147.412109"/>
       <use xlink:href="#DejaVuSans-30" x="211.035156"/>
      </g>
     </g>
    </g>
    <g id="ytick_5">
     <g id="line2d_23">
      <path d="M 67.181102 176.88189 
L 425.480315 176.88189 
" clip-path="url(#pbf9c065f23)" style="fill: none; stroke: #b0b0b0; stroke-width: 0.8; stroke-linecap: square"/>
     </g>
     <g id="line2d_24">
      <g>
       <use xlink:href="#m0704a02b67" x="67.181102" y="176.88189" style="stroke: #000000; stroke-width: 0.8"/>
      </g>
     </g>
     <g id="text_13">
      <!-- 0 -->
      <g transform="translate(51.909852 181.820874)scale(0.13 -0.13)">
       <use xlink:href="#DejaVuSans-30"/>
      </g>
     </g>
    </g>
    <g id="ytick_6">
     <g id="line2d_25">
      <path d="M 67.181102 141.332098 
L 425.480315 141.332098 
" clip-path="url(#pbf9c065f23)" style="fill: none; stroke: #b0b0b0; stroke-width: 0.8; stroke-linecap: square"/>
     </g>
     <g id="line2d_26">
      <g>
       <use xlink:href="#m0704a02b67" x="67.181102" y="141.332098" style="stroke: #000000; stroke-width: 0.8"/>
      </g>
     </g>
     <g id="text_14">
      <!-- 200 -->
      <g transform="translate(35.367352 146.271083)scale(0.13 -0.13)">
       <use xlink:href="#DejaVuSans-32"/>
       <use xlink:href="#DejaVuSans-30" x="63.623047"/>
       <use xlink:href="#DejaVuSans-30" x="127.246094"/>
      </g>
     </g>
    </g>
    <g id="ytick_7">
     <g id="line2d_27">
      <path d="M 67.181102 105.782307 
L 425.480315 105.782307 
" clip-path="url(#pbf9c065f23)" style="fill: none; stroke: #b0b0b0; stroke-width: 0.8; stroke-linecap: square"/>
     </g>
     <g id="line2d_28">
      <g>
       <use xlink:href="#m0704a02b67" x="67.181102" y="105.782307" style="stroke: #000000; stroke-width: 0.8"/>
      </g>
     </g>
     <g id="text_15">
      <!-- 400 -->
      <g transform="translate(35.367352 110.721291)scale(0.13 -0.13)">
       <use xlink:href="#DejaVuSans-34"/>
       <use xlink:href="#DejaVuSans-30" x="63.623047"/>
       <use xlink:href="#DejaVuSans-30" x="127.246094"/>
      </g>
     </g>
    </g>
    <g id="ytick_8">
     <g id="line2d_29">
      <path d="M 67.181102 70.232515 
L 425.480315 70.232515 
" clip-path="url(#pbf9c065f23)" style="fill: none; stroke: #b0b0b0; stroke-width: 0.8; stroke-linecap: square"/>
     </g>
     <g id="line2d_30">
      <g>
       <use xlink:href="#m0704a02b67" x="67.181102" y="70.232515" style="stroke: #000000; stroke-width: 0.8"/>
      </g>
     </g>
     <g id="text_16">
      <!-- 600 -->
      <g transform="translate(35.367352 75.171499)scale(0.13 -0.13)">
       <use xlink:href="#DejaVuSans-36"/>
       <use xlink:href="#DejaVuSans-30" x="63.623047"/>
       <use xlink:href="#DejaVuSans-30" x="127.246094"/>
      </g>
     </g>
    </g>
    <g id="ytick_9">
     <g id="line2d_31">
      <path d="M 67.181102 34.682723 
L 425.480315 34.682723 
" clip-path="url(#pbf9c065f23)" style="fill: none; stroke: #b0b0b0; stroke-width: 0.8; stroke-linecap: square"/>
     </g>
     <g id="line2d_32">
      <g>
       <use xlink:href="#m0704a02b67" x="67.181102" y="34.682723" style="stroke: #000000; stroke-width: 0.8"/>
      </g>
     </g>
     <g id="text_17">
      <!-- 800 -->
      <g transform="translate(35.367352 39.621708)scale(0.13 -0.13)">
       <use xlink:href="#DejaVuSans-38"/>
       <use xlink:href="#DejaVuSans-30" x="63.623047"/>
       <use xlink:href="#DejaVuSans-30" x="127.246094"/>
      </g>
     </g>
    </g>
    <g id="text_18">
     <!-- $\mathrm{Energy \, gain \, [MeV]}$ -->
     <g transform="translate(17.323759 244.00689)rotate(-90)scale(0.15 -0.15)">
      <defs>
       <path id="DejaVuSans-45" d="M 628 4666 
L 3578 4666 
L 3578 4134 
L 1259 4134 
L 1259 2753 
L 3481 2753 
L 3481 2222 
L 1259 2222 
L 1259 531 
L 3634 531 
L 3634 0 
L 628 0 
L 628 4666 
z
" transform="scale(0.015625)"/>
       <path id="DejaVuSans-6e" d="M 3513 2113 
L 3513 0 
L 2938 0 
L 2938 2094 
Q 2938 2591 2744 2837 
Q 2550 3084 2163 3084 
Q 1697 3084 1428 2787 
Q 1159 2491 1159 1978 
L 1159 0 
L 581 0 
L 581 3500 
L 1159 3500 
L 1159 2956 
Q 1366 3272 1645 3428 
Q 1925 3584 2291 3584 
Q 2894 3584 3203 3211 
Q 3513 2838 3513 2113 
z
" transform="scale(0.015625)"/>
       <path id="DejaVuSans-65" d="M 3597 1894 
L 3597 1613 
L 953 1613 
Q 991 1019 1311 708 
Q 1631 397 2203 397 
Q 2534 397 2845 478 
Q 3156 559 3463 722 
L 3463 178 
Q 3153 47 2828 -22 
Q 2503 -91 2169 -91 
Q 1331 -91 842 396 
Q 353 884 353 1716 
Q 353 2575 817 3079 
Q 1281 3584 2069 3584 
Q 2775 3584 3186 3129 
Q 3597 2675 3597 1894 
z
M 3022 2063 
Q 3016 2534 2758 2815 
Q 2500 3097 2075 3097 
Q 1594 3097 1305 2825 
Q 1016 2553 972 2059 
L 3022 2063 
z
" transform="scale(0.015625)"/>
       <path id="DejaVuSans-72" d="M 2631 2963 
Q 2534 3019 2420 3045 
Q 2306 3072 2169 3072 
Q 1681 3072 1420 2755 
Q 1159 2438 1159 1844 
L 1159 0 
L 581 0 
L 581 3500 
L 1159 3500 
L 1159 2956 
Q 1341 3275 1631 3429 
Q 1922 3584 2338 3584 
Q 2397 3584 2469 3576 
Q 2541 3569 2628 3553 
L 2631 2963 
z
" transform="scale(0.015625)"/>
       <path id="DejaVuSans-67" d="M 2906 1791 
Q 2906 2416 2648 2759 
Q 2391 3103 1925 3103 
Q 1463 3103 1205 2759 
Q 947 2416 947 1791 
Q 947 1169 1205 825 
Q 1463 481 1925 481 
Q 2391 481 2648 825 
Q 2906 1169 2906 1791 
z
M 3481 434 
Q 3481 -459 3084 -895 
Q 2688 -1331 1869 -1331 
Q 1566 -1331 1297 -1286 
Q 1028 -1241 775 -1147 
L 775 -588 
Q 1028 -725 1275 -790 
Q 1522 -856 1778 -856 
Q 2344 -856 2625 -561 
Q 2906 -266 2906 331 
L 2906 616 
Q 2728 306 2450 153 
Q 2172 0 1784 0 
Q 1141 0 747 490 
Q 353 981 353 1791 
Q 353 2603 747 3093 
Q 1141 3584 1784 3584 
Q 2172 3584 2450 3431 
Q 2728 3278 2906 2969 
L 2906 3500 
L 3481 3500 
L 3481 434 
z
" transform="scale(0.015625)"/>
       <path id="DejaVuSans-79" d="M 2059 -325 
Q 1816 -950 1584 -1140 
Q 1353 -1331 966 -1331 
L 506 -1331 
L 506 -850 
L 844 -850 
Q 1081 -850 1212 -737 
Q 1344 -625 1503 -206 
L 1606 56 
L 191 3500 
L 800 3500 
L 1894 763 
L 2988 3500 
L 3597 3500 
L 2059 -325 
z
" transform="scale(0.015625)"/>
       <path id="DejaVuSans-61" d="M 2194 1759 
Q 1497 1759 1228 1600 
Q 959 1441 959 1056 
Q 959 750 1161 570 
Q 1363 391 1709 391 
Q 2188 391 2477 730 
Q 2766 1069 2766 1631 
L 2766 1759 
L 2194 1759 
z
M 3341 1997 
L 3341 0 
L 2766 0 
L 2766 531 
Q 2569 213 2275 61 
Q 1981 -91 1556 -91 
Q 1019 -91 701 211 
Q 384 513 384 1019 
Q 384 1609 779 1909 
Q 1175 2209 1959 2209 
L 2766 2209 
L 2766 2266 
Q 2766 2663 2505 2880 
Q 2244 3097 1772 3097 
Q 1472 3097 1187 3025 
Q 903 2953 641 2809 
L 641 3341 
Q 956 3463 1253 3523 
Q 1550 3584 1831 3584 
Q 2591 3584 2966 3190 
Q 3341 2797 3341 1997 
z
" transform="scale(0.015625)"/>
       <path id="DejaVuSans-69" d="M 603 3500 
L 1178 3500 
L 1178 0 
L 603 0 
L 603 3500 
z
M 603 4863 
L 1178 4863 
L 1178 4134 
L 603 4134 
L 603 4863 
z
" transform="scale(0.015625)"/>
       <path id="DejaVuSans-4d" d="M 628 4666 
L 1569 4666 
L 2759 1491 
L 3956 4666 
L 4897 4666 
L 4897 0 
L 4281 0 
L 4281 4097 
L 3078 897 
L 2444 897 
L 1241 4097 
L 1241 0 
L 628 0 
L 628 4666 
z
" transform="scale(0.015625)"/>
       <path id="DejaVuSans-56" d="M 1831 0 
L 50 4666 
L 709 4666 
L 2188 738 
L 3669 4666 
L 4325 4666 
L 2547 0 
L 1831 0 
z
" transform="scale(0.015625)"/>
      </defs>
      <use xlink:href="#DejaVuSans-45" transform="translate(0 0.015625)"/>
      <use xlink:href="#DejaVuSans-6e" transform="translate(63.183594 0.015625)"/>
      <use xlink:href="#DejaVuSans-65" transform="translate(126.5625 0.015625)"/>
      <use xlink:href="#DejaVuSans-72" transform="translate(188.085938 0.015625)"/>
      <use xlink:href="#DejaVuSans-67" transform="translate(229.199219 0.015625)"/>
      <use xlink:href="#DejaVuSans-79" transform="translate(292.675781 0.015625)"/>
      <use xlink:href="#DejaVuSans-67" transform="translate(368.091145 0.015625)"/>
      <use xlink:href="#DejaVuSans-61" transform="translate(431.567708 0.015625)"/>
      <use xlink:href="#DejaVuSans-69" transform="translate(492.847004 0.015625)"/>
      <use xlink:href="#DejaVuSans-6e" transform="translate(520.630208 0.015625)"/>
      <use xlink:href="#DejaVuSans-5b" transform="translate(600.24479 0.015625)"/>
      <use xlink:href="#DejaVuSans-4d" transform="translate(639.258462 0.015625)"/>
      <use xlink:href="#DejaVuSans-65" transform="translate(725.537759 0.015625)"/>
      <use xlink:href="#DejaVuSans-56" transform="translate(787.061196 0.015625)"/>
      <use xlink:href="#DejaVuSans-5d" transform="translate(855.469399 0.015625)"/>
     </g>
    </g>
   </g>
   <g id="line2d_33">
    <path d="M 123.566763 118.183894 
L 123.975386 118.864323 
L 124.384008 119.279775 
L 124.792631 120.018025 
L 125.609876 121.758184 
L 126.427121 122.780023 
L 126.835744 124.074429 
L 127.652989 125.366694 
L 128.061612 126.817748 
L 128.470235 127.279024 
L 129.28748 129.441509 
L 129.696102 130.019433 
L 130.104725 131.641337 
L 130.513348 132.031646 
L 130.92197 133.611458 
L 131.330593 134.63113 
L 131.739216 135.339042 
L 132.147838 136.537542 
L 132.556461 138.119615 
L 132.965084 138.494986 
L 133.373706 140.25296 
L 133.782329 141.028041 
L 134.599574 143.898258 
L 135.008197 144.366137 
L 135.416819 146.446367 
L 135.825442 147.320936 
L 136.642687 150.099477 
L 137.459933 152.762533 
L 137.868555 154.373673 
L 138.277178 154.788367 
L 138.685801 156.777854 
L 141.954782 167.82847 
L 143.18065 172.83328 
L 144.406517 177.498285 
L 145.223763 180.535318 
L 145.632385 182.259598 
L 146.041008 183.140398 
L 146.449631 185.454044 
L 149.718612 198.541197 
L 150.127234 200.626778 
L 150.535857 201.680711 
L 151.353102 205.593675 
L 151.761725 207.038734 
L 152.57897 210.685068 
L 152.987593 212.034575 
L 153.396216 214.189908 
L 153.804838 215.670325 
L 154.213461 217.907555 
L 154.622083 219.080138 
L 156.665197 229.064162 
L 157.073819 229.799159 
L 157.482442 232.413006 
L 157.891065 233.389986 
L 158.299687 235.434594 
L 158.70831 238.224022 
L 159.116932 238.693224 
L 159.525555 241.389601 
L 159.934178 242.746933 
L 161.160046 248.411642 
L 161.568668 250.059556 
L 161.977291 252.797252 
L 162.385914 253.693316 
L 162.794536 256.055362 
L 163.203159 257.614431 
L 165.246272 267.399178 
L 165.654895 268.786331 
L 166.063517 271.330549 
L 167.289385 277.001027 
L 168.515253 282.926259 
L 169.741121 288.353136 
L 170.149744 290.766913 
L 170.966989 294.155664 
L 171.375612 296.37033 
L 172.60148 300.841194 
L 173.010102 302.171505 
L 173.418725 301.434022 
L 173.827347 302.718663 
L 174.23597 301.016546 
L 175.053215 289.123498 
L 175.870461 260.947738 
L 176.687706 226.148247 
L 177.504951 188.787477 
L 177.913574 177.550342 
L 178.730819 168.846385 
L 179.139442 166.200923 
L 179.956687 158.131924 
L 180.773932 151.002759 
L 181.182555 147.802293 
L 181.591178 145.775851 
L 183.225668 134.803971 
L 184.860159 126.956792 
L 185.268781 125.64565 
L 185.677404 123.749393 
L 186.903272 120.049188 
L 187.720517 117.566536 
L 188.12914 116.903601 
L 188.537762 115.294631 
L 188.946385 115.012232 
L 189.355008 113.433913 
L 189.76363 113.302146 
L 190.172253 111.613136 
L 190.580876 111.484866 
L 190.989498 111.213297 
L 191.398121 109.8431 
L 191.806744 110.17208 
L 192.215366 108.238614 
L 192.623989 108.656524 
L 193.032611 108.011104 
L 193.441234 107.868887 
L 194.258479 107.024742 
L 194.667102 106.664584 
L 195.075725 107.030236 
L 195.484347 106.185812 
L 195.89297 106.310092 
L 196.301593 106.008833 
L 196.710215 106.584841 
L 197.118838 106.048196 
L 197.52746 106.309539 
L 197.936083 105.876939 
L 198.344706 106.587654 
L 198.753328 106.584037 
L 199.161951 106.731361 
L 199.570574 107.451637 
L 199.979196 107.362891 
L 200.387819 107.911297 
L 201.205064 108.573933 
L 201.613687 109.318429 
L 202.022309 109.240521 
L 202.430932 110.735188 
L 202.839555 110.741687 
L 203.248177 111.22546 
L 203.6568 112.188804 
L 204.065423 112.623081 
L 204.882668 114.480108 
L 205.291291 114.326061 
L 205.699913 115.894031 
L 206.925781 118.783159 
L 207.334404 119.227314 
L 207.743026 119.99101 
L 208.151649 121.767752 
L 208.560272 121.934391 
L 208.968894 123.537916 
L 209.377517 124.544908 
L 209.78614 125.195931 
L 210.194762 126.99479 
L 210.603385 127.594397 
L 211.012008 128.630166 
L 211.42063 130.084985 
L 211.829253 130.983788 
L 213.463743 136.118404 
L 213.872366 137.64575 
L 214.280989 137.858672 
L 214.689611 140.686563 
L 215.098234 140.981519 
L 215.506857 142.970301 
L 215.915479 143.739463 
L 217.54997 149.603463 
L 217.958592 151.715128 
L 218.367215 151.831113 
L 218.775838 154.403682 
L 219.18446 155.150525 
L 219.593083 157.042122 
L 220.410328 159.631393 
L 220.818951 161.728982 
L 221.227573 162.882983 
L 221.636196 164.543001 
L 222.044819 165.681452 
L 222.862064 169.202483 
L 223.270687 170.55158 
L 223.679309 172.735146 
L 224.087932 173.328883 
L 224.496555 175.915102 
L 225.3138 178.324244 
L 225.722422 180.61941 
L 226.131045 181.267998 
L 226.539668 183.818724 
L 226.94829 185.05818 
L 227.356913 187.019623 
L 227.765536 188.091986 
L 228.174158 190.769717 
L 228.991404 193.250019 
L 229.400026 195.94609 
L 229.808649 195.926196 
L 230.217272 199.042492 
L 230.625894 200.070166 
L 231.034517 201.645805 
L 231.443139 204.149461 
L 231.851762 204.90654 
L 232.260385 206.750371 
L 232.669007 209.17924 
L 233.07763 210.152748 
L 233.486253 212.421263 
L 234.712121 217.025374 
L 235.120743 219.441089 
L 235.529366 220.828912 
L 235.937988 222.938461 
L 236.346611 223.994788 
L 236.755234 226.730039 
L 237.163856 227.560225 
L 237.981102 231.883676 
L 238.389724 232.623266 
L 238.798347 235.126952 
L 239.20697 236.087492 
L 239.615592 239.196328 
L 240.024215 239.977925 
L 241.250083 245.848568 
L 241.658705 246.757833 
L 242.067328 249.375399 
L 242.475951 250.714427 
L 243.293196 254.653929 
L 243.701819 255.439084 
L 244.110441 258.2625 
L 244.519064 259.438475 
L 244.927687 261.763766 
L 245.336309 263.19976 
L 246.153554 266.77301 
L 246.562177 268.30702 
L 246.9708 270.639542 
L 247.379422 271.530512 
L 248.196668 275.778361 
L 249.013913 278.820272 
L 249.422536 281.436264 
L 249.831158 282.28136 
L 250.239781 284.087441 
L 250.648403 286.812094 
L 251.057026 286.516339 
L 251.465649 289.860029 
L 251.874271 291.344414 
L 252.282894 291.344289 
L 252.691517 294.97234 
L 253.100139 295.276472 
L 253.508762 296.482847 
L 253.917385 299.530246 
L 254.326007 298.122316 
L 254.73463 301.299489 
L 255.143252 300.954385 
L 255.551875 301.022491 
L 255.960498 301.21042 
L 256.36912 298.74486 
L 256.777743 295.592014 
L 257.186366 290.342268 
L 257.594988 278.353204 
L 258.003611 262.701486 
L 258.820856 195.849857 
L 259.229479 162.835312 
L 259.638101 146.835343 
L 260.455347 143.370084 
L 261.272592 133.020495 
L 261.681215 132.30088 
L 262.49846 131.707989 
L 262.907083 128.842659 
L 263.315705 128.733987 
L 263.724328 125.649114 
L 264.132951 124.511686 
L 264.541573 123.029491 
L 264.950196 120.016141 
L 265.358818 119.923276 
L 266.176064 115.873686 
L 266.584686 115.30165 
L 266.993309 112.989837 
L 267.401932 112.409317 
L 267.810554 110.481091 
L 268.219177 110.524122 
L 268.6278 107.319905 
L 269.036422 108.533384 
L 269.445045 105.834858 
L 269.853667 106.22053 
L 270.670913 103.480115 
L 271.079535 104.691536 
L 271.488158 101.713171 
L 271.896781 102.834846 
L 272.714026 100.407704 
L 273.122649 101.69088 
L 273.939894 99.425852 
L 274.348516 101.052458 
L 274.757139 98.748916 
L 275.165762 99.777828 
L 275.574384 99.766293 
L 275.983007 99.371822 
L 276.39163 99.499352 
L 276.800252 100.284252 
L 277.208875 98.730816 
L 277.617498 101.246983 
L 278.02612 99.300966 
L 278.843365 101.478911 
L 279.251988 100.676158 
L 279.660611 102.293776 
L 280.477856 101.862082 
L 280.886479 103.944962 
L 281.295101 103.085327 
L 281.703724 104.424709 
L 282.112347 105.277607 
L 282.520969 105.494086 
L 284.15546 108.925903 
L 284.564082 109.240303 
L 284.972705 111.473294 
L 285.381328 110.280307 
L 285.78995 113.69938 
L 286.198573 112.642676 
L 286.607196 115.020044 
L 287.015818 115.218642 
L 287.424441 115.995923 
L 287.833064 117.616456 
L 288.241686 117.083518 
L 288.650309 118.964532 
L 289.058931 120.097076 
L 289.467554 119.892764 
L 289.876177 122.065425 
L 290.284799 122.364616 
L 290.693422 123.13373 
L 291.102045 125.197863 
L 291.510667 125.115735 
L 291.91929 126.932256 
L 292.327913 127.350444 
L 292.736535 129.007607 
L 293.145158 129.814115 
L 293.55378 131.145278 
L 293.962403 132.09268 
L 294.371026 133.797392 
L 295.188271 135.959398 
L 295.596894 137.740261 
L 296.005516 137.842441 
L 296.414139 140.926416 
L 296.822762 140.455985 
L 297.231384 143.243932 
L 297.640007 144.398557 
L 298.048629 144.606988 
L 298.457252 148.332964 
L 298.865875 147.248304 
L 299.274497 150.298121 
L 300.091743 152.575101 
L 300.500365 154.688133 
L 300.908988 156.052561 
L 301.317611 156.818116 
L 301.726233 160.443873 
L 302.134856 159.254548 
L 302.543479 162.516643 
L 302.952101 163.832826 
L 303.360724 164.386239 
L 303.769346 166.972389 
L 304.177969 168.594432 
L 304.586592 168.879194 
L 304.995214 172.456367 
L 305.403837 172.542248 
L 306.221082 176.488158 
L 306.629705 177.214871 
L 307.44695 180.987073 
L 307.855573 181.421829 
L 308.264195 184.392954 
L 308.672818 184.746164 
L 309.081441 186.084419 
L 309.490063 188.994993 
L 309.898686 187.962175 
L 310.307309 191.661362 
L 310.715931 191.360374 
L 311.124554 193.282088 
L 311.533177 194.07673 
L 311.941799 195.882511 
L 312.350422 196.59053 
L 312.759044 198.101531 
L 313.167667 198.741384 
L 313.57629 201.144684 
L 313.984912 200.690773 
L 314.802158 204.680635 
L 315.21078 204.451387 
L 315.619403 205.93493 
L 316.028026 208.420141 
L 316.436648 207.252417 
L 316.845271 211.406227 
L 317.253893 209.971004 
L 318.071139 214.207684 
L 318.479761 212.932899 
L 318.888384 217.374557 
L 319.297007 215.374231 
L 319.705629 219.123343 
L 320.114252 218.288298 
L 320.522875 220.738342 
L 320.931497 219.939262 
L 321.34012 223.570403 
L 321.748743 221.697146 
L 322.157365 225.837256 
L 322.565988 223.900547 
L 322.97461 227.208565 
L 323.383233 226.355284 
L 323.791856 228.324309 
L 324.200478 229.013388 
L 324.609101 229.47458 
L 325.017724 230.149237 
L 325.426346 231.926082 
L 325.834969 230.578049 
L 326.243592 234.019342 
L 326.652214 232.290999 
L 327.060837 234.190402 
L 327.469459 233.704131 
L 327.878082 234.693978 
L 328.286705 235.02965 
L 328.695327 235.870126 
L 329.10395 235.101598 
L 329.512573 237.4259 
L 329.921195 234.013241 
L 330.329818 237.997784 
L 330.738441 234.056509 
L 331.147063 238.129112 
L 331.555686 234.716723 
L 331.964308 237.181072 
L 332.372931 235.523746 
L 332.781554 235.159427 
L 333.190176 235.29413 
L 333.598799 234.247176 
L 334.007422 234.957022 
L 334.416044 232.383101 
L 334.824667 234.78493 
L 335.23329 231.662543 
L 335.641912 231.732983 
L 336.050535 230.753791 
L 336.459157 230.390629 
L 336.86778 228.310635 
L 337.276403 228.326336 
L 337.685025 226.85202 
L 338.093648 225.987691 
L 339.319516 221.460556 
L 341.362629 214.960312 
L 341.771252 213.253343 
L 342.179874 212.162385 
L 342.588497 210.240355 
L 342.99712 209.138776 
L 343.405742 207.069152 
L 343.814365 206.038096 
L 344.222988 204.103261 
L 344.63161 203.14953 
L 345.857478 199.660548 
L 346.266101 197.674063 
L 346.674723 196.414752 
L 347.083346 195.946109 
L 347.491969 193.849997 
L 347.900591 193.950919 
L 348.309214 191.361937 
L 348.717837 191.804881 
L 349.126459 189.497988 
L 349.535082 189.514739 
L 350.352327 187.751548 
L 350.76095 187.079786 
L 351.169572 186.12382 
L 351.578195 185.974518 
L 351.986818 184.924432 
L 352.39544 184.815304 
L 352.804063 183.741771 
L 353.212686 183.687354 
L 354.029931 182.352583 
L 354.438554 182.213562 
L 354.847176 181.833251 
L 355.255799 181.060239 
L 355.664421 181.245641 
L 356.073044 180.628226 
L 356.481667 180.647377 
L 356.890289 180.098841 
L 357.298912 180.032626 
L 358.116157 179.46103 
L 358.52478 179.458492 
L 358.933403 179.0489 
L 359.342025 179.069542 
L 359.750648 178.645888 
L 360.159271 178.768316 
L 360.567893 178.414649 
L 360.976516 178.49289 
L 361.385138 178.222996 
L 362.202384 178.121109 
L 362.611006 177.918217 
L 363.019629 178.0617 
L 363.428252 177.587368 
L 363.836874 177.925539 
L 364.245497 177.607914 
L 365.471365 177.613593 
L 365.879987 177.471023 
L 366.697233 177.424053 
L 369.148969 177.103179 
L 370.374836 177.128593 
L 370.783459 176.990602 
L 371.192082 177.093252 
L 371.600704 176.930828 
L 372.009327 177.028581 
L 372.826572 176.97289 
L 376.504176 176.909515 
L 376.912799 176.95449 
L 377.730044 176.90634 
L 384.268006 176.885809 
L 409.193987 176.882104 
L 409.193987 176.882104 
" clip-path="url(#pbf9c065f23)" style="fill: none; stroke: #008000; stroke-width: 1.5; stroke-linecap: square"/>
   </g>
   <g id="line2d_34">
    <path d="M 83.565824 264.728259 
L 86.01756 278.649143 
L 86.426183 280.658497 
L 87.243428 285.896978 
L 87.652051 287.522628 
L 88.469296 292.647433 
L 91.329655 307.544934 
L 91.738277 307.832712 
L 92.1469 308.813648 
L 92.555522 308.962484 
L 92.964145 307.742418 
L 93.372768 305.286692 
L 93.78139 301.22391 
L 94.190013 292.892314 
L 94.598636 280.484628 
L 95.824504 234.247424 
L 97.458994 197.175473 
L 98.276239 186.154927 
L 100.319353 167.666384 
L 101.136598 159.095811 
L 101.54522 155.815915 
L 102.362466 151.485985 
L 103.179711 148.078478 
L 103.588334 145.866545 
L 103.996956 144.412919 
L 106.040069 134.72668 
L 106.448692 133.219347 
L 107.67456 127.819106 
L 110.534919 116.837023 
L 111.352164 114.719502 
L 112.169409 111.715628 
L 112.578032 111.187979 
L 112.986654 109.677174 
L 113.395277 108.99549 
L 113.8039 107.840144 
L 114.621145 106.857795 
L 115.029768 105.518136 
L 115.43839 105.389355 
L 115.847013 104.374072 
L 116.255635 103.726864 
L 116.664258 103.622655 
L 117.072881 102.87518 
L 117.481503 102.7988 
L 117.890126 102.40597 
L 118.298749 102.248248 
L 118.707371 102.539522 
L 119.115994 101.945699 
L 119.524617 101.682255 
L 119.933239 101.710601 
L 120.341862 101.604303 
L 121.56773 102.122415 
L 121.976352 102.575088 
L 122.793598 103.066914 
L 123.20222 103.665706 
L 123.610843 103.78421 
L 124.019466 104.692066 
L 124.428088 105.138188 
L 125.245333 106.392794 
L 125.653956 106.832018 
L 126.062579 107.52808 
L 126.471201 108.732741 
L 126.879824 109.010127 
L 127.288447 110.462118 
L 128.105692 111.962585 
L 128.514315 113.172465 
L 128.922937 113.769844 
L 129.33156 114.775306 
L 130.557428 118.444307 
L 131.783296 121.448096 
L 132.191918 123.163481 
L 133.826409 128.119885 
L 134.235032 129.756159 
L 134.643654 130.905392 
L 137.09539 139.642645 
L 137.504013 140.946044 
L 137.912635 142.932806 
L 138.321258 144.130158 
L 140.364371 152.426698 
L 146.902333 180.453464 
L 147.310956 182.935325 
L 147.719579 184.294151 
L 148.128201 186.829069 
L 148.945447 190.187757 
L 149.354069 192.751609 
L 149.762692 193.774609 
L 150.579937 198.170385 
L 152.214428 206.105355 
L 152.62305 208.433673 
L 153.031673 209.929803 
L 154.666163 219.007998 
L 155.483409 222.372815 
L 155.892031 224.809713 
L 156.300654 226.246155 
L 156.709277 229.058653 
L 158.75239 239.399616 
L 159.978258 246.028509 
L 160.38688 247.793348 
L 161.612748 254.803202 
L 164.473107 269.858542 
L 165.290352 274.629904 
L 165.698975 275.877423 
L 166.107597 279.280198 
L 166.924843 283.134007 
L 167.333465 286.066036 
L 167.742088 287.450413 
L 168.150711 290.406411 
L 168.967956 294.84619 
L 169.376578 297.261092 
L 169.785201 298.673697 
L 170.602446 302.939737 
L 172.236937 311.198103 
L 172.64556 312.143249 
L 173.054182 313.449487 
L 173.871427 314.810992 
L 174.688673 311.454186 
L 175.097295 307.064176 
L 175.505918 299.472325 
L 175.914541 289.596819 
L 176.731786 256.282936 
L 177.549031 216.614776 
L 177.957654 204.067143 
L 178.366276 195.400965 
L 178.774899 189.755934 
L 179.183522 186.230769 
L 180.000767 177.2013 
L 181.226635 165.31839 
L 181.635258 162.95832 
L 182.04388 159.032693 
L 185.721484 134.034273 
L 186.130107 132.433124 
L 186.947352 127.431281 
L 188.990465 117.422475 
L 189.399088 116.076741 
L 189.80771 113.696397 
L 190.216333 112.815284 
L 190.624956 110.661571 
L 191.033578 109.881782 
L 191.442201 107.737246 
L 191.850824 107.523937 
L 192.259446 105.288998 
L 192.668069 105.026662 
L 193.076691 103.46209 
L 193.485314 102.417914 
L 193.893937 102.240212 
L 194.302559 100.262581 
L 194.711182 100.103286 
L 195.119805 99.111038 
L 195.93705 97.893989 
L 196.345673 97.487046 
L 197.162918 97.016158 
L 197.57154 96.284355 
L 197.980163 96.266842 
L 198.388786 96.093572 
L 198.797408 95.604 
L 199.614654 95.944452 
L 200.023276 95.681757 
L 200.431899 96.567893 
L 200.840522 96.041226 
L 201.657767 96.950535 
L 202.066389 96.803256 
L 202.475012 97.872563 
L 202.883635 97.786028 
L 203.292257 98.745501 
L 203.70088 99.057411 
L 204.109503 100.278241 
L 204.518125 99.879311 
L 204.926748 101.663889 
L 205.335371 101.591097 
L 205.743993 103.371003 
L 206.152616 103.190264 
L 206.561239 104.772213 
L 206.969861 105.173392 
L 207.378484 106.684668 
L 207.787106 107.174735 
L 208.195729 108.149764 
L 208.604352 109.554696 
L 209.012974 110.27518 
L 209.421597 112.254025 
L 209.83022 112.566108 
L 210.238842 114.435967 
L 210.647465 114.976182 
L 211.056088 116.996616 
L 211.46471 117.355178 
L 211.873333 119.484822 
L 213.507823 124.506097 
L 214.733691 129.425855 
L 215.142314 130.36516 
L 216.776804 137.031827 
L 217.185427 138.338373 
L 217.59405 140.435522 
L 218.002672 141.586617 
L 218.819918 145.034263 
L 219.22854 146.504814 
L 220.045786 150.012643 
L 220.454408 151.634186 
L 220.863031 154.061087 
L 221.271654 154.974566 
L 221.680276 157.465533 
L 222.088899 158.822462 
L 223.314767 164.736778 
L 223.723389 165.845474 
L 224.949257 172.019928 
L 225.35788 173.203144 
L 225.766503 176.043749 
L 226.175125 176.935566 
L 227.400993 183.438607 
L 227.809616 184.998259 
L 229.444106 193.022798 
L 229.852729 194.540171 
L 230.261352 197.152293 
L 230.669974 198.39393 
L 231.078597 201.144519 
L 231.487219 202.382765 
L 231.895842 205.116928 
L 232.304465 206.595262 
L 232.713087 208.545751 
L 233.12171 211.15603 
L 234.347578 216.687558 
L 234.756201 219.584206 
L 235.164823 220.261167 
L 235.573446 223.343659 
L 237.616559 233.194014 
L 238.025182 235.671538 
L 238.433804 236.989247 
L 239.25105 241.902057 
L 239.659672 243.636783 
L 240.068295 245.940632 
L 240.476918 247.419933 
L 240.88554 250.074166 
L 241.702785 253.892605 
L 242.520031 258.415655 
L 242.928653 259.788061 
L 243.337276 263.128156 
L 243.745899 263.8792 
L 244.563144 268.818696 
L 244.971767 270.078926 
L 245.380389 273.087613 
L 245.789012 275.253922 
L 246.197634 276.396177 
L 246.606257 280.013126 
L 247.01488 280.128599 
L 247.423502 284.171024 
L 247.832125 284.676314 
L 248.64937 289.283104 
L 249.466616 293.372058 
L 249.875238 295.421332 
L 250.283861 296.805566 
L 250.692483 299.371919 
L 251.509729 302.843935 
L 251.918351 304.724711 
L 252.326974 306.051775 
L 252.735597 307.981072 
L 253.144219 310.50687 
L 253.552842 310.408638 
L 253.961465 313.163252 
L 254.370087 313.479472 
L 254.77871 315.101609 
L 255.187332 314.682514 
L 255.595955 315.753958 
L 256.4132 312.639763 
L 256.821823 309.340239 
L 257.230446 304.626691 
L 257.639068 295.351722 
L 258.047691 280.784077 
L 258.456314 256.063322 
L 259.273559 197.145994 
L 259.682182 183.905747 
L 260.090804 178.024766 
L 260.908049 170.06731 
L 261.316672 161.412496 
L 261.725295 158.514058 
L 262.133917 154.557496 
L 262.54254 153.818467 
L 262.951163 151.461428 
L 263.359785 146.804684 
L 263.768408 145.617375 
L 264.177031 140.527598 
L 264.994276 135.305942 
L 265.402898 131.07188 
L 265.811521 129.054484 
L 266.628766 122.566481 
L 267.037389 120.401095 
L 267.854634 115.282838 
L 269.489125 106.686487 
L 271.123615 99.460273 
L 271.532238 99.467007 
L 271.940861 95.923324 
L 272.349483 97.247564 
L 272.758106 93.552896 
L 273.166729 94.079334 
L 273.575351 92.880111 
L 273.983974 91.284107 
L 274.392596 91.427263 
L 275.209842 89.421968 
L 275.618464 89.665382 
L 276.027087 88.513963 
L 276.43571 88.371801 
L 276.844332 88.453876 
L 277.252955 87.549202 
L 277.661578 87.856069 
L 278.0702 87.595673 
L 278.887446 87.809415 
L 279.296068 88.036409 
L 279.704691 87.612259 
L 280.113313 89.075215 
L 280.521936 87.841073 
L 280.930559 89.837203 
L 281.339181 89.158688 
L 281.747804 90.316835 
L 282.156427 90.981158 
L 282.565049 90.972221 
L 282.973672 92.57724 
L 283.382295 92.329198 
L 284.19954 94.771667 
L 284.608162 95.141965 
L 285.425408 97.191618 
L 285.83403 98.554328 
L 286.242653 98.987006 
L 287.059898 101.580465 
L 287.877144 103.480178 
L 288.285766 105.3109 
L 288.694389 106.079409 
L 289.511634 108.941297 
L 289.920257 109.940899 
L 291.554747 115.802044 
L 291.96337 116.558487 
L 292.371993 118.949241 
L 293.189238 120.759318 
L 293.59786 123.468538 
L 294.006483 124.0873 
L 294.415106 126.012107 
L 294.823728 126.987596 
L 295.232351 129.353359 
L 295.640974 129.913236 
L 296.458219 133.95832 
L 296.866842 134.924538 
L 297.275464 137.291108 
L 298.09271 140.146155 
L 298.909955 143.924974 
L 299.318577 144.599788 
L 299.7272 148.352889 
L 300.135823 147.233545 
L 300.544445 152.289917 
L 300.953068 151.031601 
L 301.361691 154.687989 
L 301.770313 156.083891 
L 302.178936 156.637219 
L 302.587559 159.796954 
L 302.996181 161.320902 
L 303.404804 162.233939 
L 303.813426 165.585137 
L 304.222049 165.706827 
L 304.630672 168.698568 
L 305.039294 169.823009 
L 305.447917 172.048139 
L 305.85654 173.554548 
L 306.265162 176.250102 
L 306.673785 175.881387 
L 307.082408 180.218284 
L 307.49103 180.325411 
L 307.899653 182.290339 
L 308.308275 185.315006 
L 308.716898 185.020455 
L 309.125521 188.840527 
L 309.534143 188.218686 
L 309.942766 193.174913 
L 310.351389 190.992926 
L 310.760011 196.37665 
L 311.168634 196.067428 
L 312.394502 201.342385 
L 312.803124 202.619448 
L 313.211747 204.383923 
L 313.62037 205.206764 
L 314.028992 207.341949 
L 314.437615 208.321083 
L 315.663483 212.560234 
L 316.072106 213.271781 
L 316.480728 215.789513 
L 316.889351 214.66681 
L 317.297974 218.105776 
L 317.706596 218.135034 
L 318.115219 219.88753 
L 318.932464 221.70556 
L 319.341087 223.414533 
L 319.749709 223.712602 
L 320.158332 226.062757 
L 320.566955 225.481544 
L 320.975577 227.823779 
L 321.3842 228.321159 
L 321.792823 228.995718 
L 322.610068 231.783079 
L 323.01869 232.155188 
L 323.427313 232.162623 
L 323.835936 234.740453 
L 324.244558 232.77043 
L 324.653181 237.685836 
L 325.061804 232.564593 
L 325.470426 239.83981 
L 325.879049 234.37606 
L 326.287672 239.108523 
L 326.696294 237.747391 
L 327.104917 237.436625 
L 327.513539 240.373031 
L 327.922162 237.386314 
L 328.330785 240.054469 
L 328.739407 239.096848 
L 329.14803 239.96726 
L 329.556653 239.189081 
L 329.965275 240.03783 
L 330.373898 238.404461 
L 330.782521 240.083664 
L 331.191143 238.445194 
L 331.599766 239.023842 
L 332.008388 237.558976 
L 332.417011 238.932172 
L 332.825634 236.529187 
L 333.234256 236.626764 
L 333.642879 236.096827 
L 334.051502 234.858194 
L 334.460124 235.310005 
L 334.868747 233.139418 
L 335.27737 232.397399 
L 335.685992 231.150567 
L 336.094615 230.892023 
L 336.503238 228.087008 
L 336.91186 229.072551 
L 337.320483 225.919078 
L 337.729105 226.238479 
L 338.137728 224.18948 
L 338.546351 223.554158 
L 338.954973 221.145899 
L 339.363596 219.869409 
L 339.772219 219.392679 
L 340.180841 216.700896 
L 340.589464 215.836094 
L 340.998087 214.368529 
L 341.406709 212.255942 
L 341.815332 212.479511 
L 342.223954 208.612554 
L 342.632577 208.898938 
L 343.0412 206.492136 
L 343.858445 204.650101 
L 344.267068 202.446141 
L 344.67569 202.228425 
L 345.492936 198.771413 
L 345.901558 198.222691 
L 346.310181 196.345651 
L 346.718803 195.618389 
L 347.536049 193.477521 
L 347.944671 192.639507 
L 348.353294 191.385049 
L 348.761917 190.905995 
L 349.170539 190.153724 
L 349.987785 188.380457 
L 350.396407 187.527654 
L 350.80503 187.438902 
L 351.622275 185.577681 
L 352.030898 185.32508 
L 352.43952 184.154157 
L 352.848143 184.285579 
L 353.256766 183.269189 
L 353.665388 183.090339 
L 355.708502 181.008661 
L 356.117124 181.086228 
L 356.525747 180.356663 
L 356.934369 180.305972 
L 357.751615 179.718645 
L 358.160237 179.644943 
L 358.56886 179.352393 
L 361.837841 178.217142 
L 362.246464 178.351317 
L 362.655086 178.043499 
L 363.063709 177.984232 
L 363.472332 177.745334 
L 364.6982 177.673232 
L 365.106822 177.488192 
L 365.515445 177.514056 
L 365.924067 177.400322 
L 366.33269 177.474731 
L 366.741313 177.323746 
L 367.149935 177.358521 
L 367.967181 177.207943 
L 369.193049 177.17318 
L 369.193049 177.17318 
" clip-path="url(#pbf9c065f23)" style="fill: none; stroke: #ff7f0e; stroke-width: 1.5; stroke-linecap: square"/>
   </g>
   <g id="line2d_35">
    <path d="M 83.46743 265.393247 
L 85.510543 277.134173 
L 91.23126 309.658792 
L 91.639883 311.323766 
L 92.048506 312.38475 
L 92.457128 313.826138 
L 92.865751 314.132685 
L 93.274374 313.184231 
L 93.682996 310.935145 
L 94.091619 306.743795 
L 94.500241 299.503056 
L 94.908864 287.964924 
L 96.134732 241.017335 
L 98.177845 190.921874 
L 98.586468 184.864469 
L 99.403713 177.558385 
L 101.038204 165.375071 
L 102.264072 151.978283 
L 103.081317 146.810942 
L 103.898562 143.750217 
L 104.715807 140.019905 
L 105.533053 136.080188 
L 107.576166 127.571815 
L 107.984789 125.663266 
L 108.393411 124.392129 
L 109.210656 120.872857 
L 110.845147 114.29047 
L 111.25377 113.506841 
L 112.071015 110.340644 
L 112.479638 109.412655 
L 112.88826 107.961304 
L 114.114128 105.080987 
L 114.522751 104.467485 
L 114.931373 103.571138 
L 115.339996 102.385801 
L 115.748619 102.293706 
L 116.157241 101.25146 
L 116.974487 100.452317 
L 117.383109 99.760396 
L 118.200354 99.570703 
L 119.0176 99.214867 
L 119.426222 98.496985 
L 119.834845 98.714186 
L 120.65209 98.721206 
L 121.060713 98.977604 
L 121.877958 99.259782 
L 123.103826 100.24282 
L 123.512449 100.868474 
L 124.329694 101.682126 
L 124.738317 102.631688 
L 125.146939 102.967988 
L 125.964185 104.478992 
L 126.372807 105.220569 
L 128.007298 109.040218 
L 129.233166 111.754261 
L 129.641788 113.092024 
L 130.050411 114.005448 
L 131.276279 117.772409 
L 132.093524 120.155545 
L 132.910769 122.779453 
L 133.319392 123.763387 
L 133.728015 125.938975 
L 134.136637 126.8605 
L 134.54526 128.156877 
L 134.953883 130.179121 
L 135.362505 130.784956 
L 135.771128 132.694034 
L 136.179751 133.645532 
L 136.588373 135.879434 
L 136.996996 137.452798 
L 137.405618 138.517829 
L 138.222864 141.988378 
L 138.631486 143.567286 
L 139.448732 147.158755 
L 139.857354 148.493348 
L 140.265977 150.527425 
L 140.6746 151.87368 
L 141.491845 155.762881 
L 141.900467 157.073373 
L 143.126335 162.736827 
L 144.352203 167.977216 
L 144.760826 170.333096 
L 145.169449 171.521241 
L 146.803939 179.524967 
L 148.43843 187.139858 
L 149.255675 191.223826 
L 150.07292 195.239848 
L 150.890166 199.261424 
L 151.298788 201.77812 
L 151.707411 203.28269 
L 153.341901 211.892577 
L 153.750524 213.520858 
L 154.567769 218.453045 
L 154.976392 219.905605 
L 155.385015 222.56478 
L 156.20226 226.401549 
L 157.019505 230.929788 
L 157.83675 234.871116 
L 159.471241 244.191498 
L 160.288486 248.322296 
L 170.912675 308.024526 
L 171.321297 309.684925 
L 172.138543 313.883369 
L 172.955788 317.414678 
L 173.773033 319.33742 
L 174.181656 318.603814 
L 174.590279 317.626587 
L 174.998901 315.504664 
L 175.407524 310.668197 
L 175.816146 303.132944 
L 176.224769 293.190648 
L 176.633392 276.869479 
L 177.85926 212.892588 
L 178.267882 200.532962 
L 179.49375 187.04472 
L 179.902373 183.610642 
L 182.354109 155.335531 
L 186.440335 129.530687 
L 187.666203 123.083236 
L 188.892071 116.764327 
L 189.300694 115.144119 
L 189.709316 112.973231 
L 190.935184 108.643357 
L 191.343807 106.31555 
L 191.752429 105.737954 
L 192.161052 103.818062 
L 192.978297 101.851274 
L 193.38692 100.534646 
L 194.204165 98.597469 
L 194.612788 97.245978 
L 195.02141 97.307032 
L 195.430033 95.967571 
L 195.838656 95.271621 
L 196.247278 95.062344 
L 196.655901 94.115245 
L 197.064524 94.567966 
L 197.473146 93.718588 
L 197.881769 93.323511 
L 198.290392 93.351812 
L 198.699014 92.841502 
L 199.516259 92.961215 
L 199.924882 92.825202 
L 200.333505 93.465737 
L 200.742127 92.997334 
L 201.15075 93.553516 
L 202.376618 94.53845 
L 202.785241 95.19238 
L 203.193863 95.214801 
L 203.602486 96.632036 
L 204.011109 96.466457 
L 204.419731 97.612492 
L 204.828354 97.833991 
L 205.236976 99.554283 
L 205.645599 99.497899 
L 206.054222 101.012999 
L 206.462844 101.237658 
L 206.871467 102.68828 
L 207.28009 103.555368 
L 207.688712 104.084732 
L 209.731825 110.506762 
L 210.140448 110.809451 
L 210.549071 113.172298 
L 210.957693 113.76469 
L 211.366316 115.058609 
L 211.774939 116.847749 
L 213.000807 120.596616 
L 214.226674 125.709439 
L 214.635297 126.529109 
L 215.04392 128.543411 
L 215.861165 131.057446 
L 216.269788 133.501675 
L 216.67841 134.466779 
L 217.495656 138.359313 
L 217.904278 139.526454 
L 218.721523 142.900911 
L 219.538769 146.572374 
L 221.581882 155.255021 
L 221.990505 157.60256 
L 222.399127 158.591875 
L 222.80775 161.647525 
L 223.216373 162.183182 
L 223.624995 165.229487 
L 224.033618 166.272821 
L 224.44224 168.990413 
L 224.850863 169.770537 
L 225.259486 172.884413 
L 225.668108 174.090991 
L 226.076731 176.508832 
L 226.485354 177.950845 
L 226.893976 179.89717 
L 227.302599 182.768228 
L 227.711222 183.989046 
L 229.754335 194.429248 
L 230.162957 195.830765 
L 230.57158 198.35983 
L 230.980203 200.109514 
L 231.797448 204.761096 
L 232.206071 205.829707 
L 232.614693 209.350081 
L 233.023316 209.958619 
L 233.431938 213.134979 
L 233.840561 214.611596 
L 236.292297 227.880713 
L 236.70092 228.796559 
L 237.109542 232.090063 
L 237.926788 235.230588 
L 238.33541 238.351355 
L 238.744033 239.932528 
L 239.152655 242.528373 
L 239.561278 244.321476 
L 239.969901 247.16532 
L 240.378523 248.026409 
L 240.787146 251.388894 
L 241.195769 252.526744 
L 241.604391 255.711296 
L 242.013014 256.940153 
L 242.421637 259.754546 
L 242.830259 261.467551 
L 243.238882 264.225909 
L 243.647504 265.595604 
L 244.056127 268.448487 
L 244.46475 270.052297 
L 244.873372 272.754299 
L 245.281995 274.435095 
L 245.690618 277.093141 
L 246.09924 278.462542 
L 246.507863 282.306148 
L 246.916486 282.249093 
L 247.325108 286.164499 
L 247.733731 287.715542 
L 248.142353 288.746385 
L 248.550976 292.986683 
L 248.959599 292.43117 
L 249.368221 297.271911 
L 249.776844 297.566731 
L 250.594089 302.165287 
L 251.002712 304.555513 
L 251.411335 305.652382 
L 251.819957 308.451836 
L 252.22858 308.906928 
L 252.637202 312.507318 
L 253.045825 313.321047 
L 253.86307 317.220767 
L 254.271693 317.711691 
L 254.680316 319.532759 
L 255.088938 319.783417 
L 255.497561 320.533806 
L 255.906184 320.332207 
L 256.314806 317.828054 
L 256.723429 316.649835 
L 257.132052 311.437172 
L 257.540674 304.748156 
L 257.949297 291.653495 
L 258.357919 272.525808 
L 259.175165 209.821596 
L 259.583787 190.105985 
L 259.99241 185.72703 
L 260.809655 170.615444 
L 261.218278 163.885274 
L 267.347617 117.920278 
L 268.164863 112.362251 
L 268.573485 110.814043 
L 268.982108 107.337997 
L 269.390731 106.312381 
L 270.207976 101.814291 
L 270.616599 100.471845 
L 271.433844 96.624257 
L 271.842466 96.106261 
L 272.251089 93.533538 
L 272.659712 92.53215 
L 273.068334 92.703194 
L 273.476957 89.525509 
L 273.88558 90.198372 
L 274.702825 87.433964 
L 275.111448 88.242973 
L 275.52007 85.934865 
L 275.928693 86.700639 
L 276.745938 85.197615 
L 277.154561 85.752369 
L 277.563183 84.646423 
L 278.380429 85.197995 
L 278.789051 84.699197 
L 279.197674 85.432883 
L 279.606297 84.79661 
L 280.014919 85.834273 
L 280.423542 86.09799 
L 280.832165 85.843296 
L 281.240787 87.249212 
L 281.64941 86.602512 
L 282.058032 88.309797 
L 282.466655 88.466036 
L 282.875278 88.841373 
L 283.2839 90.08053 
L 283.692523 90.555745 
L 284.101146 91.674788 
L 284.918391 93.224899 
L 285.327014 94.584261 
L 285.735636 95.119875 
L 286.144259 96.635792 
L 286.552881 97.161047 
L 286.961504 99.352967 
L 287.370127 98.889248 
L 287.778749 101.404901 
L 288.187372 102.157274 
L 288.595995 103.74255 
L 289.004617 104.449657 
L 289.41324 106.799692 
L 289.821863 106.701383 
L 290.230485 109.677206 
L 290.639108 109.589552 
L 291.04773 112.38654 
L 291.456353 112.562284 
L 292.273598 116.741166 
L 292.682221 116.777879 
L 293.090844 120.110483 
L 293.499466 120.073038 
L 293.908089 123.404729 
L 294.316712 122.719735 
L 294.725334 127.12707 
L 295.133957 125.58597 
L 295.54258 130.356787 
L 295.951202 129.344796 
L 296.359825 133.479772 
L 296.768447 133.132116 
L 297.17707 136.370141 
L 297.585693 137.223931 
L 298.811561 142.861964 
L 299.220183 144.119419 
L 300.446051 150.104553 
L 300.854674 151.025676 
L 301.263296 154.785513 
L 301.671919 153.450623 
L 302.080542 158.915348 
L 302.489164 156.863954 
L 302.897787 162.777146 
L 303.30641 160.94086 
L 303.715032 165.526551 
L 304.123655 165.706556 
L 304.9409 170.736169 
L 305.349523 171.550356 
L 306.575391 177.850425 
L 306.984013 177.927737 
L 307.392636 182.876278 
L 307.801259 181.121824 
L 308.209881 186.222766 
L 308.618504 185.820296 
L 309.027127 188.780768 
L 309.844372 191.553789 
L 310.252994 194.753475 
L 310.661617 194.904117 
L 311.07024 197.743995 
L 311.478862 199.692153 
L 311.887485 199.276264 
L 312.296108 203.836372 
L 312.70473 204.006326 
L 313.113353 204.002175 
L 313.521976 209.832714 
L 313.930598 205.929328 
L 314.339221 212.025873 
L 314.747844 211.587535 
L 315.156466 212.986778 
L 315.565089 215.741097 
L 315.973711 214.978097 
L 316.382334 219.31093 
L 316.790957 217.193969 
L 317.199579 222.081795 
L 317.608202 220.027017 
L 318.016825 224.493007 
L 318.425447 223.99515 
L 318.83407 225.269369 
L 319.242693 226.98448 
L 319.651315 227.556377 
L 320.059938 228.850108 
L 320.46856 229.365047 
L 320.877183 231.797144 
L 321.285806 230.762493 
L 321.694428 233.825429 
L 322.103051 233.308467 
L 322.511674 235.008956 
L 322.920296 235.058975 
L 323.328919 236.159053 
L 323.737542 236.184873 
L 324.146164 237.683639 
L 324.554787 236.805726 
L 324.963409 239.650302 
L 325.372032 238.564817 
L 325.780655 239.206218 
L 326.189277 240.476368 
L 326.5979 238.880819 
L 327.006523 241.238434 
L 327.415145 239.76031 
L 327.823768 241.015566 
L 328.232391 240.648022 
L 328.641013 240.641479 
L 329.049636 240.149484 
L 329.458258 241.167039 
L 329.866881 238.120209 
L 330.275504 242.714072 
L 330.684126 237.375524 
L 331.092749 241.067173 
L 331.501372 236.829529 
L 331.909994 238.294254 
L 332.318617 237.396754 
L 332.72724 235.876112 
L 333.135862 235.434612 
L 333.544485 235.185377 
L 333.953108 234.340456 
L 334.36173 232.307838 
L 334.770353 232.48757 
L 335.178975 229.791082 
L 335.587598 230.675366 
L 335.996221 228.517361 
L 336.404843 227.076041 
L 337.222089 224.890483 
L 337.630711 223.242437 
L 338.039334 223.297791 
L 338.447957 219.900496 
L 338.856579 220.249642 
L 339.265202 217.549192 
L 339.673824 217.335168 
L 340.082447 215.119521 
L 340.899692 213.119343 
L 341.308315 210.891946 
L 341.716938 210.374349 
L 342.12556 208.060197 
L 342.534183 206.799998 
L 342.942806 206.21698 
L 343.351428 203.51193 
L 343.760051 203.685349 
L 344.168673 200.867303 
L 344.577296 201.360897 
L 344.985919 198.943479 
L 345.394541 198.558148 
L 345.803164 196.637212 
L 346.211787 196.312287 
L 346.620409 194.264635 
L 347.029032 194.428209 
L 347.437655 192.635209 
L 348.2549 191.50495 
L 348.663522 190.110986 
L 349.072145 190.077197 
L 349.480768 188.650061 
L 349.88939 187.984844 
L 350.298013 187.869748 
L 350.706636 186.324846 
L 351.115258 186.273351 
L 351.932504 184.798367 
L 352.341126 184.467673 
L 352.749749 183.938634 
L 353.158372 183.066778 
L 353.566994 183.328665 
L 353.975617 181.835865 
L 354.384239 182.568637 
L 354.792862 181.555167 
L 355.201485 181.499983 
L 355.610107 181.216576 
L 356.01873 180.705807 
L 356.427353 180.647675 
L 356.835975 180.057046 
L 357.244598 180.20954 
L 357.653221 179.575247 
L 358.061843 179.761942 
L 358.470466 179.296104 
L 358.879088 179.326922 
L 359.287711 178.826713 
L 359.696334 178.955181 
L 360.104956 178.57526 
L 360.513579 178.770064 
L 360.922202 178.343545 
L 361.330824 178.376958 
L 361.739447 178.201145 
L 362.14807 178.221413 
L 362.556692 177.954378 
L 362.965315 178.001211 
L 364.191183 177.705092 
L 365.825673 177.60154 
L 366.234296 177.414055 
L 366.642919 177.477363 
L 367.460164 177.348748 
L 369.094654 177.187391 
L 369.094654 177.187391 
" clip-path="url(#pbf9c065f23)" style="fill: none; stroke: #1f77b4; stroke-width: 1.5; stroke-linecap: square"/>
   </g>
   <g id="patch_3">
    <path d="M 67.181102 327.968504 
L 67.181102 25.795276 
" style="fill: none; stroke: #000000; stroke-width: 0.8; stroke-linejoin: miter; stroke-linecap: square"/>
   </g>
   <g id="patch_4">
    <path d="M 425.480315 327.968504 
L 425.480315 25.795276 
" style="fill: none; stroke: #000000; stroke-width: 0.8; stroke-linejoin: miter; stroke-linecap: square"/>
   </g>
   <g id="patch_5">
    <path d="M 67.181102 327.968504 
L 425.480315 327.968504 
" style="fill: none; stroke: #000000; stroke-width: 0.8; stroke-linejoin: miter; stroke-linecap: square"/>
   </g>
   <g id="patch_6">
    <path d="M 67.181102 25.795276 
L 425.480315 25.795276 
" style="fill: none; stroke: #000000; stroke-width: 0.8; stroke-linejoin: miter; stroke-linecap: square"/>
   </g>
   <g id="text_19">
    <!-- $E_{gain}$ for different initial $E_{kin}$ -->
    <g transform="translate(144.630709 19.795276)scale(0.15 -0.15)">
     <defs>
      <path id="DejaVuSans-Oblique-45" d="M 1081 4666 
L 4031 4666 
L 3928 4134 
L 1606 4134 
L 1338 2753 
L 3566 2753 
L 3463 2222 
L 1234 2222 
L 909 531 
L 3284 531 
L 3181 0 
L 172 0 
L 1081 4666 
z
" transform="scale(0.015625)"/>
      <path id="DejaVuSans-Oblique-67" d="M 3816 3500 
L 3219 434 
Q 3047 -456 2561 -893 
Q 2075 -1331 1253 -1331 
Q 950 -1331 690 -1286 
Q 431 -1241 206 -1147 
L 313 -588 
Q 525 -725 762 -790 
Q 1000 -856 1269 -856 
Q 1816 -856 2167 -557 
Q 2519 -259 2631 300 
L 2681 563 
Q 2441 288 2122 144 
Q 1803 0 1434 0 
Q 903 0 598 351 
Q 294 703 294 1319 
Q 294 1803 478 2267 
Q 663 2731 997 3091 
Q 1219 3328 1514 3456 
Q 1809 3584 2131 3584 
Q 2484 3584 2746 3420 
Q 3009 3256 3138 2956 
L 3238 3500 
L 3816 3500 
z
M 2950 2216 
Q 2950 2641 2750 2872 
Q 2550 3103 2181 3103 
Q 1953 3103 1747 3012 
Q 1541 2922 1394 2759 
Q 1156 2491 1023 2127 
Q 891 1763 891 1375 
Q 891 944 1092 712 
Q 1294 481 1672 481 
Q 2219 481 2584 976 
Q 2950 1472 2950 2216 
z
" transform="scale(0.015625)"/>
      <path id="DejaVuSans-Oblique-61" d="M 3438 1997 
L 3047 0 
L 2472 0 
L 2578 531 
Q 2325 219 2001 64 
Q 1678 -91 1281 -91 
Q 834 -91 548 182 
Q 263 456 263 884 
Q 263 1497 752 1853 
Q 1241 2209 2100 2209 
L 2900 2209 
L 2931 2363 
Q 2938 2388 2941 2417 
Q 2944 2447 2944 2509 
Q 2944 2788 2717 2942 
Q 2491 3097 2081 3097 
Q 1800 3097 1504 3025 
Q 1209 2953 897 2809 
L 997 3341 
Q 1322 3463 1633 3523 
Q 1944 3584 2234 3584 
Q 2853 3584 3176 3315 
Q 3500 3047 3500 2534 
Q 3500 2431 3484 2292 
Q 3469 2153 3438 1997 
z
M 2816 1759 
L 2241 1759 
Q 1534 1759 1195 1570 
Q 856 1381 856 984 
Q 856 709 1029 553 
Q 1203 397 1509 397 
Q 1978 397 2328 733 
Q 2678 1069 2791 1631 
L 2816 1759 
z
" transform="scale(0.015625)"/>
      <path id="DejaVuSans-Oblique-69" d="M 1172 4863 
L 1747 4863 
L 1606 4134 
L 1031 4134 
L 1172 4863 
z
M 909 3500 
L 1484 3500 
L 800 0 
L 225 0 
L 909 3500 
z
" transform="scale(0.015625)"/>
      <path id="DejaVuSans-Oblique-6e" d="M 3566 2113 
L 3156 0 
L 2578 0 
L 2988 2091 
Q 3016 2238 3031 2350 
Q 3047 2463 3047 2528 
Q 3047 2791 2881 2937 
Q 2716 3084 2419 3084 
Q 1956 3084 1622 2776 
Q 1288 2469 1184 1941 
L 800 0 
L 225 0 
L 903 3500 
L 1478 3500 
L 1363 2950 
Q 1603 3253 1940 3418 
Q 2278 3584 2650 3584 
Q 3113 3584 3367 3334 
Q 3622 3084 3622 2631 
Q 3622 2519 3608 2391 
Q 3594 2263 3566 2113 
z
" transform="scale(0.015625)"/>
      <path id="DejaVuSans-20" transform="scale(0.015625)"/>
      <path id="DejaVuSans-66" d="M 2375 4863 
L 2375 4384 
L 1825 4384 
Q 1516 4384 1395 4259 
Q 1275 4134 1275 3809 
L 1275 3500 
L 2222 3500 
L 2222 3053 
L 1275 3053 
L 1275 0 
L 697 0 
L 697 3053 
L 147 3053 
L 147 3500 
L 697 3500 
L 697 3744 
Q 697 4328 969 4595 
Q 1241 4863 1831 4863 
L 2375 4863 
z
" transform="scale(0.015625)"/>
      <path id="DejaVuSans-6f" d="M 1959 3097 
Q 1497 3097 1228 2736 
Q 959 2375 959 1747 
Q 959 1119 1226 758 
Q 1494 397 1959 397 
Q 2419 397 2687 759 
Q 2956 1122 2956 1747 
Q 2956 2369 2687 2733 
Q 2419 3097 1959 3097 
z
M 1959 3584 
Q 2709 3584 3137 3096 
Q 3566 2609 3566 1747 
Q 3566 888 3137 398 
Q 2709 -91 1959 -91 
Q 1206 -91 779 398 
Q 353 888 353 1747 
Q 353 2609 779 3096 
Q 1206 3584 1959 3584 
z
" transform="scale(0.015625)"/>
      <path id="DejaVuSans-64" d="M 2906 2969 
L 2906 4863 
L 3481 4863 
L 3481 0 
L 2906 0 
L 2906 525 
Q 2725 213 2448 61 
Q 2172 -91 1784 -91 
Q 1150 -91 751 415 
Q 353 922 353 1747 
Q 353 2572 751 3078 
Q 1150 3584 1784 3584 
Q 2172 3584 2448 3432 
Q 2725 3281 2906 2969 
z
M 947 1747 
Q 947 1113 1208 752 
Q 1469 391 1925 391 
Q 2381 391 2643 752 
Q 2906 1113 2906 1747 
Q 2906 2381 2643 2742 
Q 2381 3103 1925 3103 
Q 1469 3103 1208 2742 
Q 947 2381 947 1747 
z
" transform="scale(0.015625)"/>
      <path id="DejaVuSans-74" d="M 1172 4494 
L 1172 3500 
L 2356 3500 
L 2356 3053 
L 1172 3053 
L 1172 1153 
Q 1172 725 1289 603 
Q 1406 481 1766 481 
L 2356 481 
L 2356 0 
L 1766 0 
Q 1100 0 847 248 
Q 594 497 594 1153 
L 594 3053 
L 172 3053 
L 172 3500 
L 594 3500 
L 594 4494 
L 1172 4494 
z
" transform="scale(0.015625)"/>
      <path id="DejaVuSans-6c" d="M 603 4863 
L 1178 4863 
L 1178 0 
L 603 0 
L 603 4863 
z
" transform="scale(0.015625)"/>
      <path id="DejaVuSans-Oblique-6b" d="M 1172 4863 
L 1747 4863 
L 1197 2028 
L 3169 3500 
L 3916 3500 
L 1716 1825 
L 3322 0 
L 2625 0 
L 1131 1709 
L 800 0 
L 225 0 
L 1172 4863 
z
" transform="scale(0.015625)"/>
     </defs>
     <use xlink:href="#DejaVuSans-Oblique-45" transform="translate(0 0.015625)"/>
     <use xlink:href="#DejaVuSans-Oblique-67" transform="translate(63.183594 -16.390625)scale(0.7)"/>
     <use xlink:href="#DejaVuSans-Oblique-61" transform="translate(107.617187 -16.390625)scale(0.7)"/>
     <use xlink:href="#DejaVuSans-Oblique-69" transform="translate(150.512695 -16.390625)scale(0.7)"/>
     <use xlink:href="#DejaVuSans-Oblique-6e" transform="translate(169.960937 -16.390625)scale(0.7)"/>
     <use xlink:href="#DejaVuSans-20" transform="translate(217.060547 0.015625)"/>
     <use xlink:href="#DejaVuSans-66" transform="translate(248.847656 0.015625)"/>
     <use xlink:href="#DejaVuSans-6f" transform="translate(284.052734 0.015625)"/>
     <use xlink:href="#DejaVuSans-72" transform="translate(345.234375 0.015625)"/>
     <use xlink:href="#DejaVuSans-20" transform="translate(386.347656 0.015625)"/>
     <use xlink:href="#DejaVuSans-64" transform="translate(418.134766 0.015625)"/>
     <use xlink:href="#DejaVuSans-69" transform="translate(481.611328 0.015625)"/>
     <use xlink:href="#DejaVuSans-66" transform="translate(509.394531 0.015625)"/>
     <use xlink:href="#DejaVuSans-66" transform="translate(544.599609 0.015625)"/>
     <use xlink:href="#DejaVuSans-65" transform="translate(579.804688 0.015625)"/>
     <use xlink:href="#DejaVuSans-72" transform="translate(641.328125 0.015625)"/>
     <use xlink:href="#DejaVuSans-65" transform="translate(682.441406 0.015625)"/>
     <use xlink:href="#DejaVuSans-6e" transform="translate(743.964844 0.015625)"/>
     <use xlink:href="#DejaVuSans-74" transform="translate(807.34375 0.015625)"/>
     <use xlink:href="#DejaVuSans-20" transform="translate(846.552734 0.015625)"/>
     <use xlink:href="#DejaVuSans-69" transform="translate(878.339844 0.015625)"/>
     <use xlink:href="#DejaVuSans-6e" transform="translate(906.123047 0.015625)"/>
     <use xlink:href="#DejaVuSans-69" transform="translate(969.501953 0.015625)"/>
     <use xlink:href="#DejaVuSans-74" transform="translate(997.285156 0.015625)"/>
     <use xlink:href="#DejaVuSans-69" transform="translate(1036.494141 0.015625)"/>
     <use xlink:href="#DejaVuSans-61" transform="translate(1064.277344 0.015625)"/>
     <use xlink:href="#DejaVuSans-6c" transform="translate(1125.556641 0.015625)"/>
     <use xlink:href="#DejaVuSans-20" transform="translate(1153.339844 0.015625)"/>
     <use xlink:href="#DejaVuSans-Oblique-45" transform="translate(1185.126953 0.015625)"/>
     <use xlink:href="#DejaVuSans-Oblique-6b" transform="translate(1248.310547 -16.390625)scale(0.7)"/>
     <use xlink:href="#DejaVuSans-Oblique-69" transform="translate(1288.847656 -16.390625)scale(0.7)"/>
     <use xlink:href="#DejaVuSans-Oblique-6e" transform="translate(1308.295898 -16.390625)scale(0.7)"/>
    </g>
   </g>
   <g id="legend_1">
    <g id="patch_7">
     <path d="M 303.380315 103.846838 
L 414.980315 103.846838 
Q 417.980315 103.846838 417.980315 100.846838 
L 417.980315 36.295276 
Q 417.980315 33.295276 414.980315 33.295276 
L 303.380315 33.295276 
Q 300.380315 33.295276 300.380315 36.295276 
L 300.380315 100.846838 
Q 300.380315 103.846838 303.380315 103.846838 
z
" style="fill: #ffffff; opacity: 0.8; stroke: #cccccc; stroke-linejoin: miter"/>
    </g>
    <g id="line2d_36">
     <path d="M 306.380315 45.442932 
L 321.380315 45.442932 
L 336.380315 45.442932 
" style="fill: none; stroke: #008000; stroke-width: 1.5; stroke-linecap: square"/>
    </g>
    <g id="text_20">
     <!-- $250 \, \mathrm{MeV}$ -->
     <g transform="translate(348.380315 50.692932)scale(0.15 -0.15)">
      <use xlink:href="#DejaVuSans-32" transform="translate(0 0.78125)"/>
      <use xlink:href="#DejaVuSans-35" transform="translate(63.623047 0.78125)"/>
      <use xlink:href="#DejaVuSans-30" transform="translate(127.246094 0.78125)"/>
      <use xlink:href="#DejaVuSans-4d" transform="translate(207.104817 0.78125)"/>
      <use xlink:href="#DejaVuSans-65" transform="translate(293.384114 0.78125)"/>
      <use xlink:href="#DejaVuSans-56" transform="translate(354.907551 0.78125)"/>
     </g>
    </g>
    <g id="line2d_37">
     <path d="M 306.380315 67.460119 
L 321.380315 67.460119 
L 336.380315 67.460119 
" style="fill: none; stroke: #ff7f0e; stroke-width: 1.5; stroke-linecap: square"/>
    </g>
    <g id="text_21">
     <!-- $300 \, \mathrm{MeV}$ -->
     <g transform="translate(348.380315 72.710119)scale(0.15 -0.15)">
      <use xlink:href="#DejaVuSans-33" transform="translate(0 0.78125)"/>
      <use xlink:href="#DejaVuSans-30" transform="translate(63.623047 0.78125)"/>
      <use xlink:href="#DejaVuSans-30" transform="translate(127.246094 0.78125)"/>
      <use xlink:href="#DejaVuSans-4d" transform="translate(207.104817 0.78125)"/>
      <use xlink:href="#DejaVuSans-65" transform="translate(293.384114 0.78125)"/>
      <use xlink:href="#DejaVuSans-56" transform="translate(354.907551 0.78125)"/>
     </g>
    </g>
    <g id="line2d_38">
     <path d="M 306.380315 89.477307 
L 321.380315 89.477307 
L 336.380315 89.477307 
" style="fill: none; stroke: #1f77b4; stroke-width: 1.5; stroke-linecap: square"/>
    </g>
    <g id="text_22">
     <!-- $350 \, \mathrm{MeV}$ -->
     <g transform="translate(348.380315 94.727307)scale(0.15 -0.15)">
      <use xlink:href="#DejaVuSans-33" transform="translate(0 0.78125)"/>
      <use xlink:href="#DejaVuSans-35" transform="translate(63.623047 0.78125)"/>
      <use xlink:href="#DejaVuSans-30" transform="translate(127.246094 0.78125)"/>
      <use xlink:href="#DejaVuSans-4d" transform="translate(207.104817 0.78125)"/>
      <use xlink:href="#DejaVuSans-65" transform="translate(293.384114 0.78125)"/>
      <use xlink:href="#DejaVuSans-56" transform="translate(354.907551 0.78125)"/>
     </g>
    </g>
   </g>
  </g>
 </g>
 <defs>
  <clipPath id="pbf9c065f23">
   <rect x="67.181102" y="25.795276" width="358.299213" height="302.173228"/>
  </clipPath>
 </defs>
</svg>
