<?xml version="1.0" encoding="utf-8" standalone="no"?>
<!DOCTYPE svg PUBLIC "-//W3C//DTD SVG 1.1//EN"
  "http://www.w3.org/Graphics/SVG/1.1/DTD/svg11.dtd">
<svg xmlns:xlink="http://www.w3.org/1999/xlink" width="447.874016pt" height="368.503937pt" viewBox="0 0 447.874016 368.503937" xmlns="http://www.w3.org/2000/svg" version="1.1">
 <metadata>
  <rdf:RDF xmlns:dc="http://purl.org/dc/elements/1.1/" xmlns:cc="http://creativecommons.org/ns#" xmlns:rdf="http://www.w3.org/1999/02/22-rdf-syntax-ns#">
   <cc:Work>
    <dc:type rdf:resource="http://purl.org/dc/dcmitype/StillImage"/>
    <dc:date>2023-01-25T17:05:41.571884</dc:date>
    <dc:format>image/svg+xml</dc:format>
    <dc:creator>
     <cc:Agent>
      <dc:title>Matplotlib v3.5.1, https://matplotlib.org/</dc:title>
     </cc:Agent>
    </dc:creator>
   </cc:Work>
  </rdf:RDF>
 </metadata>
 <defs>
  <style type="text/css">*{stroke-linejoin: round; stroke-linecap: butt}</style>
 </defs>
 <g id="figure_1">
  <g id="patch_1">
   <path d="M 0 368.503937 
L 447.874016 368.503937 
L 447.874016 0 
L 0 0 
z
" style="fill: #ffffff"/>
  </g>
  <g id="axes_1">
   <g id="patch_2">
    <path d="M 67.181102 327.968504 
L 425.480315 327.968504 
L 425.480315 25.795276 
L 67.181102 25.795276 
z
" style="fill: #ffffff"/>
   </g>
   <g id="matplotlib.axis_1">
    <g id="xtick_1">
     <g id="line2d_1">
      <path d="M 70.726471 327.968504 
L 70.726471 25.795276 
" clip-path="url(#pcc814b8339)" style="fill: none; stroke: #b0b0b0; stroke-width: 0.8; stroke-linecap: square"/>
     </g>
     <g id="line2d_2">
      <defs>
       <path id="m8efa17bb87" d="M 0 0 
L 0 3.5 
" style="stroke: #000000; stroke-width: 0.8"/>
      </defs>
      <g>
       <use xlink:href="#m8efa17bb87" x="70.726471" y="327.968504" style="stroke: #000000; stroke-width: 0.8"/>
      </g>
     </g>
     <g id="text_1">
      <!-- −50 -->
      <g transform="translate(57.008425 344.846473)scale(0.13 -0.13)">
       <defs>
        <path id="DejaVuSans-2212" d="M 678 2272 
L 4684 2272 
L 4684 1741 
L 678 1741 
L 678 2272 
z
" transform="scale(0.015625)"/>
        <path id="DejaVuSans-35" d="M 691 4666 
L 3169 4666 
L 3169 4134 
L 1269 4134 
L 1269 2991 
Q 1406 3038 1543 3061 
Q 1681 3084 1819 3084 
Q 2600 3084 3056 2656 
Q 3513 2228 3513 1497 
Q 3513 744 3044 326 
Q 2575 -91 1722 -91 
Q 1428 -91 1123 -41 
Q 819 9 494 109 
L 494 744 
Q 775 591 1075 516 
Q 1375 441 1709 441 
Q 2250 441 2565 725 
Q 2881 1009 2881 1497 
Q 2881 1984 2565 2268 
Q 2250 2553 1709 2553 
Q 1456 2553 1204 2497 
Q 953 2441 691 2322 
L 691 4666 
z
" transform="scale(0.015625)"/>
        <path id="DejaVuSans-30" d="M 2034 4250 
Q 1547 4250 1301 3770 
Q 1056 3291 1056 2328 
Q 1056 1369 1301 889 
Q 1547 409 2034 409 
Q 2525 409 2770 889 
Q 3016 1369 3016 2328 
Q 3016 3291 2770 3770 
Q 2525 4250 2034 4250 
z
M 2034 4750 
Q 2819 4750 3233 4129 
Q 3647 3509 3647 2328 
Q 3647 1150 3233 529 
Q 2819 -91 2034 -91 
Q 1250 -91 836 529 
Q 422 1150 422 2328 
Q 422 3509 836 4129 
Q 1250 4750 2034 4750 
z
" transform="scale(0.015625)"/>
       </defs>
       <use xlink:href="#DejaVuSans-2212"/>
       <use xlink:href="#DejaVuSans-35" x="83.789062"/>
       <use xlink:href="#DejaVuSans-30" x="147.412109"/>
      </g>
     </g>
    </g>
    <g id="xtick_2">
     <g id="line2d_3">
      <path d="M 121.6475 327.968504 
L 121.6475 25.795276 
" clip-path="url(#pcc814b8339)" style="fill: none; stroke: #b0b0b0; stroke-width: 0.8; stroke-linecap: square"/>
     </g>
     <g id="line2d_4">
      <g>
       <use xlink:href="#m8efa17bb87" x="121.6475" y="327.968504" style="stroke: #000000; stroke-width: 0.8"/>
      </g>
     </g>
     <g id="text_2">
      <!-- −40 -->
      <g transform="translate(107.929453 344.846473)scale(0.13 -0.13)">
       <defs>
        <path id="DejaVuSans-34" d="M 2419 4116 
L 825 1625 
L 2419 1625 
L 2419 4116 
z
M 2253 4666 
L 3047 4666 
L 3047 1625 
L 3713 1625 
L 3713 1100 
L 3047 1100 
L 3047 0 
L 2419 0 
L 2419 1100 
L 313 1100 
L 313 1709 
L 2253 4666 
z
" transform="scale(0.015625)"/>
       </defs>
       <use xlink:href="#DejaVuSans-2212"/>
       <use xlink:href="#DejaVuSans-34" x="83.789062"/>
       <use xlink:href="#DejaVuSans-30" x="147.412109"/>
      </g>
     </g>
    </g>
    <g id="xtick_3">
     <g id="line2d_5">
      <path d="M 172.568528 327.968504 
L 172.568528 25.795276 
" clip-path="url(#pcc814b8339)" style="fill: none; stroke: #b0b0b0; stroke-width: 0.8; stroke-linecap: square"/>
     </g>
     <g id="line2d_6">
      <g>
       <use xlink:href="#m8efa17bb87" x="172.568528" y="327.968504" style="stroke: #000000; stroke-width: 0.8"/>
      </g>
     </g>
     <g id="text_3">
      <!-- −30 -->
      <g transform="translate(158.850481 344.846473)scale(0.13 -0.13)">
       <defs>
        <path id="DejaVuSans-33" d="M 2597 2516 
Q 3050 2419 3304 2112 
Q 3559 1806 3559 1356 
Q 3559 666 3084 287 
Q 2609 -91 1734 -91 
Q 1441 -91 1130 -33 
Q 819 25 488 141 
L 488 750 
Q 750 597 1062 519 
Q 1375 441 1716 441 
Q 2309 441 2620 675 
Q 2931 909 2931 1356 
Q 2931 1769 2642 2001 
Q 2353 2234 1838 2234 
L 1294 2234 
L 1294 2753 
L 1863 2753 
Q 2328 2753 2575 2939 
Q 2822 3125 2822 3475 
Q 2822 3834 2567 4026 
Q 2313 4219 1838 4219 
Q 1578 4219 1281 4162 
Q 984 4106 628 3988 
L 628 4550 
Q 988 4650 1302 4700 
Q 1616 4750 1894 4750 
Q 2613 4750 3031 4423 
Q 3450 4097 3450 3541 
Q 3450 3153 3228 2886 
Q 3006 2619 2597 2516 
z
" transform="scale(0.015625)"/>
       </defs>
       <use xlink:href="#DejaVuSans-2212"/>
       <use xlink:href="#DejaVuSans-33" x="83.789062"/>
       <use xlink:href="#DejaVuSans-30" x="147.412109"/>
      </g>
     </g>
    </g>
    <g id="xtick_4">
     <g id="line2d_7">
      <path d="M 223.489556 327.968504 
L 223.489556 25.795276 
" clip-path="url(#pcc814b8339)" style="fill: none; stroke: #b0b0b0; stroke-width: 0.8; stroke-linecap: square"/>
     </g>
     <g id="line2d_8">
      <g>
       <use xlink:href="#m8efa17bb87" x="223.489556" y="327.968504" style="stroke: #000000; stroke-width: 0.8"/>
      </g>
     </g>
     <g id="text_4">
      <!-- −20 -->
      <g transform="translate(209.771509 344.846473)scale(0.13 -0.13)">
       <defs>
        <path id="DejaVuSans-32" d="M 1228 531 
L 3431 531 
L 3431 0 
L 469 0 
L 469 531 
Q 828 903 1448 1529 
Q 2069 2156 2228 2338 
Q 2531 2678 2651 2914 
Q 2772 3150 2772 3378 
Q 2772 3750 2511 3984 
Q 2250 4219 1831 4219 
Q 1534 4219 1204 4116 
Q 875 4013 500 3803 
L 500 4441 
Q 881 4594 1212 4672 
Q 1544 4750 1819 4750 
Q 2544 4750 2975 4387 
Q 3406 4025 3406 3419 
Q 3406 3131 3298 2873 
Q 3191 2616 2906 2266 
Q 2828 2175 2409 1742 
Q 1991 1309 1228 531 
z
" transform="scale(0.015625)"/>
       </defs>
       <use xlink:href="#DejaVuSans-2212"/>
       <use xlink:href="#DejaVuSans-32" x="83.789062"/>
       <use xlink:href="#DejaVuSans-30" x="147.412109"/>
      </g>
     </g>
    </g>
    <g id="xtick_5">
     <g id="line2d_9">
      <path d="M 274.410585 327.968504 
L 274.410585 25.795276 
" clip-path="url(#pcc814b8339)" style="fill: none; stroke: #b0b0b0; stroke-width: 0.8; stroke-linecap: square"/>
     </g>
     <g id="line2d_10">
      <g>
       <use xlink:href="#m8efa17bb87" x="274.410585" y="327.968504" style="stroke: #000000; stroke-width: 0.8"/>
      </g>
     </g>
     <g id="text_5">
      <!-- −10 -->
      <g transform="translate(260.692538 344.846473)scale(0.13 -0.13)">
       <defs>
        <path id="DejaVuSans-31" d="M 794 531 
L 1825 531 
L 1825 4091 
L 703 3866 
L 703 4441 
L 1819 4666 
L 2450 4666 
L 2450 531 
L 3481 531 
L 3481 0 
L 794 0 
L 794 531 
z
" transform="scale(0.015625)"/>
       </defs>
       <use xlink:href="#DejaVuSans-2212"/>
       <use xlink:href="#DejaVuSans-31" x="83.789062"/>
       <use xlink:href="#DejaVuSans-30" x="147.412109"/>
      </g>
     </g>
    </g>
    <g id="xtick_6">
     <g id="line2d_11">
      <path d="M 325.331613 327.968504 
L 325.331613 25.795276 
" clip-path="url(#pcc814b8339)" style="fill: none; stroke: #b0b0b0; stroke-width: 0.8; stroke-linecap: square"/>
     </g>
     <g id="line2d_12">
      <g>
       <use xlink:href="#m8efa17bb87" x="325.331613" y="327.968504" style="stroke: #000000; stroke-width: 0.8"/>
      </g>
     </g>
     <g id="text_6">
      <!-- 0 -->
      <g transform="translate(321.195988 344.846473)scale(0.13 -0.13)">
       <use xlink:href="#DejaVuSans-30"/>
      </g>
     </g>
    </g>
    <g id="xtick_7">
     <g id="line2d_13">
      <path d="M 376.252641 327.968504 
L 376.252641 25.795276 
" clip-path="url(#pcc814b8339)" style="fill: none; stroke: #b0b0b0; stroke-width: 0.8; stroke-linecap: square"/>
     </g>
     <g id="line2d_14">
      <g>
       <use xlink:href="#m8efa17bb87" x="376.252641" y="327.968504" style="stroke: #000000; stroke-width: 0.8"/>
      </g>
     </g>
     <g id="text_7">
      <!-- 10 -->
      <g transform="translate(367.981391 344.846473)scale(0.13 -0.13)">
       <use xlink:href="#DejaVuSans-31"/>
       <use xlink:href="#DejaVuSans-30" x="63.623047"/>
      </g>
     </g>
    </g>
    <g id="text_8">
     <!-- $\zeta \, \mathrm{[\mu m]}$ -->
     <g transform="translate(223.080709 362.950066)scale(0.15 -0.15)">
      <defs>
       <path id="DejaVuSans-Oblique-3b6" d="M 1966 397 
Q 2378 394 2578 159 
Q 2794 -88 2722 -463 
Q 2650 -822 2372 -1072 
Q 2069 -1344 1559 -1344 
Q 1606 -1109 1650 -872 
Q 1863 -888 2022 -750 
Q 2144 -641 2166 -525 
Q 2197 -359 2125 -222 
Q 2050 -91 1872 -91 
Q -22 -91 316 1669 
Q 616 3206 2609 4284 
L 947 4284 
L 1059 4863 
L 3778 4863 
L 3666 4284 
Q 1181 3147 894 1669 
Q 647 397 1966 397 
z
" transform="scale(0.015625)"/>
       <path id="DejaVuSans-5b" d="M 550 4863 
L 1875 4863 
L 1875 4416 
L 1125 4416 
L 1125 -397 
L 1875 -397 
L 1875 -844 
L 550 -844 
L 550 4863 
z
" transform="scale(0.015625)"/>
       <path id="DejaVuSans-3bc" d="M 544 -1331 
L 544 3500 
L 1119 3500 
L 1119 1325 
Q 1119 872 1334 640 
Q 1550 409 1972 409 
Q 2434 409 2667 671 
Q 2900 934 2900 1459 
L 2900 3500 
L 3475 3500 
L 3475 806 
Q 3475 619 3529 530 
Q 3584 441 3700 441 
Q 3728 441 3778 458 
Q 3828 475 3916 513 
L 3916 50 
Q 3788 -22 3673 -56 
Q 3559 -91 3450 -91 
Q 3234 -91 3106 31 
Q 2978 153 2931 403 
Q 2775 156 2548 32 
Q 2322 -91 2016 -91 
Q 1697 -91 1473 31 
Q 1250 153 1119 397 
L 1119 -1331 
L 544 -1331 
z
" transform="scale(0.015625)"/>
       <path id="DejaVuSans-6d" d="M 3328 2828 
Q 3544 3216 3844 3400 
Q 4144 3584 4550 3584 
Q 5097 3584 5394 3201 
Q 5691 2819 5691 2113 
L 5691 0 
L 5113 0 
L 5113 2094 
Q 5113 2597 4934 2840 
Q 4756 3084 4391 3084 
Q 3944 3084 3684 2787 
Q 3425 2491 3425 1978 
L 3425 0 
L 2847 0 
L 2847 2094 
Q 2847 2600 2669 2842 
Q 2491 3084 2119 3084 
Q 1678 3084 1418 2786 
Q 1159 2488 1159 1978 
L 1159 0 
L 581 0 
L 581 3500 
L 1159 3500 
L 1159 2956 
Q 1356 3278 1631 3431 
Q 1906 3584 2284 3584 
Q 2666 3584 2933 3390 
Q 3200 3197 3328 2828 
z
" transform="scale(0.015625)"/>
       <path id="DejaVuSans-5d" d="M 1947 4863 
L 1947 -844 
L 622 -844 
L 622 -397 
L 1369 -397 
L 1369 4416 
L 622 4416 
L 622 4863 
L 1947 4863 
z
" transform="scale(0.015625)"/>
      </defs>
      <use xlink:href="#DejaVuSans-Oblique-3b6" transform="translate(0 0.015625)"/>
      <use xlink:href="#DejaVuSans-5b" transform="translate(70.630208 0.015625)"/>
      <use xlink:href="#DejaVuSans-3bc" transform="translate(109.643879 0.015625)"/>
      <use xlink:href="#DejaVuSans-6d" transform="translate(173.266926 0.015625)"/>
      <use xlink:href="#DejaVuSans-5d" transform="translate(270.679036 0.015625)"/>
     </g>
    </g>
   </g>
   <g id="matplotlib.axis_2">
    <g id="ytick_1">
     <g id="line2d_15">
      <path d="M 67.181102 315.81211 
L 425.480315 315.81211 
" clip-path="url(#pcc814b8339)" style="fill: none; stroke: #b0b0b0; stroke-width: 0.8; stroke-linecap: square"/>
     </g>
     <g id="line2d_16">
      <defs>
       <path id="ma9143f64c2" d="M 0 0 
L -3.5 0 
" style="stroke: #000000; stroke-width: 0.8"/>
      </defs>
      <g>
       <use xlink:href="#ma9143f64c2" x="67.181102" y="315.81211" style="stroke: #000000; stroke-width: 0.8"/>
      </g>
     </g>
     <g id="text_9">
      <!-- −800 -->
      <g transform="translate(24.473759 320.751094)scale(0.13 -0.13)">
       <defs>
        <path id="DejaVuSans-38" d="M 2034 2216 
Q 1584 2216 1326 1975 
Q 1069 1734 1069 1313 
Q 1069 891 1326 650 
Q 1584 409 2034 409 
Q 2484 409 2743 651 
Q 3003 894 3003 1313 
Q 3003 1734 2745 1975 
Q 2488 2216 2034 2216 
z
M 1403 2484 
Q 997 2584 770 2862 
Q 544 3141 544 3541 
Q 544 4100 942 4425 
Q 1341 4750 2034 4750 
Q 2731 4750 3128 4425 
Q 3525 4100 3525 3541 
Q 3525 3141 3298 2862 
Q 3072 2584 2669 2484 
Q 3125 2378 3379 2068 
Q 3634 1759 3634 1313 
Q 3634 634 3220 271 
Q 2806 -91 2034 -91 
Q 1263 -91 848 271 
Q 434 634 434 1313 
Q 434 1759 690 2068 
Q 947 2378 1403 2484 
z
M 1172 3481 
Q 1172 3119 1398 2916 
Q 1625 2713 2034 2713 
Q 2441 2713 2670 2916 
Q 2900 3119 2900 3481 
Q 2900 3844 2670 4047 
Q 2441 4250 2034 4250 
Q 1625 4250 1398 4047 
Q 1172 3844 1172 3481 
z
" transform="scale(0.015625)"/>
       </defs>
       <use xlink:href="#DejaVuSans-2212"/>
       <use xlink:href="#DejaVuSans-38" x="83.789062"/>
       <use xlink:href="#DejaVuSans-30" x="147.412109"/>
       <use xlink:href="#DejaVuSans-30" x="211.035156"/>
      </g>
     </g>
    </g>
    <g id="ytick_2">
     <g id="line2d_17">
      <path d="M 67.181102 281.079555 
L 425.480315 281.079555 
" clip-path="url(#pcc814b8339)" style="fill: none; stroke: #b0b0b0; stroke-width: 0.8; stroke-linecap: square"/>
     </g>
     <g id="line2d_18">
      <g>
       <use xlink:href="#ma9143f64c2" x="67.181102" y="281.079555" style="stroke: #000000; stroke-width: 0.8"/>
      </g>
     </g>
     <g id="text_10">
      <!-- −600 -->
      <g transform="translate(24.473759 286.018539)scale(0.13 -0.13)">
       <defs>
        <path id="DejaVuSans-36" d="M 2113 2584 
Q 1688 2584 1439 2293 
Q 1191 2003 1191 1497 
Q 1191 994 1439 701 
Q 1688 409 2113 409 
Q 2538 409 2786 701 
Q 3034 994 3034 1497 
Q 3034 2003 2786 2293 
Q 2538 2584 2113 2584 
z
M 3366 4563 
L 3366 3988 
Q 3128 4100 2886 4159 
Q 2644 4219 2406 4219 
Q 1781 4219 1451 3797 
Q 1122 3375 1075 2522 
Q 1259 2794 1537 2939 
Q 1816 3084 2150 3084 
Q 2853 3084 3261 2657 
Q 3669 2231 3669 1497 
Q 3669 778 3244 343 
Q 2819 -91 2113 -91 
Q 1303 -91 875 529 
Q 447 1150 447 2328 
Q 447 3434 972 4092 
Q 1497 4750 2381 4750 
Q 2619 4750 2861 4703 
Q 3103 4656 3366 4563 
z
" transform="scale(0.015625)"/>
       </defs>
       <use xlink:href="#DejaVuSans-2212"/>
       <use xlink:href="#DejaVuSans-36" x="83.789062"/>
       <use xlink:href="#DejaVuSans-30" x="147.412109"/>
       <use xlink:href="#DejaVuSans-30" x="211.035156"/>
      </g>
     </g>
    </g>
    <g id="ytick_3">
     <g id="line2d_19">
      <path d="M 67.181102 246.347 
L 425.480315 246.347 
" clip-path="url(#pcc814b8339)" style="fill: none; stroke: #b0b0b0; stroke-width: 0.8; stroke-linecap: square"/>
     </g>
     <g id="line2d_20">
      <g>
       <use xlink:href="#ma9143f64c2" x="67.181102" y="246.347" style="stroke: #000000; stroke-width: 0.8"/>
      </g>
     </g>
     <g id="text_11">
      <!-- −400 -->
      <g transform="translate(24.473759 251.285984)scale(0.13 -0.13)">
       <use xlink:href="#DejaVuSans-2212"/>
       <use xlink:href="#DejaVuSans-34" x="83.789062"/>
       <use xlink:href="#DejaVuSans-30" x="147.412109"/>
       <use xlink:href="#DejaVuSans-30" x="211.035156"/>
      </g>
     </g>
    </g>
    <g id="ytick_4">
     <g id="line2d_21">
      <path d="M 67.181102 211.614445 
L 425.480315 211.614445 
" clip-path="url(#pcc814b8339)" style="fill: none; stroke: #b0b0b0; stroke-width: 0.8; stroke-linecap: square"/>
     </g>
     <g id="line2d_22">
      <g>
       <use xlink:href="#ma9143f64c2" x="67.181102" y="211.614445" style="stroke: #000000; stroke-width: 0.8"/>
      </g>
     </g>
     <g id="text_12">
      <!-- −200 -->
      <g transform="translate(24.473759 216.553429)scale(0.13 -0.13)">
       <use xlink:href="#DejaVuSans-2212"/>
       <use xlink:href="#DejaVuSans-32" x="83.789062"/>
       <use xlink:href="#DejaVuSans-30" x="147.412109"/>
       <use xlink:href="#DejaVuSans-30" x="211.035156"/>
      </g>
     </g>
    </g>
    <g id="ytick_5">
     <g id="line2d_23">
      <path d="M 67.181102 176.88189 
L 425.480315 176.88189 
" clip-path="url(#pcc814b8339)" style="fill: none; stroke: #b0b0b0; stroke-width: 0.8; stroke-linecap: square"/>
     </g>
     <g id="line2d_24">
      <g>
       <use xlink:href="#ma9143f64c2" x="67.181102" y="176.88189" style="stroke: #000000; stroke-width: 0.8"/>
      </g>
     </g>
     <g id="text_13">
      <!-- 0 -->
      <g transform="translate(51.909852 181.820874)scale(0.13 -0.13)">
       <use xlink:href="#DejaVuSans-30"/>
      </g>
     </g>
    </g>
    <g id="ytick_6">
     <g id="line2d_25">
      <path d="M 67.181102 142.149335 
L 425.480315 142.149335 
" clip-path="url(#pcc814b8339)" style="fill: none; stroke: #b0b0b0; stroke-width: 0.8; stroke-linecap: square"/>
     </g>
     <g id="line2d_26">
      <g>
       <use xlink:href="#ma9143f64c2" x="67.181102" y="142.149335" style="stroke: #000000; stroke-width: 0.8"/>
      </g>
     </g>
     <g id="text_14">
      <!-- 200 -->
      <g transform="translate(35.367352 147.088319)scale(0.13 -0.13)">
       <use xlink:href="#DejaVuSans-32"/>
       <use xlink:href="#DejaVuSans-30" x="63.623047"/>
       <use xlink:href="#DejaVuSans-30" x="127.246094"/>
      </g>
     </g>
    </g>
    <g id="ytick_7">
     <g id="line2d_27">
      <path d="M 67.181102 107.41678 
L 425.480315 107.41678 
" clip-path="url(#pcc814b8339)" style="fill: none; stroke: #b0b0b0; stroke-width: 0.8; stroke-linecap: square"/>
     </g>
     <g id="line2d_28">
      <g>
       <use xlink:href="#ma9143f64c2" x="67.181102" y="107.41678" style="stroke: #000000; stroke-width: 0.8"/>
      </g>
     </g>
     <g id="text_15">
      <!-- 400 -->
      <g transform="translate(35.367352 112.355764)scale(0.13 -0.13)">
       <use xlink:href="#DejaVuSans-34"/>
       <use xlink:href="#DejaVuSans-30" x="63.623047"/>
       <use xlink:href="#DejaVuSans-30" x="127.246094"/>
      </g>
     </g>
    </g>
    <g id="ytick_8">
     <g id="line2d_29">
      <path d="M 67.181102 72.684225 
L 425.480315 72.684225 
" clip-path="url(#pcc814b8339)" style="fill: none; stroke: #b0b0b0; stroke-width: 0.8; stroke-linecap: square"/>
     </g>
     <g id="line2d_30">
      <g>
       <use xlink:href="#ma9143f64c2" x="67.181102" y="72.684225" style="stroke: #000000; stroke-width: 0.8"/>
      </g>
     </g>
     <g id="text_16">
      <!-- 600 -->
      <g transform="translate(35.367352 77.623209)scale(0.13 -0.13)">
       <use xlink:href="#DejaVuSans-36"/>
       <use xlink:href="#DejaVuSans-30" x="63.623047"/>
       <use xlink:href="#DejaVuSans-30" x="127.246094"/>
      </g>
     </g>
    </g>
    <g id="ytick_9">
     <g id="line2d_31">
      <path d="M 67.181102 37.95167 
L 425.480315 37.95167 
" clip-path="url(#pcc814b8339)" style="fill: none; stroke: #b0b0b0; stroke-width: 0.8; stroke-linecap: square"/>
     </g>
     <g id="line2d_32">
      <g>
       <use xlink:href="#ma9143f64c2" x="67.181102" y="37.95167" style="stroke: #000000; stroke-width: 0.8"/>
      </g>
     </g>
     <g id="text_17">
      <!-- 800 -->
      <g transform="translate(35.367352 42.890654)scale(0.13 -0.13)">
       <use xlink:href="#DejaVuSans-38"/>
       <use xlink:href="#DejaVuSans-30" x="63.623047"/>
       <use xlink:href="#DejaVuSans-30" x="127.246094"/>
      </g>
     </g>
    </g>
    <g id="text_18">
     <!-- $\mathrm{Energy \, gain \, [MeV]}$ -->
     <g transform="translate(17.323759 244.00689)rotate(-90)scale(0.15 -0.15)">
      <defs>
       <path id="DejaVuSans-45" d="M 628 4666 
L 3578 4666 
L 3578 4134 
L 1259 4134 
L 1259 2753 
L 3481 2753 
L 3481 2222 
L 1259 2222 
L 1259 531 
L 3634 531 
L 3634 0 
L 628 0 
L 628 4666 
z
" transform="scale(0.015625)"/>
       <path id="DejaVuSans-6e" d="M 3513 2113 
L 3513 0 
L 2938 0 
L 2938 2094 
Q 2938 2591 2744 2837 
Q 2550 3084 2163 3084 
Q 1697 3084 1428 2787 
Q 1159 2491 1159 1978 
L 1159 0 
L 581 0 
L 581 3500 
L 1159 3500 
L 1159 2956 
Q 1366 3272 1645 3428 
Q 1925 3584 2291 3584 
Q 2894 3584 3203 3211 
Q 3513 2838 3513 2113 
z
" transform="scale(0.015625)"/>
       <path id="DejaVuSans-65" d="M 3597 1894 
L 3597 1613 
L 953 1613 
Q 991 1019 1311 708 
Q 1631 397 2203 397 
Q 2534 397 2845 478 
Q 3156 559 3463 722 
L 3463 178 
Q 3153 47 2828 -22 
Q 2503 -91 2169 -91 
Q 1331 -91 842 396 
Q 353 884 353 1716 
Q 353 2575 817 3079 
Q 1281 3584 2069 3584 
Q 2775 3584 3186 3129 
Q 3597 2675 3597 1894 
z
M 3022 2063 
Q 3016 2534 2758 2815 
Q 2500 3097 2075 3097 
Q 1594 3097 1305 2825 
Q 1016 2553 972 2059 
L 3022 2063 
z
" transform="scale(0.015625)"/>
       <path id="DejaVuSans-72" d="M 2631 2963 
Q 2534 3019 2420 3045 
Q 2306 3072 2169 3072 
Q 1681 3072 1420 2755 
Q 1159 2438 1159 1844 
L 1159 0 
L 581 0 
L 581 3500 
L 1159 3500 
L 1159 2956 
Q 1341 3275 1631 3429 
Q 1922 3584 2338 3584 
Q 2397 3584 2469 3576 
Q 2541 3569 2628 3553 
L 2631 2963 
z
" transform="scale(0.015625)"/>
       <path id="DejaVuSans-67" d="M 2906 1791 
Q 2906 2416 2648 2759 
Q 2391 3103 1925 3103 
Q 1463 3103 1205 2759 
Q 947 2416 947 1791 
Q 947 1169 1205 825 
Q 1463 481 1925 481 
Q 2391 481 2648 825 
Q 2906 1169 2906 1791 
z
M 3481 434 
Q 3481 -459 3084 -895 
Q 2688 -1331 1869 -1331 
Q 1566 -1331 1297 -1286 
Q 1028 -1241 775 -1147 
L 775 -588 
Q 1028 -725 1275 -790 
Q 1522 -856 1778 -856 
Q 2344 -856 2625 -561 
Q 2906 -266 2906 331 
L 2906 616 
Q 2728 306 2450 153 
Q 2172 0 1784 0 
Q 1141 0 747 490 
Q 353 981 353 1791 
Q 353 2603 747 3093 
Q 1141 3584 1784 3584 
Q 2172 3584 2450 3431 
Q 2728 3278 2906 2969 
L 2906 3500 
L 3481 3500 
L 3481 434 
z
" transform="scale(0.015625)"/>
       <path id="DejaVuSans-79" d="M 2059 -325 
Q 1816 -950 1584 -1140 
Q 1353 -1331 966 -1331 
L 506 -1331 
L 506 -850 
L 844 -850 
Q 1081 -850 1212 -737 
Q 1344 -625 1503 -206 
L 1606 56 
L 191 3500 
L 800 3500 
L 1894 763 
L 2988 3500 
L 3597 3500 
L 2059 -325 
z
" transform="scale(0.015625)"/>
       <path id="DejaVuSans-61" d="M 2194 1759 
Q 1497 1759 1228 1600 
Q 959 1441 959 1056 
Q 959 750 1161 570 
Q 1363 391 1709 391 
Q 2188 391 2477 730 
Q 2766 1069 2766 1631 
L 2766 1759 
L 2194 1759 
z
M 3341 1997 
L 3341 0 
L 2766 0 
L 2766 531 
Q 2569 213 2275 61 
Q 1981 -91 1556 -91 
Q 1019 -91 701 211 
Q 384 513 384 1019 
Q 384 1609 779 1909 
Q 1175 2209 1959 2209 
L 2766 2209 
L 2766 2266 
Q 2766 2663 2505 2880 
Q 2244 3097 1772 3097 
Q 1472 3097 1187 3025 
Q 903 2953 641 2809 
L 641 3341 
Q 956 3463 1253 3523 
Q 1550 3584 1831 3584 
Q 2591 3584 2966 3190 
Q 3341 2797 3341 1997 
z
" transform="scale(0.015625)"/>
       <path id="DejaVuSans-69" d="M 603 3500 
L 1178 3500 
L 1178 0 
L 603 0 
L 603 3500 
z
M 603 4863 
L 1178 4863 
L 1178 4134 
L 603 4134 
L 603 4863 
z
" transform="scale(0.015625)"/>
       <path id="DejaVuSans-4d" d="M 628 4666 
L 1569 4666 
L 2759 1491 
L 3956 4666 
L 4897 4666 
L 4897 0 
L 4281 0 
L 4281 4097 
L 3078 897 
L 2444 897 
L 1241 4097 
L 1241 0 
L 628 0 
L 628 4666 
z
" transform="scale(0.015625)"/>
       <path id="DejaVuSans-56" d="M 1831 0 
L 50 4666 
L 709 4666 
L 2188 738 
L 3669 4666 
L 4325 4666 
L 2547 0 
L 1831 0 
z
" transform="scale(0.015625)"/>
      </defs>
      <use xlink:href="#DejaVuSans-45" transform="translate(0 0.015625)"/>
      <use xlink:href="#DejaVuSans-6e" transform="translate(63.183594 0.015625)"/>
      <use xlink:href="#DejaVuSans-65" transform="translate(126.5625 0.015625)"/>
      <use xlink:href="#DejaVuSans-72" transform="translate(188.085938 0.015625)"/>
      <use xlink:href="#DejaVuSans-67" transform="translate(229.199219 0.015625)"/>
      <use xlink:href="#DejaVuSans-79" transform="translate(292.675781 0.015625)"/>
      <use xlink:href="#DejaVuSans-67" transform="translate(368.091145 0.015625)"/>
      <use xlink:href="#DejaVuSans-61" transform="translate(431.567708 0.015625)"/>
      <use xlink:href="#DejaVuSans-69" transform="translate(492.847004 0.015625)"/>
      <use xlink:href="#DejaVuSans-6e" transform="translate(520.630208 0.015625)"/>
      <use xlink:href="#DejaVuSans-5b" transform="translate(600.24479 0.015625)"/>
      <use xlink:href="#DejaVuSans-4d" transform="translate(639.258462 0.015625)"/>
      <use xlink:href="#DejaVuSans-65" transform="translate(725.537759 0.015625)"/>
      <use xlink:href="#DejaVuSans-56" transform="translate(787.061196 0.015625)"/>
      <use xlink:href="#DejaVuSans-5d" transform="translate(855.469399 0.015625)"/>
     </g>
    </g>
   </g>
   <g id="line2d_33">
    <path d="M 83.46743 150.188651 
L 83.918591 150.947268 
L 84.369751 150.803289 
L 84.820911 150.967835 
L 85.272071 151.274888 
L 85.723232 151.329033 
L 86.174392 150.854003 
L 86.625552 151.655807 
L 87.076713 151.492512 
L 87.527873 152.007394 
L 88.430194 152.23754 
L 89.332514 152.823826 
L 89.783675 152.757833 
L 90.685995 152.975063 
L 92.039476 154.438443 
L 92.490636 154.332979 
L 93.844117 155.597787 
L 94.295278 155.577289 
L 94.746438 156.114646 
L 95.197598 156.460274 
L 95.648759 157.191365 
L 96.099919 157.266588 
L 96.551079 158.094567 
L 97.00224 158.281182 
L 97.4534 158.771057 
L 97.90456 159.551532 
L 98.35572 159.797719 
L 98.806881 160.3553 
L 99.258041 161.333057 
L 99.709201 161.28425 
L 100.611522 163.226484 
L 101.062682 163.411214 
L 101.513843 164.838708 
L 102.416163 165.869274 
L 102.867324 166.889885 
L 103.318484 167.350579 
L 104.220804 169.574318 
L 104.671965 170.206404 
L 105.123125 171.316709 
L 105.574285 171.989441 
L 107.830087 176.902631 
L 111.89053 187.241728 
L 112.34169 189.047311 
L 112.79285 189.631829 
L 113.244011 191.169955 
L 113.695171 192.275546 
L 115.499812 198.119939 
L 115.950973 198.900554 
L 116.402133 200.339171 
L 116.853293 202.209261 
L 117.755614 204.908932 
L 118.206774 206.705693 
L 118.657934 207.474734 
L 119.560255 210.911661 
L 121.364896 216.985088 
L 121.816057 219.15993 
L 122.267217 220.260256 
L 123.169538 223.44198 
L 123.620698 224.68255 
L 124.071858 227.142723 
L 124.974179 229.991472 
L 126.32766 235.063041 
L 126.77882 237.4329 
L 127.22998 238.433173 
L 127.681141 241.150581 
L 128.132301 242.499013 
L 128.583461 244.228489 
L 129.034622 246.537157 
L 129.936942 249.743863 
L 132.192744 259.676239 
L 132.643904 262.537479 
L 133.095064 263.73012 
L 133.546225 266.534673 
L 133.997385 268.079832 
L 134.448545 270.258956 
L 135.350866 275.354493 
L 137.155507 284.544454 
L 137.606667 287.879039 
L 138.057828 288.612222 
L 138.508988 289.559454 
L 138.960148 285.483648 
L 139.411309 273.842037 
L 140.76479 192.464498 
L 141.21595 175.288343 
L 141.66711 162.390355 
L 142.118271 156.613339 
L 142.569431 153.017674 
L 143.020591 151.121172 
L 143.471751 150.362854 
L 144.374072 145.357334 
L 145.276393 137.035011 
L 146.178713 136.341212 
L 146.629874 137.272675 
L 147.081034 136.656321 
L 148.434515 128.515805 
L 148.885675 126.361028 
L 149.336836 126.656374 
L 149.787996 126.185394 
L 150.239156 126.207269 
L 150.690316 126.662691 
L 151.141477 125.704052 
L 151.592637 126.704669 
L 152.043797 126.973183 
L 152.494958 127.026878 
L 152.946118 128.280739 
L 153.397278 128.456174 
L 154.299599 129.810929 
L 155.20192 131.219855 
L 155.65308 132.318894 
L 156.10424 132.612743 
L 157.006561 133.998742 
L 157.457721 134.24285 
L 158.360042 135.909594 
L 159.713523 136.8961 
L 160.164683 137.630544 
L 160.615843 137.868315 
L 161.067004 138.241924 
L 161.518164 138.397483 
L 162.420485 139.390657 
L 162.871645 139.312635 
L 163.322805 139.685766 
L 163.773965 139.80277 
L 164.225126 140.143071 
L 165.127446 140.312688 
L 165.578607 140.19121 
L 166.029767 140.372811 
L 166.480927 140.781552 
L 166.932088 140.961454 
L 167.383248 140.642262 
L 167.834408 140.925651 
L 168.285569 140.970643 
L 168.736729 140.60935 
L 169.187889 141.505054 
L 169.639049 140.761516 
L 170.09021 141.137489 
L 170.54137 141.21671 
L 170.99253 140.995517 
L 171.443691 141.111227 
L 171.894851 141.532594 
L 172.346011 141.337429 
L 173.248332 141.659484 
L 173.699492 141.379795 
L 174.150653 141.850253 
L 174.601813 142.035995 
L 175.052973 142.015039 
L 175.504134 142.428321 
L 175.955294 142.052564 
L 176.857614 142.758208 
L 177.308775 142.689976 
L 177.759935 143.356051 
L 178.211095 143.700355 
L 178.662256 143.423628 
L 179.113416 144.467491 
L 179.564576 143.703934 
L 180.015737 144.771008 
L 180.466897 145.128927 
L 180.918057 145.256975 
L 181.369218 146.08032 
L 182.271538 146.428425 
L 182.722698 147.814469 
L 183.173859 147.407513 
L 184.076179 148.802901 
L 184.52734 148.918441 
L 184.9785 150.32755 
L 185.42966 150.231533 
L 185.880821 150.907161 
L 186.331981 152.556455 
L 186.783141 152.370774 
L 187.234302 153.328236 
L 187.685462 154.012351 
L 188.136622 154.222501 
L 188.587783 155.633208 
L 189.038943 156.14076 
L 189.490103 156.906575 
L 189.941263 158.185888 
L 190.392424 158.632351 
L 190.843584 159.611733 
L 191.294744 160.94584 
L 191.745905 161.104418 
L 192.197065 162.662425 
L 193.099386 164.117968 
L 193.550546 165.983611 
L 194.001706 166.222622 
L 194.452867 167.237196 
L 194.904027 169.440037 
L 195.355187 168.790616 
L 195.806347 171.588386 
L 196.257508 171.848618 
L 196.708668 172.482311 
L 197.159828 175.004479 
L 197.610989 175.192124 
L 199.86679 181.685028 
L 200.317951 182.639232 
L 202.122592 188.489188 
L 202.573752 189.208687 
L 203.024912 190.931646 
L 203.476073 192.184474 
L 203.927233 193.813303 
L 204.378393 194.804157 
L 204.829554 196.872268 
L 205.280714 197.26478 
L 205.731874 200.146328 
L 206.183035 199.778253 
L 206.634195 202.85217 
L 207.085355 203.705977 
L 207.536516 204.899683 
L 207.987676 207.409855 
L 208.438836 207.918472 
L 208.889996 210.263872 
L 209.341157 211.823874 
L 209.792317 212.47838 
L 210.243477 214.721466 
L 211.145798 217.022434 
L 211.596958 220.041621 
L 212.048119 220.718725 
L 212.499279 223.099831 
L 212.950439 223.726012 
L 213.4016 226.144779 
L 213.85276 227.183651 
L 216.559722 237.597875 
L 217.010882 238.883897 
L 217.462042 241.368013 
L 217.913203 242.467392 
L 218.364363 244.59308 
L 218.815523 245.948668 
L 219.266684 247.71634 
L 219.717844 250.260903 
L 220.169004 250.9557 
L 221.071325 255.30502 
L 221.522485 256.52223 
L 221.973645 259.184743 
L 223.327126 264.312022 
L 223.778287 266.461785 
L 224.229447 267.866601 
L 226.034088 276.32952 
L 226.485249 279.222652 
L 226.936409 278.840293 
L 227.387569 284.03773 
L 227.83873 284.26257 
L 228.28989 286.815291 
L 228.74105 290.384036 
L 229.19221 290.508268 
L 229.643371 295.96189 
L 230.094531 295.569721 
L 230.545691 300.324847 
L 230.996852 302.477114 
L 231.448012 303.484329 
L 231.899172 310.479599 
L 232.350333 299.012709 
L 232.801493 208.812204 
L 233.252653 78.811748 
L 233.703814 30.884563 
L 234.154974 40.535676 
L 234.606134 41.703934 
L 235.057294 42.016861 
L 235.508455 58.126018 
L 236.410775 68.985636 
L 236.861936 61.814613 
L 237.313096 65.44022 
L 238.215417 79.902041 
L 238.666577 82.455456 
L 239.117737 90.438154 
L 239.568898 90.234202 
L 240.020058 97.173241 
L 240.471218 98.255408 
L 240.922379 102.496534 
L 241.373539 103.80672 
L 241.824699 107.36336 
L 242.275859 109.384579 
L 242.72702 110.547915 
L 243.17818 113.831515 
L 243.62934 113.238191 
L 244.080501 116.750692 
L 244.531661 117.369664 
L 245.433982 120.089874 
L 245.885142 121.725286 
L 246.336302 120.901349 
L 246.787463 124.08047 
L 247.238623 121.12167 
L 247.689783 122.903978 
L 248.140943 120.671057 
L 248.592104 122.14855 
L 249.043264 119.817125 
L 249.494424 120.942713 
L 249.945585 118.913056 
L 250.396745 120.004985 
L 250.847905 118.172139 
L 251.299066 117.966662 
L 251.750226 119.554697 
L 252.201386 116.594355 
L 252.652547 118.068148 
L 253.103707 116.774943 
L 253.554867 117.887072 
L 254.006028 115.49557 
L 254.457188 116.989694 
L 254.908348 115.360727 
L 255.359508 117.070539 
L 255.810669 115.468306 
L 256.261829 115.775733 
L 257.16415 115.992969 
L 257.61531 114.483829 
L 258.06647 116.616156 
L 258.517631 114.646742 
L 258.968791 115.133821 
L 259.419951 115.150095 
L 259.871112 114.700017 
L 260.322272 116.041527 
L 260.773432 115.171725 
L 261.224592 116.202323 
L 261.675753 115.165838 
L 262.126913 117.070321 
L 262.578073 115.629545 
L 263.029234 117.387061 
L 263.480394 116.859853 
L 263.931554 116.933647 
L 264.382715 118.482496 
L 264.833875 116.787128 
L 265.285035 118.699922 
L 265.736196 118.971836 
L 266.187356 118.748035 
L 266.638516 121.175254 
L 267.089677 118.270658 
L 267.540837 121.437546 
L 267.991997 121.636367 
L 268.443157 121.494726 
L 268.894318 122.961228 
L 269.345478 124.041593 
L 269.796638 122.238915 
L 270.247799 126.352969 
L 270.698959 124.172969 
L 271.150119 126.073944 
L 271.60128 127.32637 
L 272.05244 126.981378 
L 272.5036 128.372219 
L 272.954761 129.163308 
L 273.405921 129.123074 
L 273.857081 131.426508 
L 274.308241 130.618803 
L 274.759402 132.302273 
L 275.210562 132.685358 
L 275.661722 135.048261 
L 276.112883 133.38631 
L 276.564043 137.286596 
L 277.015203 134.575253 
L 277.466364 139.177264 
L 277.917524 138.281 
L 278.368684 140.211856 
L 278.819845 139.649317 
L 279.271005 143.823416 
L 279.722165 140.596328 
L 280.173326 145.610336 
L 280.624486 143.781081 
L 281.075646 145.463938 
L 281.526806 148.720414 
L 281.977967 145.204821 
L 282.429127 150.889054 
L 282.880287 148.778199 
L 283.331448 150.883655 
L 283.782608 152.266681 
L 284.233768 152.262562 
L 284.684929 154.182008 
L 285.136089 155.540252 
L 285.587249 154.978274 
L 286.03841 157.717573 
L 286.48957 157.632189 
L 287.39189 160.474777 
L 287.843051 161.895625 
L 288.294211 161.526304 
L 288.745371 165.203617 
L 289.196532 164.698894 
L 289.647692 166.265688 
L 290.098852 168.509436 
L 290.550013 168.323091 
L 291.001173 171.055743 
L 291.452333 171.582033 
L 291.903494 171.823189 
L 292.354654 176.796389 
L 292.805814 172.692902 
L 293.256975 179.456365 
L 293.708135 176.743841 
L 294.159295 181.37641 
L 294.610455 180.364558 
L 295.061616 183.489094 
L 295.512776 182.978527 
L 295.963936 186.34633 
L 296.866257 187.833718 
L 297.317417 192.020327 
L 297.768578 190.1504 
L 298.219738 194.788815 
L 298.670898 193.806775 
L 299.122059 197.670212 
L 299.573219 197.922891 
L 300.024379 199.710822 
L 300.475539 202.574092 
L 300.9267 201.950375 
L 301.37786 206.486488 
L 301.82902 206.403864 
L 302.280181 207.920509 
L 302.731341 210.91733 
L 303.182501 211.535882 
L 304.084822 215.149319 
L 304.535982 216.360429 
L 304.987143 218.239978 
L 305.438303 220.637668 
L 305.889463 220.575805 
L 306.340624 224.492501 
L 306.791784 223.240591 
L 307.242944 227.788999 
L 308.145265 228.09264 
L 308.596425 232.350596 
L 309.047585 232.106752 
L 309.498746 235.249258 
L 309.949906 234.086428 
L 310.401066 238.70855 
L 310.852227 237.059884 
L 311.303387 240.316962 
L 311.754547 240.709035 
L 312.656868 244.366933 
L 313.559188 246.391011 
L 314.010349 247.347305 
L 314.461509 248.736121 
L 314.912669 249.695393 
L 315.36383 252.027646 
L 315.81499 250.743626 
L 316.26615 254.244762 
L 316.717311 254.237307 
L 317.168471 253.633558 
L 317.619631 257.767824 
L 318.070792 255.33791 
L 318.521952 258.756911 
L 318.973112 257.834891 
L 319.424273 257.634232 
L 319.875433 260.557692 
L 320.326593 259.207047 
L 320.777753 259.540794 
L 321.228914 262.500584 
L 321.680074 258.951366 
L 322.131234 262.786317 
L 322.582395 261.672048 
L 323.033555 261.073217 
L 323.484715 262.157302 
L 324.387036 260.944892 
L 324.838196 259.732328 
L 325.289357 262.356898 
L 325.740517 257.083103 
L 326.191677 262.295626 
L 326.642837 255.757633 
L 327.093998 257.997781 
L 327.545158 257.829565 
L 327.996318 253.95025 
L 328.447479 255.337116 
L 328.898639 252.8617 
L 329.349799 252.098222 
L 329.80096 249.541442 
L 330.25212 248.364509 
L 330.70328 245.598164 
L 331.154441 246.713738 
L 331.605601 242.087308 
L 332.056761 241.273243 
L 332.507922 239.189437 
L 332.959082 235.48416 
L 333.410242 235.450466 
L 333.861402 231.024281 
L 334.312563 230.74684 
L 334.763723 227.120758 
L 335.214883 225.911217 
L 335.666044 221.949786 
L 336.117204 221.020289 
L 336.568364 216.467563 
L 337.019525 216.877452 
L 337.470685 211.041645 
L 337.921845 211.988341 
L 338.373006 206.894758 
L 338.824166 207.191458 
L 339.275326 203.871191 
L 339.726486 202.174602 
L 340.177647 200.936682 
L 340.628807 198.414956 
L 341.079967 196.963568 
L 342.433448 191.456977 
L 342.884609 191.191256 
L 343.335769 189.561429 
L 343.786929 188.698967 
L 344.68925 186.669987 
L 345.591571 184.670938 
L 346.042731 184.50191 
L 346.493891 182.746456 
L 346.945051 182.688875 
L 347.396212 181.546326 
L 347.847372 181.619817 
L 348.298532 180.525883 
L 348.749693 180.690333 
L 349.200853 179.741712 
L 349.652013 179.98686 
L 350.103174 179.234557 
L 350.554334 179.380383 
L 351.005494 178.509754 
L 351.456655 178.708398 
L 351.907815 178.338076 
L 352.810135 178.289501 
L 353.261296 177.928185 
L 353.712456 177.95306 
L 355.517097 177.523324 
L 355.968258 177.525501 
L 356.419418 177.377678 
L 356.870578 177.491538 
L 357.772899 177.343789 
L 359.12638 177.2673 
L 360.931021 177.168914 
L 361.382181 177.046439 
L 362.735662 177.109426 
L 364.089143 176.896107 
L 364.540304 176.996587 
L 365.893784 176.913569 
L 368.149586 176.920667 
L 388.4518 176.882281 
L 398.828487 176.883221 
L 398.828487 176.883221 
" clip-path="url(#pcc814b8339)" style="fill: none; stroke: #ff7f0e; stroke-width: 1.5; stroke-linecap: square"/>
   </g>
   <g id="line2d_34">
    <path d="M 86.059689 119.533274 
L 86.510849 120.19806 
L 86.962009 120.603962 
L 87.41317 121.32524 
L 88.31549 123.025396 
L 89.217811 124.023744 
L 89.668971 125.288393 
L 90.571292 126.550952 
L 91.022452 127.968648 
L 91.473612 128.41932 
L 92.375933 130.532093 
L 92.827093 131.096731 
L 93.278254 132.68135 
L 93.729414 133.062686 
L 94.180574 134.606181 
L 94.631735 135.602411 
L 95.082895 136.29405 
L 95.534055 137.464999 
L 95.985216 139.010702 
L 96.436376 139.377444 
L 96.887536 141.095005 
L 97.338697 141.852268 
L 98.241017 144.656503 
L 98.692177 145.113626 
L 99.143338 147.146034 
L 99.594498 148.000498 
L 100.496819 150.715165 
L 101.399139 153.317001 
L 101.8503 154.891103 
L 102.30146 155.296264 
L 102.75262 157.240015 
L 106.361903 168.036594 
L 107.264223 171.402151 
L 110.422346 182.135972 
L 110.873506 182.996524 
L 111.324666 185.256983 
L 114.482788 196.353811 
L 122.152514 225.230382 
L 122.603674 227.864569 
L 123.054834 228.58267 
L 123.505995 231.136428 
L 123.957155 232.090949 
L 124.408315 234.088554 
L 124.859475 236.813858 
L 125.310636 237.272274 
L 125.761796 239.906665 
L 126.212956 241.232794 
L 127.566437 246.76728 
L 128.017598 248.37731 
L 128.468758 251.052071 
L 128.919918 251.927536 
L 129.371079 254.235282 
L 129.822239 255.758511 
L 132.07804 265.31832 
L 132.529201 266.673585 
L 132.980361 269.159315 
L 134.333842 274.699437 
L 135.687323 280.488457 
L 137.040804 285.790579 
L 137.491964 288.148866 
L 138.394285 291.459715 
L 138.845445 293.623469 
L 140.198926 297.991555 
L 140.650086 299.291284 
L 141.101247 298.570755 
L 141.552407 299.825864 
L 142.003567 298.162876 
L 142.905888 286.543231 
L 143.808209 259.01519 
L 144.710529 225.015687 
L 145.61285 188.513785 
L 146.06401 177.534975 
L 146.966331 169.031109 
L 147.417491 166.446462 
L 148.319812 158.562958 
L 149.222132 151.597681 
L 149.673293 148.470789 
L 150.124453 146.490932 
L 151.929094 135.771279 
L 153.733735 128.104495 
L 154.184896 126.823494 
L 154.636056 124.97083 
L 155.989537 121.355687 
L 156.891858 118.930107 
L 157.343018 118.282412 
L 157.794178 116.71043 
L 158.245338 116.434523 
L 158.696499 114.892487 
L 159.147659 114.76375 
L 159.598819 113.113567 
L 160.04998 112.988246 
L 160.50114 112.72292 
L 160.9523 111.384222 
L 161.403461 111.705639 
L 161.854621 109.81662 
L 162.305781 110.224924 
L 162.756942 109.59434 
L 163.208102 109.455393 
L 164.110422 108.630653 
L 164.561583 108.278775 
L 165.012743 108.636021 
L 165.463903 107.811009 
L 165.915064 107.932433 
L 166.366224 107.638099 
L 166.817384 108.200865 
L 167.268545 107.676557 
L 167.719705 107.931891 
L 168.170865 107.509237 
L 168.622026 108.203613 
L 169.073186 108.20008 
L 169.524346 108.344017 
L 169.975507 109.047734 
L 170.426667 108.961029 
L 170.877827 109.496828 
L 171.780148 110.144231 
L 172.231308 110.871612 
L 172.682468 110.795495 
L 173.133629 112.255802 
L 173.584789 112.262152 
L 174.035949 112.734803 
L 174.48711 113.676001 
L 174.93827 114.100295 
L 175.840591 115.914632 
L 176.291751 115.764126 
L 176.742911 117.296051 
L 177.194071 118.180224 
L 177.645232 118.802842 
L 178.096392 120.118762 
L 178.547552 120.552707 
L 178.998713 121.298846 
L 179.449873 123.034744 
L 179.901033 123.197552 
L 180.352194 124.764215 
L 180.803354 125.748057 
L 181.254514 126.384114 
L 181.705675 128.14162 
L 182.156835 128.727442 
L 182.607995 129.739401 
L 183.059156 131.160776 
L 183.510316 132.038917 
L 185.314957 137.055495 
L 185.766117 138.54773 
L 186.217278 138.755758 
L 186.668438 141.518639 
L 187.119598 141.806815 
L 187.570759 143.749878 
L 188.021919 144.501358 
L 189.82656 150.230553 
L 190.27772 152.293675 
L 190.728881 152.406993 
L 191.180041 154.920422 
L 191.631201 155.650097 
L 192.082362 157.498208 
L 192.984682 160.027956 
L 193.435843 162.077325 
L 193.887003 163.204797 
L 194.338163 164.826654 
L 194.789324 165.938934 
L 195.691644 169.379021 
L 196.142805 170.697104 
L 196.593965 172.830474 
L 197.045125 173.410561 
L 197.496285 175.937327 
L 198.398606 178.291086 
L 198.849766 180.53349 
L 199.300927 181.167168 
L 199.752087 183.659256 
L 200.203247 184.870219 
L 200.654408 186.786572 
L 201.105568 187.834282 
L 201.556728 190.450456 
L 202.459049 192.87374 
L 202.910209 195.507832 
L 203.361369 195.488396 
L 203.81253 198.533053 
L 204.26369 199.537102 
L 204.71485 201.07652 
L 205.166011 203.52262 
L 205.617171 204.262295 
L 206.068331 206.063739 
L 206.519492 208.436772 
L 206.970652 209.387901 
L 207.421812 211.604266 
L 208.775293 216.102535 
L 209.226454 218.462717 
L 209.677614 219.818636 
L 210.128774 221.879689 
L 210.579934 222.911733 
L 211.031095 225.584105 
L 211.482255 226.395206 
L 212.384576 230.619267 
L 212.835736 231.341855 
L 213.286896 233.787985 
L 213.738057 234.726444 
L 214.189217 237.763812 
L 214.640377 238.527441 
L 215.993858 244.263127 
L 216.445018 245.151489 
L 216.896179 247.708882 
L 217.347339 249.017127 
L 218.24966 252.866066 
L 218.70082 253.633171 
L 219.15198 256.391681 
L 219.603141 257.540623 
L 220.054301 259.812459 
L 220.505461 261.215441 
L 221.407782 264.706547 
L 221.858942 266.205293 
L 222.310103 268.484193 
L 222.761263 269.354682 
L 223.663583 273.504879 
L 224.565904 276.476861 
L 225.017064 279.032715 
L 225.468225 279.858384 
L 225.919385 281.622946 
L 226.370545 284.284963 
L 226.821706 283.996006 
L 227.272866 287.26283 
L 227.724026 288.713092 
L 228.175187 288.712969 
L 228.626347 292.257617 
L 229.077507 292.554757 
L 229.528667 293.7334 
L 229.979828 296.710744 
L 230.430988 295.33518 
L 230.882148 298.439314 
L 231.333309 298.102144 
L 231.784469 298.168684 
L 232.235629 298.352293 
L 232.68679 295.943412 
L 233.13795 292.863046 
L 233.58911 287.733983 
L 234.040271 276.02053 
L 234.491431 260.728621 
L 235.393752 195.413812 
L 235.844912 163.158221 
L 236.296072 147.526068 
L 237.198393 144.14047 
L 238.100713 134.028803 
L 238.551874 133.325731 
L 239.454194 132.74647 
L 239.905355 129.94701 
L 240.356515 129.840836 
L 240.807675 126.826879 
L 241.258836 125.715598 
L 241.709996 124.267477 
L 242.161156 121.3234 
L 242.612316 121.232669 
L 243.514637 117.276173 
L 243.965797 116.717288 
L 244.416958 114.458619 
L 244.868118 113.891445 
L 245.319278 112.007546 
L 245.770439 112.049588 
L 246.221599 108.919031 
L 246.672759 110.104614 
L 247.12392 107.468123 
L 247.57508 107.84493 
L 248.477401 105.167512 
L 248.928561 106.351085 
L 249.379721 103.441188 
L 249.830881 104.537077 
L 250.733202 102.165731 
L 251.184362 103.419409 
L 252.086683 101.20645 
L 252.537843 102.795664 
L 252.989004 100.545076 
L 253.440164 101.550335 
L 253.891324 101.539066 
L 254.342485 101.153663 
L 254.793645 101.278261 
L 255.244805 102.045117 
L 255.695965 100.527392 
L 256.147126 102.985717 
L 256.598286 101.084436 
L 257.500607 103.212312 
L 257.951767 102.428013 
L 258.402927 104.008446 
L 259.305248 103.586675 
L 259.756408 105.621673 
L 260.207569 104.7818 
L 260.658729 106.090392 
L 261.109889 106.923682 
L 261.56105 107.135185 
L 263.365691 110.48811 
L 263.816851 110.795282 
L 264.268011 112.97694 
L 264.719172 111.811378 
L 265.170332 115.151851 
L 265.621492 114.119439 
L 266.072653 116.442155 
L 266.523813 116.636187 
L 266.974973 117.3956 
L 267.426134 118.978879 
L 267.877294 118.458193 
L 268.328454 120.295966 
L 268.779614 121.402474 
L 269.230775 121.202859 
L 269.681935 123.325574 
L 270.133095 123.617886 
L 270.584256 124.36932 
L 271.035416 126.386002 
L 271.486576 126.305762 
L 271.937737 128.080524 
L 272.388897 128.489098 
L 272.840057 130.108165 
L 273.291218 130.896133 
L 273.742378 132.196694 
L 274.193538 133.122317 
L 274.644699 134.78784 
L 275.547019 136.900145 
L 275.998179 138.640068 
L 276.44934 138.739899 
L 276.9005 141.752979 
L 277.35166 141.293363 
L 277.802821 144.017219 
L 278.253981 145.145301 
L 278.705141 145.34894 
L 279.156302 148.989262 
L 279.607462 147.929536 
L 280.058622 150.909242 
L 280.960943 153.133878 
L 281.412103 155.198334 
L 281.863263 156.531396 
L 282.314424 157.279352 
L 282.765584 160.821758 
L 283.216744 159.659775 
L 283.667905 162.846879 
L 284.119065 164.132805 
L 284.570225 164.673496 
L 285.021386 167.200194 
L 285.472546 168.784948 
L 285.923706 169.063164 
L 286.374867 172.558104 
L 286.826027 172.64201 
L 287.728348 176.497209 
L 288.179508 177.207216 
L 289.081828 180.892701 
L 289.532989 181.317463 
L 289.984149 184.220286 
L 290.435309 184.565376 
L 290.88647 185.872866 
L 291.33763 188.716531 
L 291.78879 187.707456 
L 292.239951 191.321604 
L 292.691111 191.027535 
L 293.142271 192.905072 
L 293.593432 193.681447 
L 294.044592 195.445715 
L 294.495752 196.137458 
L 294.946912 197.613723 
L 295.398073 198.238867 
L 295.849233 200.586919 
L 296.300393 200.143442 
L 297.202714 204.041584 
L 297.653874 203.817605 
L 298.105035 205.267044 
L 298.556195 207.695124 
L 299.007355 206.554244 
L 299.458516 210.612564 
L 299.909676 209.210335 
L 300.811997 213.34962 
L 301.263157 212.10414 
L 301.714317 216.443691 
L 302.165477 214.48935 
L 302.616638 218.152275 
L 303.067798 217.336426 
L 303.518958 219.730148 
L 303.970119 218.949438 
L 304.421279 222.497104 
L 304.872439 220.66691 
L 305.3236 224.711845 
L 305.77476 222.819658 
L 306.22592 226.05163 
L 306.677081 225.217964 
L 307.128241 227.141725 
L 307.579401 227.814963 
L 308.030561 228.265553 
L 308.481722 228.9247 
L 308.932882 230.660698 
L 309.384042 229.343655 
L 309.835203 232.705837 
L 310.286363 231.017227 
L 310.737523 232.872965 
L 311.188684 232.397873 
L 311.639844 233.364965 
L 312.091004 233.69292 
L 312.542165 234.514075 
L 312.993325 233.763214 
L 313.444485 236.034083 
L 313.895646 232.699877 
L 314.346806 236.592821 
L 314.797966 232.74215 
L 315.249126 236.72113 
L 315.700287 233.387186 
L 316.151447 235.794884 
L 316.602607 234.175657 
L 317.053768 233.819713 
L 317.504928 233.95132 
L 317.956088 232.928434 
L 318.407249 233.621961 
L 318.858409 231.107211 
L 319.309569 233.453825 
L 319.76073 230.403218 
L 320.21189 230.472039 
L 320.66305 229.515356 
L 321.11421 229.160543 
L 321.565371 227.128365 
L 322.016531 227.143705 
L 322.467691 225.703281 
L 322.918852 224.858822 
L 323.370012 223.292907 
L 323.821172 222.137993 
L 324.272333 220.43576 
L 326.528134 214.084946 
L 326.979295 212.417218 
L 327.430455 211.35134 
L 327.881615 209.473494 
L 328.332775 208.397238 
L 328.783936 206.375192 
L 329.235096 205.367838 
L 329.686256 203.477483 
L 330.137417 202.545676 
L 331.490898 199.1369 
L 331.942058 197.196082 
L 332.393218 195.965721 
L 332.844379 195.507851 
L 333.295539 193.459926 
L 333.746699 193.558527 
L 334.197859 191.029062 
L 334.64902 191.461824 
L 335.10018 189.207963 
L 335.55134 189.224329 
L 336.453661 187.50167 
L 336.904821 186.845352 
L 337.355982 185.911362 
L 337.807142 185.765492 
L 338.258302 184.739546 
L 338.709463 184.632926 
L 339.160623 183.584072 
L 339.611783 183.530907 
L 340.514104 182.22682 
L 340.965264 182.090995 
L 341.416424 181.719426 
L 341.867585 180.964185 
L 342.318745 181.145325 
L 342.769905 180.542103 
L 343.221066 180.560814 
L 343.672226 180.024888 
L 344.123386 179.960195 
L 345.025707 179.401739 
L 345.476867 179.399259 
L 345.928028 178.999084 
L 346.379188 179.019251 
L 346.830348 178.605336 
L 347.281508 178.72495 
L 347.732669 178.379413 
L 348.183829 178.455855 
L 348.634989 178.192166 
L 349.53731 178.092621 
L 349.98847 177.894393 
L 350.439631 178.034578 
L 350.890791 177.57115 
L 351.341951 177.901547 
L 351.793112 177.591223 
L 353.146593 177.596772 
L 353.597753 177.45748 
L 354.500073 177.411589 
L 357.207035 177.098092 
L 358.560516 177.122922 
L 359.011677 176.988102 
L 359.462837 177.088393 
L 359.913997 176.929703 
L 360.365157 177.025209 
L 361.267478 176.970798 
L 365.327921 176.90888 
L 365.779081 176.952821 
L 366.681402 176.905778 
L 373.899967 176.885719 
L 401.420746 176.882099 
L 401.420746 176.882099 
" clip-path="url(#pcc814b8339)" style="fill: none; stroke: #008000; stroke-width: 1.5; stroke-linecap: square"/>
   </g>
   <g id="line2d_35">
    <path d="M 93.83293 149.260383 
L 94.28409 149.138977 
L 94.735251 148.720417 
L 95.186411 149.032771 
L 95.637571 149.068827 
L 96.088732 149.267223 
L 96.539892 149.200159 
L 96.991052 148.994242 
L 97.442213 149.185278 
L 97.893373 149.117299 
L 98.344533 149.619226 
L 99.246854 149.995453 
L 99.698014 149.728502 
L 100.149175 150.368475 
L 100.600335 150.093449 
L 101.502655 151.32085 
L 101.953816 151.441274 
L 102.404976 151.922954 
L 102.856136 152.06015 
L 103.307297 151.803366 
L 103.758457 153.227777 
L 104.209617 152.790132 
L 104.660778 153.964033 
L 105.111938 153.976444 
L 105.563098 154.395217 
L 106.014259 155.316319 
L 106.465419 155.199445 
L 107.367739 156.607104 
L 107.8189 156.93857 
L 108.27006 157.948121 
L 108.72122 157.95205 
L 109.172381 158.830318 
L 109.623541 159.39721 
L 110.074701 159.545791 
L 110.525862 160.349893 
L 110.977022 161.388104 
L 111.428182 161.509346 
L 112.330503 163.272782 
L 113.232824 164.150494 
L 114.135144 165.758228 
L 115.488625 167.508811 
L 115.939785 168.669804 
L 116.390946 168.954733 
L 116.842106 170.514977 
L 117.293266 170.70687 
L 117.744427 171.909743 
L 118.195587 172.050939 
L 118.646747 173.608528 
L 119.097908 173.514668 
L 119.549068 175.020983 
L 120.000228 175.244944 
L 120.451388 176.334674 
L 121.804869 178.631942 
L 122.25603 179.872638 
L 122.70719 179.959105 
L 123.15835 181.509319 
L 123.609511 181.482498 
L 124.511831 183.578614 
L 125.865312 186.043528 
L 126.316473 186.641123 
L 126.767633 187.010967 
L 127.218793 188.494143 
L 128.121114 189.881377 
L 128.572274 190.950597 
L 129.023434 191.265731 
L 130.376915 194.130201 
L 131.279236 195.003088 
L 131.730396 195.99686 
L 132.181557 196.535083 
L 132.632717 197.717977 
L 133.083877 197.976716 
L 134.437358 200.374745 
L 134.888518 200.718063 
L 135.339679 201.732929 
L 135.790839 201.699845 
L 136.241999 202.647159 
L 136.69316 203.168628 
L 137.14432 203.938257 
L 137.59548 204.258614 
L 138.046641 205.276997 
L 138.497801 205.240845 
L 138.948961 205.926324 
L 139.400122 206.34933 
L 139.851282 206.990469 
L 140.302442 207.042419 
L 140.753602 207.532963 
L 141.204763 207.858334 
L 141.655923 208.68952 
L 142.107083 208.852859 
L 142.558244 209.24545 
L 143.009404 209.129954 
L 143.460564 209.552362 
L 143.911725 209.585064 
L 144.362885 209.299022 
L 144.814045 210.615674 
L 145.265206 209.41563 
L 145.716366 210.476496 
L 146.167526 210.089121 
L 147.069847 209.910385 
L 147.972167 209.286316 
L 148.423328 209.594892 
L 148.874488 208.263948 
L 149.325648 208.877945 
L 149.776809 208.235502 
L 150.227969 207.101923 
L 150.679129 207.756559 
L 151.13029 205.686789 
L 151.58145 205.828115 
L 152.03261 205.073753 
L 152.483771 203.898955 
L 153.386091 202.241409 
L 154.288412 200.038415 
L 154.739572 199.198267 
L 155.190732 197.723214 
L 155.641893 196.712994 
L 156.544213 193.549124 
L 156.995374 192.909237 
L 157.446534 191.197302 
L 158.348855 188.718629 
L 159.251175 184.998153 
L 159.702335 184.394616 
L 160.153496 182.433527 
L 160.604656 181.917482 
L 161.055816 179.129326 
L 161.506977 178.541862 
L 161.958137 176.743351 
L 162.860458 174.374207 
L 165.116259 167.456788 
L 165.56742 167.251265 
L 166.01858 165.15604 
L 166.46974 164.533496 
L 167.372061 161.773022 
L 167.823221 161.046823 
L 168.274381 159.990637 
L 169.176702 158.364819 
L 169.627862 156.832995 
L 170.079023 156.463018 
L 170.981343 154.820354 
L 171.432504 154.291437 
L 171.883664 153.023669 
L 172.334824 153.033999 
L 172.785984 151.944127 
L 173.237145 151.40242 
L 173.688305 150.3582 
L 174.139465 150.058577 
L 174.590626 149.568264 
L 175.041786 149.761151 
L 175.492946 148.590145 
L 175.944107 148.674584 
L 176.395267 147.698052 
L 176.846427 147.841165 
L 177.297588 147.833314 
L 177.748748 147.0261 
L 178.199908 147.391136 
L 178.651069 146.600386 
L 179.102229 146.658007 
L 179.553389 146.849748 
L 180.004549 146.609937 
L 180.45571 146.190248 
L 180.90687 146.716297 
L 181.35803 146.441843 
L 181.809191 146.527873 
L 182.260351 146.345721 
L 183.162672 146.843044 
L 183.613832 146.68455 
L 184.064992 146.938776 
L 184.516153 146.887802 
L 185.418473 148.094069 
L 185.869633 147.884079 
L 186.771954 148.126644 
L 187.223114 148.845983 
L 187.674275 148.955916 
L 188.125435 149.293491 
L 189.027756 150.436021 
L 189.930076 151.178861 
L 190.381237 151.666675 
L 190.832397 151.72271 
L 191.283557 152.983114 
L 191.734718 152.534552 
L 192.185878 153.782644 
L 193.088198 154.35756 
L 193.539359 155.564504 
L 193.990519 155.259619 
L 194.89284 157.241824 
L 195.344 157.256296 
L 195.79516 158.183558 
L 196.246321 158.737552 
L 196.697481 159.608683 
L 197.148641 159.921997 
L 197.599802 161.371192 
L 198.050962 161.576864 
L 198.502122 162.055233 
L 198.953282 163.152135 
L 199.404443 163.098019 
L 199.855603 164.848249 
L 200.306763 164.51953 
L 200.757924 166.290281 
L 201.209084 166.27663 
L 201.660244 167.830831 
L 202.111405 167.891685 
L 202.562565 168.470623 
L 203.013725 169.782652 
L 203.464886 170.325264 
L 203.916046 171.14334 
L 204.367206 172.553876 
L 204.818367 172.372321 
L 205.269527 174.476378 
L 205.720687 173.998322 
L 206.171847 175.432884 
L 206.623008 175.815442 
L 207.074168 176.379114 
L 207.525328 177.74667 
L 207.976489 178.167332 
L 208.427649 179.544618 
L 208.878809 179.552111 
L 209.32997 181.407973 
L 209.78113 181.50923 
L 210.23229 182.673512 
L 210.683451 183.516009 
L 211.134611 183.767572 
L 211.585771 185.075448 
L 212.036931 185.504192 
L 212.488092 186.501409 
L 212.939252 187.980132 
L 213.390412 187.134001 
L 213.841573 189.671468 
L 214.292733 189.24444 
L 214.743893 190.749398 
L 215.195054 190.925637 
L 215.646214 192.45584 
L 216.097374 192.445562 
L 216.548535 193.997923 
L 216.999695 194.272933 
L 217.450855 194.94102 
L 217.902016 196.073948 
L 218.353176 196.029828 
L 218.804336 197.771203 
L 219.255496 197.731579 
L 219.706657 199.316296 
L 220.157817 198.607448 
L 220.608977 200.471575 
L 221.060138 200.507938 
L 221.511298 200.809165 
L 221.962458 202.372861 
L 222.413619 202.651374 
L 222.864779 203.09625 
L 223.7671 204.320514 
L 224.21826 204.378125 
L 224.66942 205.970998 
L 225.12058 205.565288 
L 226.022901 206.859446 
L 226.925222 207.795519 
L 227.376382 207.810245 
L 227.827542 208.767882 
L 228.278703 208.793735 
L 229.181023 209.327435 
L 230.083344 210.187907 
L 230.534504 209.844057 
L 230.985665 210.43425 
L 231.436825 209.588611 
L 231.887985 211.123757 
L 232.339145 209.97188 
L 232.790306 210.768996 
L 233.241466 210.129838 
L 233.692626 210.759578 
L 234.143787 209.723671 
L 234.594947 209.913834 
L 235.046107 209.913513 
L 235.497268 209.181702 
L 235.948428 209.54985 
L 236.399588 207.979662 
L 236.850749 208.726201 
L 237.301909 207.051857 
L 237.753069 206.887175 
L 238.204229 207.293777 
L 238.65539 204.887114 
L 239.10655 205.100968 
L 239.55771 203.375115 
L 240.008871 202.916569 
L 240.911191 201.301092 
L 241.362352 199.398616 
L 241.813512 199.204137 
L 242.264672 197.138229 
L 242.715833 195.920243 
L 243.166993 195.393755 
L 243.618153 192.522246 
L 244.069314 192.577476 
L 244.520474 190.178358 
L 244.971634 189.392547 
L 245.873955 186.164819 
L 247.678596 180.277703 
L 248.580917 177.087095 
L 249.032077 176.16655 
L 249.483237 173.517189 
L 249.934398 173.659889 
L 250.385558 170.505709 
L 250.836718 170.607764 
L 251.739039 167.15248 
L 252.641359 165.787519 
L 253.09252 162.869895 
L 253.54368 163.542843 
L 253.99484 160.604969 
L 254.446001 161.039627 
L 255.348321 158.114419 
L 255.799482 158.165586 
L 256.250642 155.741978 
L 256.701802 156.602421 
L 257.152963 153.990893 
L 257.604123 154.664724 
L 258.055283 152.807477 
L 258.506443 153.111947 
L 258.957604 151.70512 
L 259.408764 151.600119 
L 260.762245 149.617046 
L 261.213405 149.284245 
L 261.664566 148.25778 
L 262.115726 149.1712 
L 262.566886 147.257162 
L 263.018047 148.13126 
L 263.469207 147.351098 
L 263.920367 147.137268 
L 264.371527 147.253308 
L 265.273848 146.445601 
L 265.725008 146.676967 
L 266.176169 146.410386 
L 266.627329 146.500164 
L 267.078489 146.152971 
L 267.52965 146.378967 
L 267.98081 146.456262 
L 268.43197 146.401225 
L 268.883131 146.762441 
L 269.785451 146.733401 
L 270.236612 147.10956 
L 271.138932 147.191721 
L 271.590092 147.582097 
L 272.041253 148.369066 
L 272.492413 147.549682 
L 272.943573 148.942566 
L 273.845894 148.668262 
L 274.297054 150.320081 
L 274.748215 149.061905 
L 275.199375 151.400422 
L 275.650535 149.951079 
L 276.101696 151.294943 
L 277.004016 152.276664 
L 277.455176 152.285368 
L 277.906337 153.463822 
L 278.357497 153.346625 
L 278.808657 154.568458 
L 279.259818 154.393164 
L 279.710978 155.765864 
L 280.162138 155.247457 
L 280.613299 157.346884 
L 281.064459 156.710793 
L 281.96678 158.732176 
L 282.41794 158.302246 
L 282.8691 160.299328 
L 283.320261 159.903064 
L 283.771421 161.180617 
L 284.222581 161.575134 
L 285.124902 162.971754 
L 285.576062 163.92927 
L 286.027222 164.186572 
L 286.478383 165.607732 
L 286.929543 165.729304 
L 287.380703 166.151276 
L 287.831864 167.714265 
L 288.283024 167.558671 
L 289.185345 170.055633 
L 289.636505 169.574516 
L 290.087665 171.800289 
L 290.538825 171.643426 
L 290.989986 172.343202 
L 291.441146 173.591681 
L 291.892306 173.459578 
L 292.343467 175.468967 
L 292.794627 174.86839 
L 293.245787 176.572907 
L 293.696948 176.484467 
L 294.148108 178.638273 
L 294.599268 177.597741 
L 295.050429 179.792346 
L 295.501589 179.593176 
L 295.952749 180.237822 
L 296.40391 181.569432 
L 296.85507 181.187048 
L 297.30623 182.846233 
L 297.75739 183.221858 
L 298.208551 183.373284 
L 298.659711 184.692895 
L 299.110871 184.776569 
L 299.562032 185.90048 
L 300.013192 185.707296 
L 300.464352 187.488411 
L 300.915513 186.225609 
L 301.366673 189.323896 
L 301.817833 187.072708 
L 302.268994 189.724602 
L 302.720154 188.775503 
L 303.171314 190.440854 
L 303.622474 189.684823 
L 304.073635 191.282242 
L 304.524795 190.390862 
L 304.975955 192.149493 
L 305.427116 191.575536 
L 305.878276 192.297763 
L 306.329436 192.18495 
L 306.780597 193.375687 
L 307.231757 192.063758 
L 307.682917 194.049739 
L 308.134078 192.976172 
L 308.585238 193.605814 
L 309.036398 194.433932 
L 309.487559 193.885782 
L 309.938719 194.058471 
L 310.389879 194.63023 
L 310.841039 194.319696 
L 311.2922 194.851587 
L 311.74336 194.059278 
L 312.19452 194.722119 
L 313.096841 194.484179 
L 313.999162 194.622415 
L 314.450322 193.841775 
L 314.901482 194.578785 
L 315.352643 193.552323 
L 315.803803 194.008477 
L 316.254963 193.453163 
L 316.706123 193.348042 
L 317.157284 193.12844 
L 317.608444 193.321484 
L 318.059604 191.919341 
L 318.510765 193.064041 
L 318.961925 191.750826 
L 319.413085 191.555152 
L 320.315406 191.407701 
L 320.766566 190.57453 
L 321.217727 190.660963 
L 322.120047 189.549089 
L 322.571208 189.619595 
L 323.022368 189.043093 
L 323.473528 189.232608 
L 323.924688 187.982453 
L 324.375849 188.67142 
L 324.827009 187.325708 
L 325.278169 187.550772 
L 325.72933 186.761004 
L 326.18049 186.313401 
L 326.63165 186.734845 
L 327.082811 185.445383 
L 327.533971 185.925713 
L 327.985131 185.242258 
L 328.436292 185.113064 
L 328.887452 184.828069 
L 329.338612 184.188568 
L 329.789772 184.13972 
L 330.240933 183.452448 
L 330.692093 183.535242 
L 331.143253 183.272874 
L 331.594414 182.773067 
L 332.045574 182.749847 
L 332.496734 182.516663 
L 332.947895 181.778255 
L 333.399055 182.071978 
L 333.850215 181.483832 
L 334.301376 181.441084 
L 335.203696 181.021641 
L 335.654857 180.674227 
L 336.106017 180.65872 
L 336.557177 180.222866 
L 337.008337 180.36304 
L 337.459498 179.831675 
L 337.910658 179.992371 
L 338.361818 179.573085 
L 338.812979 179.32992 
L 339.264139 179.473318 
L 339.715299 179.089722 
L 340.61762 179.005843 
L 341.06878 178.718653 
L 341.519941 178.858799 
L 341.971101 178.420928 
L 342.422261 178.697349 
L 342.873421 178.215619 
L 343.324582 178.417075 
L 343.775742 178.168268 
L 345.129223 178.085458 
L 345.580383 177.85119 
L 346.031544 178.069784 
L 346.482704 177.635346 
L 346.933864 177.852878 
L 347.385025 177.628518 
L 348.287345 177.638011 
L 348.738506 177.395356 
L 349.189666 177.607912 
L 349.640826 177.363104 
L 350.543147 177.397289 
L 350.994307 177.299349 
L 351.896628 177.280027 
L 352.798948 177.240065 
L 353.701269 177.193801 
L 355.05475 177.09111 
L 371.296521 176.883294 
L 373.552323 176.90317 
L 374.905804 176.868675 
L 380.319727 176.881256 
L 409.193987 176.881913 
L 409.193987 176.881913 
" clip-path="url(#pcc814b8339)" style="fill: none; stroke: #1f77b4; stroke-width: 1.5; stroke-linecap: square"/>
   </g>
   <g id="patch_3">
    <path d="M 67.181102 327.968504 
L 67.181102 25.795276 
" style="fill: none; stroke: #000000; stroke-width: 0.8; stroke-linejoin: miter; stroke-linecap: square"/>
   </g>
   <g id="patch_4">
    <path d="M 425.480315 327.968504 
L 425.480315 25.795276 
" style="fill: none; stroke: #000000; stroke-width: 0.8; stroke-linejoin: miter; stroke-linecap: square"/>
   </g>
   <g id="patch_5">
    <path d="M 67.181102 327.968504 
L 425.480315 327.968504 
" style="fill: none; stroke: #000000; stroke-width: 0.8; stroke-linejoin: miter; stroke-linecap: square"/>
   </g>
   <g id="patch_6">
    <path d="M 67.181102 25.795276 
L 425.480315 25.795276 
" style="fill: none; stroke: #000000; stroke-width: 0.8; stroke-linejoin: miter; stroke-linecap: square"/>
   </g>
   <g id="text_19">
    <!-- $E_{gain}$ for different initial divergences -->
    <g transform="translate(111.630709 19.795276)scale(0.15 -0.15)">
     <defs>
      <path id="DejaVuSans-Oblique-45" d="M 1081 4666 
L 4031 4666 
L 3928 4134 
L 1606 4134 
L 1338 2753 
L 3566 2753 
L 3463 2222 
L 1234 2222 
L 909 531 
L 3284 531 
L 3181 0 
L 172 0 
L 1081 4666 
z
" transform="scale(0.015625)"/>
      <path id="DejaVuSans-Oblique-67" d="M 3816 3500 
L 3219 434 
Q 3047 -456 2561 -893 
Q 2075 -1331 1253 -1331 
Q 950 -1331 690 -1286 
Q 431 -1241 206 -1147 
L 313 -588 
Q 525 -725 762 -790 
Q 1000 -856 1269 -856 
Q 1816 -856 2167 -557 
Q 2519 -259 2631 300 
L 2681 563 
Q 2441 288 2122 144 
Q 1803 0 1434 0 
Q 903 0 598 351 
Q 294 703 294 1319 
Q 294 1803 478 2267 
Q 663 2731 997 3091 
Q 1219 3328 1514 3456 
Q 1809 3584 2131 3584 
Q 2484 3584 2746 3420 
Q 3009 3256 3138 2956 
L 3238 3500 
L 3816 3500 
z
M 2950 2216 
Q 2950 2641 2750 2872 
Q 2550 3103 2181 3103 
Q 1953 3103 1747 3012 
Q 1541 2922 1394 2759 
Q 1156 2491 1023 2127 
Q 891 1763 891 1375 
Q 891 944 1092 712 
Q 1294 481 1672 481 
Q 2219 481 2584 976 
Q 2950 1472 2950 2216 
z
" transform="scale(0.015625)"/>
      <path id="DejaVuSans-Oblique-61" d="M 3438 1997 
L 3047 0 
L 2472 0 
L 2578 531 
Q 2325 219 2001 64 
Q 1678 -91 1281 -91 
Q 834 -91 548 182 
Q 263 456 263 884 
Q 263 1497 752 1853 
Q 1241 2209 2100 2209 
L 2900 2209 
L 2931 2363 
Q 2938 2388 2941 2417 
Q 2944 2447 2944 2509 
Q 2944 2788 2717 2942 
Q 2491 3097 2081 3097 
Q 1800 3097 1504 3025 
Q 1209 2953 897 2809 
L 997 3341 
Q 1322 3463 1633 3523 
Q 1944 3584 2234 3584 
Q 2853 3584 3176 3315 
Q 3500 3047 3500 2534 
Q 3500 2431 3484 2292 
Q 3469 2153 3438 1997 
z
M 2816 1759 
L 2241 1759 
Q 1534 1759 1195 1570 
Q 856 1381 856 984 
Q 856 709 1029 553 
Q 1203 397 1509 397 
Q 1978 397 2328 733 
Q 2678 1069 2791 1631 
L 2816 1759 
z
" transform="scale(0.015625)"/>
      <path id="DejaVuSans-Oblique-69" d="M 1172 4863 
L 1747 4863 
L 1606 4134 
L 1031 4134 
L 1172 4863 
z
M 909 3500 
L 1484 3500 
L 800 0 
L 225 0 
L 909 3500 
z
" transform="scale(0.015625)"/>
      <path id="DejaVuSans-Oblique-6e" d="M 3566 2113 
L 3156 0 
L 2578 0 
L 2988 2091 
Q 3016 2238 3031 2350 
Q 3047 2463 3047 2528 
Q 3047 2791 2881 2937 
Q 2716 3084 2419 3084 
Q 1956 3084 1622 2776 
Q 1288 2469 1184 1941 
L 800 0 
L 225 0 
L 903 3500 
L 1478 3500 
L 1363 2950 
Q 1603 3253 1940 3418 
Q 2278 3584 2650 3584 
Q 3113 3584 3367 3334 
Q 3622 3084 3622 2631 
Q 3622 2519 3608 2391 
Q 3594 2263 3566 2113 
z
" transform="scale(0.015625)"/>
      <path id="DejaVuSans-20" transform="scale(0.015625)"/>
      <path id="DejaVuSans-66" d="M 2375 4863 
L 2375 4384 
L 1825 4384 
Q 1516 4384 1395 4259 
Q 1275 4134 1275 3809 
L 1275 3500 
L 2222 3500 
L 2222 3053 
L 1275 3053 
L 1275 0 
L 697 0 
L 697 3053 
L 147 3053 
L 147 3500 
L 697 3500 
L 697 3744 
Q 697 4328 969 4595 
Q 1241 4863 1831 4863 
L 2375 4863 
z
" transform="scale(0.015625)"/>
      <path id="DejaVuSans-6f" d="M 1959 3097 
Q 1497 3097 1228 2736 
Q 959 2375 959 1747 
Q 959 1119 1226 758 
Q 1494 397 1959 397 
Q 2419 397 2687 759 
Q 2956 1122 2956 1747 
Q 2956 2369 2687 2733 
Q 2419 3097 1959 3097 
z
M 1959 3584 
Q 2709 3584 3137 3096 
Q 3566 2609 3566 1747 
Q 3566 888 3137 398 
Q 2709 -91 1959 -91 
Q 1206 -91 779 398 
Q 353 888 353 1747 
Q 353 2609 779 3096 
Q 1206 3584 1959 3584 
z
" transform="scale(0.015625)"/>
      <path id="DejaVuSans-64" d="M 2906 2969 
L 2906 4863 
L 3481 4863 
L 3481 0 
L 2906 0 
L 2906 525 
Q 2725 213 2448 61 
Q 2172 -91 1784 -91 
Q 1150 -91 751 415 
Q 353 922 353 1747 
Q 353 2572 751 3078 
Q 1150 3584 1784 3584 
Q 2172 3584 2448 3432 
Q 2725 3281 2906 2969 
z
M 947 1747 
Q 947 1113 1208 752 
Q 1469 391 1925 391 
Q 2381 391 2643 752 
Q 2906 1113 2906 1747 
Q 2906 2381 2643 2742 
Q 2381 3103 1925 3103 
Q 1469 3103 1208 2742 
Q 947 2381 947 1747 
z
" transform="scale(0.015625)"/>
      <path id="DejaVuSans-74" d="M 1172 4494 
L 1172 3500 
L 2356 3500 
L 2356 3053 
L 1172 3053 
L 1172 1153 
Q 1172 725 1289 603 
Q 1406 481 1766 481 
L 2356 481 
L 2356 0 
L 1766 0 
Q 1100 0 847 248 
Q 594 497 594 1153 
L 594 3053 
L 172 3053 
L 172 3500 
L 594 3500 
L 594 4494 
L 1172 4494 
z
" transform="scale(0.015625)"/>
      <path id="DejaVuSans-6c" d="M 603 4863 
L 1178 4863 
L 1178 0 
L 603 0 
L 603 4863 
z
" transform="scale(0.015625)"/>
      <path id="DejaVuSans-76" d="M 191 3500 
L 800 3500 
L 1894 563 
L 2988 3500 
L 3597 3500 
L 2284 0 
L 1503 0 
L 191 3500 
z
" transform="scale(0.015625)"/>
      <path id="DejaVuSans-63" d="M 3122 3366 
L 3122 2828 
Q 2878 2963 2633 3030 
Q 2388 3097 2138 3097 
Q 1578 3097 1268 2742 
Q 959 2388 959 1747 
Q 959 1106 1268 751 
Q 1578 397 2138 397 
Q 2388 397 2633 464 
Q 2878 531 3122 666 
L 3122 134 
Q 2881 22 2623 -34 
Q 2366 -91 2075 -91 
Q 1284 -91 818 406 
Q 353 903 353 1747 
Q 353 2603 823 3093 
Q 1294 3584 2113 3584 
Q 2378 3584 2631 3529 
Q 2884 3475 3122 3366 
z
" transform="scale(0.015625)"/>
      <path id="DejaVuSans-73" d="M 2834 3397 
L 2834 2853 
Q 2591 2978 2328 3040 
Q 2066 3103 1784 3103 
Q 1356 3103 1142 2972 
Q 928 2841 928 2578 
Q 928 2378 1081 2264 
Q 1234 2150 1697 2047 
L 1894 2003 
Q 2506 1872 2764 1633 
Q 3022 1394 3022 966 
Q 3022 478 2636 193 
Q 2250 -91 1575 -91 
Q 1294 -91 989 -36 
Q 684 19 347 128 
L 347 722 
Q 666 556 975 473 
Q 1284 391 1588 391 
Q 1994 391 2212 530 
Q 2431 669 2431 922 
Q 2431 1156 2273 1281 
Q 2116 1406 1581 1522 
L 1381 1569 
Q 847 1681 609 1914 
Q 372 2147 372 2553 
Q 372 3047 722 3315 
Q 1072 3584 1716 3584 
Q 2034 3584 2315 3537 
Q 2597 3491 2834 3397 
z
" transform="scale(0.015625)"/>
     </defs>
     <use xlink:href="#DejaVuSans-Oblique-45" transform="translate(0 0.015625)"/>
     <use xlink:href="#DejaVuSans-Oblique-67" transform="translate(63.183594 -16.390625)scale(0.7)"/>
     <use xlink:href="#DejaVuSans-Oblique-61" transform="translate(107.617187 -16.390625)scale(0.7)"/>
     <use xlink:href="#DejaVuSans-Oblique-69" transform="translate(150.512695 -16.390625)scale(0.7)"/>
     <use xlink:href="#DejaVuSans-Oblique-6e" transform="translate(169.960937 -16.390625)scale(0.7)"/>
     <use xlink:href="#DejaVuSans-20" transform="translate(217.060547 0.015625)"/>
     <use xlink:href="#DejaVuSans-66" transform="translate(248.847656 0.015625)"/>
     <use xlink:href="#DejaVuSans-6f" transform="translate(284.052734 0.015625)"/>
     <use xlink:href="#DejaVuSans-72" transform="translate(345.234375 0.015625)"/>
     <use xlink:href="#DejaVuSans-20" transform="translate(386.347656 0.015625)"/>
     <use xlink:href="#DejaVuSans-64" transform="translate(418.134766 0.015625)"/>
     <use xlink:href="#DejaVuSans-69" transform="translate(481.611328 0.015625)"/>
     <use xlink:href="#DejaVuSans-66" transform="translate(509.394531 0.015625)"/>
     <use xlink:href="#DejaVuSans-66" transform="translate(544.599609 0.015625)"/>
     <use xlink:href="#DejaVuSans-65" transform="translate(579.804688 0.015625)"/>
     <use xlink:href="#DejaVuSans-72" transform="translate(641.328125 0.015625)"/>
     <use xlink:href="#DejaVuSans-65" transform="translate(682.441406 0.015625)"/>
     <use xlink:href="#DejaVuSans-6e" transform="translate(743.964844 0.015625)"/>
     <use xlink:href="#DejaVuSans-74" transform="translate(807.34375 0.015625)"/>
     <use xlink:href="#DejaVuSans-20" transform="translate(846.552734 0.015625)"/>
     <use xlink:href="#DejaVuSans-69" transform="translate(878.339844 0.015625)"/>
     <use xlink:href="#DejaVuSans-6e" transform="translate(906.123047 0.015625)"/>
     <use xlink:href="#DejaVuSans-69" transform="translate(969.501953 0.015625)"/>
     <use xlink:href="#DejaVuSans-74" transform="translate(997.285156 0.015625)"/>
     <use xlink:href="#DejaVuSans-69" transform="translate(1036.494141 0.015625)"/>
     <use xlink:href="#DejaVuSans-61" transform="translate(1064.277344 0.015625)"/>
     <use xlink:href="#DejaVuSans-6c" transform="translate(1125.556641 0.015625)"/>
     <use xlink:href="#DejaVuSans-20" transform="translate(1153.339844 0.015625)"/>
     <use xlink:href="#DejaVuSans-64" transform="translate(1185.126953 0.015625)"/>
     <use xlink:href="#DejaVuSans-69" transform="translate(1248.603516 0.015625)"/>
     <use xlink:href="#DejaVuSans-76" transform="translate(1276.386719 0.015625)"/>
     <use xlink:href="#DejaVuSans-65" transform="translate(1335.566406 0.015625)"/>
     <use xlink:href="#DejaVuSans-72" transform="translate(1397.089844 0.015625)"/>
     <use xlink:href="#DejaVuSans-67" transform="translate(1438.203125 0.015625)"/>
     <use xlink:href="#DejaVuSans-65" transform="translate(1501.679688 0.015625)"/>
     <use xlink:href="#DejaVuSans-6e" transform="translate(1563.203125 0.015625)"/>
     <use xlink:href="#DejaVuSans-63" transform="translate(1626.582031 0.015625)"/>
     <use xlink:href="#DejaVuSans-65" transform="translate(1681.5625 0.015625)"/>
     <use xlink:href="#DejaVuSans-73" transform="translate(1743.085938 0.015625)"/>
    </g>
   </g>
   <g id="legend_1">
    <g id="patch_7">
     <path d="M 301.880315 103.846838 
L 414.980315 103.846838 
Q 417.980315 103.846838 417.980315 100.846838 
L 417.980315 36.295276 
Q 417.980315 33.295276 414.980315 33.295276 
L 301.880315 33.295276 
Q 298.880315 33.295276 298.880315 36.295276 
L 298.880315 100.846838 
Q 298.880315 103.846838 301.880315 103.846838 
z
" style="fill: #ffffff; opacity: 0.8; stroke: #cccccc; stroke-linejoin: miter"/>
    </g>
    <g id="line2d_36">
     <path d="M 304.880315 45.442932 
L 319.880315 45.442932 
L 334.880315 45.442932 
" style="fill: none; stroke: #ff7f0e; stroke-width: 1.5; stroke-linecap: square"/>
    </g>
    <g id="text_20">
     <!-- $1.7 \, \mathrm{mrad}$ -->
     <g transform="translate(346.880315 50.692932)scale(0.15 -0.15)">
      <defs>
       <path id="DejaVuSans-2e" d="M 684 794 
L 1344 794 
L 1344 0 
L 684 0 
L 684 794 
z
" transform="scale(0.015625)"/>
       <path id="DejaVuSans-37" d="M 525 4666 
L 3525 4666 
L 3525 4397 
L 1831 0 
L 1172 0 
L 2766 4134 
L 525 4134 
L 525 4666 
z
" transform="scale(0.015625)"/>
      </defs>
      <use xlink:href="#DejaVuSans-31" transform="translate(0 0.015625)"/>
      <use xlink:href="#DejaVuSans-2e" transform="translate(63.623047 0.015625)"/>
      <use xlink:href="#DejaVuSans-37" transform="translate(87.660156 0.015625)"/>
      <use xlink:href="#DejaVuSans-6d" transform="translate(167.518879 0.015625)"/>
      <use xlink:href="#DejaVuSans-72" transform="translate(264.930989 0.015625)"/>
      <use xlink:href="#DejaVuSans-61" transform="translate(306.04427 0.015625)"/>
      <use xlink:href="#DejaVuSans-64" transform="translate(367.323567 0.015625)"/>
     </g>
    </g>
    <g id="line2d_37">
     <path d="M 304.880315 67.460119 
L 319.880315 67.460119 
L 334.880315 67.460119 
" style="fill: none; stroke: #008000; stroke-width: 1.5; stroke-linecap: square"/>
    </g>
    <g id="text_21">
     <!-- $4.2 \, \mathrm{mrad}$ -->
     <g transform="translate(346.880315 72.710119)scale(0.15 -0.15)">
      <use xlink:href="#DejaVuSans-34" transform="translate(0 0.015625)"/>
      <use xlink:href="#DejaVuSans-2e" transform="translate(63.623047 0.015625)"/>
      <use xlink:href="#DejaVuSans-32" transform="translate(89.910156 0.015625)"/>
      <use xlink:href="#DejaVuSans-6d" transform="translate(169.768879 0.015625)"/>
      <use xlink:href="#DejaVuSans-72" transform="translate(267.180989 0.015625)"/>
      <use xlink:href="#DejaVuSans-61" transform="translate(308.29427 0.015625)"/>
      <use xlink:href="#DejaVuSans-64" transform="translate(369.573567 0.015625)"/>
     </g>
    </g>
    <g id="line2d_38">
     <path d="M 304.880315 89.477307 
L 319.880315 89.477307 
L 334.880315 89.477307 
" style="fill: none; stroke: #1f77b4; stroke-width: 1.5; stroke-linecap: square"/>
    </g>
    <g id="text_22">
     <!-- $8.7 \, \mathrm{mrad}$ -->
     <g transform="translate(346.880315 94.727307)scale(0.15 -0.15)">
      <use xlink:href="#DejaVuSans-38" transform="translate(0 0.015625)"/>
      <use xlink:href="#DejaVuSans-2e" transform="translate(63.623047 0.015625)"/>
      <use xlink:href="#DejaVuSans-37" transform="translate(87.660156 0.015625)"/>
      <use xlink:href="#DejaVuSans-6d" transform="translate(167.518879 0.015625)"/>
      <use xlink:href="#DejaVuSans-72" transform="translate(264.930989 0.015625)"/>
      <use xlink:href="#DejaVuSans-61" transform="translate(306.04427 0.015625)"/>
      <use xlink:href="#DejaVuSans-64" transform="translate(367.323567 0.015625)"/>
     </g>
    </g>
   </g>
  </g>
 </g>
 <defs>
  <clipPath id="pcc814b8339">
   <rect x="67.181102" y="25.795276" width="358.299213" height="302.173228"/>
  </clipPath>
 </defs>
</svg>
