<?xml version="1.0" encoding="utf-8" standalone="no"?>
<!DOCTYPE svg PUBLIC "-//W3C//DTD SVG 1.1//EN"
  "http://www.w3.org/Graphics/SVG/1.1/DTD/svg11.dtd">
<svg xmlns:xlink="http://www.w3.org/1999/xlink" width="447.874016pt" height="368.503937pt" viewBox="0 0 447.874016 368.503937" xmlns="http://www.w3.org/2000/svg" version="1.1">
 <metadata>
  <rdf:RDF xmlns:dc="http://purl.org/dc/elements/1.1/" xmlns:cc="http://creativecommons.org/ns#" xmlns:rdf="http://www.w3.org/1999/02/22-rdf-syntax-ns#">
   <cc:Work>
    <dc:type rdf:resource="http://purl.org/dc/dcmitype/StillImage"/>
    <dc:date>2023-01-25T16:46:23.703832</dc:date>
    <dc:format>image/svg+xml</dc:format>
    <dc:creator>
     <cc:Agent>
      <dc:title>Matplotlib v3.5.1, https://matplotlib.org/</dc:title>
     </cc:Agent>
    </dc:creator>
   </cc:Work>
  </rdf:RDF>
 </metadata>
 <defs>
  <style type="text/css">*{stroke-linejoin: round; stroke-linecap: butt}</style>
 </defs>
 <g id="figure_1">
  <g id="patch_1">
   <path d="M 0 368.503937 
L 447.874016 368.503937 
L 447.874016 0 
L 0 0 
z
" style="fill: #ffffff"/>
  </g>
  <g id="axes_1">
   <g id="patch_2">
    <path d="M 76.138583 316.913386 
L 421.001575 316.913386 
L 421.001575 33.165354 
L 76.138583 33.165354 
z
" style="fill: #ffffff"/>
   </g>
   <g id="matplotlib.axis_1">
    <g id="xtick_1">
     <g id="line2d_1">
      <path d="M 117.043039 316.913386 
L 117.043039 33.165354 
" clip-path="url(#pa5a2b8a425)" style="fill: none; stroke: #b0b0b0; stroke-width: 0.8; stroke-linecap: square"/>
     </g>
     <g id="line2d_2">
      <defs>
       <path id="m7892bfda72" d="M 0 0 
L 0 3.5 
" style="stroke: #000000; stroke-width: 0.8"/>
      </defs>
      <g>
       <use xlink:href="#m7892bfda72" x="117.043039" y="316.913386" style="stroke: #000000; stroke-width: 0.8"/>
      </g>
     </g>
     <g id="text_1">
      <!-- −50 -->
      <g transform="translate(103.324992 333.791355)scale(0.13 -0.13)">
       <defs>
        <path id="DejaVuSans-2212" d="M 678 2272 
L 4684 2272 
L 4684 1741 
L 678 1741 
L 678 2272 
z
" transform="scale(0.015625)"/>
        <path id="DejaVuSans-35" d="M 691 4666 
L 3169 4666 
L 3169 4134 
L 1269 4134 
L 1269 2991 
Q 1406 3038 1543 3061 
Q 1681 3084 1819 3084 
Q 2600 3084 3056 2656 
Q 3513 2228 3513 1497 
Q 3513 744 3044 326 
Q 2575 -91 1722 -91 
Q 1428 -91 1123 -41 
Q 819 9 494 109 
L 494 744 
Q 775 591 1075 516 
Q 1375 441 1709 441 
Q 2250 441 2565 725 
Q 2881 1009 2881 1497 
Q 2881 1984 2565 2268 
Q 2250 2553 1709 2553 
Q 1456 2553 1204 2497 
Q 953 2441 691 2322 
L 691 4666 
z
" transform="scale(0.015625)"/>
        <path id="DejaVuSans-30" d="M 2034 4250 
Q 1547 4250 1301 3770 
Q 1056 3291 1056 2328 
Q 1056 1369 1301 889 
Q 1547 409 2034 409 
Q 2525 409 2770 889 
Q 3016 1369 3016 2328 
Q 3016 3291 2770 3770 
Q 2525 4250 2034 4250 
z
M 2034 4750 
Q 2819 4750 3233 4129 
Q 3647 3509 3647 2328 
Q 3647 1150 3233 529 
Q 2819 -91 2034 -91 
Q 1250 -91 836 529 
Q 422 1150 422 2328 
Q 422 3509 836 4129 
Q 1250 4750 2034 4750 
z
" transform="scale(0.015625)"/>
       </defs>
       <use xlink:href="#DejaVuSans-2212"/>
       <use xlink:href="#DejaVuSans-35" x="83.789062"/>
       <use xlink:href="#DejaVuSans-30" x="147.412109"/>
      </g>
     </g>
    </g>
    <g id="xtick_2">
     <g id="line2d_3">
      <path d="M 161.433478 316.913386 
L 161.433478 33.165354 
" clip-path="url(#pa5a2b8a425)" style="fill: none; stroke: #b0b0b0; stroke-width: 0.8; stroke-linecap: square"/>
     </g>
     <g id="line2d_4">
      <g>
       <use xlink:href="#m7892bfda72" x="161.433478" y="316.913386" style="stroke: #000000; stroke-width: 0.8"/>
      </g>
     </g>
     <g id="text_2">
      <!-- −40 -->
      <g transform="translate(147.715431 333.791355)scale(0.13 -0.13)">
       <defs>
        <path id="DejaVuSans-34" d="M 2419 4116 
L 825 1625 
L 2419 1625 
L 2419 4116 
z
M 2253 4666 
L 3047 4666 
L 3047 1625 
L 3713 1625 
L 3713 1100 
L 3047 1100 
L 3047 0 
L 2419 0 
L 2419 1100 
L 313 1100 
L 313 1709 
L 2253 4666 
z
" transform="scale(0.015625)"/>
       </defs>
       <use xlink:href="#DejaVuSans-2212"/>
       <use xlink:href="#DejaVuSans-34" x="83.789062"/>
       <use xlink:href="#DejaVuSans-30" x="147.412109"/>
      </g>
     </g>
    </g>
    <g id="xtick_3">
     <g id="line2d_5">
      <path d="M 205.823917 316.913386 
L 205.823917 33.165354 
" clip-path="url(#pa5a2b8a425)" style="fill: none; stroke: #b0b0b0; stroke-width: 0.8; stroke-linecap: square"/>
     </g>
     <g id="line2d_6">
      <g>
       <use xlink:href="#m7892bfda72" x="205.823917" y="316.913386" style="stroke: #000000; stroke-width: 0.8"/>
      </g>
     </g>
     <g id="text_3">
      <!-- −30 -->
      <g transform="translate(192.10587 333.791355)scale(0.13 -0.13)">
       <defs>
        <path id="DejaVuSans-33" d="M 2597 2516 
Q 3050 2419 3304 2112 
Q 3559 1806 3559 1356 
Q 3559 666 3084 287 
Q 2609 -91 1734 -91 
Q 1441 -91 1130 -33 
Q 819 25 488 141 
L 488 750 
Q 750 597 1062 519 
Q 1375 441 1716 441 
Q 2309 441 2620 675 
Q 2931 909 2931 1356 
Q 2931 1769 2642 2001 
Q 2353 2234 1838 2234 
L 1294 2234 
L 1294 2753 
L 1863 2753 
Q 2328 2753 2575 2939 
Q 2822 3125 2822 3475 
Q 2822 3834 2567 4026 
Q 2313 4219 1838 4219 
Q 1578 4219 1281 4162 
Q 984 4106 628 3988 
L 628 4550 
Q 988 4650 1302 4700 
Q 1616 4750 1894 4750 
Q 2613 4750 3031 4423 
Q 3450 4097 3450 3541 
Q 3450 3153 3228 2886 
Q 3006 2619 2597 2516 
z
" transform="scale(0.015625)"/>
       </defs>
       <use xlink:href="#DejaVuSans-2212"/>
       <use xlink:href="#DejaVuSans-33" x="83.789062"/>
       <use xlink:href="#DejaVuSans-30" x="147.412109"/>
      </g>
     </g>
    </g>
    <g id="xtick_4">
     <g id="line2d_7">
      <path d="M 250.214356 316.913386 
L 250.214356 33.165354 
" clip-path="url(#pa5a2b8a425)" style="fill: none; stroke: #b0b0b0; stroke-width: 0.8; stroke-linecap: square"/>
     </g>
     <g id="line2d_8">
      <g>
       <use xlink:href="#m7892bfda72" x="250.214356" y="316.913386" style="stroke: #000000; stroke-width: 0.8"/>
      </g>
     </g>
     <g id="text_4">
      <!-- −20 -->
      <g transform="translate(236.496309 333.791355)scale(0.13 -0.13)">
       <defs>
        <path id="DejaVuSans-32" d="M 1228 531 
L 3431 531 
L 3431 0 
L 469 0 
L 469 531 
Q 828 903 1448 1529 
Q 2069 2156 2228 2338 
Q 2531 2678 2651 2914 
Q 2772 3150 2772 3378 
Q 2772 3750 2511 3984 
Q 2250 4219 1831 4219 
Q 1534 4219 1204 4116 
Q 875 4013 500 3803 
L 500 4441 
Q 881 4594 1212 4672 
Q 1544 4750 1819 4750 
Q 2544 4750 2975 4387 
Q 3406 4025 3406 3419 
Q 3406 3131 3298 2873 
Q 3191 2616 2906 2266 
Q 2828 2175 2409 1742 
Q 1991 1309 1228 531 
z
" transform="scale(0.015625)"/>
       </defs>
       <use xlink:href="#DejaVuSans-2212"/>
       <use xlink:href="#DejaVuSans-32" x="83.789062"/>
       <use xlink:href="#DejaVuSans-30" x="147.412109"/>
      </g>
     </g>
    </g>
    <g id="xtick_5">
     <g id="line2d_9">
      <path d="M 294.604795 316.913386 
L 294.604795 33.165354 
" clip-path="url(#pa5a2b8a425)" style="fill: none; stroke: #b0b0b0; stroke-width: 0.8; stroke-linecap: square"/>
     </g>
     <g id="line2d_10">
      <g>
       <use xlink:href="#m7892bfda72" x="294.604795" y="316.913386" style="stroke: #000000; stroke-width: 0.8"/>
      </g>
     </g>
     <g id="text_5">
      <!-- −10 -->
      <g transform="translate(280.886748 333.791355)scale(0.13 -0.13)">
       <defs>
        <path id="DejaVuSans-31" d="M 794 531 
L 1825 531 
L 1825 4091 
L 703 3866 
L 703 4441 
L 1819 4666 
L 2450 4666 
L 2450 531 
L 3481 531 
L 3481 0 
L 794 0 
L 794 531 
z
" transform="scale(0.015625)"/>
       </defs>
       <use xlink:href="#DejaVuSans-2212"/>
       <use xlink:href="#DejaVuSans-31" x="83.789062"/>
       <use xlink:href="#DejaVuSans-30" x="147.412109"/>
      </g>
     </g>
    </g>
    <g id="xtick_6">
     <g id="line2d_11">
      <path d="M 338.995234 316.913386 
L 338.995234 33.165354 
" clip-path="url(#pa5a2b8a425)" style="fill: none; stroke: #b0b0b0; stroke-width: 0.8; stroke-linecap: square"/>
     </g>
     <g id="line2d_12">
      <g>
       <use xlink:href="#m7892bfda72" x="338.995234" y="316.913386" style="stroke: #000000; stroke-width: 0.8"/>
      </g>
     </g>
     <g id="text_6">
      <!-- 0 -->
      <g transform="translate(334.859609 333.791355)scale(0.13 -0.13)">
       <use xlink:href="#DejaVuSans-30"/>
      </g>
     </g>
    </g>
    <g id="xtick_7">
     <g id="line2d_13">
      <path d="M 383.385673 316.913386 
L 383.385673 33.165354 
" clip-path="url(#pa5a2b8a425)" style="fill: none; stroke: #b0b0b0; stroke-width: 0.8; stroke-linecap: square"/>
     </g>
     <g id="line2d_14">
      <g>
       <use xlink:href="#m7892bfda72" x="383.385673" y="316.913386" style="stroke: #000000; stroke-width: 0.8"/>
      </g>
     </g>
     <g id="text_7">
      <!-- 10 -->
      <g transform="translate(375.114423 333.791355)scale(0.13 -0.13)">
       <use xlink:href="#DejaVuSans-31"/>
       <use xlink:href="#DejaVuSans-30" x="63.623047"/>
      </g>
     </g>
    </g>
    <g id="text_8">
     <!-- $\zeta \, \mathrm{[\mu m]}$ -->
     <g transform="translate(225.320079 351.894948)scale(0.15 -0.15)">
      <defs>
       <path id="DejaVuSans-Oblique-3b6" d="M 1966 397 
Q 2378 394 2578 159 
Q 2794 -88 2722 -463 
Q 2650 -822 2372 -1072 
Q 2069 -1344 1559 -1344 
Q 1606 -1109 1650 -872 
Q 1863 -888 2022 -750 
Q 2144 -641 2166 -525 
Q 2197 -359 2125 -222 
Q 2050 -91 1872 -91 
Q -22 -91 316 1669 
Q 616 3206 2609 4284 
L 947 4284 
L 1059 4863 
L 3778 4863 
L 3666 4284 
Q 1181 3147 894 1669 
Q 647 397 1966 397 
z
" transform="scale(0.015625)"/>
       <path id="DejaVuSans-5b" d="M 550 4863 
L 1875 4863 
L 1875 4416 
L 1125 4416 
L 1125 -397 
L 1875 -397 
L 1875 -844 
L 550 -844 
L 550 4863 
z
" transform="scale(0.015625)"/>
       <path id="DejaVuSans-3bc" d="M 544 -1331 
L 544 3500 
L 1119 3500 
L 1119 1325 
Q 1119 872 1334 640 
Q 1550 409 1972 409 
Q 2434 409 2667 671 
Q 2900 934 2900 1459 
L 2900 3500 
L 3475 3500 
L 3475 806 
Q 3475 619 3529 530 
Q 3584 441 3700 441 
Q 3728 441 3778 458 
Q 3828 475 3916 513 
L 3916 50 
Q 3788 -22 3673 -56 
Q 3559 -91 3450 -91 
Q 3234 -91 3106 31 
Q 2978 153 2931 403 
Q 2775 156 2548 32 
Q 2322 -91 2016 -91 
Q 1697 -91 1473 31 
Q 1250 153 1119 397 
L 1119 -1331 
L 544 -1331 
z
" transform="scale(0.015625)"/>
       <path id="DejaVuSans-6d" d="M 3328 2828 
Q 3544 3216 3844 3400 
Q 4144 3584 4550 3584 
Q 5097 3584 5394 3201 
Q 5691 2819 5691 2113 
L 5691 0 
L 5113 0 
L 5113 2094 
Q 5113 2597 4934 2840 
Q 4756 3084 4391 3084 
Q 3944 3084 3684 2787 
Q 3425 2491 3425 1978 
L 3425 0 
L 2847 0 
L 2847 2094 
Q 2847 2600 2669 2842 
Q 2491 3084 2119 3084 
Q 1678 3084 1418 2786 
Q 1159 2488 1159 1978 
L 1159 0 
L 581 0 
L 581 3500 
L 1159 3500 
L 1159 2956 
Q 1356 3278 1631 3431 
Q 1906 3584 2284 3584 
Q 2666 3584 2933 3390 
Q 3200 3197 3328 2828 
z
" transform="scale(0.015625)"/>
       <path id="DejaVuSans-5d" d="M 1947 4863 
L 1947 -844 
L 622 -844 
L 622 -397 
L 1369 -397 
L 1369 4416 
L 622 4416 
L 622 4863 
L 1947 4863 
z
" transform="scale(0.015625)"/>
      </defs>
      <use xlink:href="#DejaVuSans-Oblique-3b6" transform="translate(0 0.015625)"/>
      <use xlink:href="#DejaVuSans-5b" transform="translate(70.630208 0.015625)"/>
      <use xlink:href="#DejaVuSans-3bc" transform="translate(109.643879 0.015625)"/>
      <use xlink:href="#DejaVuSans-6d" transform="translate(173.266926 0.015625)"/>
      <use xlink:href="#DejaVuSans-5d" transform="translate(270.679036 0.015625)"/>
     </g>
    </g>
   </g>
   <g id="matplotlib.axis_2">
    <g id="ytick_1">
     <g id="line2d_15">
      <path d="M 76.138583 308.567855 
L 421.001575 308.567855 
" clip-path="url(#pa5a2b8a425)" style="fill: none; stroke: #b0b0b0; stroke-width: 0.8; stroke-linecap: square"/>
     </g>
     <g id="line2d_16">
      <defs>
       <path id="m08258ad7ee" d="M 0 0 
L -3.5 0 
" style="stroke: #000000; stroke-width: 0.8"/>
      </defs>
      <g>
       <use xlink:href="#m08258ad7ee" x="76.138583" y="308.567855" style="stroke: #000000; stroke-width: 0.8"/>
      </g>
     </g>
     <g id="text_9">
      <!-- −800 -->
      <g transform="translate(33.431239 313.50684)scale(0.13 -0.13)">
       <defs>
        <path id="DejaVuSans-38" d="M 2034 2216 
Q 1584 2216 1326 1975 
Q 1069 1734 1069 1313 
Q 1069 891 1326 650 
Q 1584 409 2034 409 
Q 2484 409 2743 651 
Q 3003 894 3003 1313 
Q 3003 1734 2745 1975 
Q 2488 2216 2034 2216 
z
M 1403 2484 
Q 997 2584 770 2862 
Q 544 3141 544 3541 
Q 544 4100 942 4425 
Q 1341 4750 2034 4750 
Q 2731 4750 3128 4425 
Q 3525 4100 3525 3541 
Q 3525 3141 3298 2862 
Q 3072 2584 2669 2484 
Q 3125 2378 3379 2068 
Q 3634 1759 3634 1313 
Q 3634 634 3220 271 
Q 2806 -91 2034 -91 
Q 1263 -91 848 271 
Q 434 634 434 1313 
Q 434 1759 690 2068 
Q 947 2378 1403 2484 
z
M 1172 3481 
Q 1172 3119 1398 2916 
Q 1625 2713 2034 2713 
Q 2441 2713 2670 2916 
Q 2900 3119 2900 3481 
Q 2900 3844 2670 4047 
Q 2441 4250 2034 4250 
Q 1625 4250 1398 4047 
Q 1172 3844 1172 3481 
z
" transform="scale(0.015625)"/>
       </defs>
       <use xlink:href="#DejaVuSans-2212"/>
       <use xlink:href="#DejaVuSans-38" x="83.789062"/>
       <use xlink:href="#DejaVuSans-30" x="147.412109"/>
       <use xlink:href="#DejaVuSans-30" x="211.035156"/>
      </g>
     </g>
    </g>
    <g id="ytick_2">
     <g id="line2d_17">
      <path d="M 76.138583 275.185734 
L 421.001575 275.185734 
" clip-path="url(#pa5a2b8a425)" style="fill: none; stroke: #b0b0b0; stroke-width: 0.8; stroke-linecap: square"/>
     </g>
     <g id="line2d_18">
      <g>
       <use xlink:href="#m08258ad7ee" x="76.138583" y="275.185734" style="stroke: #000000; stroke-width: 0.8"/>
      </g>
     </g>
     <g id="text_10">
      <!-- −600 -->
      <g transform="translate(33.431239 280.124719)scale(0.13 -0.13)">
       <defs>
        <path id="DejaVuSans-36" d="M 2113 2584 
Q 1688 2584 1439 2293 
Q 1191 2003 1191 1497 
Q 1191 994 1439 701 
Q 1688 409 2113 409 
Q 2538 409 2786 701 
Q 3034 994 3034 1497 
Q 3034 2003 2786 2293 
Q 2538 2584 2113 2584 
z
M 3366 4563 
L 3366 3988 
Q 3128 4100 2886 4159 
Q 2644 4219 2406 4219 
Q 1781 4219 1451 3797 
Q 1122 3375 1075 2522 
Q 1259 2794 1537 2939 
Q 1816 3084 2150 3084 
Q 2853 3084 3261 2657 
Q 3669 2231 3669 1497 
Q 3669 778 3244 343 
Q 2819 -91 2113 -91 
Q 1303 -91 875 529 
Q 447 1150 447 2328 
Q 447 3434 972 4092 
Q 1497 4750 2381 4750 
Q 2619 4750 2861 4703 
Q 3103 4656 3366 4563 
z
" transform="scale(0.015625)"/>
       </defs>
       <use xlink:href="#DejaVuSans-2212"/>
       <use xlink:href="#DejaVuSans-36" x="83.789062"/>
       <use xlink:href="#DejaVuSans-30" x="147.412109"/>
       <use xlink:href="#DejaVuSans-30" x="211.035156"/>
      </g>
     </g>
    </g>
    <g id="ytick_3">
     <g id="line2d_19">
      <path d="M 76.138583 241.803613 
L 421.001575 241.803613 
" clip-path="url(#pa5a2b8a425)" style="fill: none; stroke: #b0b0b0; stroke-width: 0.8; stroke-linecap: square"/>
     </g>
     <g id="line2d_20">
      <g>
       <use xlink:href="#m08258ad7ee" x="76.138583" y="241.803613" style="stroke: #000000; stroke-width: 0.8"/>
      </g>
     </g>
     <g id="text_11">
      <!-- −400 -->
      <g transform="translate(33.431239 246.742597)scale(0.13 -0.13)">
       <use xlink:href="#DejaVuSans-2212"/>
       <use xlink:href="#DejaVuSans-34" x="83.789062"/>
       <use xlink:href="#DejaVuSans-30" x="147.412109"/>
       <use xlink:href="#DejaVuSans-30" x="211.035156"/>
      </g>
     </g>
    </g>
    <g id="ytick_4">
     <g id="line2d_21">
      <path d="M 76.138583 208.421491 
L 421.001575 208.421491 
" clip-path="url(#pa5a2b8a425)" style="fill: none; stroke: #b0b0b0; stroke-width: 0.8; stroke-linecap: square"/>
     </g>
     <g id="line2d_22">
      <g>
       <use xlink:href="#m08258ad7ee" x="76.138583" y="208.421491" style="stroke: #000000; stroke-width: 0.8"/>
      </g>
     </g>
     <g id="text_12">
      <!-- −200 -->
      <g transform="translate(33.431239 213.360476)scale(0.13 -0.13)">
       <use xlink:href="#DejaVuSans-2212"/>
       <use xlink:href="#DejaVuSans-32" x="83.789062"/>
       <use xlink:href="#DejaVuSans-30" x="147.412109"/>
       <use xlink:href="#DejaVuSans-30" x="211.035156"/>
      </g>
     </g>
    </g>
    <g id="ytick_5">
     <g id="line2d_23">
      <path d="M 76.138583 175.03937 
L 421.001575 175.03937 
" clip-path="url(#pa5a2b8a425)" style="fill: none; stroke: #b0b0b0; stroke-width: 0.8; stroke-linecap: square"/>
     </g>
     <g id="line2d_24">
      <g>
       <use xlink:href="#m08258ad7ee" x="76.138583" y="175.03937" style="stroke: #000000; stroke-width: 0.8"/>
      </g>
     </g>
     <g id="text_13">
      <!-- 0 -->
      <g transform="translate(60.867333 179.978354)scale(0.13 -0.13)">
       <use xlink:href="#DejaVuSans-30"/>
      </g>
     </g>
    </g>
    <g id="ytick_6">
     <g id="line2d_25">
      <path d="M 76.138583 141.657249 
L 421.001575 141.657249 
" clip-path="url(#pa5a2b8a425)" style="fill: none; stroke: #b0b0b0; stroke-width: 0.8; stroke-linecap: square"/>
     </g>
     <g id="line2d_26">
      <g>
       <use xlink:href="#m08258ad7ee" x="76.138583" y="141.657249" style="stroke: #000000; stroke-width: 0.8"/>
      </g>
     </g>
     <g id="text_14">
      <!-- 200 -->
      <g transform="translate(44.324833 146.596233)scale(0.13 -0.13)">
       <use xlink:href="#DejaVuSans-32"/>
       <use xlink:href="#DejaVuSans-30" x="63.623047"/>
       <use xlink:href="#DejaVuSans-30" x="127.246094"/>
      </g>
     </g>
    </g>
    <g id="ytick_7">
     <g id="line2d_27">
      <path d="M 76.138583 108.275127 
L 421.001575 108.275127 
" clip-path="url(#pa5a2b8a425)" style="fill: none; stroke: #b0b0b0; stroke-width: 0.8; stroke-linecap: square"/>
     </g>
     <g id="line2d_28">
      <g>
       <use xlink:href="#m08258ad7ee" x="76.138583" y="108.275127" style="stroke: #000000; stroke-width: 0.8"/>
      </g>
     </g>
     <g id="text_15">
      <!-- 400 -->
      <g transform="translate(44.324833 113.214112)scale(0.13 -0.13)">
       <use xlink:href="#DejaVuSans-34"/>
       <use xlink:href="#DejaVuSans-30" x="63.623047"/>
       <use xlink:href="#DejaVuSans-30" x="127.246094"/>
      </g>
     </g>
    </g>
    <g id="ytick_8">
     <g id="line2d_29">
      <path d="M 76.138583 74.893006 
L 421.001575 74.893006 
" clip-path="url(#pa5a2b8a425)" style="fill: none; stroke: #b0b0b0; stroke-width: 0.8; stroke-linecap: square"/>
     </g>
     <g id="line2d_30">
      <g>
       <use xlink:href="#m08258ad7ee" x="76.138583" y="74.893006" style="stroke: #000000; stroke-width: 0.8"/>
      </g>
     </g>
     <g id="text_16">
      <!-- 600 -->
      <g transform="translate(44.324833 79.83199)scale(0.13 -0.13)">
       <use xlink:href="#DejaVuSans-36"/>
       <use xlink:href="#DejaVuSans-30" x="63.623047"/>
       <use xlink:href="#DejaVuSans-30" x="127.246094"/>
      </g>
     </g>
    </g>
    <g id="ytick_9">
     <g id="line2d_31">
      <path d="M 76.138583 41.510885 
L 421.001575 41.510885 
" clip-path="url(#pa5a2b8a425)" style="fill: none; stroke: #b0b0b0; stroke-width: 0.8; stroke-linecap: square"/>
     </g>
     <g id="line2d_32">
      <g>
       <use xlink:href="#m08258ad7ee" x="76.138583" y="41.510885" style="stroke: #000000; stroke-width: 0.8"/>
      </g>
     </g>
     <g id="text_17">
      <!-- 800 -->
      <g transform="translate(44.324833 46.449869)scale(0.13 -0.13)">
       <use xlink:href="#DejaVuSans-38"/>
       <use xlink:href="#DejaVuSans-30" x="63.623047"/>
       <use xlink:href="#DejaVuSans-30" x="127.246094"/>
      </g>
     </g>
    </g>
    <g id="text_18">
     <!-- $\mathrm{Energy \, gain \, [MeV]}$ -->
     <g transform="translate(26.281239 242.16437)rotate(-90)scale(0.15 -0.15)">
      <defs>
       <path id="DejaVuSans-45" d="M 628 4666 
L 3578 4666 
L 3578 4134 
L 1259 4134 
L 1259 2753 
L 3481 2753 
L 3481 2222 
L 1259 2222 
L 1259 531 
L 3634 531 
L 3634 0 
L 628 0 
L 628 4666 
z
" transform="scale(0.015625)"/>
       <path id="DejaVuSans-6e" d="M 3513 2113 
L 3513 0 
L 2938 0 
L 2938 2094 
Q 2938 2591 2744 2837 
Q 2550 3084 2163 3084 
Q 1697 3084 1428 2787 
Q 1159 2491 1159 1978 
L 1159 0 
L 581 0 
L 581 3500 
L 1159 3500 
L 1159 2956 
Q 1366 3272 1645 3428 
Q 1925 3584 2291 3584 
Q 2894 3584 3203 3211 
Q 3513 2838 3513 2113 
z
" transform="scale(0.015625)"/>
       <path id="DejaVuSans-65" d="M 3597 1894 
L 3597 1613 
L 953 1613 
Q 991 1019 1311 708 
Q 1631 397 2203 397 
Q 2534 397 2845 478 
Q 3156 559 3463 722 
L 3463 178 
Q 3153 47 2828 -22 
Q 2503 -91 2169 -91 
Q 1331 -91 842 396 
Q 353 884 353 1716 
Q 353 2575 817 3079 
Q 1281 3584 2069 3584 
Q 2775 3584 3186 3129 
Q 3597 2675 3597 1894 
z
M 3022 2063 
Q 3016 2534 2758 2815 
Q 2500 3097 2075 3097 
Q 1594 3097 1305 2825 
Q 1016 2553 972 2059 
L 3022 2063 
z
" transform="scale(0.015625)"/>
       <path id="DejaVuSans-72" d="M 2631 2963 
Q 2534 3019 2420 3045 
Q 2306 3072 2169 3072 
Q 1681 3072 1420 2755 
Q 1159 2438 1159 1844 
L 1159 0 
L 581 0 
L 581 3500 
L 1159 3500 
L 1159 2956 
Q 1341 3275 1631 3429 
Q 1922 3584 2338 3584 
Q 2397 3584 2469 3576 
Q 2541 3569 2628 3553 
L 2631 2963 
z
" transform="scale(0.015625)"/>
       <path id="DejaVuSans-67" d="M 2906 1791 
Q 2906 2416 2648 2759 
Q 2391 3103 1925 3103 
Q 1463 3103 1205 2759 
Q 947 2416 947 1791 
Q 947 1169 1205 825 
Q 1463 481 1925 481 
Q 2391 481 2648 825 
Q 2906 1169 2906 1791 
z
M 3481 434 
Q 3481 -459 3084 -895 
Q 2688 -1331 1869 -1331 
Q 1566 -1331 1297 -1286 
Q 1028 -1241 775 -1147 
L 775 -588 
Q 1028 -725 1275 -790 
Q 1522 -856 1778 -856 
Q 2344 -856 2625 -561 
Q 2906 -266 2906 331 
L 2906 616 
Q 2728 306 2450 153 
Q 2172 0 1784 0 
Q 1141 0 747 490 
Q 353 981 353 1791 
Q 353 2603 747 3093 
Q 1141 3584 1784 3584 
Q 2172 3584 2450 3431 
Q 2728 3278 2906 2969 
L 2906 3500 
L 3481 3500 
L 3481 434 
z
" transform="scale(0.015625)"/>
       <path id="DejaVuSans-79" d="M 2059 -325 
Q 1816 -950 1584 -1140 
Q 1353 -1331 966 -1331 
L 506 -1331 
L 506 -850 
L 844 -850 
Q 1081 -850 1212 -737 
Q 1344 -625 1503 -206 
L 1606 56 
L 191 3500 
L 800 3500 
L 1894 763 
L 2988 3500 
L 3597 3500 
L 2059 -325 
z
" transform="scale(0.015625)"/>
       <path id="DejaVuSans-61" d="M 2194 1759 
Q 1497 1759 1228 1600 
Q 959 1441 959 1056 
Q 959 750 1161 570 
Q 1363 391 1709 391 
Q 2188 391 2477 730 
Q 2766 1069 2766 1631 
L 2766 1759 
L 2194 1759 
z
M 3341 1997 
L 3341 0 
L 2766 0 
L 2766 531 
Q 2569 213 2275 61 
Q 1981 -91 1556 -91 
Q 1019 -91 701 211 
Q 384 513 384 1019 
Q 384 1609 779 1909 
Q 1175 2209 1959 2209 
L 2766 2209 
L 2766 2266 
Q 2766 2663 2505 2880 
Q 2244 3097 1772 3097 
Q 1472 3097 1187 3025 
Q 903 2953 641 2809 
L 641 3341 
Q 956 3463 1253 3523 
Q 1550 3584 1831 3584 
Q 2591 3584 2966 3190 
Q 3341 2797 3341 1997 
z
" transform="scale(0.015625)"/>
       <path id="DejaVuSans-69" d="M 603 3500 
L 1178 3500 
L 1178 0 
L 603 0 
L 603 3500 
z
M 603 4863 
L 1178 4863 
L 1178 4134 
L 603 4134 
L 603 4863 
z
" transform="scale(0.015625)"/>
       <path id="DejaVuSans-4d" d="M 628 4666 
L 1569 4666 
L 2759 1491 
L 3956 4666 
L 4897 4666 
L 4897 0 
L 4281 0 
L 4281 4097 
L 3078 897 
L 2444 897 
L 1241 4097 
L 1241 0 
L 628 0 
L 628 4666 
z
" transform="scale(0.015625)"/>
       <path id="DejaVuSans-56" d="M 1831 0 
L 50 4666 
L 709 4666 
L 2188 738 
L 3669 4666 
L 4325 4666 
L 2547 0 
L 1831 0 
z
" transform="scale(0.015625)"/>
      </defs>
      <use xlink:href="#DejaVuSans-45" transform="translate(0 0.015625)"/>
      <use xlink:href="#DejaVuSans-6e" transform="translate(63.183594 0.015625)"/>
      <use xlink:href="#DejaVuSans-65" transform="translate(126.5625 0.015625)"/>
      <use xlink:href="#DejaVuSans-72" transform="translate(188.085938 0.015625)"/>
      <use xlink:href="#DejaVuSans-67" transform="translate(229.199219 0.015625)"/>
      <use xlink:href="#DejaVuSans-79" transform="translate(292.675781 0.015625)"/>
      <use xlink:href="#DejaVuSans-67" transform="translate(368.091145 0.015625)"/>
      <use xlink:href="#DejaVuSans-61" transform="translate(431.567708 0.015625)"/>
      <use xlink:href="#DejaVuSans-69" transform="translate(492.847004 0.015625)"/>
      <use xlink:href="#DejaVuSans-6e" transform="translate(520.630208 0.015625)"/>
      <use xlink:href="#DejaVuSans-5b" transform="translate(600.24479 0.015625)"/>
      <use xlink:href="#DejaVuSans-4d" transform="translate(639.258462 0.015625)"/>
      <use xlink:href="#DejaVuSans-65" transform="translate(725.537759 0.015625)"/>
      <use xlink:href="#DejaVuSans-56" transform="translate(787.061196 0.015625)"/>
      <use xlink:href="#DejaVuSans-5d" transform="translate(855.469399 0.015625)"/>
     </g>
    </g>
   </g>
   <g id="line2d_33">
    <path d="M 130.409781 119.920521 
L 130.80308 120.559459 
L 131.19638 120.94958 
L 131.589679 121.642814 
L 132.376277 123.276866 
L 133.162876 124.236398 
L 133.556175 125.451876 
L 134.342774 126.665345 
L 134.736073 128.02792 
L 135.129372 128.461069 
L 135.915971 130.491696 
L 136.30927 131.03438 
L 136.70257 132.557388 
L 137.095869 132.923897 
L 137.489168 134.40738 
L 137.882467 135.364876 
L 138.275767 136.029623 
L 138.669066 137.155044 
L 139.062365 138.640649 
L 139.455665 138.993131 
L 139.848964 140.643912 
L 140.242263 141.371732 
L 141.028862 144.066936 
L 141.422161 144.506285 
L 141.81546 146.459671 
L 142.20876 147.280914 
L 142.995358 149.890032 
L 143.781957 152.390706 
L 144.175256 153.903605 
L 144.568555 154.293013 
L 144.961855 156.16119 
L 148.108249 166.537988 
L 149.288147 171.237627 
L 150.468045 175.61818 
L 151.647943 180.089169 
L 152.041242 180.916262 
L 152.434541 183.088832 
L 155.580935 195.377988 
L 155.974235 197.336399 
L 156.367534 198.326069 
L 157.154133 202.000436 
L 157.547432 203.357382 
L 158.334031 206.781379 
L 158.72733 208.048599 
L 159.120629 210.072509 
L 159.513928 211.462657 
L 159.907228 213.56347 
L 160.300527 214.664555 
L 162.267023 224.039796 
L 162.660323 224.729977 
L 163.053622 227.184443 
L 163.446921 228.10185 
L 163.840221 230.021787 
L 164.23352 232.641128 
L 164.626819 233.081721 
L 165.020118 235.613684 
L 165.413418 236.888253 
L 167.379914 246.325747 
L 167.773213 247.167173 
L 168.166513 249.385191 
L 168.559812 250.849195 
L 170.526308 260.037311 
L 170.919608 261.339882 
L 171.312907 263.728965 
L 172.492805 269.053681 
L 173.672703 274.617619 
L 174.852601 279.713589 
L 175.2459 281.980184 
L 176.032499 285.162304 
L 176.425798 287.24193 
L 177.605696 291.44018 
L 177.998995 292.689375 
L 178.392294 291.996861 
L 178.785594 293.20317 
L 179.178893 291.60484 
L 179.965491 280.436978 
L 180.75209 253.979252 
L 181.538689 221.301681 
L 182.325287 186.219007 
L 182.718586 175.667063 
L 183.505185 167.493835 
L 183.898484 165.009682 
L 184.685083 157.432695 
L 185.471681 150.738235 
L 185.864981 147.732919 
L 186.25828 145.830041 
L 187.831477 135.527178 
L 189.404674 128.158485 
L 189.797974 126.927291 
L 190.191273 125.14666 
L 191.371171 121.672077 
L 192.157769 119.340806 
L 192.551069 118.718294 
L 192.944368 117.207432 
L 193.337667 116.942253 
L 193.730967 115.460172 
L 194.124266 115.33644 
L 194.517565 113.750418 
L 194.910864 113.62997 
L 195.304164 113.37496 
L 195.697463 112.088312 
L 196.090762 112.397232 
L 196.484062 110.58166 
L 196.877361 110.974088 
L 197.27066 110.368022 
L 197.663959 110.234478 
L 198.450558 109.441804 
L 198.843857 109.103607 
L 199.237157 109.446963 
L 199.630456 108.654029 
L 200.023755 108.770731 
L 200.417054 108.487842 
L 200.810354 109.028727 
L 201.203653 108.524804 
L 201.596952 108.770211 
L 201.990252 108.363989 
L 202.383551 109.031368 
L 202.77685 109.027972 
L 203.170149 109.166313 
L 203.563449 109.842669 
L 203.956748 109.759335 
L 204.350047 110.274302 
L 205.136646 110.896532 
L 205.529945 111.595632 
L 205.923245 111.522475 
L 206.316544 112.926004 
L 206.709843 112.932107 
L 207.103142 113.386381 
L 207.496442 114.290985 
L 207.889741 114.698781 
L 208.67634 116.442575 
L 209.069639 116.297922 
L 209.462938 117.770283 
L 210.642836 120.483244 
L 211.036135 120.900317 
L 211.429435 121.617446 
L 211.822734 123.285851 
L 212.216033 123.442329 
L 212.609332 124.948078 
L 213.002632 125.893667 
L 213.395931 126.504994 
L 213.78923 128.194167 
L 214.18253 128.757212 
L 214.575829 129.729825 
L 214.969128 131.095935 
L 215.362427 131.939933 
L 216.935625 136.761462 
L 217.328924 138.195678 
L 217.722223 138.395617 
L 218.115522 141.051075 
L 218.508822 141.328046 
L 218.902121 143.195561 
L 219.29542 143.917823 
L 220.868618 149.424262 
L 221.261917 151.407167 
L 221.655216 151.516079 
L 222.048515 153.931785 
L 222.441815 154.633089 
L 222.835114 156.409344 
L 223.621713 158.840733 
L 224.015012 160.81042 
L 224.408311 161.894056 
L 224.80161 163.452853 
L 225.19491 164.521886 
L 225.981508 167.828219 
L 226.374808 169.095055 
L 226.768107 171.145477 
L 227.161406 171.70301 
L 227.554705 174.131533 
L 228.341304 176.393776 
L 228.734603 178.548993 
L 229.127903 179.158033 
L 229.521202 181.553226 
L 229.914501 182.717106 
L 230.3078 184.558949 
L 230.7011 185.565924 
L 231.094399 188.080378 
L 231.880998 190.409442 
L 232.274297 192.941119 
L 232.667596 192.922438 
L 233.060895 195.848716 
L 233.454195 196.813727 
L 233.847494 198.29329 
L 234.240793 200.644284 
L 234.634093 201.3552 
L 235.027392 203.086602 
L 235.420691 205.367369 
L 235.813991 206.281518 
L 236.20729 208.411709 
L 237.387188 212.735081 
L 237.780487 215.003496 
L 238.173786 216.306696 
L 238.567086 218.287613 
L 238.960385 219.27953 
L 239.353684 221.847998 
L 239.746983 222.627563 
L 240.533582 226.687389 
L 240.926881 227.381882 
L 241.320181 229.732904 
L 241.71348 230.634875 
L 242.106779 233.554148 
L 242.500078 234.288086 
L 243.679976 239.800763 
L 244.073276 240.654585 
L 244.466575 243.112544 
L 244.859874 244.369923 
L 245.646473 248.069212 
L 246.039772 248.806491 
L 246.433071 251.457748 
L 246.826371 252.562017 
L 247.21967 254.745522 
L 247.612969 256.093956 
L 248.399568 259.449324 
L 248.792867 260.889797 
L 249.186166 263.080092 
L 249.579466 263.916735 
L 250.366064 267.905569 
L 251.152663 270.761997 
L 251.545962 273.218478 
L 251.939261 274.012043 
L 252.332561 275.707998 
L 252.72586 278.266513 
L 253.119159 277.988791 
L 253.512459 281.128598 
L 253.905758 282.522472 
L 254.299057 282.522354 
L 254.692356 285.929183 
L 255.085656 286.21477 
L 255.478955 287.347586 
L 255.872254 290.209168 
L 256.265554 288.887088 
L 256.658853 291.87053 
L 257.052152 291.546469 
L 257.838751 291.786892 
L 258.625349 286.511073 
L 259.018649 281.581432 
L 259.411948 270.323409 
L 259.805247 255.626064 
L 260.591846 192.850754 
L 260.985145 161.849291 
L 261.378444 146.82493 
L 262.165043 143.570967 
L 262.951641 133.852451 
L 263.344941 133.176715 
L 264.131539 132.619976 
L 264.524839 129.929361 
L 264.918138 129.827315 
L 265.311437 126.930544 
L 265.704737 125.862471 
L 266.098036 124.470654 
L 266.491335 121.641045 
L 266.884634 121.553842 
L 267.671233 117.751179 
L 268.064532 117.214023 
L 268.457832 115.043174 
L 268.851131 114.498052 
L 269.24443 112.6874 
L 269.637729 112.727807 
L 270.031029 109.718969 
L 270.424328 110.858456 
L 270.817627 108.324474 
L 271.210927 108.68663 
L 271.997525 106.113313 
L 272.390824 107.250867 
L 272.784124 104.45411 
L 273.177423 105.50739 
L 273.964022 103.228244 
L 274.357321 104.433178 
L 275.143919 102.306261 
L 275.537219 103.833685 
L 275.930518 101.670602 
L 276.323817 102.636776 
L 276.717117 102.625944 
L 277.110416 102.255526 
L 277.503715 102.37528 
L 277.897014 103.11232 
L 278.290314 101.653605 
L 278.683613 104.016348 
L 279.076912 102.188991 
L 279.863511 104.234134 
L 280.25681 103.480329 
L 280.65011 104.999312 
L 281.436708 104.593941 
L 281.830007 106.549816 
L 282.223307 105.742598 
L 282.616606 107.00031 
L 283.009905 107.801202 
L 283.403205 108.004481 
L 284.976402 111.227041 
L 285.369701 111.522271 
L 285.763 113.619103 
L 286.1563 112.49886 
L 286.549599 115.709452 
L 286.942898 114.717181 
L 287.336197 116.949588 
L 287.729497 117.136076 
L 288.122796 117.865962 
L 288.516095 119.387682 
L 288.909395 118.88724 
L 289.302694 120.653559 
L 289.695993 121.717045 
L 290.089292 121.525191 
L 290.482592 123.565373 
L 290.875891 123.84632 
L 291.26919 124.568537 
L 291.66249 126.506809 
L 292.055789 126.429688 
L 292.449088 128.135446 
L 292.842387 128.528134 
L 293.235687 130.084251 
L 293.628986 130.841581 
L 295.202183 135.556773 
L 295.595483 136.612152 
L 295.988782 138.284426 
L 296.382081 138.380375 
L 296.77538 141.276303 
L 297.16868 140.834557 
L 297.561979 143.452508 
L 297.955278 144.536729 
L 298.348578 144.73245 
L 298.741877 148.231233 
L 299.135176 147.212711 
L 299.528475 150.076563 
L 300.315074 152.214702 
L 300.708373 154.198891 
L 301.101673 155.480122 
L 301.494972 156.198997 
L 301.888271 159.603671 
L 302.28157 158.486867 
L 302.67487 161.550053 
L 303.068169 162.785981 
L 303.461468 163.30565 
L 303.854768 165.734107 
L 304.248067 167.257245 
L 304.641366 167.524644 
L 305.034665 170.883697 
L 305.427965 170.96434 
L 306.214563 174.669646 
L 306.607863 175.352047 
L 307.394461 178.894237 
L 307.78776 179.302484 
L 308.18106 182.092443 
L 308.574359 182.424115 
L 308.967658 183.680769 
L 309.360958 186.41387 
L 309.754257 185.444028 
L 310.147556 188.917655 
L 310.540856 188.63502 
L 310.934155 190.439556 
L 311.327454 191.185745 
L 311.720753 192.881417 
L 312.114053 193.546264 
L 312.507352 194.96513 
L 312.900651 195.565968 
L 313.293951 197.822726 
L 313.68725 197.396492 
L 314.473848 201.14307 
L 314.867148 200.9278 
L 315.260447 202.320884 
L 315.653746 204.654557 
L 316.047046 203.558036 
L 316.440345 207.458565 
L 316.833644 206.110856 
L 317.620243 210.089201 
L 318.013542 208.892147 
L 318.406841 213.062972 
L 318.800141 211.184618 
L 319.19344 214.705125 
L 319.586739 213.920997 
L 319.980038 216.221649 
L 320.373338 215.471293 
L 320.766637 218.881023 
L 321.159936 217.121989 
L 321.553236 221.009653 
L 321.946535 219.191036 
L 322.339834 222.297346 
L 322.733133 221.496094 
L 323.126433 223.345056 
L 323.519732 223.992119 
L 323.913031 224.425189 
L 324.306331 225.058708 
L 324.69963 226.727209 
L 325.092929 225.461374 
L 325.486229 228.692831 
L 325.879528 227.069875 
L 326.272827 228.853461 
L 326.666126 228.396841 
L 327.059426 229.326331 
L 327.452725 229.641536 
L 327.846024 230.430763 
L 328.239324 229.709096 
L 328.632623 231.891672 
L 329.025922 228.687102 
L 329.419221 232.428685 
L 329.812521 228.727732 
L 330.20582 232.552005 
L 330.599119 229.347689 
L 330.992419 231.661773 
L 331.385718 230.105503 
L 331.779017 229.763399 
L 332.172316 229.889888 
L 332.565616 228.906773 
L 332.958915 229.573335 
L 333.352214 227.156361 
L 333.745514 229.411737 
L 334.138813 226.47974 
L 334.532112 226.545885 
L 334.925411 225.626399 
L 335.318711 225.285382 
L 335.71201 223.332216 
L 336.105309 223.34696 
L 336.498609 221.962541 
L 336.891908 221.150915 
L 338.071806 216.899825 
L 340.038302 210.795937 
L 340.431601 209.193052 
L 340.824901 208.168616 
L 341.2182 206.363783 
L 341.611499 205.329373 
L 342.004799 203.385946 
L 342.398098 202.417759 
L 342.791397 200.600902 
L 343.184697 199.705325 
L 344.364594 196.429085 
L 344.757894 194.563728 
L 345.151193 193.381204 
L 345.544492 192.941137 
L 345.937792 190.972837 
L 346.331091 191.067605 
L 346.72439 188.636487 
L 347.117689 189.052423 
L 347.510989 186.886194 
L 347.904288 186.901924 
L 348.690887 185.246244 
L 349.084186 184.615443 
L 349.477485 183.717768 
L 349.870784 183.57757 
L 350.264084 182.591513 
L 350.657383 182.489039 
L 351.050682 181.480965 
L 351.443982 181.429867 
L 352.23058 180.176485 
L 352.623879 180.045941 
L 353.017179 179.688819 
L 353.410478 178.962942 
L 353.803777 179.137039 
L 354.197077 178.557271 
L 354.590376 178.575255 
L 354.983675 178.060166 
L 355.376974 177.997988 
L 356.163573 177.461245 
L 356.556872 177.458862 
L 356.950172 177.074245 
L 357.343471 177.093629 
L 357.73677 176.695807 
L 358.13007 176.810771 
L 358.523369 176.478668 
L 358.916668 176.552138 
L 359.309967 176.298701 
L 360.096566 176.203027 
L 360.489865 176.012507 
L 360.883165 176.14724 
L 361.276464 175.701831 
L 361.669763 176.019382 
L 362.063062 175.721124 
L 363.24296 175.726457 
L 363.63626 175.592581 
L 364.422858 175.548474 
L 366.782654 175.247166 
L 367.962552 175.27103 
L 368.355851 175.141453 
L 368.74915 175.237844 
L 369.14245 175.085324 
L 369.535749 175.177117 
L 370.322347 175.124822 
L 373.862041 175.06531 
L 374.64864 175.040808 
L 376.615136 175.046939 
L 380.548129 175.042504 
L 398.246597 175.040567 
L 405.325984 175.039572 
L 405.325984 175.039572 
" clip-path="url(#pa5a2b8a425)" style="fill: none; stroke: #008000; stroke-width: 1.5; stroke-linecap: square"/>
   </g>
   <g id="line2d_34">
    <path d="M 91.908878 257.529254 
L 94.268673 270.601303 
L 94.661973 272.488136 
L 95.448571 277.407197 
L 95.841871 278.933722 
L 96.628469 283.746039 
L 99.381564 297.735155 
L 99.774863 298.005386 
L 100.168163 298.926508 
L 100.561462 299.066269 
L 100.954761 297.920598 
L 101.348061 295.614611 
L 101.74136 291.79956 
L 102.134659 283.975988 
L 102.527958 272.324868 
L 103.707856 228.907006 
L 105.281053 194.095539 
L 106.067652 183.746978 
L 108.034148 166.385786 
L 108.820747 158.337808 
L 109.214046 155.257906 
L 110.000645 151.191996 
L 110.787244 147.992264 
L 111.180543 145.915205 
L 111.573842 144.550215 
L 113.540339 135.4546 
L 114.720236 130.840576 
L 115.506835 127.468058 
L 116.293434 124.595397 
L 118.25993 117.658263 
L 118.653229 116.667372 
L 119.439828 113.846661 
L 119.833127 113.351185 
L 120.226426 111.932503 
L 120.619726 111.292385 
L 121.013025 110.207487 
L 121.799624 109.285037 
L 122.192923 108.027065 
L 122.586222 107.906136 
L 122.979521 106.952761 
L 123.372821 106.345017 
L 123.76612 106.247162 
L 124.159419 105.545265 
L 124.552719 105.473542 
L 124.946018 105.104665 
L 125.339317 104.95656 
L 125.732617 105.230073 
L 126.125916 104.672459 
L 126.519215 104.425078 
L 126.912514 104.451697 
L 127.305814 104.351881 
L 128.485712 104.8384 
L 128.879011 105.263471 
L 129.665609 105.725308 
L 130.058909 106.287588 
L 130.452208 106.398865 
L 130.845507 107.251365 
L 131.238807 107.670284 
L 132.025405 108.84839 
L 132.418704 109.260832 
L 132.812004 109.914451 
L 133.205303 111.045657 
L 133.598602 111.306129 
L 133.991902 112.669585 
L 134.7785 114.078559 
L 135.171799 115.214666 
L 135.565099 115.77562 
L 135.958398 116.719773 
L 137.138296 120.165054 
L 138.318194 122.985686 
L 139.104792 125.743024 
L 140.28469 129.250659 
L 140.67799 130.787159 
L 141.071289 131.866318 
L 143.431085 140.070811 
L 143.824384 141.294734 
L 144.217683 143.160352 
L 144.610982 144.284695 
L 146.577479 152.075349 
L 152.870267 178.393165 
L 153.263567 180.723693 
L 153.656866 181.999664 
L 154.050165 184.380014 
L 154.836764 187.533904 
L 155.230063 189.941424 
L 155.623363 190.902045 
L 156.409961 195.029787 
L 157.983158 202.480917 
L 158.376458 204.667264 
L 158.769757 206.072166 
L 160.342954 214.596813 
L 161.129553 217.756458 
L 161.522852 220.044765 
L 161.916151 221.393619 
L 162.30945 224.034624 
L 164.275947 233.745039 
L 165.455845 239.969732 
L 165.849144 241.626959 
L 167.029042 248.209382 
L 169.782137 262.346715 
L 170.568736 266.82714 
L 170.962035 267.99859 
L 171.355334 271.193879 
L 172.141933 274.812699 
L 172.535232 277.565946 
L 172.928531 278.86591 
L 173.321831 281.641664 
L 174.108429 285.810725 
L 174.501728 288.078377 
L 174.895028 289.404847 
L 175.681626 293.410763 
L 177.254823 301.165571 
L 177.648123 302.053085 
L 178.041422 303.279675 
L 178.828021 304.558161 
L 179.614619 301.406038 
L 180.007918 297.283712 
L 180.401218 290.154779 
L 180.794517 280.881437 
L 181.581116 249.598889 
L 182.367714 212.349519 
L 182.761013 200.566986 
L 183.154313 192.429234 
L 183.547612 187.128412 
L 183.940911 183.818196 
L 184.72751 175.339304 
L 185.907408 164.180962 
L 186.300707 161.964799 
L 186.694006 158.278539 
L 190.2337 134.804413 
L 190.626999 133.300895 
L 191.413598 128.604043 
L 193.380094 119.20553 
L 193.773394 117.941853 
L 194.166693 115.706651 
L 194.559992 114.879265 
L 194.953291 112.856876 
L 195.346591 112.124634 
L 195.73989 110.110863 
L 196.133189 109.910561 
L 196.526489 107.811899 
L 196.919788 107.565559 
L 197.313087 106.096388 
L 197.706386 105.11588 
L 198.099686 104.949014 
L 198.492985 103.09197 
L 198.886284 102.942388 
L 199.279584 102.010643 
L 200.066182 100.867805 
L 200.459481 100.485675 
L 201.24608 100.0435 
L 201.639379 99.356319 
L 202.032679 99.339874 
L 202.425978 99.177169 
L 202.819277 98.717449 
L 203.605876 99.037142 
L 203.999175 98.790465 
L 204.392474 99.622568 
L 204.785774 99.128015 
L 205.572372 99.981879 
L 205.965672 99.84358 
L 206.358971 100.847685 
L 206.75227 100.766427 
L 207.145569 101.667396 
L 207.538869 101.960286 
L 207.932168 103.106675 
L 208.325467 102.732071 
L 208.718767 104.407833 
L 209.112066 104.339479 
L 209.505365 106.010854 
L 209.898664 105.841136 
L 210.291964 107.326625 
L 210.685263 107.703342 
L 211.078562 109.122467 
L 211.471862 109.582651 
L 211.865161 110.498227 
L 212.25846 111.817493 
L 212.651759 112.494045 
L 213.045059 114.352229 
L 213.438358 114.645283 
L 213.831657 116.401125 
L 214.224957 116.908401 
L 214.618256 118.805637 
L 215.011555 119.142335 
L 215.404854 121.142123 
L 216.978052 125.857223 
L 218.15795 130.476996 
L 218.551249 131.359027 
L 220.124446 137.61919 
L 220.517745 138.846068 
L 220.911045 140.815342 
L 221.304344 141.896248 
L 222.090942 145.133672 
L 222.484242 146.514555 
L 223.27084 149.808492 
L 223.66414 151.331161 
L 224.057439 153.61008 
L 224.450738 154.467859 
L 224.844037 156.806938 
L 225.237337 158.081127 
L 226.417235 163.634814 
L 226.810534 164.675906 
L 227.990432 170.47387 
L 228.383731 171.584938 
L 228.77703 174.252336 
L 229.17033 175.089774 
L 230.350227 181.196287 
L 230.743527 182.660839 
L 232.316724 190.196076 
L 232.710023 191.620927 
L 233.103323 194.073773 
L 233.496622 195.2397 
L 233.889921 197.82257 
L 234.28322 198.985314 
L 234.67652 201.55276 
L 235.069819 202.940951 
L 235.463118 204.772508 
L 235.856418 207.223624 
L 237.036315 212.417863 
L 237.429615 215.137887 
L 237.822914 215.77357 
L 238.216213 218.668104 
L 240.18271 227.917828 
L 240.576009 230.244284 
L 240.969308 231.481645 
L 241.755907 236.094893 
L 242.149206 237.723843 
L 242.542505 239.887213 
L 242.935805 241.276314 
L 243.329104 243.768702 
L 244.115703 247.35431 
L 244.902301 251.601565 
L 245.2956 252.890287 
L 245.6889 256.026718 
L 246.082199 256.731967 
L 246.868798 261.370274 
L 247.262097 262.55366 
L 248.048696 267.413107 
L 248.441995 268.485713 
L 248.835294 271.882117 
L 249.228593 271.990548 
L 249.621893 275.786484 
L 250.015192 276.260964 
L 250.801791 280.586851 
L 251.588389 284.426479 
L 251.981688 286.350798 
L 252.374988 287.650627 
L 252.768287 290.060495 
L 253.554886 293.320803 
L 253.948185 295.086897 
L 254.341484 296.333043 
L 254.734783 298.1447 
L 255.128083 300.516486 
L 255.521382 300.424243 
L 255.914681 303.010893 
L 256.307981 303.307832 
L 256.70128 304.831058 
L 257.094579 304.437518 
L 257.487878 305.443629 
L 258.274477 302.519324 
L 258.667776 299.42099 
L 259.061076 294.994854 
L 259.454375 286.285432 
L 259.847674 272.606058 
L 260.240973 249.392666 
L 261.027572 194.067858 
L 261.420871 181.634944 
L 261.814171 176.112559 
L 262.600769 168.640313 
L 262.994069 160.513232 
L 263.387368 157.791528 
L 263.780667 154.07622 
L 264.173966 153.382254 
L 264.567266 151.168936 
L 264.960565 146.79614 
L 265.353864 145.681228 
L 265.747164 140.901803 
L 266.533762 135.998541 
L 266.927061 132.022653 
L 267.320361 130.12827 
L 268.106959 124.035877 
L 268.500259 122.002526 
L 269.286857 117.196358 
L 270.860054 109.124174 
L 272.433251 102.338584 
L 272.826551 102.344907 
L 273.21985 99.017303 
L 273.613149 100.260796 
L 274.006449 96.791412 
L 274.399748 97.28575 
L 274.793047 96.159651 
L 275.186346 94.660964 
L 275.579646 94.795391 
L 276.366244 92.912371 
L 276.759544 93.140942 
L 277.152843 92.059732 
L 277.546142 91.926238 
L 277.939442 92.003308 
L 278.332741 91.153797 
L 278.72604 91.441953 
L 279.119339 91.197435 
L 279.905938 91.398144 
L 280.299237 91.611297 
L 280.692537 91.213009 
L 281.085836 92.586761 
L 281.479135 91.427871 
L 281.872434 93.302286 
L 282.265734 92.665144 
L 282.659033 93.752672 
L 283.052332 94.376488 
L 283.445632 94.368096 
L 283.838931 95.875248 
L 284.23223 95.64233 
L 285.018829 97.935869 
L 285.412128 98.283587 
L 286.198727 100.208261 
L 286.592026 101.487879 
L 286.985325 101.894175 
L 287.771924 104.329496 
L 288.558522 106.113372 
L 288.951822 107.832465 
L 289.345121 108.554114 
L 290.131719 111.241496 
L 290.525019 112.180147 
L 292.098216 117.683905 
L 292.491515 118.394223 
L 292.884815 120.639199 
L 293.671413 122.338907 
L 294.064712 124.88293 
L 294.458012 125.463963 
L 294.851311 127.271403 
L 295.24461 128.187411 
L 295.63791 130.40892 
L 296.031209 130.934658 
L 296.817807 134.733091 
L 297.211107 135.640393 
L 297.604406 137.86266 
L 298.391005 140.543619 
L 299.177603 144.092022 
L 299.570902 144.725689 
L 299.964202 148.249943 
L 300.357501 147.198851 
L 300.7508 151.946908 
L 301.1441 150.765318 
L 301.537399 154.198756 
L 301.930698 155.509542 
L 302.323997 156.02913 
L 302.717297 158.996198 
L 303.110596 160.427223 
L 303.503895 161.284587 
L 303.897195 164.431444 
L 304.290494 164.545713 
L 304.683793 167.355031 
L 305.077092 168.410909 
L 305.470392 170.50036 
L 305.863691 171.914915 
L 306.25699 174.446106 
L 306.65029 174.099874 
L 307.043589 178.172325 
L 307.436888 178.27292 
L 307.830188 180.118035 
L 308.223487 182.958272 
L 308.616786 182.681681 
L 309.010085 186.268822 
L 309.403385 185.684899 
L 309.796684 190.338916 
L 310.189983 188.289977 
L 310.583283 193.345425 
L 310.976582 193.055058 
L 312.15648 198.008372 
L 312.549779 199.207565 
L 312.943078 200.86445 
L 313.336378 201.637118 
L 313.729677 203.642109 
L 314.122976 204.56154 
L 315.302874 208.542205 
L 315.696173 209.210365 
L 316.089473 211.574577 
L 316.482772 210.520332 
L 316.876071 213.749604 
L 317.26937 213.777079 
L 317.66267 215.422715 
L 318.449268 217.12989 
L 318.842568 218.734657 
L 319.235867 219.014551 
L 319.629166 221.221404 
L 320.022465 220.675631 
L 320.415765 222.875046 
L 321.202363 223.975526 
L 321.988962 226.592926 
L 322.382261 226.942345 
L 322.775561 226.949327 
L 323.16886 229.369972 
L 323.562159 227.520072 
L 323.955458 232.135759 
L 324.348758 227.326786 
L 324.742057 234.158393 
L 325.135356 229.027798 
L 325.528656 233.471696 
L 325.921955 232.193561 
L 326.315254 231.901743 
L 326.708553 234.6591 
L 327.101853 231.8545 
L 327.495152 234.359963 
L 327.888451 233.460733 
L 328.281751 234.278071 
L 328.67505 233.547343 
L 329.068349 234.344339 
L 329.461648 232.810565 
L 329.854948 234.387377 
L 330.248247 232.848815 
L 330.641546 233.392179 
L 331.034846 232.016634 
L 331.428145 233.306099 
L 331.821444 231.049637 
L 332.214743 231.141264 
L 332.608043 230.64364 
L 333.001342 229.480534 
L 333.394641 229.904796 
L 333.787941 227.866561 
L 334.18124 227.169788 
L 334.574539 225.998982 
L 334.967838 225.756202 
L 335.361138 223.122225 
L 335.754437 224.047674 
L 336.147736 221.086486 
L 336.541036 221.386411 
L 336.934335 219.462351 
L 337.327634 218.865768 
L 337.720933 216.604355 
L 338.114233 215.405699 
L 338.507532 214.958038 
L 338.900831 212.430388 
L 339.294131 211.618318 
L 339.68743 210.240239 
L 340.080729 208.256468 
L 340.474029 208.466404 
L 340.867328 204.835238 
L 341.260627 205.10416 
L 341.653926 202.844114 
L 342.440525 201.114398 
L 342.833824 199.044825 
L 343.227124 198.840384 
L 344.013722 195.594167 
L 344.407021 195.078903 
L 344.800321 193.316317 
L 345.19362 192.6334 
L 345.980219 190.623073 
L 346.373518 189.836157 
L 346.766817 188.65819 
L 347.160116 188.208347 
L 347.553416 187.501946 
L 348.340014 185.836806 
L 348.733314 185.036003 
L 349.126613 184.952663 
L 349.913211 183.20493 
L 350.306511 182.967732 
L 350.69981 181.868206 
L 351.093109 181.991615 
L 351.486409 181.0372 
L 351.879708 180.869255 
L 353.846204 178.914509 
L 354.239504 178.987347 
L 354.632803 178.302267 
L 355.026102 178.254667 
L 355.812701 177.703152 
L 356.206 177.633944 
L 356.599299 177.359233 
L 359.745694 176.293205 
L 360.138993 176.419198 
L 360.532292 176.13015 
L 360.925592 176.074497 
L 361.318891 175.850166 
L 362.498789 175.78246 
L 362.892088 175.608703 
L 363.285387 175.63299 
L 363.678687 175.526191 
L 364.071986 175.596062 
L 364.465285 175.454284 
L 364.858584 175.486939 
L 365.645183 175.345542 
L 366.825081 175.312898 
L 366.825081 175.312898 
" clip-path="url(#pa5a2b8a425)" style="fill: none; stroke: #ff7f0e; stroke-width: 1.5; stroke-linecap: square"/>
   </g>
   <g id="line2d_35">
    <path d="M 91.814173 258.153694 
L 94.173969 271.37924 
L 94.567268 273.245045 
L 95.747166 280.589517 
L 96.533765 284.915853 
L 97.713663 291.622931 
L 98.89356 298.338742 
L 100.466758 303.633359 
L 100.860057 303.921214 
L 101.253356 303.030593 
L 101.646655 300.918646 
L 102.039955 296.982867 
L 102.433254 290.183636 
L 102.826553 279.349048 
L 104.006451 235.264117 
L 105.972948 188.223258 
L 106.366247 182.535207 
L 107.152846 175.674616 
L 108.726043 164.234187 
L 109.905941 151.654276 
L 110.692539 146.802017 
L 111.479138 143.927921 
L 112.659036 138.428234 
L 114.625532 130.361689 
L 116.985328 120.888045 
L 117.771926 118.044411 
L 118.165226 116.264501 
L 118.558525 115.528654 
L 119.738423 111.684113 
L 120.131722 110.321259 
L 121.31162 107.616571 
L 121.704919 107.040478 
L 122.098219 106.198786 
L 122.491518 105.085726 
L 122.884817 104.999246 
L 123.278116 104.020552 
L 124.064715 103.270137 
L 124.458014 102.620406 
L 125.244613 102.44228 
L 126.031211 102.108141 
L 126.424511 101.434033 
L 126.81781 101.63799 
L 127.604409 101.644582 
L 127.997708 101.885346 
L 128.784306 102.150317 
L 129.964204 103.073414 
L 130.357504 103.660918 
L 131.144102 104.424958 
L 131.537401 105.316619 
L 131.930701 105.632413 
L 132.717299 107.051283 
L 133.110599 107.747642 
L 134.683796 111.334386 
L 135.863694 113.882938 
L 136.256993 115.139131 
L 136.650292 115.996858 
L 137.83019 119.534126 
L 138.616789 121.771949 
L 139.403387 124.235863 
L 139.796687 125.1598 
L 140.189986 127.202731 
L 140.583285 128.068065 
L 140.976584 129.285395 
L 141.369884 131.184331 
L 141.763183 131.753225 
L 142.156482 133.545896 
L 142.549782 134.439376 
L 142.943081 136.537064 
L 143.33638 138.014491 
L 143.729679 139.014582 
L 144.516278 142.273512 
L 144.909577 143.756144 
L 145.696176 147.128622 
L 146.089475 148.381837 
L 146.482774 150.291885 
L 146.876074 151.556051 
L 147.662672 155.208105 
L 148.055972 156.43869 
L 149.235869 161.756811 
L 150.415767 166.677664 
L 150.809067 168.889893 
L 151.202366 170.00559 
L 152.775563 177.521284 
L 154.34876 184.671853 
L 155.135359 188.506798 
L 155.921957 192.277941 
L 156.708556 196.054298 
L 157.101855 198.417538 
L 157.495155 199.830365 
L 159.068352 207.91526 
L 159.461651 209.444255 
L 160.24825 214.075699 
L 160.641549 215.439688 
L 161.034848 217.936718 
L 161.821447 221.539538 
L 162.608045 225.791664 
L 163.394644 229.492668 
L 164.967841 238.244734 
L 165.75444 242.123654 
L 175.980221 298.185504 
L 176.37352 299.744659 
L 177.160119 303.687101 
L 177.946718 307.003086 
L 178.733316 308.808588 
L 179.126615 308.119714 
L 179.519915 307.202073 
L 179.913214 305.209536 
L 180.306513 300.667976 
L 180.699813 293.59219 
L 181.093112 284.256131 
L 181.486411 268.930155 
L 182.666309 208.854294 
L 183.059608 197.248304 
L 184.239506 184.582515 
L 184.632806 181.357833 
L 186.992601 154.806813 
L 190.925594 130.575436 
L 192.105492 124.521122 
L 194.071988 115.027581 
L 195.251886 110.961723 
L 195.645186 108.775856 
L 196.038485 108.233479 
L 196.431784 106.430653 
L 197.218383 104.583792 
L 197.611682 103.347446 
L 198.398281 101.528389 
L 198.79158 100.259306 
L 199.184879 100.316638 
L 199.578179 99.058851 
L 199.971478 98.405337 
L 200.364777 98.208821 
L 200.758076 97.319472 
L 201.151376 97.744588 
L 201.544675 96.947001 
L 201.937974 96.576015 
L 202.331274 96.60259 
L 202.724573 96.123396 
L 203.511171 96.23581 
L 203.904471 96.10809 
L 204.29777 96.709568 
L 204.691069 96.269726 
L 205.084369 96.791995 
L 206.264266 97.716871 
L 206.657566 98.330928 
L 207.050865 98.351982 
L 207.444164 99.6828 
L 207.837464 99.527318 
L 208.230763 100.603472 
L 208.624062 100.811465 
L 209.017361 102.426861 
L 209.410661 102.373916 
L 209.80396 103.796631 
L 210.197259 104.007591 
L 210.590559 105.369761 
L 210.983858 106.183978 
L 211.377157 106.681063 
L 213.343654 112.711506 
L 213.736953 112.995739 
L 214.130252 115.214509 
L 214.523552 115.77078 
L 214.916851 116.985802 
L 215.31015 118.665848 
L 216.490048 122.186125 
L 217.669946 126.987191 
L 218.063245 127.756881 
L 218.456544 129.64836 
L 219.243143 132.009099 
L 219.636442 134.304291 
L 220.029742 135.210547 
L 220.81634 138.865731 
L 221.209639 139.961704 
L 221.996238 143.130403 
L 222.782837 146.577995 
L 224.749333 154.731213 
L 225.142632 156.93561 
L 225.535932 157.8646 
L 225.929231 160.73393 
L 226.32253 161.236925 
L 226.715829 164.09748 
L 227.109129 165.077196 
L 227.502428 167.629081 
L 227.895727 168.361636 
L 228.289027 171.285642 
L 228.682326 172.418648 
L 229.075625 174.68906 
L 229.468925 176.043145 
L 229.862224 177.870792 
L 230.255523 180.566785 
L 230.648822 181.713163 
L 232.615319 191.516768 
L 233.008618 192.832826 
L 233.401917 195.20768 
L 234.188516 198.965594 
L 234.581815 201.218624 
L 234.975115 202.222077 
L 235.368414 205.527793 
L 235.761713 206.099226 
L 236.155012 209.081905 
L 236.548312 210.468485 
L 238.908107 222.928509 
L 239.301407 223.788511 
L 239.694706 226.881191 
L 240.481305 229.830221 
L 240.874604 232.760697 
L 241.267903 234.245458 
L 241.661202 236.683019 
L 242.054502 238.366786 
L 242.447801 241.037225 
L 242.8411 241.845809 
L 243.2344 245.003265 
L 243.627699 246.071734 
L 244.020998 249.062106 
L 244.414298 250.216032 
L 244.807597 252.858816 
L 245.200896 254.467369 
L 245.594195 257.057535 
L 245.987495 258.343711 
L 246.380794 261.022639 
L 246.774093 262.528655 
L 247.167393 265.0659 
L 247.560692 266.644209 
L 247.953991 269.140179 
L 248.34729 270.42608 
L 248.74059 274.03532 
L 249.133889 273.981744 
L 249.527188 277.658406 
L 249.920488 279.114873 
L 250.313787 280.082859 
L 250.707086 284.064603 
L 251.100385 283.542963 
L 251.493685 288.088536 
L 251.886984 288.36538 
L 252.673583 292.683535 
L 253.066882 294.928016 
L 253.460181 295.958003 
L 253.85348 298.586759 
L 254.24678 299.014101 
L 254.640079 302.394956 
L 255.033378 303.159067 
L 255.819977 306.820999 
L 256.213276 307.281988 
L 256.606575 308.992016 
L 256.999875 309.22739 
L 257.393174 309.932023 
L 257.786473 309.742716 
L 258.179773 307.391256 
L 258.573072 306.284879 
L 259.359671 295.108913 
L 259.75297 282.812706 
L 260.146269 264.851342 
L 260.932868 205.970558 
L 261.326167 187.457118 
L 261.719466 183.345172 
L 262.506065 169.155025 
L 262.899364 162.835231 
L 268.798853 119.672979 
L 269.585452 114.453856 
L 269.978751 113.00005 
L 270.372051 109.735959 
L 270.76535 108.77288 
L 271.551948 104.549063 
L 271.945248 103.288474 
L 272.731846 99.675495 
L 273.125146 99.189084 
L 273.518445 96.773235 
L 273.911744 95.832907 
L 274.305044 95.993521 
L 274.698343 93.009598 
L 275.091642 93.641433 
L 275.878241 91.045586 
L 276.27154 91.805265 
L 276.664839 89.637896 
L 277.058139 90.356976 
L 277.844737 88.9456 
L 278.238036 89.466527 
L 278.631336 88.428017 
L 279.417934 88.945957 
L 279.811234 88.477573 
L 280.204533 89.166522 
L 280.597832 88.569046 
L 280.991131 89.543437 
L 281.384431 89.791074 
L 281.77773 89.55191 
L 282.171029 90.872099 
L 282.564329 90.264833 
L 282.957628 91.868014 
L 283.350927 92.014727 
L 283.744226 92.367177 
L 284.137526 93.530776 
L 284.530825 93.977015 
L 284.924124 95.027823 
L 285.710723 96.483415 
L 286.104022 97.759889 
L 286.497321 98.262844 
L 286.890621 99.686327 
L 287.28392 100.179554 
L 287.677219 102.237821 
L 288.070519 101.802377 
L 288.463818 104.164636 
L 288.857117 104.871133 
L 289.250417 106.359746 
L 289.643716 107.023737 
L 290.037015 109.230477 
L 290.430314 109.138162 
L 290.823614 111.932533 
L 291.216913 111.850224 
L 291.610212 114.476664 
L 292.003512 114.641691 
L 292.79011 118.565764 
L 293.183409 118.600238 
L 293.576709 121.729634 
L 293.970008 121.694473 
L 294.363307 124.823011 
L 294.756607 124.179785 
L 295.149906 128.318381 
L 295.543205 126.87125 
L 295.936504 131.351164 
L 296.329804 130.400879 
L 296.723103 134.283723 
L 297.116402 133.957265 
L 297.509702 136.99785 
L 297.903001 137.799579 
L 299.082899 143.09383 
L 299.476198 144.274611 
L 300.656096 149.894798 
L 301.049395 150.759755 
L 301.442694 154.290333 
L 301.835994 153.036839 
L 302.229293 158.168349 
L 302.622592 156.24204 
L 303.015892 161.794671 
L 303.409191 160.070355 
L 303.80249 164.37643 
L 304.19579 164.545459 
L 304.982388 169.268388 
L 305.375687 170.03293 
L 306.555585 175.948848 
L 306.948885 176.021446 
L 307.342184 180.668247 
L 307.735483 179.020772 
L 308.128782 183.810681 
L 308.522082 183.432752 
L 308.915381 186.212707 
L 309.70198 188.816641 
L 310.095279 191.821224 
L 310.488578 191.962681 
L 310.881877 194.629395 
L 311.275177 196.458763 
L 311.668476 196.068234 
L 312.061775 200.350287 
L 312.455075 200.509878 
L 312.848374 200.505979 
L 313.241673 205.980998 
L 313.634972 202.315623 
L 314.028272 208.040427 
L 314.421571 207.628817 
L 314.81487 208.942741 
L 315.20817 211.529113 
L 315.601469 210.812637 
L 315.994768 214.881274 
L 316.388067 212.893396 
L 316.781367 217.483183 
L 317.174666 215.553697 
L 317.567965 219.747371 
L 317.961265 219.279871 
L 318.354564 220.476393 
L 318.747863 222.086924 
L 319.141163 222.623949 
L 319.534462 223.838795 
L 319.927761 224.322335 
L 320.32106 226.606133 
L 320.71436 225.634571 
L 321.107659 228.510742 
L 321.500958 228.025302 
L 321.894258 229.622103 
L 322.287557 229.669072 
L 322.680856 230.702072 
L 323.074155 230.726318 
L 323.467455 232.133696 
L 323.860754 231.309314 
L 324.254053 233.98044 
L 324.647353 232.961143 
L 325.040652 233.563434 
L 325.433951 234.756137 
L 325.82725 233.257877 
L 326.22055 235.471734 
L 326.613849 234.083741 
L 327.007148 235.262456 
L 327.400448 234.917323 
L 327.793747 234.911179 
L 328.187046 234.449184 
L 328.580345 235.404693 
L 328.973645 232.543645 
L 329.366944 236.857395 
L 329.760243 231.844368 
L 330.153543 235.310916 
L 330.546842 231.331665 
L 330.940141 232.707078 
L 331.33344 231.864304 
L 331.72674 230.436384 
L 332.120039 230.021804 
L 332.513338 229.787767 
L 332.906638 228.994365 
L 333.299937 227.085687 
L 333.693236 227.25446 
L 334.086536 224.722392 
L 334.479835 225.552757 
L 334.873134 223.526337 
L 335.266433 222.172902 
L 336.053032 220.12061 
L 336.446331 218.573055 
L 336.839631 218.625033 
L 337.23293 215.43489 
L 337.626229 215.762748 
L 338.019528 213.226958 
L 338.412828 213.025985 
L 338.806127 210.945438 
L 339.592726 209.067223 
L 339.986025 206.975643 
L 340.379324 206.489607 
L 340.772623 204.316561 
L 341.165923 203.133203 
L 341.559222 202.585735 
L 341.952521 200.045627 
L 342.345821 200.208472 
L 342.73912 197.562258 
L 343.132419 198.025755 
L 343.525718 195.75574 
L 343.919018 195.393906 
L 344.312317 193.5901 
L 344.705616 193.284987 
L 345.098916 191.362192 
L 345.492215 191.515792 
L 345.885514 189.832121 
L 346.672113 188.77078 
L 347.065412 187.461814 
L 347.458711 187.430085 
L 347.852011 186.08997 
L 348.24531 185.465315 
L 348.638609 185.357237 
L 349.031909 183.906537 
L 349.425208 183.858181 
L 350.211806 182.473136 
L 350.605106 182.162605 
L 350.998405 181.665825 
L 351.391704 180.847131 
L 351.785004 181.09305 
L 352.178303 179.691274 
L 352.571602 180.379364 
L 352.964901 179.427692 
L 353.358201 179.375872 
L 353.7515 179.109746 
L 354.144799 178.630122 
L 354.538099 178.575535 
L 354.931398 178.020919 
L 355.324697 178.164115 
L 355.717996 177.568498 
L 356.111296 177.743809 
L 356.504595 177.306376 
L 356.897894 177.335315 
L 357.291194 176.865607 
L 357.684493 176.986241 
L 358.077792 176.629486 
L 358.471091 176.812412 
L 358.864391 176.4119 
L 359.25769 176.443275 
L 359.650989 176.278183 
L 360.044289 176.297215 
L 360.437588 176.046463 
L 360.830887 176.09044 
L 362.010785 175.812377 
L 363.583982 175.715139 
L 363.977281 175.539087 
L 364.370581 175.598534 
L 365.157179 175.477761 
L 366.730377 175.326243 
L 366.730377 175.326243 
" clip-path="url(#pa5a2b8a425)" style="fill: none; stroke: #1f77b4; stroke-width: 1.5; stroke-linecap: square"/>
   </g>
   <g id="patch_3">
    <path d="M 76.138583 316.913386 
L 76.138583 33.165354 
" style="fill: none; stroke: #000000; stroke-width: 0.8; stroke-linejoin: miter; stroke-linecap: square"/>
   </g>
   <g id="patch_4">
    <path d="M 421.001575 316.913386 
L 421.001575 33.165354 
" style="fill: none; stroke: #000000; stroke-width: 0.8; stroke-linejoin: miter; stroke-linecap: square"/>
   </g>
   <g id="patch_5">
    <path d="M 76.138583 316.913386 
L 421.001575 316.913386 
" style="fill: none; stroke: #000000; stroke-width: 0.8; stroke-linejoin: miter; stroke-linecap: square"/>
   </g>
   <g id="patch_6">
    <path d="M 76.138583 33.165354 
L 421.001575 33.165354 
" style="fill: none; stroke: #000000; stroke-width: 0.8; stroke-linejoin: miter; stroke-linecap: square"/>
   </g>
   <g id="text_19">
    <!-- $E_{gain}$ for different initial $E_{kin}$ -->
    <g transform="translate(146.870079 27.165354)scale(0.15 -0.15)">
     <defs>
      <path id="DejaVuSans-Oblique-45" d="M 1081 4666 
L 4031 4666 
L 3928 4134 
L 1606 4134 
L 1338 2753 
L 3566 2753 
L 3463 2222 
L 1234 2222 
L 909 531 
L 3284 531 
L 3181 0 
L 172 0 
L 1081 4666 
z
" transform="scale(0.015625)"/>
      <path id="DejaVuSans-Oblique-67" d="M 3816 3500 
L 3219 434 
Q 3047 -456 2561 -893 
Q 2075 -1331 1253 -1331 
Q 950 -1331 690 -1286 
Q 431 -1241 206 -1147 
L 313 -588 
Q 525 -725 762 -790 
Q 1000 -856 1269 -856 
Q 1816 -856 2167 -557 
Q 2519 -259 2631 300 
L 2681 563 
Q 2441 288 2122 144 
Q 1803 0 1434 0 
Q 903 0 598 351 
Q 294 703 294 1319 
Q 294 1803 478 2267 
Q 663 2731 997 3091 
Q 1219 3328 1514 3456 
Q 1809 3584 2131 3584 
Q 2484 3584 2746 3420 
Q 3009 3256 3138 2956 
L 3238 3500 
L 3816 3500 
z
M 2950 2216 
Q 2950 2641 2750 2872 
Q 2550 3103 2181 3103 
Q 1953 3103 1747 3012 
Q 1541 2922 1394 2759 
Q 1156 2491 1023 2127 
Q 891 1763 891 1375 
Q 891 944 1092 712 
Q 1294 481 1672 481 
Q 2219 481 2584 976 
Q 2950 1472 2950 2216 
z
" transform="scale(0.015625)"/>
      <path id="DejaVuSans-Oblique-61" d="M 3438 1997 
L 3047 0 
L 2472 0 
L 2578 531 
Q 2325 219 2001 64 
Q 1678 -91 1281 -91 
Q 834 -91 548 182 
Q 263 456 263 884 
Q 263 1497 752 1853 
Q 1241 2209 2100 2209 
L 2900 2209 
L 2931 2363 
Q 2938 2388 2941 2417 
Q 2944 2447 2944 2509 
Q 2944 2788 2717 2942 
Q 2491 3097 2081 3097 
Q 1800 3097 1504 3025 
Q 1209 2953 897 2809 
L 997 3341 
Q 1322 3463 1633 3523 
Q 1944 3584 2234 3584 
Q 2853 3584 3176 3315 
Q 3500 3047 3500 2534 
Q 3500 2431 3484 2292 
Q 3469 2153 3438 1997 
z
M 2816 1759 
L 2241 1759 
Q 1534 1759 1195 1570 
Q 856 1381 856 984 
Q 856 709 1029 553 
Q 1203 397 1509 397 
Q 1978 397 2328 733 
Q 2678 1069 2791 1631 
L 2816 1759 
z
" transform="scale(0.015625)"/>
      <path id="DejaVuSans-Oblique-69" d="M 1172 4863 
L 1747 4863 
L 1606 4134 
L 1031 4134 
L 1172 4863 
z
M 909 3500 
L 1484 3500 
L 800 0 
L 225 0 
L 909 3500 
z
" transform="scale(0.015625)"/>
      <path id="DejaVuSans-Oblique-6e" d="M 3566 2113 
L 3156 0 
L 2578 0 
L 2988 2091 
Q 3016 2238 3031 2350 
Q 3047 2463 3047 2528 
Q 3047 2791 2881 2937 
Q 2716 3084 2419 3084 
Q 1956 3084 1622 2776 
Q 1288 2469 1184 1941 
L 800 0 
L 225 0 
L 903 3500 
L 1478 3500 
L 1363 2950 
Q 1603 3253 1940 3418 
Q 2278 3584 2650 3584 
Q 3113 3584 3367 3334 
Q 3622 3084 3622 2631 
Q 3622 2519 3608 2391 
Q 3594 2263 3566 2113 
z
" transform="scale(0.015625)"/>
      <path id="DejaVuSans-20" transform="scale(0.015625)"/>
      <path id="DejaVuSans-66" d="M 2375 4863 
L 2375 4384 
L 1825 4384 
Q 1516 4384 1395 4259 
Q 1275 4134 1275 3809 
L 1275 3500 
L 2222 3500 
L 2222 3053 
L 1275 3053 
L 1275 0 
L 697 0 
L 697 3053 
L 147 3053 
L 147 3500 
L 697 3500 
L 697 3744 
Q 697 4328 969 4595 
Q 1241 4863 1831 4863 
L 2375 4863 
z
" transform="scale(0.015625)"/>
      <path id="DejaVuSans-6f" d="M 1959 3097 
Q 1497 3097 1228 2736 
Q 959 2375 959 1747 
Q 959 1119 1226 758 
Q 1494 397 1959 397 
Q 2419 397 2687 759 
Q 2956 1122 2956 1747 
Q 2956 2369 2687 2733 
Q 2419 3097 1959 3097 
z
M 1959 3584 
Q 2709 3584 3137 3096 
Q 3566 2609 3566 1747 
Q 3566 888 3137 398 
Q 2709 -91 1959 -91 
Q 1206 -91 779 398 
Q 353 888 353 1747 
Q 353 2609 779 3096 
Q 1206 3584 1959 3584 
z
" transform="scale(0.015625)"/>
      <path id="DejaVuSans-64" d="M 2906 2969 
L 2906 4863 
L 3481 4863 
L 3481 0 
L 2906 0 
L 2906 525 
Q 2725 213 2448 61 
Q 2172 -91 1784 -91 
Q 1150 -91 751 415 
Q 353 922 353 1747 
Q 353 2572 751 3078 
Q 1150 3584 1784 3584 
Q 2172 3584 2448 3432 
Q 2725 3281 2906 2969 
z
M 947 1747 
Q 947 1113 1208 752 
Q 1469 391 1925 391 
Q 2381 391 2643 752 
Q 2906 1113 2906 1747 
Q 2906 2381 2643 2742 
Q 2381 3103 1925 3103 
Q 1469 3103 1208 2742 
Q 947 2381 947 1747 
z
" transform="scale(0.015625)"/>
      <path id="DejaVuSans-74" d="M 1172 4494 
L 1172 3500 
L 2356 3500 
L 2356 3053 
L 1172 3053 
L 1172 1153 
Q 1172 725 1289 603 
Q 1406 481 1766 481 
L 2356 481 
L 2356 0 
L 1766 0 
Q 1100 0 847 248 
Q 594 497 594 1153 
L 594 3053 
L 172 3053 
L 172 3500 
L 594 3500 
L 594 4494 
L 1172 4494 
z
" transform="scale(0.015625)"/>
      <path id="DejaVuSans-6c" d="M 603 4863 
L 1178 4863 
L 1178 0 
L 603 0 
L 603 4863 
z
" transform="scale(0.015625)"/>
      <path id="DejaVuSans-Oblique-6b" d="M 1172 4863 
L 1747 4863 
L 1197 2028 
L 3169 3500 
L 3916 3500 
L 1716 1825 
L 3322 0 
L 2625 0 
L 1131 1709 
L 800 0 
L 225 0 
L 1172 4863 
z
" transform="scale(0.015625)"/>
     </defs>
     <use xlink:href="#DejaVuSans-Oblique-45" transform="translate(0 0.015625)"/>
     <use xlink:href="#DejaVuSans-Oblique-67" transform="translate(63.183594 -16.390625)scale(0.7)"/>
     <use xlink:href="#DejaVuSans-Oblique-61" transform="translate(107.617187 -16.390625)scale(0.7)"/>
     <use xlink:href="#DejaVuSans-Oblique-69" transform="translate(150.512695 -16.390625)scale(0.7)"/>
     <use xlink:href="#DejaVuSans-Oblique-6e" transform="translate(169.960937 -16.390625)scale(0.7)"/>
     <use xlink:href="#DejaVuSans-20" transform="translate(217.060547 0.015625)"/>
     <use xlink:href="#DejaVuSans-66" transform="translate(248.847656 0.015625)"/>
     <use xlink:href="#DejaVuSans-6f" transform="translate(284.052734 0.015625)"/>
     <use xlink:href="#DejaVuSans-72" transform="translate(345.234375 0.015625)"/>
     <use xlink:href="#DejaVuSans-20" transform="translate(386.347656 0.015625)"/>
     <use xlink:href="#DejaVuSans-64" transform="translate(418.134766 0.015625)"/>
     <use xlink:href="#DejaVuSans-69" transform="translate(481.611328 0.015625)"/>
     <use xlink:href="#DejaVuSans-66" transform="translate(509.394531 0.015625)"/>
     <use xlink:href="#DejaVuSans-66" transform="translate(544.599609 0.015625)"/>
     <use xlink:href="#DejaVuSans-65" transform="translate(579.804688 0.015625)"/>
     <use xlink:href="#DejaVuSans-72" transform="translate(641.328125 0.015625)"/>
     <use xlink:href="#DejaVuSans-65" transform="translate(682.441406 0.015625)"/>
     <use xlink:href="#DejaVuSans-6e" transform="translate(743.964844 0.015625)"/>
     <use xlink:href="#DejaVuSans-74" transform="translate(807.34375 0.015625)"/>
     <use xlink:href="#DejaVuSans-20" transform="translate(846.552734 0.015625)"/>
     <use xlink:href="#DejaVuSans-69" transform="translate(878.339844 0.015625)"/>
     <use xlink:href="#DejaVuSans-6e" transform="translate(906.123047 0.015625)"/>
     <use xlink:href="#DejaVuSans-69" transform="translate(969.501953 0.015625)"/>
     <use xlink:href="#DejaVuSans-74" transform="translate(997.285156 0.015625)"/>
     <use xlink:href="#DejaVuSans-69" transform="translate(1036.494141 0.015625)"/>
     <use xlink:href="#DejaVuSans-61" transform="translate(1064.277344 0.015625)"/>
     <use xlink:href="#DejaVuSans-6c" transform="translate(1125.556641 0.015625)"/>
     <use xlink:href="#DejaVuSans-20" transform="translate(1153.339844 0.015625)"/>
     <use xlink:href="#DejaVuSans-Oblique-45" transform="translate(1185.126953 0.015625)"/>
     <use xlink:href="#DejaVuSans-Oblique-6b" transform="translate(1248.310547 -16.390625)scale(0.7)"/>
     <use xlink:href="#DejaVuSans-Oblique-69" transform="translate(1288.847656 -16.390625)scale(0.7)"/>
     <use xlink:href="#DejaVuSans-Oblique-6e" transform="translate(1308.295898 -16.390625)scale(0.7)"/>
    </g>
   </g>
   <g id="legend_1">
    <g id="patch_7">
     <path d="M 298.901575 111.216917 
L 410.501575 111.216917 
Q 413.501575 111.216917 413.501575 108.216917 
L 413.501575 43.665354 
Q 413.501575 40.665354 410.501575 40.665354 
L 298.901575 40.665354 
Q 295.901575 40.665354 295.901575 43.665354 
L 295.901575 108.216917 
Q 295.901575 111.216917 298.901575 111.216917 
z
" style="fill: #ffffff; opacity: 0.8; stroke: #cccccc; stroke-linejoin: miter"/>
    </g>
    <g id="line2d_36">
     <path d="M 301.901575 52.813011 
L 316.901575 52.813011 
L 331.901575 52.813011 
" style="fill: none; stroke: #008000; stroke-width: 1.5; stroke-linecap: square"/>
    </g>
    <g id="text_20">
     <!-- $250 \, \mathrm{MeV}$ -->
     <g transform="translate(343.901575 58.063011)scale(0.15 -0.15)">
      <use xlink:href="#DejaVuSans-32" transform="translate(0 0.78125)"/>
      <use xlink:href="#DejaVuSans-35" transform="translate(63.623047 0.78125)"/>
      <use xlink:href="#DejaVuSans-30" transform="translate(127.246094 0.78125)"/>
      <use xlink:href="#DejaVuSans-4d" transform="translate(207.104817 0.78125)"/>
      <use xlink:href="#DejaVuSans-65" transform="translate(293.384114 0.78125)"/>
      <use xlink:href="#DejaVuSans-56" transform="translate(354.907551 0.78125)"/>
     </g>
    </g>
    <g id="line2d_37">
     <path d="M 301.901575 74.830198 
L 316.901575 74.830198 
L 331.901575 74.830198 
" style="fill: none; stroke: #ff7f0e; stroke-width: 1.5; stroke-linecap: square"/>
    </g>
    <g id="text_21">
     <!-- $300 \, \mathrm{MeV}$ -->
     <g transform="translate(343.901575 80.080198)scale(0.15 -0.15)">
      <use xlink:href="#DejaVuSans-33" transform="translate(0 0.78125)"/>
      <use xlink:href="#DejaVuSans-30" transform="translate(63.623047 0.78125)"/>
      <use xlink:href="#DejaVuSans-30" transform="translate(127.246094 0.78125)"/>
      <use xlink:href="#DejaVuSans-4d" transform="translate(207.104817 0.78125)"/>
      <use xlink:href="#DejaVuSans-65" transform="translate(293.384114 0.78125)"/>
      <use xlink:href="#DejaVuSans-56" transform="translate(354.907551 0.78125)"/>
     </g>
    </g>
    <g id="line2d_38">
     <path d="M 301.901575 96.847386 
L 316.901575 96.847386 
L 331.901575 96.847386 
" style="fill: none; stroke: #1f77b4; stroke-width: 1.5; stroke-linecap: square"/>
    </g>
    <g id="text_22">
     <!-- $350 \, \mathrm{MeV}$ -->
     <g transform="translate(343.901575 102.097386)scale(0.15 -0.15)">
      <use xlink:href="#DejaVuSans-33" transform="translate(0 0.78125)"/>
      <use xlink:href="#DejaVuSans-35" transform="translate(63.623047 0.78125)"/>
      <use xlink:href="#DejaVuSans-30" transform="translate(127.246094 0.78125)"/>
      <use xlink:href="#DejaVuSans-4d" transform="translate(207.104817 0.78125)"/>
      <use xlink:href="#DejaVuSans-65" transform="translate(293.384114 0.78125)"/>
      <use xlink:href="#DejaVuSans-56" transform="translate(354.907551 0.78125)"/>
     </g>
    </g>
   </g>
  </g>
 </g>
 <defs>
  <clipPath id="pa5a2b8a425">
   <rect x="76.138583" y="33.165354" width="344.862992" height="283.748031"/>
  </clipPath>
 </defs>
</svg>
