<?xml version="1.0" encoding="utf-8" standalone="no"?>
<!DOCTYPE svg PUBLIC "-//W3C//DTD SVG 1.1//EN"
  "http://www.w3.org/Graphics/SVG/1.1/DTD/svg11.dtd">
<svg xmlns:xlink="http://www.w3.org/1999/xlink" width="432pt" height="288pt" viewBox="0 0 432 288" xmlns="http://www.w3.org/2000/svg" version="1.1">
 <metadata>
  <rdf:RDF xmlns:dc="http://purl.org/dc/elements/1.1/" xmlns:cc="http://creativecommons.org/ns#" xmlns:rdf="http://www.w3.org/1999/02/22-rdf-syntax-ns#">
   <cc:Work>
    <dc:type rdf:resource="http://purl.org/dc/dcmitype/StillImage"/>
    <dc:date>2023-01-16T16:08:47.343264</dc:date>
    <dc:format>image/svg+xml</dc:format>
    <dc:creator>
     <cc:Agent>
      <dc:title>Matplotlib v3.5.1, https://matplotlib.org/</dc:title>
     </cc:Agent>
    </dc:creator>
   </cc:Work>
  </rdf:RDF>
 </metadata>
 <defs>
  <style type="text/css">*{stroke-linejoin: round; stroke-linecap: butt}</style>
 </defs>
 <g id="figure_1">
  <g id="patch_1">
   <path d="M 0 288 
L 432 288 
L 432 0 
L 0 0 
L 0 288 
z
" style="fill: none"/>
  </g>
  <g id="axes_1">
   <g id="LineCollection_1">
    <path d="M 69.218182 242.116364 
L 373.581818 242.116364 
" clip-path="url(#p2df0b4c45e)" style="fill: none; stroke: #000000; stroke-width: 1.5"/>
   </g>
   <g id="line2d_1">
    <path d="M 69.218182 242.051865 
L 83.711688 241.839666 
L 92.102666 241.514832 
L 98.205195 241.090198 
L 103.544908 240.513177 
L 108.121805 239.803036 
L 111.935885 239.010874 
L 115.749966 237.98928 
L 118.80123 236.972373 
L 121.852495 235.74615 
L 124.903759 234.278375 
L 127.955024 232.534451 
L 131.006288 230.477875 
L 134.057553 228.070842 
L 136.346001 226.01253 
L 138.63445 223.719495 
L 140.922898 221.176118 
L 143.211347 218.367497 
L 145.499795 215.27978 
L 147.788243 211.900514 
L 150.839508 206.923156 
L 153.890772 201.389614 
L 156.942037 195.289236 
L 159.993301 188.621491 
L 163.044566 181.397497 
L 166.09583 173.641366 
L 169.909911 163.257489 
L 173.723992 152.210249 
L 178.300889 138.283662 
L 194.320027 88.805348 
L 197.371292 80.289877 
L 200.422556 72.400391 
L 202.711005 66.975295 
L 204.999453 62.031791 
L 207.287902 57.619809 
L 209.57635 53.78474 
L 211.101982 51.568567 
L 212.627614 49.637154 
L 214.153247 47.999645 
L 215.678879 46.663846 
L 217.204511 45.636152 
L 218.730144 44.921509 
L 220.255776 44.523362 
L 221.781408 44.443636 
L 223.30704 44.682717 
L 224.832673 45.239449 
L 226.358305 46.111142 
L 227.883937 47.293598 
L 229.409569 48.781142 
L 230.935202 50.566663 
L 232.460834 52.641681 
L 233.986466 54.996403 
L 236.274915 59.028507 
L 238.563363 63.622948 
L 240.851811 68.732731 
L 243.14026 74.306597 
L 246.191524 82.365455 
L 250.005605 93.254291 
L 254.582502 107.154376 
L 270.60164 156.700339 
L 274.415721 167.497481 
L 278.229802 177.583902 
L 281.281066 185.077837 
L 284.332331 192.025879 
L 287.383595 198.410568 
L 290.43486 204.226792 
L 293.486124 209.480341 
L 296.537389 214.18632 
L 299.588653 218.367497 
L 301.877102 221.176118 
L 304.16555 223.719495 
L 306.453999 226.01253 
L 309.505263 228.70755 
L 312.556528 231.023382 
L 315.607792 232.99829 
L 318.659057 234.669819 
L 321.710321 236.074049 
L 324.761586 237.24502 
L 328.575666 238.428596 
L 332.389747 239.352615 
L 336.203828 240.065893 
L 340.780725 240.702205 
L 346.120437 241.216288 
L 352.985783 241.62728 
L 361.37676 241.894366 
L 373.581818 242.051865 
L 373.581818 242.051865 
" clip-path="url(#p2df0b4c45e)" style="fill: none; stroke: #1f77b4; stroke-width: 3; stroke-linecap: square"/>
   </g>
  </g>
 </g>
 <defs>
  <clipPath id="p2df0b4c45e">
   <rect x="54" y="34.56" width="334.8" height="217.44"/>
  </clipPath>
 </defs>
</svg>
