<?xml version="1.0" encoding="utf-8" standalone="no"?>
<!DOCTYPE svg PUBLIC "-//W3C//DTD SVG 1.1//EN"
  "http://www.w3.org/Graphics/SVG/1.1/DTD/svg11.dtd">
<svg xmlns:xlink="http://www.w3.org/1999/xlink" width="113.385827pt" height="113.385827pt" viewBox="0 0 113.385827 113.385827" xmlns="http://www.w3.org/2000/svg" version="1.1">
 <metadata>
  <rdf:RDF xmlns:dc="http://purl.org/dc/elements/1.1/" xmlns:cc="http://creativecommons.org/ns#" xmlns:rdf="http://www.w3.org/1999/02/22-rdf-syntax-ns#">
   <cc:Work>
    <dc:type rdf:resource="http://purl.org/dc/dcmitype/StillImage"/>
    <dc:date>2023-01-26T09:51:07.230914</dc:date>
    <dc:format>image/svg+xml</dc:format>
    <dc:creator>
     <cc:Agent>
      <dc:title>Matplotlib v3.5.1, https://matplotlib.org/</dc:title>
     </cc:Agent>
    </dc:creator>
   </cc:Work>
  </rdf:RDF>
 </metadata>
 <defs>
  <style type="text/css">*{stroke-linejoin: round; stroke-linecap: butt}</style>
 </defs>
 <g id="figure_1">
  <g id="patch_1">
   <path d="M 0 113.385827 
L 113.385827 113.385827 
L 113.385827 0 
L 0 0 
z
" style="fill: #ffffff"/>
  </g>
  <g id="axes_1">
   <g id="text_1">
    <!-- $z$ -->
    <g transform="translate(4.42395 13.08298)scale(0.15 -0.15)">
     <defs>
      <path id="DejaVuSans-Oblique-7a" d="M 744 3500 
L 3475 3500 
L 3372 2975 
L 738 459 
L 2913 459 
L 2822 0 
L -19 0 
L 84 525 
L 2719 3041 
L 653 3041 
L 744 3500 
z
" transform="scale(0.015625)"/>
     </defs>
     <use xlink:href="#DejaVuSans-Oblique-7a" transform="translate(0 0.3125)"/>
    </g>
   </g>
   <g id="text_2">
    <!-- $y$ -->
    <g transform="translate(92.087927 109.024833)scale(0.15 -0.15)">
     <defs>
      <path id="DejaVuSans-Oblique-79" d="M 1588 -325 
Q 1188 -997 936 -1164 
Q 684 -1331 294 -1331 
L -159 -1331 
L -63 -850 
L 269 -850 
Q 509 -850 678 -719 
Q 847 -588 1056 -206 
L 1234 128 
L 459 3500 
L 1069 3500 
L 1650 819 
L 3256 3500 
L 3859 3500 
L 1588 -325 
z
" transform="scale(0.015625)"/>
     </defs>
     <use xlink:href="#DejaVuSans-Oblique-79" transform="translate(0 0.3125)"/>
    </g>
   </g>
   <g id="text_3">
    <!-- $x$ -->
    <g transform="translate(50.093176 61.053907)scale(0.15 -0.15)">
     <defs>
      <path id="DejaVuSans-Oblique-78" d="M 3841 3500 
L 2234 1784 
L 3219 0 
L 2559 0 
L 1819 1388 
L 531 0 
L -166 0 
L 1556 1844 
L 641 3500 
L 1300 3500 
L 1972 2234 
L 3144 3500 
L 3841 3500 
z
" transform="scale(0.015625)"/>
     </defs>
     <use xlink:href="#DejaVuSans-Oblique-78" transform="translate(0 0.3125)"/>
    </g>
   </g>
   <g id="patch_2">
    <path d="M 8.39895 19.62447 
L 14.698163 39.24894 
L 10.498688 39.24894 
L 10.498688 104.66384 
L 6.299213 104.66384 
L 6.299213 39.24894 
L 2.099738 39.24894 
z
" clip-path="url(#padc5569e7e)"/>
   </g>
   <g id="patch_3">
    <path d="M 88.230971 104.66384 
L 69.333333 111.20533 
L 69.333333 106.844337 
L 6.341207 106.844337 
L 6.341207 102.483343 
L 69.333333 102.483343 
L 69.333333 98.12235 
z
" clip-path="url(#padc5569e7e)"/>
   </g>
   <g id="patch_4">
    <path d="M 46.958448 64.621284 
L 38.050016 83.123412 
L 35.080539 80.039724 
L 9.883689 106.205684 
L 6.914211 103.121996 
L 32.111062 76.956036 
L 29.141585 73.872348 
z
" clip-path="url(#padc5569e7e)"/>
   </g>
  </g>
 </g>
 <defs>
  <clipPath id="padc5569e7e">
   <rect x="0" y="0" width="113.385827" height="113.385827"/>
  </clipPath>
 </defs>
</svg>
