<?xml version="1.0" encoding="utf-8" standalone="no"?>
<!DOCTYPE svg PUBLIC "-//W3C//DTD SVG 1.1//EN"
  "http://www.w3.org/Graphics/SVG/1.1/DTD/svg11.dtd">
<svg xmlns:xlink="http://www.w3.org/1999/xlink" width="432pt" height="288pt" viewBox="0 0 432 288" xmlns="http://www.w3.org/2000/svg" version="1.1">
 <metadata>
  <rdf:RDF xmlns:dc="http://purl.org/dc/elements/1.1/" xmlns:cc="http://creativecommons.org/ns#" xmlns:rdf="http://www.w3.org/1999/02/22-rdf-syntax-ns#">
   <cc:Work>
    <dc:type rdf:resource="http://purl.org/dc/dcmitype/StillImage"/>
    <dc:date>2023-01-11T11:30:03.740157</dc:date>
    <dc:format>image/svg+xml</dc:format>
    <dc:creator>
     <cc:Agent>
      <dc:title>Matplotlib v3.5.1, https://matplotlib.org/</dc:title>
     </cc:Agent>
    </dc:creator>
   </cc:Work>
  </rdf:RDF>
 </metadata>
 <defs>
  <style type="text/css">*{stroke-linejoin: round; stroke-linecap: butt}</style>
 </defs>
 <g id="figure_1">
  <g id="patch_1">
   <path d="M 0 288 
L 432 288 
L 432 0 
L 0 0 
L 0 288 
z
" style="fill: none"/>
  </g>
  <g id="axes_1">
   <g id="line2d_1">
    <path d="M 69.218182 142.829213 
L 72.269446 141.937221 
L 73.795079 141.814274 
L 75.320711 142.074113 
L 76.846343 142.69045 
L 79.897608 144.179902 
L 80.660424 144.391079 
L 81.42324 144.469452 
L 82.186056 144.394928 
L 82.948872 144.160623 
L 83.711688 143.774765 
L 85.237321 142.658798 
L 87.525769 140.863433 
L 88.288585 140.47143 
L 89.051401 140.274031 
L 89.814217 140.307663 
L 90.577033 140.589272 
L 91.33985 141.112947 
L 92.102666 141.848531 
L 95.916746 146.257583 
L 96.679563 146.66701 
L 97.442379 146.73892 
L 98.205195 146.438548 
L 98.968011 145.764643 
L 99.730827 144.752319 
L 101.256459 142.028085 
L 102.782092 139.166817 
L 103.544908 138.032512 
L 104.307724 137.272025 
L 105.07054 136.987997 
L 105.833356 137.244634 
L 106.596172 138.058483 
L 107.358988 139.393189 
L 108.121805 141.159044 
L 111.173069 149.276635 
L 111.935885 150.584085 
L 112.698701 151.242129 
L 113.461517 151.140691 
L 114.224334 150.235378 
L 114.98715 148.556454 
L 115.749966 146.211163 
L 117.275598 140.297689 
L 118.80123 134.522795 
L 119.564046 132.407887 
L 120.326863 131.146614 
L 121.089679 130.916932 
L 121.852495 131.809099 
L 122.615311 133.811169 
L 123.378127 136.803473 
L 124.903759 144.779485 
L 126.429392 153.051237 
L 127.192208 156.300093 
L 127.955024 158.468489 
L 128.71784 159.282703 
L 129.480656 158.582362 
L 130.243472 156.342791 
L 131.006288 152.685553 
L 131.769105 147.875449 
L 134.820369 126.109012 
L 135.583185 122.655953 
L 136.346001 120.919629 
L 137.108817 121.161171 
L 137.871634 123.467027 
L 138.63445 127.731043 
L 139.397266 133.654159 
L 142.44853 162.706308 
L 143.211347 167.882089 
L 143.974163 170.958304 
L 144.736979 171.536745 
L 145.499795 169.437145 
L 146.262611 164.725322 
L 147.025427 157.719049 
L 148.551059 139.222247 
L 150.076692 120.282574 
L 150.839508 112.913305 
L 151.602324 108.017574 
L 152.36514 106.170822 
L 153.127956 107.685085 
L 153.890772 112.567404 
L 154.653589 120.50561 
L 155.416405 130.884076 
L 158.467669 177.112417 
L 159.230485 184.334312 
L 159.993301 187.961179 
L 160.756118 187.507601 
L 161.518934 182.85477 
L 162.28175 174.27621 
L 163.044566 162.427039 
L 166.09583 105.230308 
L 166.858647 95.199108 
L 167.621463 89.258375 
L 168.384279 88.108664 
L 169.147095 92.02327 
L 169.909911 100.807668 
L 170.672727 113.80208 
L 172.19836 147.7785 
L 173.723992 182.125749 
L 174.486808 195.363945 
L 175.249624 204.117004 
L 176.01244 207.431903 
L 176.775256 204.838214 
L 177.538072 196.406697 
L 178.300889 182.75825 
L 179.826521 144.737788 
L 181.352153 103.945531 
L 182.114969 87.253606 
L 182.877785 75.291957 
L 183.640602 69.293852 
L 184.403418 69.96454 
L 185.166234 77.401984 
L 185.92905 91.073105 
L 186.691866 109.84914 
L 189.743131 199.043656 
L 190.505947 214.440885 
L 191.268763 223.52574 
L 192.031579 225.330655 
L 192.794395 219.548976 
L 193.557211 206.576278 
L 194.320027 187.486273 
L 195.84566 138.052013 
L 197.371292 88.716065 
L 198.134108 69.881306 
L 198.896924 57.487779 
L 199.65974 52.777827 
L 200.422556 56.296433 
L 201.185373 67.830418 
L 201.948189 86.418061 
L 203.473821 137.70913 
L 204.999453 192.037154 
L 205.762269 214.053152 
L 206.525085 229.744019 
L 207.287902 237.598755 
L 208.050718 236.819463 
L 208.813534 227.402362 
L 209.57635 210.145061 
L 210.339166 186.578793 
L 213.390431 76.403741 
L 214.153247 57.685558 
L 214.916063 46.683151 
L 215.678879 44.443636 
L 216.441695 51.207303 
L 217.204511 66.382139 
L 217.967327 88.596072 
L 219.49296 145.566044 
L 221.018592 201.695835 
L 221.781408 222.920139 
L 222.544224 236.818089 
L 223.30704 242.116364 
L 224.069856 238.336639 
L 224.832673 225.839214 
L 225.595489 205.788368 
L 227.121121 150.981674 
L 228.646753 93.671501 
L 229.409569 70.671916 
L 230.172386 54.369918 
L 230.935202 46.224095 
L 231.698018 46.933575 
L 232.460834 56.377686 
L 233.22365 73.632247 
L 233.986466 97.060513 
L 237.037731 204.858196 
L 237.800547 222.881472 
L 238.563363 233.434685 
L 239.326179 235.63219 
L 240.088995 229.365814 
L 240.851811 215.306263 
L 241.614627 194.83222 
L 243.14026 142.829213 
L 244.665892 92.248259 
L 245.428708 73.304639 
L 246.191524 60.960694 
L 246.95434 56.241097 
L 247.717157 59.455319 
L 248.479973 70.180399 
L 249.242789 87.311845 
L 250.768421 133.697955 
L 252.294053 181.583512 
L 253.056869 200.614548 
L 253.819686 214.029629 
L 254.582502 220.72034 
L 255.345318 220.216309 
L 256.108134 212.715371 
L 256.87095 199.051334 
L 257.633766 180.603641 
L 260.685031 97.059073 
L 261.447847 83.313308 
L 262.210663 75.295747 
L 262.973479 73.589665 
L 263.736295 78.186897 
L 264.499111 88.503799 
L 265.261928 103.449902 
L 268.313192 177.151867 
L 269.076008 190.544358 
L 269.838824 199.22855 
L 270.60164 202.55823 
L 271.364457 200.395035 
L 272.127273 193.105682 
L 272.890089 181.51277 
L 274.415721 150.417193 
L 275.941353 118.725566 
L 276.70417 106.252433 
L 277.466986 97.508167 
L 278.229802 93.155171 
L 278.992618 93.432875 
L 279.755434 98.150669 
L 280.51825 106.720624 
L 281.281066 118.225594 
L 284.332331 169.512902 
L 285.095147 177.816838 
L 285.857963 182.641773 
L 286.620779 183.690226 
L 287.383595 181.019941 
L 288.146411 175.024338 
L 288.909228 166.382924 
L 291.960492 124.439973 
L 292.723308 116.940341 
L 293.486124 112.100847 
L 294.248941 110.240063 
L 295.011757 111.391886 
L 295.774573 115.315205 
L 296.537389 121.528349 
L 298.063021 138.038773 
L 299.588653 154.65195 
L 300.35147 161.127368 
L 301.114286 165.642271 
L 301.877102 167.885762 
L 302.639918 167.768254 
L 303.402734 165.418691 
L 304.16555 161.161907 
L 304.928366 155.47916 
L 307.216815 135.903724 
L 307.979631 130.539909 
L 308.742447 126.566236 
L 309.505263 124.26606 
L 310.268079 123.755867 
L 311.030895 124.98368 
L 311.793712 127.742961 
L 312.556528 131.699899 
L 315.607792 150.606629 
L 316.370608 153.933291 
L 317.133424 156.06971 
L 317.896241 156.893557 
L 318.659057 156.408493 
L 319.421873 154.736399 
L 320.184689 152.099263 
L 321.710321 145.156084 
L 323.235954 138.257995 
L 323.99877 135.595147 
L 324.761586 133.748501 
L 325.524402 132.832452 
L 326.287218 132.869993 
L 327.050034 133.796425 
L 327.81285 135.470853 
L 329.338483 140.229583 
L 330.864115 145.25475 
L 331.626931 147.299756 
L 332.389747 148.806033 
L 333.152563 149.674747 
L 333.915379 149.871395 
L 334.678195 149.424559 
L 335.441012 148.418991 
L 336.203828 146.984045 
L 339.255092 140.233368 
L 340.017908 139.064473 
L 340.780725 138.317323 
L 341.543541 138.028315 
L 342.306357 138.189816 
L 343.069173 138.754071 
L 343.831989 139.640486 
L 347.64607 145.089091 
L 348.408886 145.687425 
L 349.171702 145.983774 
L 349.934518 145.975025 
L 350.697334 145.685843 
L 351.46015 145.164276 
L 352.985783 143.694862 
L 354.511415 142.162495 
L 355.274231 141.544905 
L 356.037047 141.092599 
L 356.799863 140.832666 
L 357.562679 140.772615 
L 358.325496 140.9013 
L 359.088312 141.191469 
L 360.613944 142.090334 
L 362.902392 143.512741 
L 364.428025 144.045093 
L 365.190841 144.125434 
L 366.716473 143.932188 
L 368.242105 143.403836 
L 370.530554 142.495244 
L 372.056186 142.11785 
L 373.581818 142.043249 
L 373.581818 142.043249 
" clip-path="url(#p74934aa1bd)" style="fill: none; stroke: #d62728; stroke-linecap: square"/>
   </g>
  </g>
 </g>
 <defs>
  <clipPath id="p74934aa1bd">
   <rect x="54" y="34.56" width="334.8" height="217.44"/>
  </clipPath>
 </defs>
</svg>
